<?xml version="1.0" standalone="no"?>
<!DOCTYPE svg PUBLIC "-//W3C//DTD SVG 1.1//EN" "http://www.w3.org/Graphics/SVG/1.1/DTD/svg11.dtd" >
<svg xmlns="http://www.w3.org/2000/svg" xmlns:xlink="http://www.w3.org/1999/xlink" version="1.1">
<metadata>
Created by FontForge 20170731 at Sat May 21 05:55:51 2022
 By Aleksey,,,
Copyright (c) 2021 by Ashish Kumar. All rights reserved.
</metadata>
<defs>
<font id="Braah-Regular" horiz-adv-x="0" >
  <font-face 
    font-family="Braah"
    font-weight="400"
    font-stretch="normal"
    units-per-em="1000"
    panose-1="0 0 0 0 0 0 0 0 0 0"
    ascent="800"
    descent="-200"
    x-height="511"
    cap-height="636"
    bbox="-561 -619 1419 1120"
    underline-thickness="50"
    underline-position="-150"
    unicode-range="U+000D-FB04"
  />
<missing-glyph horiz-adv-x="684" 
d="M80 0v651h524v-651h-524zM455 133v386h-226v-386h226z" />
    <glyph glyph-name="f_f" unicode="ff" horiz-adv-x="895" 
d="M845 501q-26 12 -48.5 16t-41.5 4q-95 0 -95 -86v-42h167v-127h-161v-266h-165v266h-63v126h63v52q0 53 15.5 92.5t44 65.5t68.5 38.5t89 12.5q42 0 85.5 -9t81.5 -27zM457 501q-26 12 -48.5 16t-41.5 4q-95 0 -95 -86v-43h116v-126h-110v-266h-165v266h-83v125h83v53
q0 53 15.5 92.5t44 65.5t68.5 38.5t89 12.5q42 0 85.5 -9t81.5 -27z" />
    <glyph glyph-name="fi" unicode="fi" horiz-adv-x="654" 
d="M30 392h83v48q0 113 72 168t197 55q107 0 164.5 -36.5t57.5 -97.5q0 -42 -25.5 -67.5t-69.5 -25.5q-46 0 -69 28t-23 73q-8 2 -16.5 3t-19.5 1q-27 0 -47 -9.5t-34 -24.5t-21 -34t-7 -38v-42h106v-127h-100v-266h-165v266h-83v126zM428 0v394h160v-394h-160z" />
    <glyph glyph-name="fl" unicode="fl" horiz-adv-x="740" 
d="M457 501q-26 12 -48.5 16t-41.5 4q-95 0 -95 -86v-42h177v-127h-171v-266h-165v266h-83v126h83v52q0 53 15.5 92.5t44 65.5t68.5 38.5t89 12.5q42 0 85.5 -9t81.5 -27zM529 636h161v-636h-161v636z" />
    <glyph glyph-name="f_f_i" unicode="ffi" horiz-adv-x="1032" 
d="M421 392h70v48q0 113 72 168t197 55q107 0 164.5 -36.5t57.5 -97.5q0 -42 -25.5 -67.5t-69.5 -25.5q-46 0 -69 28t-23 73q-8 2 -16.5 3t-19.5 1q-27 0 -47 -9.5t-34 -24.5t-21 -34t-7 -38v-42h106v-127h-100v-266h-165v266h-70v126zM113 392v48q0 56 16.5 97.5t45.5 69.5
t69 42t88 14q33 0 69.5 -7t72.5 -22l-31 -116q-18 6 -37.5 9.5t-37.5 3.5q-48 0 -72 -25t-24 -71v-42h100v-127h-94v-266h-165v266h-83v126h83zM806 0v394h160v-394h-160z" />
    <glyph glyph-name="f_f_l" unicode="ffl" horiz-adv-x="1128" 
d="M845 501q-26 12 -48.5 16t-41.5 4q-95 0 -95 -86v-42h177v-127h-171v-266h-165v266h-63v126h63v52q0 53 15.5 92.5t44 65.5t68.5 38.5t89 12.5q42 0 85.5 -9t81.5 -27zM457 501q-26 12 -48.5 16t-41.5 4q-95 0 -95 -86v-43h116v-126h-110v-266h-165v266h-83v125h83v53
q0 53 15.5 92.5t44 65.5t68.5 38.5t89 12.5q42 0 85.5 -9t81.5 -27zM917 636h161v-636h-161v636z" />
    <glyph glyph-name=".notdef" horiz-adv-x="684" 
d="M80 0v651h524v-651h-524zM455 133v386h-226v-386h226z" />
    <glyph glyph-name=".null" 
 />
    <glyph glyph-name=".null" 
 />
    <glyph glyph-name="uni000D" unicode="&#xd;" horiz-adv-x="223" 
 />
    <glyph glyph-name="space" unicode=" " horiz-adv-x="200" 
 />
    <glyph glyph-name="exclam" unicode="!" horiz-adv-x="298" 
d="M55 635h186l-29 -404h-135zM146 -8q-44 0 -70 26.5t-26 67.5q0 40 26 67t69 27q41 0 69 -26t28 -68q0 -40 -26 -67t-70 -27z" />
    <glyph glyph-name="quotedbl" unicode="&#x22;" horiz-adv-x="421" 
d="M30 660h159l-22 -256h-117zM232 660h159l-22 -256h-117z" />
    <glyph glyph-name="numbersign" unicode="#" horiz-adv-x="714" 
d="M121 129h-114l30 127h112l23 101h-109l30 127h107l30 132h152l-31 -132h89l30 132h149l-28 -132h115l-30 -127h-113l-22 -101h118l-25 -127h-122l-28 -129h-148l26 129h-91l-30 -129h-147zM390 256l22 101h-89l-23 -101h90z" />
    <glyph glyph-name="dollar" unicode="$" horiz-adv-x="588" 
d="M366 376q50 -18 84.5 -37t56 -40.5t31.5 -47.5t10 -59q0 -76 -47 -129t-135 -67v-81h-132v81q-63 8 -112.5 27.5t-81.5 47.5l55 123q18 -14 40.5 -24.5t47.5 -18t50.5 -11.5t48.5 -4q13 0 28 1.5t27.5 6.5t21 14.5t8.5 25.5q0 14 -6.5 23.5t-15.5 16t-20 11.5t-20 8
l-84 31q-39 14 -70.5 31t-54 39t-35 50.5t-12.5 64.5q0 72 47.5 117.5t137.5 58.5v85h132v-83q57 -7 100.5 -24.5t72.5 -42.5l-51 -116q-18 10 -40.5 18t-46.5 13.5t-48 8.5t-45 3q-10 0 -23.5 -1t-26 -5t-21 -12t-8.5 -21q0 -11 6.5 -20t16 -15.5t20 -11t18.5 -7.5z" />
    <glyph glyph-name="percent" unicode="%" horiz-adv-x="878" 
d="M242 -6l244 691l147 -55l-244 -691zM29 481q0 74 42.5 117.5t122.5 43.5q82 0 124.5 -43.5t42.5 -119.5t-41.5 -117t-120.5 -41t-124.5 41t-45.5 119zM199 411q28 0 44.5 18t16.5 52q0 35 -17.5 53t-46.5 18t-47 -19t-18 -50q0 -35 19.5 -53.5t48.5 -18.5zM511 148
q0 77 44 121.5t123 44.5q81 0 125 -44.5t44 -123.5t-43 -121t-121 -42t-125 42t-47 123zM682 81q26 0 43 16.5t17 49.5q0 35 -17.5 52t-44.5 17q-29 0 -46.5 -18t-17.5 -49q0 -35 19.5 -51.5t46.5 -16.5z" />
    <glyph glyph-name="ampersand" unicode="&#x26;" horiz-adv-x="688" 
d="M472 314q8 25 11.5 61.5t3.5 71.5h141q1 -3 1 -8.5v-10.5v-13q0 -52 -7.5 -104t-24.5 -93l131 -95l-82 -113l-115 83q-30 -41 -88.5 -70t-138.5 -29q-58 0 -107 17t-83.5 47t-54 71.5t-19.5 89.5q0 36 10 64t27.5 49.5t39.5 36.5t46 24q-59 57 -59 127q0 32 12.5 60.5
t37 51t61 35.5t83.5 13q33 0 60.5 -6t52.5 -12.5t48.5 -12.5t47.5 -6q28 0 51 11l30 -99q-17 -14 -40.5 -21t-48.5 -7q-23 0 -45 5t-43.5 11.5t-42.5 11.5t-43 5q-35 0 -50.5 -14t-15.5 -37q0 -22 16.5 -45.5t60.5 -54.5zM254 291q-17 -8 -31 -28.5t-14 -46.5q0 -20 8.5 -36
t23.5 -27t34 -17t40 -6q36 0 61 15.5t36 35.5z" />
    <glyph glyph-name="quotesingle" unicode="'" horiz-adv-x="219" 
d="M30 660h159l-22 -256h-117z" />
    <glyph glyph-name="parenleft" unicode="(" horiz-adv-x="318" 
d="M204 -133q-48 33 -81 86t-53.5 113.5t-30 123.5t-9.5 116t9.5 116t30 124t53.5 113.5t81 85.5l94 -84q-28 -36 -48 -74.5t-33 -81.5t-19 -92t-6 -107t6 -107t19 -92t33 -81.5t48 -74.5z" />
    <glyph glyph-name="parenright" unicode=")" horiz-adv-x="318" 
d="M20 -89q28 36 48 74.5t33 81.5t19 92t6 107t-6 107t-19 92t-33 81.5t-48 74.5l94 84q48 -33 81 -85.5t53.5 -113.5t30 -124t9.5 -116q0 -55 -9.5 -118.5t-30.5 -124t-54 -112.5t-80 -84z" />
    <glyph glyph-name="asterisk" unicode="*" horiz-adv-x="402" 
d="M54 604l95 -47l-13 103h129l-14 -104l97 48l44 -121l-97 -22l66 -84l-109 -67l-49 104l-50 -104l-109 67l64 84l-98 22z" />
    <glyph glyph-name="plus" unicode="+" horiz-adv-x="539" 
d="M197 222h-167v134h167v168h154v-168h158v-134h-158v-172h-154v172z" />
    <glyph glyph-name="comma" unicode="," horiz-adv-x="257" 
d="M20 -76l6 5q19 16 38 35.5t30 46.5q-28 9 -46 31.5t-18 61.5q0 48 28 72.5t74 24.5q57 0 81 -34t24 -89q0 -32 -7.5 -65t-24 -64.5t-42.5 -59.5t-62 -49z" />
    <glyph glyph-name="hyphen" unicode="-" horiz-adv-x="376" 
d="M30 353h316v-140h-316v140z" />
    <glyph glyph-name="period" unicode="." horiz-adv-x="251" 
d="M125 -11q-43 0 -69 26.5t-26 65.5q0 40 26 67t69 27t69.5 -27t26.5 -67q0 -39 -26.5 -65.5t-69.5 -26.5z" />
    <glyph glyph-name="slash" unicode="/" horiz-adv-x="344" 
d="M208 727l146 -39l-217 -793l-147 42z" />
    <glyph glyph-name="zero" unicode="0" horiz-adv-x="656" 
d="M328 -14q-70 0 -124 22.5t-90.5 65t-55 103.5t-18.5 138t18.5 138.5t55 104.5t90.5 65.5t124 22.5t123.5 -22.5t90 -65.5t55.5 -104.5t19 -138.5q0 -155 -74 -242t-214 -87zM328 118q31 0 53 14.5t36.5 40.5t21 62t6.5 80t-6.5 79.5t-21 61t-36.5 39.5t-53 14
q-61 0 -89 -53t-28 -141t28 -142.5t89 -54.5z" />
    <glyph glyph-name="one" unicode="1" horiz-adv-x="392" 
d="M183 0v461l-105 -57l-68 136l203 95h139v-635h-169z" />
    <glyph glyph-name="two" unicode="2" horiz-adv-x="540" 
d="M32 103l146 123q40 33 64.5 59t38 47.5t18.5 39.5t5 35q0 51 -29.5 75t-84.5 24q-35 0 -65.5 -9t-57.5 -26l-47 123q43 27 98 39t108 12q69 0 118.5 -18t80.5 -48t45.5 -70t14.5 -84q0 -53 -23.5 -103t-83.5 -101l-103 -88v-4h215v-129h-458v103z" />
    <glyph glyph-name="three" unicode="3" horiz-adv-x="574" 
d="M82 165q13 -10 32.5 -18.5t41.5 -14.5t46 -9t46 -3q58 0 82 20t24 50q0 29 -22 48.5t-70 19.5h-134v124h134q22 0 37 6t24 15t12.5 20.5t3.5 23.5q0 32 -25 45.5t-73 13.5q-39 0 -81 -8t-67 -23l-44 119q19 12 44 21t53 16t58.5 10.5t60.5 3.5q56 0 102 -12.5t79 -35.5
t51.5 -56.5t18.5 -74.5q0 -45 -21 -83.5t-56 -55.5q52 -25 73.5 -64t21.5 -83q0 -45 -20 -81t-57 -61.5t-88.5 -39t-114.5 -13.5q-65 0 -127 16t-107 53z" />
    <glyph glyph-name="four" unicode="4" horiz-adv-x="590" 
d="M20 227l275 408h181v-401h84v-125h-84v-109h-160v109h-253zM316 234v210h-4l-133 -210h137z" />
    <glyph glyph-name="five" unicode="5" horiz-adv-x="567" 
d="M112 176q28 -26 62.5 -41t82.5 -15q110 0 110 80q0 39 -27 60.5t-76 21.5q-25 0 -49.5 -6t-44.5 -17l-96 75v301h416v-125h-271v-109q19 5 43.5 9t54.5 4q56 0 97.5 -15t68.5 -41.5t40.5 -64t13.5 -82.5q0 -49 -15.5 -90.5t-48 -71.5t-82 -47t-117.5 -17
q-87 0 -145.5 24.5t-88.5 54.5z" />
    <glyph glyph-name="six" unicode="6" horiz-adv-x="570" 
d="M303 -15q-130 0 -196.5 77.5t-66.5 240.5q0 169 68.5 256t198.5 87q62 0 114.5 -16.5t82.5 -34.5l-38 -113q-27 12 -56.5 20.5t-65.5 8.5q-66 0 -100.5 -34t-34.5 -109q20 15 54 26t78 11q91 0 140 -53t49 -151q0 -45 -11.5 -84.5t-38.5 -69t-70.5 -46t-106.5 -16.5z
M217 210q0 -49 22 -69.5t53 -20.5q35 0 51.5 21.5t16.5 56.5q0 36 -17.5 56.5t-49.5 20.5q-20 0 -41.5 -8t-34.5 -22v-35z" />
    <glyph glyph-name="seven" unicode="7" horiz-adv-x="502" 
d="M316 506h-296v129h452v-134l-218 -501h-171z" />
    <glyph glyph-name="eight" unicode="8" horiz-adv-x="592" 
d="M40 177q0 57 25.5 93.5t65.5 56.5q-27 20 -47 53t-20 81q0 41 16 74.5t46 58t73 38t97 13.5t96.5 -13.5t71.5 -38.5t44.5 -59t15.5 -75q0 -47 -19 -79.5t-51 -52.5q46 -18 72 -56t26 -92q0 -43 -17.5 -79t-50.5 -61.5t-81.5 -39.5t-110.5 -14q-63 0 -110 14.5t-78.5 40
t-47.5 60.5t-16 77zM288 381q35 8 51 29t16 48t-15.5 43.5t-45.5 16.5t-45.5 -16.5t-15.5 -42.5q0 -29 16.5 -48.5t38.5 -29.5zM296 115q39 0 61 19.5t22 48.5q0 31 -22.5 52t-52.5 32q-44 -10 -67.5 -32t-23.5 -52q0 -29 21.5 -48.5t61.5 -19.5z" />
    <glyph glyph-name="nine" unicode="9" horiz-adv-x="575" 
d="M126 158q22 -16 50 -27.5t66 -11.5q65 0 94.5 38t29.5 105q-17 -17 -47.5 -27t-73.5 -10q-97 0 -151 53t-54 150q0 46 13 85.5t41.5 69t73 46t106.5 16.5q129 0 195 -76t66 -234q0 -83 -18.5 -148.5t-54.5 -110.5t-89 -68.5t-122 -23.5q-66 0 -111.5 18.5t-75.5 39.5z
M358 420q0 49 -22 69.5t-53 20.5q-35 0 -54 -21.5t-19 -56.5q0 -36 20.5 -56.5t57.5 -20.5q43 0 70 30v35z" />
    <glyph glyph-name="colon" unicode=":" horiz-adv-x="252" 
d="M126 331q-44 0 -70 26.5t-26 67.5q0 40 26 67t69 27q41 0 69 -26t28 -68q0 -40 -26 -67t-70 -27zM126 -10q-44 0 -70 26.5t-26 67.5q0 40 26 67t69 27q41 0 69 -26t28 -68q0 -40 -26 -67t-70 -27z" />
    <glyph glyph-name="semicolon" unicode=";" horiz-adv-x="261" 
d="M136 331q-44 0 -69.5 26.5t-25.5 67.5q0 40 25.5 67t68.5 27q42 0 70 -26t28 -68q0 -40 -26 -67t-71 -27zM21 -76l5 5q19 16 38 37.5t30 48.5q-28 10 -46 31.5t-18 57.5q0 45 27 70t69 25q27 0 46.5 -10t32.5 -27.5t19.5 -40t6.5 -47.5q0 -61 -36 -120.5t-108 -103.5z
" />
    <glyph glyph-name="less" unicode="&#x3c;" horiz-adv-x="455" 
d="M30 376l341 205l64 -131l-265 -132l265 -132l-64 -131l-341 205v116z" />
    <glyph glyph-name="equal" unicode="=" horiz-adv-x="539" 
d="M30 478h479v-130h-479v130zM30 242h479v-130h-479v130z" />
    <glyph glyph-name="greater" unicode="&#x3e;" horiz-adv-x="455" 
d="M20 186l265 132l-265 132l64 131l341 -205v-116l-341 -205z" />
    <glyph glyph-name="question" unicode="?" horiz-adv-x="510" 
d="M131 193q0 54 18 98t70 78l41 27q50 33 50 66q0 23 -22.5 37.5t-60.5 14.5q-34 0 -75.5 -12.5t-80.5 -37.5l-51 106q18 15 43.5 29t57 24t67.5 16t74 6q105 0 161.5 -44t56.5 -118q0 -29 -9 -54t-24 -46t-34.5 -39t-40.5 -34l-60 -45q-40 -31 -40 -74v-39h-141v41z
M207 -91q-43 0 -69 26.5t-26 65.5q0 40 26 67t69 27t69.5 -27t26.5 -67q0 -39 -26.5 -65.5t-69.5 -26.5z" />
    <glyph glyph-name="at" unicode="@" horiz-adv-x="1037" 
d="M751 128q0 -14 10.5 -19t20.5 -5q20 0 33 14t20 34.5t9.5 44.5t2.5 45q0 71 -23.5 125t-66 91t-103.5 56t-136 19t-135.5 -19.5t-103 -57.5t-65.5 -94.5t-23 -131.5q0 -66 19 -124t58.5 -101t101.5 -68t147 -25q43 0 74 5.5t47 10.5l20 -124q-26 -13 -64.5 -18t-80.5 -5
q-97 0 -184.5 25t-154 78.5t-105.5 136.5t-39 199q0 108 35 190.5t99.5 139t154.5 85t200 28.5q108 0 198 -27.5t154.5 -80t100 -129t35.5 -173.5q0 -58 -13.5 -109t-41.5 -88.5t-71.5 -59t-102.5 -21.5q-17 0 -36 2t-38.5 8t-37.5 17t-33 27q-23 -14 -48.5 -21.5
t-61.5 -7.5q-49 0 -91 14t-73.5 41.5t-49.5 69t-18 96.5q0 54 17.5 95t48 68t73 41t92.5 14q48 0 89.5 -12t72.5 -35t49 -56t18 -75v-133zM528 128q11 0 22 3t20 10.5t15 20.5t6 33v44q0 29 -18 49.5t-47 20.5t-47 -23t-18 -68q0 -38 15.5 -64t51.5 -26z" />
    <glyph glyph-name="A" unicode="A" horiz-adv-x="706" 
d="M260 637h203l203 -637h-183l-38 126h-180l-38 -126h-187zM417 266l-53 183h-4l-57 -183h114z" />
    <glyph glyph-name="B" unicode="B" horiz-adv-x="602" 
d="M50 601q47 20 108 29.5t119 9.5q133 0 199 -46.5t66 -124.5q0 -48 -24.5 -87t-69.5 -54q52 -14 83 -52.5t31 -104.5q0 -40 -13.5 -71.5t-44 -53.5t-80 -34t-120.5 -12h-254v601zM303 382q30 0 48.5 19t18.5 46q0 12 -4.5 23.5t-15 21t-28 15t-44.5 5.5q-14 0 -30 -1.5
t-30 -5.5v-123h85zM315 128q33 0 52 17t19 47q0 27 -17 44.5t-53 17.5h-98v-126h97z" />
    <glyph glyph-name="C" unicode="C" horiz-adv-x="633" 
d="M593 74q-18 -14 -40.5 -28t-51 -25t-63.5 -18t-78 -7q-71 0 -130 20.5t-101 61.5t-65.5 102.5t-23.5 142.5q0 73 19.5 131.5t58.5 100t97 63.5t135 22q54 0 107.5 -12t99.5 -39l-45 -126q-24 15 -60 23.5t-69 8.5q-78 0 -120.5 -47t-42.5 -128q0 -88 48 -133.5t126 -45.5
q43 0 81 12.5t66 32.5z" />
    <glyph glyph-name="D" unicode="D" horiz-adv-x="666" 
d="M50 601q47 20 108 29.5t119 9.5q172 0 260.5 -82.5t88.5 -240.5q0 -84 -24.5 -144t-69 -98.5t-106.5 -56.5t-136 -18h-240v601zM281 130q76 0 119.5 45.5t43.5 141.5q0 92 -42 138.5t-122 46.5q-14 0 -29 -1.5t-29 -5.5v-365h59z" />
    <glyph glyph-name="E" unicode="E" horiz-adv-x="554" 
d="M50 636h458v-130h-288v-118h249v-130h-249v-128h294v-130h-464v636z" />
    <glyph glyph-name="F" unicode="F" horiz-adv-x="537" 
d="M50 636h447v-129h-277v-157h247v-129h-247v-221h-170v636z" />
    <glyph glyph-name="G" unicode="G" horiz-adv-x="675" 
d="M347 374h278v-282q-37 -45 -106 -72t-155 -27q-71 0 -130.5 20.5t-102.5 61.5t-67 102t-24 143q0 73 20 132t60 100.5t99.5 64t138.5 22.5q83 0 143.5 -22t100.5 -53l-51 -116q-32 20 -75.5 33.5t-88.5 13.5q-81 0 -124 -48t-43 -129q0 -47 14 -81t37.5 -55.5t54.5 -32
t64 -10.5q23 0 40 3.5t25 7.5v96h-108v128z" />
    <glyph glyph-name="H" unicode="H" horiz-adv-x="637" 
d="M50 636h170v-253h197v253h170v-636h-170v248h-197v-248h-170v636z" />
    <glyph glyph-name="I" unicode="I" horiz-adv-x="270" 
d="M50 636h170v-636h-170v636z" />
    <glyph glyph-name="J" unicode="J" horiz-adv-x="457" 
d="M87 166q16 -14 37.5 -22.5t44.5 -8.5q39 0 53.5 24.5t14.5 62.5v414h170v-444q0 -45 -12.5 -82.5t-37.5 -64.5t-62.5 -41.5t-87.5 -14.5t-94 14t-73 40z" />
    <glyph glyph-name="K" unicode="K" horiz-adv-x="594" 
d="M50 636h170v-253l215 259l123 -103l-201 -230l207 -208l-118 -114l-226 251v-238h-170v636z" />
    <glyph glyph-name="L" unicode="L" horiz-adv-x="493" 
d="M50 636h170v-496h243v-140h-413v636z" />
    <glyph glyph-name="M" unicode="M" horiz-adv-x="864" 
d="M100 636h200l131 -355l3 -12l2 12l138 355h200l50 -636h-180l-20 385l-3 17h-2l-5 -17l-120 -325h-120l-121 325l-4 17h-3l-3 -17l-23 -385h-180z" />
    <glyph glyph-name="N" unicode="N" horiz-adv-x="670" 
d="M50 636h189l211 -392v392h170v-636h-194l-206 377v-377h-170v636z" />
    <glyph glyph-name="O" unicode="O" horiz-adv-x="718" 
d="M40 317q0 75 22.5 135t64 101.5t101.5 64t135 22.5t133.5 -22.5t99 -64t61.5 -101.5t21 -135t-21 -134.5t-61.5 -101t-99 -63.5t-133.5 -22t-135 22t-101.5 63.5t-64 101t-22.5 134.5zM363 140q68 0 103.5 44t35.5 132t-35.5 134t-103.5 46q-69 0 -108 -46t-39 -134
t39 -132t108 -44z" />
    <glyph glyph-name="P" unicode="P" horiz-adv-x="617" 
d="M50 565q18 14 45.5 27.5t61 24t72.5 17t80 6.5q124 0 196 -61.5t72 -176.5q0 -60 -20 -105t-53.5 -75t-78.5 -44.5t-96 -14.5q-37 0 -63 7t-46 18v-188h-170v565zM220 390q0 -47 29 -68.5t66 -21.5q41 0 66.5 25.5t25.5 78.5q0 49 -25.5 76.5t-82.5 27.5q-46 0 -79 -18
v-100z" />
    <glyph glyph-name="Q" unicode="Q" horiz-adv-x="769" 
d="M739 -10l-94 -154l-253 161q-4 -1 -8 -1h-7h-6q-73 0 -133.5 20t-104.5 60.5t-68.5 100.5t-24.5 139q0 75 22.5 135t64 102t101.5 64.5t135 22.5t133.5 -22.5t99 -64.5t61.5 -102t21 -135q0 -88 -27 -149.5t-73 -99.5zM363 140q68 0 103.5 44t35.5 132t-35.5 134
t-103.5 46q-69 0 -108 -46t-39 -134t39 -132t108 -44z" />
    <glyph glyph-name="R" unicode="R" horiz-adv-x="626" 
d="M50 576q18 12 45.5 23.5t61.5 20.5t72.5 14.5t77.5 5.5q128 0 199 -58.5t71 -163.5q0 -79 -39.5 -132t-106.5 -78l165 -133l-115 -124l-261 260v-211h-170v576zM220 410q0 -48 27.5 -73t67.5 -25q44 0 68 27.5t24 71.5t-25.5 70.5t-78.5 26.5q-24 0 -46 -5.5t-37 -14.5
v-78z" />
    <glyph glyph-name="S" unicode="S" horiz-adv-x="588" 
d="M95 194q15 -12 37 -22.5t47 -18.5t52 -12.5t52 -4.5q48 0 66 15t18 35t-14.5 32t-46.5 24l-84 31q-39 14 -71 31t-54.5 39t-35 50.5t-12.5 64.5q0 85 66 133.5t190 48.5q80 0 138.5 -19.5t95.5 -51.5l-51 -117q-16 9 -38 17t-46 13.5t-49 9t-47 3.5q-42 0 -60 -11
t-18 -29q0 -15 14 -28t47 -24l73 -27q50 -18 85 -37t57 -41t32 -48t10 -59q0 -43 -16.5 -80t-48.5 -63.5t-79 -41.5t-108 -15q-78 0 -146 22.5t-110 57.5z" />
    <glyph glyph-name="T" unicode="T" horiz-adv-x="560" 
d="M195 503h-165v133h500v-133h-165v-503h-170v503z" />
    <glyph glyph-name="U" unicode="U" horiz-adv-x="630" 
d="M50 636h170v-399q0 -51 25 -76.5t72 -25.5q93 0 93 102v399h170v-402q0 -117 -65.5 -178.5t-199.5 -61.5t-199.5 61.5t-65.5 178.5v402z" />
    <glyph glyph-name="V" unicode="V" horiz-adv-x="694" 
d="M35 636h183l134 -454l122 454h185l-201 -636h-208z" />
    <glyph glyph-name="W" unicode="W" horiz-adv-x="974" 
d="M30 636h185l78 -415l2 -21h6l2 21l116 405h140l115 -405l4 -21h4l2 21l75 415h185l-150 -636h-205l-98 355l-3 22l-2 -22l-101 -355h-205z" />
    <glyph glyph-name="X" unicode="X" horiz-adv-x="746" 
d="M267 314l-228 322h206l133 -195l130 195h200l-223 -319l231 -317h-214l-130 193l-133 -193h-209z" />
    <glyph glyph-name="Y" unicode="Y" horiz-adv-x="721" 
d="M279 239l-249 397h199l134 -236h6l125 236h197l-221 -391v-245h-191v239z" />
    <glyph glyph-name="Z" unicode="Z" horiz-adv-x="629" 
d="M50 124l306 379h-294v133h515v-118l-313 -383h315v-135h-529v124z" />
    <glyph glyph-name="bracketleft" unicode="[" horiz-adv-x="316" 
d="M304 -25v-126h-254v814h254v-126h-104v-562h104z" />
    <glyph glyph-name="backslash" unicode="\" horiz-adv-x="360" 
d="M-2 708l146 39l218 -790l-147 -42z" />
    <glyph glyph-name="bracketright" unicode="]" horiz-adv-x="334" 
d="M30 -25h104v562h-104v126h254v-814h-254v126z" />
    <glyph glyph-name="asciicircum" unicode="^" horiz-adv-x="538" 
d="M20 386l182 280h134l182 -280l-131 -64l-118 204l-118 -204z" />
    <glyph glyph-name="underscore" unicode="_" horiz-adv-x="590" 
d="M40 -39h510v-140h-510v140z" />
    <glyph glyph-name="grave" unicode="`" horiz-adv-x="326" 
d="M81 786l240 -150l-60 -100l-251 127z" />
    <glyph glyph-name="a" unicode="a" horiz-adv-x="561" 
d="M354 24q-47 -29 -117 -29q-94 0 -145.5 48.5t-51.5 127.5q0 72 43.5 111.5t128.5 39.5h123v16q0 29 -26 43.5t-74 14.5q-37 0 -68.5 -8.5t-60.5 -25.5l-39 116q38 21 84.5 30.5t94.5 9.5q116 0 182 -49t66 -133v-228l47 -57l-124 -103zM336 221h-74q-31 0 -46.5 -13
t-15.5 -36q0 -25 17.5 -39t44.5 -14q19 0 33 7t23 17.5t13.5 23.5t4.5 26v28z" />
    <glyph glyph-name="b" unicode="b" horiz-adv-x="620" 
d="M75 119v531h159v-175q17 6 49.5 11t66.5 5q112 0 171 -64t59 -179q0 -121 -64 -187.5t-175 -66.5q-42 0 -72 9t-54 25l-61 -84l-134 101zM235 218q0 -49 23.5 -69.5t56.5 -20.5q40 0 70.5 29t30.5 91q0 58 -28 84.5t-73 26.5q-20 0 -41.5 -4t-38.5 -12v-125z" />
    <glyph glyph-name="c" unicode="c" horiz-adv-x="538" 
d="M498 60q-30 -24 -75 -44t-113 -20q-60 0 -109.5 18t-85 53t-55.5 86t-20 116q0 118 65.5 187t191.5 69q48 0 92.5 -10.5t82.5 -32.5l-39 -113q-40 24 -96 24q-65 0 -98 -32t-33 -92q0 -68 39 -104.5t103 -36.5q29 0 57.5 8t48.5 23z" />
    <glyph glyph-name="d" unicode="d" horiz-adv-x="627" 
d="M414 27q-50 -32 -125 -32q-55 0 -100.5 17t-78.5 49t-51.5 79t-18.5 107q0 58 17 104t48 78t74.5 49t95.5 17q16 0 34 -1.5t34.5 -4t30 -6t22.5 -6.5v173h159v-530l52 -75l-132 -96zM395 347q-17 8 -40 12t-43 4q-47 0 -76.5 -27.5t-29.5 -86.5q0 -33 9.5 -55.5t24.5 -37
t34 -21t38 -6.5q33 0 58 20.5t25 68.5v129z" />
    <glyph glyph-name="e" unicode="e" horiz-adv-x="558" 
d="M499 49q-26 -21 -74.5 -38t-111.5 -17q-60 0 -110 18t-86.5 53t-56.5 85.5t-20 115.5q0 60 17.5 107t50 79.5t78.5 49t103 16.5q60 0 103.5 -17.5t71 -48.5t41 -71.5t13.5 -87.5q0 -23 -2.5 -46t-7.5 -46h-311q3 -25 14 -42t28.5 -27t40 -14t46.5 -4q41 0 75 9t55 26z
M378 302q0 40 -22.5 67.5t-67.5 27.5q-43 0 -67 -26t-24 -69h181z" />
    <glyph glyph-name="f" unicode="f" horiz-adv-x="536" 
d="M123 266h-83v126h83v58q0 52 16.5 90t45.5 63t68.5 37.5t86.5 12.5q40 0 89 -9.5t87 -31.5l-37 -117q-21 13 -49 19.5t-55 6.5q-45 0 -69 -19t-24 -57v-52h166v-127h-160v-266h-165v266z" />
    <glyph glyph-name="g" unicode="g" horiz-adv-x="590" 
d="M92 3q40 -28 83.5 -44t91.5 -16q57 0 84 21.5t27 54.5v42q-20 -9 -45.5 -13.5t-52.5 -4.5q-45 0 -88.5 13t-77 41.5t-54 73.5t-20.5 109q0 59 18 103.5t50.5 74.5t78.5 45t103 15q33 0 69.5 -5t71 -14.5t63.5 -23.5t46 -31v-423q0 -53 -21 -92.5t-58 -66t-85.5 -40
t-104.5 -13.5q-80 0 -137.5 23.5t-93.5 53.5zM305 175q32 0 53.5 20.5t21.5 68.5v109q-12 5 -33 9t-40 4q-48 0 -74.5 -28t-26.5 -77q0 -29 8.5 -49t23 -33t32 -18.5t35.5 -5.5z" />
    <glyph glyph-name="h" unicode="h" horiz-adv-x="578" 
d="M50 650h159v-167q9 4 22.5 7t29 5.5t32 4t30.5 1.5q43 0 79 -13.5t61.5 -39.5t39.5 -63.5t14 -85.5v-197l41 -46l-121 -105l-79 81v252q0 41 -22 63t-64 22q-18 0 -34 -4t-28 -11v-354h-160v650z" />
    <glyph glyph-name="i" unicode="i" horiz-adv-x="282" 
d="M141 542q-41 0 -66 26t-25 63t25 62.5t66 25.5t66 -25.5t25 -62.5t-25 -63t-66 -26zM61 482h160v-482h-160v482z" />
    <glyph glyph-name="j" unicode="j" horiz-adv-x="363" 
d="M222 548q-41 0 -66 26t-25 63t25 62.5t66 25.5t66 -25.5t25 -62.5t-25 -63t-66 -26zM50 -64q43 10 68 35.5t25 73.5v437h160v-453q0 -47 -14 -86.5t-40.5 -68.5t-65 -45.5t-86.5 -16.5z" />
    <glyph glyph-name="k" unicode="k" horiz-adv-x="537" 
d="M50 650h160v-323l174 208l109 -93l-159 -182l173 -175l-107 -101l-190 210v-194h-160v650z" />
    <glyph glyph-name="l" unicode="l" horiz-adv-x="260" 
d="M50 650h160v-650h-160v650z" />
    <glyph glyph-name="m" unicode="m" horiz-adv-x="891" 
d="M50 431q19 19 45 34.5t56 27t62 17.5t63 6q56 0 99 -18.5t68 -47.5q26 27 70 46.5t102 19.5q46 0 85 -14t67 -42t43.5 -68t15.5 -93v-212l45 -51l-124 -105l-81 81v268q0 39 -22 62t-64 23q-18 0 -34 -4t-28 -11v-350h-160v284q0 41 -22 63t-64 22q-18 0 -34 -4t-28 -11
v-354h-160v431z" />
    <glyph glyph-name="n" unicode="n" horiz-adv-x="583" 
d="M210 0h-160v431q38 38 103 61.5t143 23.5q112 0 167 -50.5t55 -136.5v-242l45 -51l-124 -105l-81 81v272q0 41 -22 63t-64 22q-18 0 -34 -4t-28 -11v-354z" />
    <glyph glyph-name="o" unicode="o" horiz-adv-x="617" 
d="M310 -9q-62 0 -112 19t-85 54.5t-54 85.5t-19 112t19 110.5t53.5 81.5t84.5 50.5t111 17.5q62 0 111.5 -17.5t84.5 -50.5t54 -82t19 -112q0 -61 -18.5 -111t-53 -85t-84 -54t-111.5 -19zM310 125q50 0 76.5 36.5t26.5 98.5q0 65 -28.5 97.5t-76.5 32.5t-76.5 -32.5
t-28.5 -96.5q0 -63 28.5 -99.5t78.5 -36.5z" />
    <glyph glyph-name="p" unicode="p" horiz-adv-x="602" 
d="M50 444q17 17 46 31t63.5 23.5t72 14.5t71.5 5q65 0 114 -18.5t81 -53t48 -82.5t16 -107q0 -67 -19.5 -116.5t-53.5 -82t-79 -48.5t-96 -16q-60 0 -104 19v-197h-160v628zM210 218q0 -24 7.5 -40.5t20.5 -27t29 -15t32 -4.5q45 0 71 32t26 90q0 67 -32.5 100.5
t-79.5 33.5q-18 0 -37.5 -4t-36.5 -12v-153z" />
    <glyph glyph-name="q" unicode="q" horiz-adv-x="607" 
d="M397 13q-44 -19 -104 -19q-51 0 -97 16.5t-80.5 50t-55 83.5t-20.5 117q0 59 17 106.5t50 81t82.5 51.5t114.5 18q34 0 71.5 -5t72 -14.5t63.5 -23.5t46 -31v-628h-160v197zM397 371q-17 8 -36.5 12t-37.5 4q-23 0 -44.5 -7.5t-37.5 -23.5t-25.5 -39.5t-9.5 -55.5
q0 -61 31 -93.5t76 -32.5q16 0 31 4.5t27 15t19 27t7 40.5v149z" />
    <glyph glyph-name="r" unicode="r" horiz-adv-x="419" 
d="M50 424q35 40 86 67t119 27q82 0 144 -42l-42 -115q-15 10 -35.5 15t-37.5 5q-21 0 -38.5 -5.5t-25.5 -12.5v-363h-170v424z" />
    <glyph glyph-name="s" unicode="s" horiz-adv-x="506" 
d="M81 163q12 -9 30.5 -18.5t40.5 -17t46 -12.5t48 -5q36 0 53 11t17 30q0 17 -13 24.5t-39 12.5l-48 8q-85 14 -131 53.5t-46 106.5q0 32 11.5 61t36.5 51t64.5 34.5t94.5 12.5q72 0 128.5 -18.5t84.5 -38.5l-41 -107q-12 8 -30.5 15t-39.5 12t-43.5 8t-42.5 3
q-33 0 -48 -8t-15 -23t12 -24t27 -12l61 -10q50 -8 84 -22t54.5 -33.5t29.5 -44t9 -54.5q0 -35 -11.5 -67.5t-37 -57t-65 -39t-96.5 -14.5q-38 0 -73.5 6.5t-66 17t-55 24.5t-41.5 28z" />
    <glyph glyph-name="t" unicode="t" horiz-adv-x="454" 
d="M113 376h-83v119h87v141h160v-141h136v-120h-135v-186q0 -38 18 -52t45 -14q15 0 35 3.5t31 10.5l27 -118q-25 -14 -57.5 -20t-64.5 -6q-44 0 -80.5 10.5t-63 33.5t-41 59t-14.5 88v192z" />
    <glyph glyph-name="u" unicode="u" horiz-adv-x="620" 
d="M50 512h160v-287q0 -45 23.5 -68.5t64.5 -23.5t64 23.5t23 68.5v287h160v-387l55 -64l-135 -107l-62 78q-23 -15 -53.5 -23.5t-75.5 -8.5q-113 0 -168.5 55t-55.5 161v296z" />
    <glyph glyph-name="v" unicode="v" horiz-adv-x="546" 
d="M10 511h165l105 -366l95 366h161l-160 -511h-193z" />
    <glyph glyph-name="w" unicode="w" horiz-adv-x="852" 
d="M251 171l95 331h160l95 -331l61 341h160l-108 -512h-199l-87 308l-2 10l-2 -10l-87 -308h-199l-108 512h160z" />
    <glyph glyph-name="x" unicode="x" horiz-adv-x="632" 
d="M223 255l-194 257h178l112 -152l110 152h181l-188 -254l190 -258h-185l-106 150l-111 -150h-190z" />
    <glyph glyph-name="y" unicode="y" horiz-adv-x="634" 
d="M173 -178l98 250q-23 20 -52 55.5t-53 85.5l-146 299h170l138 -296l116 296h170l-276 -690h-165z" />
    <glyph glyph-name="z" unicode="z" horiz-adv-x="524" 
d="M40 107l243 280h-239v125h429v-107l-238 -280h249v-125h-444v107z" />
    <glyph glyph-name="braceleft" unicode="{" horiz-adv-x="327" 
d="M95 95q0 45 -16.5 73.5t-58.5 30.5v114q42 2 58.5 30.5t16.5 73.5v105q0 35 12.5 61.5t32.5 44t45.5 26.5t52.5 9h69v-116q-29 0 -45.5 -15t-16.5 -49v-102q0 -42 -19.5 -73.5t-54.5 -51.5q35 -20 54.5 -51.5t19.5 -73.5v-102q0 -34 16.5 -49t45.5 -15v-116h-69
q-27 0 -52.5 9t-45.5 26.5t-32.5 44t-12.5 61.5v105z" />
    <glyph glyph-name="bar" unicode="|" horiz-adv-x="280" 
d="M60 -140v818h160v-818h-160z" />
    <glyph glyph-name="braceright" unicode="}" horiz-adv-x="327" 
d="M20 -35q29 0 45.5 15t16.5 49v102q0 42 19.5 73.5t54.5 51.5q-35 20 -54.5 51.5t-19.5 73.5v102q0 34 -16.5 49t-45.5 15v116h69q27 0 52.5 -9t45.5 -26.5t32.5 -44t12.5 -61.5v-105q0 -45 16.5 -73.5t58.5 -30.5v-114q-42 -2 -58.5 -30.5t-16.5 -73.5v-105
q0 -35 -12.5 -61.5t-32.5 -44t-45.5 -26.5t-52.5 -9h-69v116z" />
    <glyph glyph-name="asciitilde" unicode="~" horiz-adv-x="638" 
d="M20 217q17 57 61.5 92.5t105.5 35.5q29 0 58 -8.5t68 -22.5q27 -10 60 -20t65 -10q36 0 57.5 16t36.5 42l86 -58q-17 -57 -61.5 -92.5t-105.5 -35.5q-29 0 -58 8.5t-68 22.5q-27 10 -60 20t-65 10q-36 0 -57.5 -16t-36.5 -42z" />
    <glyph glyph-name="uni00A0" unicode="&#xa0;" horiz-adv-x="200" 
 />
    <glyph glyph-name="exclamdown" unicode="&#xa1;" horiz-adv-x="298" 
d="M145 275q-43 0 -69 27t-26 68q0 40 26 66.5t70 26.5t70 -27t26 -67q0 -42 -28 -68t-69 -26zM77 214h135l29 -404h-186z" />
    <glyph glyph-name="cent" unicode="&#xa2;" horiz-adv-x="539" 
d="M40 271q0 97 45 161t133 84v94h132v-88q32 -4 63 -13t58 -25l-37 -115q-36 21 -84 24q-67 0 -105 -29t-38 -98q0 -68 38 -103t101 -35q34 0 62 9.5t48 23.5l43 -101q-26 -20 -61.5 -38t-87.5 -24v-82h-132v93q-81 25 -129.5 92t-48.5 170z" />
    <glyph glyph-name="sterling" unicode="&#xa3;" horiz-adv-x="588" 
d="M120 358q-2 17 -3 32t-1 26q0 104 60.5 163t172.5 59q59 0 110 -16.5t89 -45.5l-36 -99q-23 12 -48 19.5t-56 7.5q-56 0 -85 -26t-29 -80q0 -19 3 -40h194v-120h-177q1 -4 1 -6.5v-3.5q0 -60 -27 -108h246v-120h-440l-35 96q23 6 38 21t24 35t12.5 42.5t3.5 43.5h-97v120
h80z" />
    <glyph glyph-name="currency" unicode="&#xa4;" horiz-adv-x="630" 
d="M10 76l90 89q-22 46 -22 103q0 60 25 110l-93 93l97 97l94 -94q51 23 113 23q60 0 110 -22l99 93l97 -97l-94 -94q25 -50 25 -112q0 -57 -20 -100l89 -89l-97 -97l-96 91q-47 -19 -109 -19q-63 0 -114 20l-97 -92zM221 273q0 -51 28.5 -77.5t68.5 -26.5q38 0 64 25.5
t26 75.5q0 51 -27 80t-66 29q-40 0 -67 -28.5t-27 -77.5z" />
    <glyph glyph-name="yen" unicode="&#xa5;" horiz-adv-x="721" 
d="M229 636l134 -236h6l125 236h197l-146 -258h146v-90h-197l-24 -43v-2h221v-90h-221v-153h-191v153h-228v90h225l-28 45h-197v90h141l-162 258h199z" />
    <glyph glyph-name="brokenbar" unicode="&#xa6;" horiz-adv-x="280" 
d="M60 324v354h160v-354h-160zM60 -140v354h160v-354h-160z" />
    <glyph glyph-name="section" unicode="&#xa7;" horiz-adv-x="528" 
d="M92 121q25 -19 71 -36t97 -17q67 0 67 38q0 17 -13 23t-39 12l-48 11q-41 9 -77 22.5t-62.5 32.5t-42 43.5t-15.5 57.5q0 32 14.5 58t36.5 46q-18 17 -29 38t-11 52q0 30 11.5 57.5t37 48.5t65 33.5t94.5 12.5q35 0 67.5 -5t60 -13t49.5 -18t35 -21l-41 -107
q-12 8 -30.5 15t-39.5 12t-43.5 8t-42.5 3q-33 0 -48 -8t-15 -23t12 -23.5t27 -12.5l61 -15q101 -25 149 -61.5t48 -93.5q0 -28 -11 -56t-34 -45q17 -15 25.5 -36t8.5 -50q0 -33 -11.5 -63t-37 -53t-65.5 -36.5t-96 -13.5q-37 0 -72.5 6t-66 16.5t-55.5 24.5t-42 29z
M281 256q3 -1 5.5 -1t4.5 -1h3q24 0 34 10t10 24q0 19 -14.5 28t-41.5 17l-33 9q-12 3 -22 3q-21 0 -29 -11t-8 -22q0 -15 13.5 -27.5t45.5 -20.5z" />
    <glyph glyph-name="dieresis" unicode="&#xa8;" horiz-adv-x="427" 
d="M100 550q-41 0 -65.5 25t-24.5 62t24.5 62t65.5 25t65.5 -25t24.5 -62t-24.5 -62t-65.5 -25zM327 550q-41 0 -65.5 25t-24.5 62t24.5 62t65.5 25t65.5 -25t24.5 -62t-24.5 -62t-65.5 -25z" />
    <glyph glyph-name="copyright" unicode="&#xa9;" horiz-adv-x="733" 
d="M368 -2q-163 0 -250.5 85t-87.5 236q0 74 22 133.5t64 100.5t103.5 63t141.5 22t143.5 -22t107.5 -64t67.5 -102t23.5 -136q0 -73 -22 -132t-64.5 -99.5t-105 -62.5t-143.5 -22zM367 87q57 0 100 17t72 47.5t43.5 73.5t14.5 94q0 53 -15 95.5t-44.5 72.5t-72 46t-97.5 16
q-112 0 -171.5 -62.5t-59.5 -169.5q0 -109 60.5 -169.5t169.5 -60.5zM500 182q-20 -16 -50.5 -30t-76.5 -14q-80 0 -128.5 48.5t-48.5 135.5q0 81 44 127t129 46q32 0 61 -7t55 -21l-25 -78q-26 16 -63 16q-45 0 -67.5 -22.5t-22.5 -64.5q0 -45 24 -67.5t66 -22.5
q21 0 40.5 5.5t32.5 16.5z" />
    <glyph glyph-name="ordfeminine" unicode="&#xaa;" horiz-adv-x="369" 
d="M231 345q-29 -19 -73 -19q-60 0 -94 30.5t-34 80.5q0 45 28.5 70t82.5 25h75v10q0 37 -61 37q-44 0 -81 -22l-25 73q25 14 54 20t59 6q73 0 115 -31.5t42 -83.5v-144l30 -35l-79 -66zM217 469h-45q-19 0 -29 -9t-10 -23q0 -15 11 -23.5t28 -8.5q24 0 34.5 15t10.5 31v18z
" />
    <glyph glyph-name="guillemotleft" unicode="&#xab;" horiz-adv-x="725" 
d="M256 502l119 -100l-152 -181l152 -181l-119 -100l-236 281zM576 502l119 -100l-152 -181l152 -181l-119 -100l-236 281z" />
    <glyph glyph-name="logicalnot" unicode="&#xac;" horiz-adv-x="495" 
d="M30 359h435v-275h-160v135h-275v140z" />
    <glyph glyph-name="uni00AD" unicode="&#xad;" horiz-adv-x="371" 
d="M30 339h311v-170h-311v170z" />
    <glyph glyph-name="registered" unicode="&#xae;" horiz-adv-x="733" 
d="M368 -2q-163 0 -250.5 85t-87.5 236q0 74 22 133.5t64 100.5t103.5 63t141.5 22t143.5 -22t107.5 -64t67.5 -102t23.5 -136q0 -73 -22 -132t-64.5 -99.5t-105 -62.5t-143.5 -22zM367 87q57 0 100 17t72 47.5t43.5 73.5t14.5 94q0 53 -15 95.5t-44.5 72.5t-72 46t-97.5 16
q-112 0 -171.5 -62.5t-59.5 -169.5q0 -109 60.5 -169.5t169.5 -60.5zM231 460q24 16 62 28t83 12q68 0 108.5 -32t40.5 -89q0 -42 -22 -71t-62 -41l89 -71l-67 -67l-131 140v-114h-101v305zM333 374q0 -53 46 -53q23 0 33.5 15t10.5 39q0 23 -11 37.5t-37 14.5q-13 0 -23 -3
t-19 -8v-42z" />
    <glyph glyph-name="macron" unicode="&#xaf;" horiz-adv-x="410" 
d="M30 698h350v-140h-350v140z" />
    <glyph glyph-name="degree" unicode="&#xb0;" horiz-adv-x="369" 
d="M20 511q0 66 44 107.5t121 41.5q76 0 120 -41t44 -105q0 -33 -12 -60.5t-34 -48t-53 -31.5t-69 -11q-76 0 -118.5 42t-42.5 106zM138 510q0 -24 12 -38t33 -14t34.5 14t13.5 40q0 23 -12 37.5t-34 14.5q-20 0 -33.5 -13.5t-13.5 -40.5z" />
    <glyph glyph-name="plusminus" unicode="&#xb1;" horiz-adv-x="540" 
d="M197 324h-167v134h167v168h154v-168h158v-134h-158v-172h-154v172zM31 78h479v-130h-479v130z" />
    <glyph glyph-name="twosuperior" unicode="&#xb2;" horiz-adv-x="295" 
d="M36 376l68 57q38 32 50 52.5t12 36.5q0 20 -14.5 35.5t-43.5 15.5q-15 0 -28 -4.5t-27 -12.5l-23 61q21 14 49 20t55 6q65 0 96 -31t31 -74q0 -27 -13 -53.5t-42 -53.5l-42 -39v-2h101v-70h-229v56z" />
    <glyph glyph-name="threesuperior" unicode="&#xb3;" horiz-adv-x="310" 
d="M54 408q13 -10 35.5 -16t47.5 -6q26 0 37 7.5t11 22.5q0 14 -10 23t-34 9h-64v66h64q21 0 28.5 9t7.5 19q0 16 -13 22.5t-36 6.5q-22 0 -39 -4.5t-30 -10.5l-25 62q20 11 50.5 18t60.5 7q56 0 91 -23.5t35 -65.5q0 -23 -10.5 -42.5t-28.5 -27.5q26 -12 37 -31.5t11 -42.5
q0 -45 -35.5 -71t-100.5 -26q-35 0 -68 8.5t-56 27.5z" />
    <glyph glyph-name="acute" unicode="&#xb4;" horiz-adv-x="331" 
d="M5 636l250 156l71 -123l-261 -133z" />
    <glyph glyph-name="paragraph" unicode="&#xb6;" horiz-adv-x="622" 
d="M10 434q0 49 19 83.5t51.5 56.5t75.5 32.5t91 10.5h292q38 0 60 16t37 42l86 -58q-17 -57 -60.5 -92.5t-122.5 -35.5v-567h-140v568h-60v-568h-110v329q-44 2 -83.5 13.5t-69.5 33t-48 55.5t-18 81z" />
    <glyph glyph-name="periodcentered" unicode="&#xb7;" horiz-adv-x="231" 
d="M115 208q-43 0 -69 26.5t-26 65.5q0 40 26 67t69 27t69.5 -27t26.5 -67q0 -39 -26.5 -65.5t-69.5 -26.5z" />
    <glyph glyph-name="cedilla" unicode="&#xb8;" horiz-adv-x="283" 
d="M43 -96q17 -7 35 -7q26 0 40.5 15.5t14.5 38.5q0 15 -5.5 30t-15.5 24l88 43q29 -18 46 -48t17 -69q0 -29 -10 -53.5t-29.5 -43t-48 -29t-65.5 -10.5q-23 0 -46 5t-44 18z" />
    <glyph glyph-name="onesuperior" unicode="&#xb9;" horiz-adv-x="225" 
d="M105 319v222l-55 -28l-40 75l103 48h82v-317h-90z" />
    <glyph glyph-name="ordmasculine" unicode="&#xba;" horiz-adv-x="400" 
d="M30 488q0 78 46.5 123t123.5 45q38 0 69.5 -12t54 -34t34.5 -53.5t12 -70.5q0 -79 -46.5 -122t-122.5 -43q-78 0 -124.5 44.5t-46.5 122.5zM200 407q27 0 42 21.5t15 60.5q0 38 -15 59.5t-42 21.5t-42 -21t-15 -60q0 -40 15.5 -61t41.5 -21z" />
    <glyph glyph-name="guillemotright" unicode="&#xbb;" horiz-adv-x="725" 
d="M182 221l-152 181l119 100l236 -281l-236 -281l-119 100zM502 221l-152 181l119 100l236 -281l-236 -281l-119 100z" />
    <glyph glyph-name="onequarter" unicode="&#xbc;" horiz-adv-x="609" 
d="M503 668l62 -45l-458 -655l-62 45zM105 319v222l-55 -28l-40 75l103 48h82v-317h-90zM322 118l115 199h110v-195h42v-70h-42v-52h-90v52h-111zM457 122v100h-2l-51 -100h53z" />
    <glyph glyph-name="onehalf" unicode="&#xbd;" horiz-adv-x="633" 
d="M495 668l62 -45l-458 -655l-62 45zM105 319v222l-55 -28l-40 75l103 48h82v-317h-90zM384 56l68 57q38 32 50 52.5t12 36.5q0 20 -14.5 35.5t-43.5 15.5q-15 0 -28 -4.5t-27 -12.5l-23 61q21 14 49 20t55 6q65 0 96 -31t31 -74q0 -27 -13 -53.5t-42 -53.5l-42 -39v-2h101
v-70h-229v56z" />
    <glyph glyph-name="threequarters" unicode="&#xbe;" horiz-adv-x="662" 
d="M549 668l62 -45l-458 -655l-62 45zM44 408q13 -10 35.5 -16t47.5 -6q26 0 37 7.5t11 22.5q0 14 -10 23t-34 9h-64v66h64q21 0 28.5 9t7.5 19q0 16 -13 22.5t-36 6.5q-22 0 -39 -4.5t-30 -10.5l-25 62q20 11 50.5 18t60.5 7q56 0 91 -23.5t35 -65.5q0 -23 -10.5 -42.5
t-28.5 -27.5q26 -12 37 -31.5t11 -42.5q0 -45 -35.5 -71t-100.5 -26q-35 0 -68 8.5t-56 27.5zM375 118l115 199h110v-195h42v-70h-42v-52h-90v52h-111zM510 122v100h-2l-51 -100h53z" />
    <glyph glyph-name="questiondown" unicode="&#xbf;" horiz-adv-x="480" 
d="M288 355q-42 0 -68 26t-26 65q0 38 26 64.5t68 26.5t67.5 -26.5t25.5 -64.5q0 -39 -25.5 -65t-67.5 -26zM178 197q40 31 40 74v39h141v-41q0 -54 -18 -98t-70 -78l-41 -27q-24 -16 -37 -31.5t-13 -32.5q0 -23 22.5 -37.5t60.5 -14.5q34 0 75.5 12.5t80.5 37.5l51 -106
q-18 -15 -43.5 -29t-57 -24t-67.5 -16t-74 -6q-105 0 -161.5 44t-56.5 118q0 29 9 53.5t24 45t34.5 38.5t40.5 34z" />
    <glyph glyph-name="Agrave" unicode="&#xc0;" horiz-adv-x="706" 
d="M260 637h203l203 -637h-183l-38 126h-180l-38 -126h-187zM417 266l-53 183h-4l-57 -183h114zM204 920l240 -150l-60 -100l-251 127z" />
    <glyph glyph-name="Aacute" unicode="&#xc1;" horiz-adv-x="706" 
d="M260 637h203l203 -637h-183l-38 126h-180l-38 -126h-187zM417 266l-53 183h-4l-57 -183h114zM343 670l-60 100l240 150l71 -123z" />
    <glyph glyph-name="Acircumflex" unicode="&#xc2;" horiz-adv-x="706" 
d="M133 765l161 126h130l161 -126l-95 -96l-130 117l-131 -118zM260 637h203l203 -637h-183l-38 126h-180l-38 -126h-187zM417 266l-53 183h-4l-57 -183h114z" />
    <glyph glyph-name="Atilde" unicode="&#xc3;" horiz-adv-x="706" 
d="M260 637h203l203 -637h-183l-38 126h-180l-38 -126h-187zM417 266l-53 183h-4l-57 -183h114zM592 801q-14 -45 -51.5 -75t-91.5 -30q-23 0 -45 5t-44 11q-18 5 -38 9t-38 4q-30 0 -52.5 -12.5t-33.5 -31.5l-83 56q14 45 51 75t91 30q23 0 45.5 -5t44.5 -11q18 -5 38.5 -9
t38.5 -4q29 0 51.5 12.5t33.5 31.5z" />
    <glyph glyph-name="Adieresis" unicode="&#xc4;" horiz-adv-x="706" 
d="M260 637h203l203 -637h-183l-38 126h-180l-38 -126h-187zM417 266l-53 183h-4l-57 -183h114zM264 700q-41 0 -65.5 25t-24.5 62t24.5 62t65.5 25t65.5 -25t24.5 -62t-24.5 -62t-65.5 -25zM485 700q-41 0 -65.5 25t-24.5 62t24.5 62t65.5 25t65.5 -25t24.5 -62t-24.5 -62
t-65.5 -25z" />
    <glyph glyph-name="Aring" unicode="&#xc5;" horiz-adv-x="706" 
d="M223 789q0 60 39 90t97 30q59 0 97.5 -29.5t38.5 -91.5t-38 -90t-95 -28q-28 0 -53.5 7t-44.5 21.5t-30 37t-11 53.5zM361 746q17 0 29 10.5t12 32.5q0 23 -12.5 33t-30.5 10q-19 0 -31 -11t-12 -31q0 -22 13.5 -33t31.5 -11zM260 637h203l203 -637h-183l-38 126h-180
l-38 -126h-187zM417 266l-53 183h-4l-57 -183h114z" />
    <glyph glyph-name="AE" unicode="&#xc6;" horiz-adv-x="924" 
d="M440 0v125h-158l-50 -126h-192l268 637h570v-129h-268v-119h229v-128h-229v-130h274v-130h-444zM339 266h101v243h-4z" />
    <glyph glyph-name="Ccedilla" unicode="&#xc7;" horiz-adv-x="633" 
d="M593 74q-18 -14 -40.5 -28t-51 -25t-63.5 -18t-78 -7q-71 0 -130 20.5t-101 61.5t-65.5 102.5t-23.5 142.5q0 73 19.5 131.5t58.5 100t97 63.5t135 22q54 0 107.5 -12t99.5 -39l-45 -126q-24 15 -60 23.5t-69 8.5q-78 0 -120.5 -47t-42.5 -128q0 -88 48 -133.5t126 -45.5
q43 0 81 12.5t66 32.5zM197 -83q17 -7 35 -7q26 0 40.5 15.5t14.5 38.5q0 15 -5.5 30t-15.5 24l88 43q29 -18 46 -48t17 -69q0 -29 -10 -53.5t-29.5 -43t-48 -29t-65.5 -10.5q-23 0 -46 5t-44 18z" />
    <glyph glyph-name="Egrave" unicode="&#xc8;" horiz-adv-x="554" 
d="M50 636h458v-130h-288v-118h249v-130h-249v-128h294v-130h-464v636zM203 921l240 -150l-60 -100l-251 127z" />
    <glyph glyph-name="Eacute" unicode="&#xc9;" horiz-adv-x="554" 
d="M50 636h458v-130h-288v-118h249v-130h-249v-128h294v-130h-464v636zM180 670l-60 100l240 150l71 -123z" />
    <glyph glyph-name="Ecircumflex" unicode="&#xca;" horiz-adv-x="554" 
d="M56 765l161 126h130l161 -126l-95 -96l-130 117l-131 -118zM50 636h458v-130h-288v-118h249v-130h-249v-128h294v-130h-464v636z" />
    <glyph glyph-name="Edieresis" unicode="&#xcb;" horiz-adv-x="554" 
d="M50 636h458v-130h-288v-118h249v-130h-249v-128h294v-130h-464v636zM184 700q-41 0 -65.5 25t-24.5 62t24.5 62t65.5 25t65.5 -25t24.5 -62t-24.5 -62t-65.5 -25zM405 700q-41 0 -65.5 25t-24.5 62t24.5 62t65.5 25t65.5 -25t24.5 -62t-24.5 -62t-65.5 -25z" />
    <glyph glyph-name="Igrave" unicode="&#xcc;" horiz-adv-x="270" 
d="M50 636h170v-636h-170v636zM-20 920l240 -150l-60 -100l-251 127z" />
    <glyph glyph-name="Iacute" unicode="&#xcd;" horiz-adv-x="270" 
d="M50 636h170v-636h-170v636zM110 670l-60 100l240 150l71 -123z" />
    <glyph glyph-name="Icircumflex" unicode="&#xce;" horiz-adv-x="272" 
d="M6 669l-96 96l161 140h130l161 -140l-95 -95l-130 130zM51 0v636h170v-636h-170z" />
    <glyph glyph-name="Idieresis" unicode="&#xcf;" horiz-adv-x="270" 
d="M50 636h170v-636h-170v636zM39 697q-41 0 -65.5 25t-24.5 62t24.5 62t65.5 25t65.5 -25t24.5 -62t-24.5 -62t-65.5 -25zM260 697q-41 0 -65.5 25t-24.5 62t24.5 62t65.5 25t65.5 -25t24.5 -62t-24.5 -62t-65.5 -25z" />
    <glyph glyph-name="Eth" unicode="&#xd0;" horiz-adv-x="766" 
d="M120 383v218q48 17 109.5 28t126.5 11q82 0 150 -20t117 -60.5t76 -102t27 -144.5q0 -79 -25 -138t-72.5 -98t-115 -58t-153.5 -19h-240v243h-90v140h90zM422 383v-140h-130v-113h69q42 0 75.5 10t57.5 31.5t37 55.5t13 81q0 96 -51 145t-141 49q-16 0 -31 -1.5t-29 -5.5
v-112h130z" />
    <glyph glyph-name="Ntilde" unicode="&#xd1;" horiz-adv-x="670" 
d="M50 636h189l211 -392v392h170v-636h-194l-206 377v-377h-170v636zM579 801q-14 -45 -51.5 -75t-91.5 -30q-23 0 -45 5t-44 11q-18 5 -38 9t-38 4q-30 0 -52.5 -12.5t-33.5 -31.5l-83 56q14 45 51 75t91 30q23 0 45.5 -5t44.5 -11q18 -5 38.5 -9t38.5 -4q29 0 51.5 12.5
t33.5 31.5z" />
    <glyph glyph-name="Ograve" unicode="&#xd2;" horiz-adv-x="718" 
d="M40 317q0 75 22.5 135t64 101.5t101.5 64t135 22.5t133.5 -22.5t99 -64t61.5 -101.5t21 -135t-21 -134.5t-61.5 -101t-99 -63.5t-133.5 -22t-135 22t-101.5 63.5t-64 101t-22.5 134.5zM363 140q68 0 103.5 44t35.5 132t-35.5 134t-103.5 46q-69 0 -108 -46t-39 -134
t39 -132t108 -44zM271 920l240 -150l-60 -100l-251 127z" />
    <glyph glyph-name="Oacute" unicode="&#xd3;" horiz-adv-x="718" 
d="M40 317q0 75 22.5 135t64 101.5t101.5 64t135 22.5t133.5 -22.5t99 -64t61.5 -101.5t21 -135t-21 -134.5t-61.5 -101t-99 -63.5t-133.5 -22t-135 22t-101.5 63.5t-64 101t-22.5 134.5zM363 140q68 0 103.5 44t35.5 132t-35.5 134t-103.5 46q-69 0 -108 -46t-39 -134
t39 -132t108 -44zM284 670l-60 100l240 150l71 -123z" />
    <glyph glyph-name="Ocircumflex" unicode="&#xd4;" horiz-adv-x="718" 
d="M128 765l161 126h130l161 -126l-95 -96l-130 117l-131 -118zM40 317q0 75 22.5 135t64 101.5t101.5 64t135 22.5t133.5 -22.5t99 -64t61.5 -101.5t21 -135t-21 -134.5t-61.5 -101t-99 -63.5t-133.5 -22t-135 22t-101.5 63.5t-64 101t-22.5 134.5zM363 140q68 0 103.5 44
t35.5 132t-35.5 134t-103.5 46q-69 0 -108 -46t-39 -134t39 -132t108 -44z" />
    <glyph glyph-name="Otilde" unicode="&#xd5;" horiz-adv-x="718" 
d="M40 317q0 75 22.5 135t64 101.5t101.5 64t135 22.5t133.5 -22.5t99 -64t61.5 -101.5t21 -135t-21 -134.5t-61.5 -101t-99 -63.5t-133.5 -22t-135 22t-101.5 63.5t-64 101t-22.5 134.5zM363 140q68 0 103.5 44t35.5 132t-35.5 134t-103.5 46q-69 0 -108 -46t-39 -134
t39 -132t108 -44zM592 801q-14 -45 -51.5 -75t-91.5 -30q-23 0 -45 5t-44 11q-18 5 -38 9t-38 4q-30 0 -52.5 -12.5t-33.5 -31.5l-83 56q14 45 51 75t91 30q23 0 45.5 -5t44.5 -11q18 -5 38.5 -9t38.5 -4q29 0 51.5 12.5t33.5 31.5z" />
    <glyph glyph-name="Odieresis" unicode="&#xd6;" horiz-adv-x="718" 
d="M40 317q0 75 22.5 135t64 101.5t101.5 64t135 22.5t133.5 -22.5t99 -64t61.5 -101.5t21 -135t-21 -134.5t-61.5 -101t-99 -63.5t-133.5 -22t-135 22t-101.5 63.5t-64 101t-22.5 134.5zM363 140q68 0 103.5 44t35.5 132t-35.5 134t-103.5 46q-69 0 -108 -46t-39 -134
t39 -132t108 -44zM255 697q-41 0 -65.5 25t-24.5 62t24.5 62t65.5 25t65.5 -25t24.5 -62t-24.5 -62t-65.5 -25zM476 697q-41 0 -65.5 25t-24.5 62t24.5 62t65.5 25t65.5 -25t24.5 -62t-24.5 -62t-65.5 -25z" />
    <glyph glyph-name="multiply" unicode="&#xd7;" horiz-adv-x="542" 
d="M173 276l-142 136l97 97l140 -140l140 145l103 -103l-140 -135l141 -136l-99 -99l-142 142l-137 -145l-104 104z" />
    <glyph glyph-name="Oslash" unicode="&#xd8;" horiz-adv-x="718" 
d="M177 42q-66 40 -101.5 109.5t-35.5 165.5q0 75 22.5 135t64 101.5t101.5 64t135 22.5q26 0 50 -3l38 97l121 -49l-34 -87q68 -39 104 -110.5t36 -170.5q0 -75 -21 -134.5t-61.5 -101t-100 -63.5t-135.5 -22q-14 0 -29 1t-30 3l-39 -98l-121 49zM357 496
q-66 -2 -103.5 -48.5t-37.5 -131.5q0 -67 25 -112zM356 140q42 0 70 13.5t45 37t24 55.5t7 70q0 78 -28 122z" />
    <glyph glyph-name="Ugrave" unicode="&#xd9;" horiz-adv-x="630" 
d="M50 636h170v-399q0 -51 25 -76.5t72 -25.5q93 0 93 102v399h170v-402q0 -117 -65.5 -178.5t-199.5 -61.5t-199.5 61.5t-65.5 178.5v402zM141 920l240 -150l-60 -100l-251 127z" />
    <glyph glyph-name="Uacute" unicode="&#xda;" horiz-adv-x="630" 
d="M50 636h170v-399q0 -51 25 -76.5t72 -25.5q93 0 93 102v399h170v-402q0 -117 -65.5 -178.5t-199.5 -61.5t-199.5 61.5t-65.5 178.5v402zM321 670l-60 100l240 150l71 -123z" />
    <glyph glyph-name="Ucircumflex" unicode="&#xdb;" horiz-adv-x="630" 
d="M91 765l161 126h130l161 -126l-95 -96l-130 117l-131 -118zM50 636h170v-399q0 -51 25 -76.5t72 -25.5q93 0 93 102v399h170v-402q0 -117 -65.5 -178.5t-199.5 -61.5t-199.5 61.5t-65.5 178.5v402z" />
    <glyph glyph-name="Udieresis" unicode="&#xdc;" horiz-adv-x="630" 
d="M50 636h170v-399q0 -51 25 -76.5t72 -25.5q93 0 93 102v399h170v-402q0 -117 -65.5 -178.5t-199.5 -61.5t-199.5 61.5t-65.5 178.5v402zM218 697q-41 0 -65.5 25t-24.5 62t24.5 62t65.5 25t65.5 -25t24.5 -62t-24.5 -62t-65.5 -25zM439 697q-41 0 -65.5 25t-24.5 62
t24.5 62t65.5 25t65.5 -25t24.5 -62t-24.5 -62t-65.5 -25z" />
    <glyph glyph-name="Yacute" unicode="&#xdd;" horiz-adv-x="721" 
d="M279 239l-249 397h199l134 -236h6l125 236h197l-221 -391v-245h-191v239zM365 670l-60 100l240 150l71 -123z" />
    <glyph glyph-name="Thorn" unicode="&#xde;" horiz-adv-x="617" 
d="M50 636h169v-97q26 7 54 11t57 4q54 0 99.5 -15.5t78 -45.5t51 -74t18.5 -101t-18.5 -101t-51 -74t-78 -45.5t-99.5 -15.5q-29 0 -57 4t-54 11v-97h-169v636zM219 233q33 -18 80 -18q57 0 82.5 27.5t25.5 76.5t-25.5 76t-82.5 27q-47 0 -80 -18v-171z" />
    <glyph glyph-name="germandbls" unicode="&#xdf;" horiz-adv-x="634" 
d="M50 430q0 59 18.5 103t52 73t80.5 43t103 14q65 0 115 -17.5t84 -47.5t51.5 -70.5t17.5 -85.5q0 -18 -3 -38l-96 -49q-12 -6 -20 -13t-8 -18t7.5 -18.5t15.5 -12.5l28 -20q47 -33 72.5 -66.5t25.5 -81.5q0 -39 -16 -66.5t-42 -45t-59 -26t-67 -8.5q-42 0 -83 11t-64 27
l39 107q31 -22 74 -22q27 0 38.5 7.5t11.5 21.5q0 16 -13.5 27.5t-26.5 19.5l-12 8q-40 26 -68 57t-28 77q0 73 74 114l56 31q-6 24 -29.5 45t-70.5 21t-72.5 -27.5t-25.5 -88.5v-415h-160v430z" />
    <glyph glyph-name="agrave" unicode="&#xe0;" horiz-adv-x="561" 
d="M354 24q-47 -29 -117 -29q-94 0 -145.5 48.5t-51.5 127.5q0 72 43.5 111.5t128.5 39.5h123v16q0 29 -26 43.5t-74 14.5q-37 0 -68.5 -8.5t-60.5 -25.5l-39 116q38 21 84.5 30.5t94.5 9.5q116 0 182 -49t66 -133v-228l47 -57l-124 -103zM336 221h-74q-31 0 -46.5 -13
t-15.5 -36q0 -25 17.5 -39t44.5 -14q19 0 33 7t23 17.5t13.5 23.5t4.5 26v28zM201 796l240 -150l-60 -100l-251 127z" />
    <glyph glyph-name="aacute" unicode="&#xe1;" horiz-adv-x="561" 
d="M354 24q-47 -29 -117 -29q-94 0 -145.5 48.5t-51.5 127.5q0 72 43.5 111.5t128.5 39.5h123v16q0 29 -26 43.5t-74 14.5q-37 0 -68.5 -8.5t-60.5 -25.5l-39 116q38 21 84.5 30.5t94.5 9.5q116 0 182 -49t66 -133v-228l47 -57l-124 -103zM336 221h-74q-31 0 -46.5 -13
t-15.5 -36q0 -25 17.5 -39t44.5 -14q19 0 33 7t23 17.5t13.5 23.5t4.5 26v28zM179 546l-60 100l240 150l71 -123z" />
    <glyph glyph-name="acircumflex" unicode="&#xe2;" horiz-adv-x="561" 
d="M47 641l161 126h130l161 -126l-95 -96l-130 117l-131 -118zM354 24q-47 -29 -117 -29q-94 0 -145.5 48.5t-51.5 127.5q0 72 43.5 111.5t128.5 39.5h123v16q0 29 -26 43.5t-74 14.5q-37 0 -68.5 -8.5t-60.5 -25.5l-39 116q38 21 84.5 30.5t94.5 9.5q116 0 182 -49t66 -133
v-228l47 -57l-124 -103zM336 221h-74q-31 0 -46.5 -13t-15.5 -36q0 -25 17.5 -39t44.5 -14q19 0 33 7t23 17.5t13.5 23.5t4.5 26v28z" />
    <glyph glyph-name="atilde" unicode="&#xe3;" horiz-adv-x="561" 
d="M354 24q-47 -29 -117 -29q-94 0 -145.5 48.5t-51.5 127.5q0 72 43.5 111.5t128.5 39.5h123v16q0 29 -26 43.5t-74 14.5q-37 0 -68.5 -8.5t-60.5 -25.5l-39 116q38 21 84.5 30.5t94.5 9.5q116 0 182 -49t66 -133v-228l47 -57l-124 -103zM336 221h-74q-31 0 -46.5 -13
t-15.5 -36q0 -25 17.5 -39t44.5 -14q19 0 33 7t23 17.5t13.5 23.5t4.5 26v28zM511 677q-14 -45 -51.5 -75t-91.5 -30q-23 0 -45 5t-44 11q-18 5 -38 9t-38 4q-30 0 -52.5 -12.5t-33.5 -31.5l-83 56q14 45 51 75t91 30q23 0 45.5 -5t44.5 -11q18 -5 38.5 -9t38.5 -4
q29 0 51.5 12.5t33.5 31.5z" />
    <glyph glyph-name="adieresis" unicode="&#xe4;" horiz-adv-x="561" 
d="M354 24q-47 -29 -117 -29q-94 0 -145.5 48.5t-51.5 127.5q0 72 43.5 111.5t128.5 39.5h123v16q0 29 -26 43.5t-74 14.5q-37 0 -68.5 -8.5t-60.5 -25.5l-39 116q38 21 84.5 30.5t94.5 9.5q116 0 182 -49t66 -133v-228l47 -57l-124 -103zM336 221h-74q-31 0 -46.5 -13
t-15.5 -36q0 -25 17.5 -39t44.5 -14q19 0 33 7t23 17.5t13.5 23.5t4.5 26v28zM181 572q-41 0 -65.5 25t-24.5 62t24.5 62t65.5 25t65.5 -25t24.5 -62t-24.5 -62t-65.5 -25zM402 572q-41 0 -65.5 25t-24.5 62t24.5 62t65.5 25t65.5 -25t24.5 -62t-24.5 -62t-65.5 -25z" />
    <glyph glyph-name="aring" unicode="&#xe5;" horiz-adv-x="561" 
d="M156 665q0 60 39 90t97 30q59 0 97.5 -29.5t38.5 -91.5t-38 -90t-95 -28q-28 0 -53.5 7t-44.5 21.5t-30 37t-11 53.5zM294 622q17 0 29 10.5t12 32.5q0 23 -12.5 33t-30.5 10q-19 0 -31 -11t-12 -31q0 -22 13.5 -33t31.5 -11zM354 24q-47 -29 -117 -29q-94 0 -145.5 48.5
t-51.5 127.5q0 72 43.5 111.5t128.5 39.5h123v16q0 29 -26 43.5t-74 14.5q-37 0 -68.5 -8.5t-60.5 -25.5l-39 116q38 21 84.5 30.5t94.5 9.5q116 0 182 -49t66 -133v-228l47 -57l-124 -103zM336 221h-74q-31 0 -46.5 -13t-15.5 -36q0 -25 17.5 -39t44.5 -14q19 0 33 7
t23 17.5t13.5 23.5t4.5 26v28z" />
    <glyph glyph-name="ae" unicode="&#xe6;" horiz-adv-x="858" 
d="M40 176q0 69 43.5 108t128.5 39h123v15q0 29 -26 43.5t-74 14.5q-37 0 -68.5 -8.5t-60.5 -25.5l-39 116q38 21 84.5 30.5t94.5 9.5q58 0 103.5 -13t77.5 -36q64 49 163 49q59 0 101.5 -16.5t71 -46t42 -69t13.5 -85.5q0 -22 -2.5 -43.5t-7.5 -44.5h-311q5 -51 41.5 -75
t93.5 -24q36 0 69.5 9t54.5 26l43 -100q-26 -21 -74.5 -38t-111.5 -17q-58 0 -107 17t-85 50h-2q-23 -28 -66 -47t-102 -19q-46 0 -85 13t-67 36.5t-43.5 57t-15.5 74.5zM588 397q-41 0 -66 -21t-25 -62h181q0 38 -23 60.5t-67 22.5zM262 221q-31 0 -46.5 -13t-15.5 -36
q0 -25 17.5 -39t44.5 -14q19 0 33 7t23 17.5t13.5 23.5t4.5 26v28h-74z" />
    <glyph glyph-name="ccedilla" unicode="&#xe7;" horiz-adv-x="538" 
d="M498 60q-30 -24 -75 -44t-113 -20q-60 0 -109.5 18t-85 53t-55.5 86t-20 116q0 118 65.5 187t191.5 69q48 0 92.5 -10.5t82.5 -32.5l-39 -113q-40 24 -96 24q-65 0 -98 -32t-33 -92q0 -68 39 -104.5t103 -36.5q29 0 57.5 8t48.5 23zM175 -83q17 -7 35 -7q26 0 40.5 15.5
t14.5 38.5q0 15 -5.5 30t-15.5 24l88 43q29 -18 46 -48t17 -69q0 -29 -10 -53.5t-29.5 -43t-48 -29t-65.5 -10.5q-23 0 -46 5t-44 18z" />
    <glyph glyph-name="egrave" unicode="&#xe8;" horiz-adv-x="558" 
d="M499 49q-26 -21 -74.5 -38t-111.5 -17q-60 0 -110 18t-86.5 53t-56.5 85.5t-20 115.5q0 60 17.5 107t50 79.5t78.5 49t103 16.5q60 0 103.5 -17.5t71 -48.5t41 -71.5t13.5 -87.5q0 -23 -2.5 -46t-7.5 -46h-311q3 -25 14 -42t28.5 -27t40 -14t46.5 -4q41 0 75 9t55 26z
M378 302q0 40 -22.5 67.5t-67.5 27.5q-43 0 -67 -26t-24 -69h181zM153 796l240 -150l-60 -100l-251 127z" />
    <glyph glyph-name="eacute" unicode="&#xe9;" horiz-adv-x="558" 
d="M499 49q-26 -21 -74.5 -38t-111.5 -17q-60 0 -110 18t-86.5 53t-56.5 85.5t-20 115.5q0 60 17.5 107t50 79.5t78.5 49t103 16.5q60 0 103.5 -17.5t71 -48.5t41 -71.5t13.5 -87.5q0 -23 -2.5 -46t-7.5 -46h-311q3 -25 14 -42t28.5 -27t40 -14t46.5 -4q41 0 75 9t55 26z
M378 302q0 40 -22.5 67.5t-67.5 27.5q-43 0 -67 -26t-24 -69h181zM241 546l-60 100l240 150l71 -123z" />
    <glyph glyph-name="ecircumflex" unicode="&#xea;" horiz-adv-x="558" 
d="M62 641l161 126h130l161 -126l-95 -96l-130 117l-131 -118zM499 49q-26 -21 -74.5 -38t-111.5 -17q-60 0 -110 18t-86.5 53t-56.5 85.5t-20 115.5q0 60 17.5 107t50 79.5t78.5 49t103 16.5q60 0 103.5 -17.5t71 -48.5t41 -71.5t13.5 -87.5q0 -23 -2.5 -46t-7.5 -46h-311
q3 -25 14 -42t28.5 -27t40 -14t46.5 -4q41 0 75 9t55 26zM378 302q0 40 -22.5 67.5t-67.5 27.5q-43 0 -67 -26t-24 -69h181z" />
    <glyph glyph-name="edieresis" unicode="&#xeb;" horiz-adv-x="558" 
d="M499 49q-26 -21 -74.5 -38t-111.5 -17q-60 0 -110 18t-86.5 53t-56.5 85.5t-20 115.5q0 60 17.5 107t50 79.5t78.5 49t103 16.5q60 0 103.5 -17.5t71 -48.5t41 -71.5t13.5 -87.5q0 -23 -2.5 -46t-7.5 -46h-311q3 -25 14 -42t28.5 -27t40 -14t46.5 -4q41 0 75 9t55 26z
M378 302q0 40 -22.5 67.5t-67.5 27.5q-43 0 -67 -26t-24 -69h181zM189 572q-41 0 -65.5 25t-24.5 62t24.5 62t65.5 25t65.5 -25t24.5 -62t-24.5 -62t-65.5 -25zM410 572q-41 0 -65.5 25t-24.5 62t24.5 62t65.5 25t65.5 -25t24.5 -62t-24.5 -62t-65.5 -25z" />
    <glyph glyph-name="igrave" unicode="&#xec;" horiz-adv-x="260" 
d="M-30 775l240 -150l-60 -100l-251 127zM50 482h160v-482h-160v482z" />
    <glyph glyph-name="iacute" unicode="&#xed;" horiz-adv-x="260" 
d="M110 525l-60 100l240 150l71 -123zM50 482h160v-482h-160v482z" />
    <glyph glyph-name="icircumflex" unicode="&#xee;" horiz-adv-x="260" 
d="M4 524l-96 97l161 126h130l161 -126l-95 -96l-130 117zM50 482h160v-482h-160v482z" />
    <glyph glyph-name="idieresis" unicode="&#xef;" horiz-adv-x="260" 
d="M31 552q-41 0 -65.5 25t-24.5 62t24.5 62t65.5 25t65.5 -25t24.5 -62t-24.5 -62t-65.5 -25zM252 552q-41 0 -65.5 25t-24.5 62t24.5 62t65.5 25t65.5 -25t24.5 -62t-24.5 -62t-65.5 -25zM50 482h160v-482h-160v482z" />
    <glyph glyph-name="eth" unicode="&#xf0;" horiz-adv-x="599" 
d="M290 -15q-57 0 -103.5 18t-79 50t-50 76t-17.5 95q0 46 14 84.5t40.5 66.5t65.5 44t88 16q38 0 74 -8t59 -19q-8 24 -22 47.5t-34 45.5l-179 -54l-33 96l119 36q-18 11 -36.5 20t-37.5 17l68 118q45 -17 89 -43.5t83 -61.5l138 42l33 -96l-96 -29q38 -54 60.5 -118
t22.5 -141q0 -64 -17 -119.5t-51 -96t-83.5 -63.5t-114.5 -23zM210 215q0 -45 24 -69t66 -24q48 0 73 31t25 91q0 19 -3 37q-11 8 -35.5 16t-55.5 8q-45 0 -69.5 -22.5t-24.5 -67.5z" />
    <glyph glyph-name="ntilde" unicode="&#xf1;" horiz-adv-x="583" 
d="M519 677q-14 -45 -51.5 -75t-91.5 -30q-23 0 -45 5t-44 11q-18 5 -38 9t-38 4q-30 0 -52.5 -12.5t-33.5 -31.5l-83 56q14 45 51 75t91 30q23 0 45.5 -5t44.5 -11q18 -5 38.5 -9t38.5 -4q29 0 51.5 12.5t33.5 31.5zM210 0h-160v431q38 38 103 61.5t143 23.5
q112 0 167 -50.5t55 -136.5v-242l45 -51l-124 -105l-81 81v272q0 41 -22 63t-64 22q-18 0 -34 -4t-28 -11v-354z" />
    <glyph glyph-name="ograve" unicode="&#xf2;" horiz-adv-x="617" 
d="M310 -9q-62 0 -112 19t-85 54.5t-54 85.5t-19 112t19 110.5t53.5 81.5t84.5 50.5t111 17.5q62 0 111.5 -17.5t84.5 -50.5t54 -82t19 -112q0 -61 -18.5 -111t-53 -85t-84 -54t-111.5 -19zM310 125q50 0 76.5 36.5t26.5 98.5q0 65 -28.5 97.5t-76.5 32.5t-76.5 -32.5
t-28.5 -96.5q0 -63 28.5 -99.5t78.5 -36.5zM151 796l240 -150l-60 -100l-251 127z" />
    <glyph glyph-name="oacute" unicode="&#xf3;" horiz-adv-x="617" 
d="M310 -9q-62 0 -112 19t-85 54.5t-54 85.5t-19 112t19 110.5t53.5 81.5t84.5 50.5t111 17.5q62 0 111.5 -17.5t84.5 -50.5t54 -82t19 -112q0 -61 -18.5 -111t-53 -85t-84 -54t-111.5 -19zM310 125q50 0 76.5 36.5t26.5 98.5q0 65 -28.5 97.5t-76.5 32.5t-76.5 -32.5
t-28.5 -96.5q0 -63 28.5 -99.5t78.5 -36.5zM291 546l-60 100l240 150l71 -123z" />
    <glyph glyph-name="ocircumflex" unicode="&#xf4;" horiz-adv-x="617" 
d="M83 641l161 126h130l161 -126l-95 -96l-130 117l-131 -118zM310 -9q-62 0 -112 19t-85 54.5t-54 85.5t-19 112t19 110.5t53.5 81.5t84.5 50.5t111 17.5q62 0 111.5 -17.5t84.5 -50.5t54 -82t19 -112q0 -61 -18.5 -111t-53 -85t-84 -54t-111.5 -19zM310 125
q50 0 76.5 36.5t26.5 98.5q0 65 -28.5 97.5t-76.5 32.5t-76.5 -32.5t-28.5 -96.5q0 -63 28.5 -99.5t78.5 -36.5z" />
    <glyph glyph-name="otilde" unicode="&#xf5;" horiz-adv-x="617" 
d="M310 -9q-62 0 -112 19t-85 54.5t-54 85.5t-19 112t19 110.5t53.5 81.5t84.5 50.5t111 17.5q62 0 111.5 -17.5t84.5 -50.5t54 -82t19 -112q0 -61 -18.5 -111t-53 -85t-84 -54t-111.5 -19zM310 125q50 0 76.5 36.5t26.5 98.5q0 65 -28.5 97.5t-76.5 32.5t-76.5 -32.5
t-28.5 -96.5q0 -63 28.5 -99.5t78.5 -36.5zM538 677q-14 -45 -51.5 -75t-91.5 -30q-23 0 -45 5t-44 11q-18 5 -38 9t-38 4q-30 0 -52.5 -12.5t-33.5 -31.5l-83 56q14 45 51 75t91 30q23 0 45.5 -5t44.5 -11q18 -5 38.5 -9t38.5 -4q29 0 51.5 12.5t33.5 31.5z" />
    <glyph glyph-name="odieresis" unicode="&#xf6;" horiz-adv-x="617" 
d="M310 -9q-62 0 -112 19t-85 54.5t-54 85.5t-19 112t19 110.5t53.5 81.5t84.5 50.5t111 17.5q62 0 111.5 -17.5t84.5 -50.5t54 -82t19 -112q0 -61 -18.5 -111t-53 -85t-84 -54t-111.5 -19zM310 125q50 0 76.5 36.5t26.5 98.5q0 65 -28.5 97.5t-76.5 32.5t-76.5 -32.5
t-28.5 -96.5q0 -63 28.5 -99.5t78.5 -36.5zM208 572q-41 0 -65.5 25t-24.5 62t24.5 62t65.5 25t65.5 -25t24.5 -62t-24.5 -62t-65.5 -25zM429 572q-41 0 -65.5 25t-24.5 62t24.5 62t65.5 25t65.5 -25t24.5 -62t-24.5 -62t-65.5 -25z" />
    <glyph glyph-name="divide" unicode="&#xf7;" horiz-adv-x="541" 
d="M269 399q-38 0 -61.5 24t-23.5 59t23.5 59.5t61.5 24.5t62 -24.5t24 -59.5t-24 -59t-62 -24zM29 358h479v-140h-479v140zM269 8q-38 0 -61.5 24t-23.5 59t23.5 59.5t61.5 24.5t62 -24.5t24 -59.5t-24 -59t-62 -24z" />
    <glyph glyph-name="oslash" unicode="&#xf8;" horiz-adv-x="617" 
d="M108 70q-68 71 -68 192q0 62 19 110.5t53.5 81.5t84.5 50.5t111 17.5q59 0 105 -15l57 81l97 -68l-53 -76q30 -33 46.5 -79t16.5 -105q0 -61 -18.5 -111t-53 -85t-84 -54t-111.5 -19q-57 0 -102 15l-57 -81l-97 68zM330 388q-5 1 -10.5 1.5t-12.5 0.5q-48 0 -76 -32.5
t-28 -95.5q0 -14 1.5 -26t3.5 -23zM292 126q5 -1 9 -1h9q50 0 76.5 36.5t26.5 98.5q0 20 -3 36z" />
    <glyph glyph-name="ugrave" unicode="&#xf9;" horiz-adv-x="620" 
d="M50 512h160v-287q0 -45 23.5 -68.5t64.5 -23.5t64 23.5t23 68.5v287h160v-387l55 -64l-135 -107l-62 78q-23 -15 -53.5 -23.5t-75.5 -8.5q-113 0 -168.5 55t-55.5 161v296zM129 796l240 -150l-60 -100l-251 127z" />
    <glyph glyph-name="uacute" unicode="&#xfa;" horiz-adv-x="620" 
d="M50 512h160v-287q0 -45 23.5 -68.5t64.5 -23.5t64 23.5t23 68.5v287h160v-387l55 -64l-135 -107l-62 78q-23 -15 -53.5 -23.5t-75.5 -8.5q-113 0 -168.5 55t-55.5 161v296zM309 546l-60 100l240 150l71 -123z" />
    <glyph glyph-name="ucircumflex" unicode="&#xfb;" horiz-adv-x="620" 
d="M75 641l161 126h130l161 -126l-95 -96l-130 117l-131 -118zM50 512h160v-287q0 -45 23.5 -68.5t64.5 -23.5t64 23.5t23 68.5v287h160v-387l55 -64l-135 -107l-62 78q-23 -15 -53.5 -23.5t-75.5 -8.5q-113 0 -168.5 55t-55.5 161v296z" />
    <glyph glyph-name="udieresis" unicode="&#xfc;" horiz-adv-x="620" 
d="M50 512h160v-287q0 -45 23.5 -68.5t64.5 -23.5t64 23.5t23 68.5v287h160v-387l55 -64l-135 -107l-62 78q-23 -15 -53.5 -23.5t-75.5 -8.5q-113 0 -168.5 55t-55.5 161v296zM201 572q-41 0 -65.5 25t-24.5 62t24.5 62t65.5 25t65.5 -25t24.5 -62t-24.5 -62t-65.5 -25z
M422 572q-41 0 -65.5 25t-24.5 62t24.5 62t65.5 25t65.5 -25t24.5 -62t-24.5 -62t-65.5 -25z" />
    <glyph glyph-name="yacute" unicode="&#xfd;" horiz-adv-x="634" 
d="M173 -178l98 250q-23 20 -52 55.5t-53 85.5l-146 299h170l138 -296l116 296h170l-276 -690h-165zM333 547l-60 100l240 150l71 -123z" />
    <glyph glyph-name="thorn" unicode="&#xfe;" horiz-adv-x="607" 
d="M219 656v-166q26 7 53 11t55 4q55 0 101 -17t79 -50t51.5 -80.5t18.5 -108.5t-18.5 -109t-51.5 -81t-78.5 -50t-100.5 -17q-29 0 -56 4t-53 11v-186h-169v835h169zM219 143q17 -9 37 -13.5t40 -4.5q59 0 85 33.5t26 90.5t-26 90t-85 33q-20 0 -40 -4.5t-37 -13.5v-211z
" />
    <glyph glyph-name="ydieresis" unicode="&#xff;" horiz-adv-x="634" 
d="M220 572q-41 0 -65.5 25t-24.5 62t24.5 62t65.5 25t65.5 -25t24.5 -62t-24.5 -62t-65.5 -25zM441 572q-41 0 -65.5 25t-24.5 62t24.5 62t65.5 25t65.5 -25t24.5 -62t-24.5 -62t-65.5 -25zM173 -178l98 250q-23 20 -52 55.5t-53 85.5l-146 299h170l138 -296l116 296h170
l-276 -690h-165z" />
    <glyph glyph-name="aogonek" unicode="&#x105;" horiz-adv-x="561" 
d="M354 24q-47 -29 -117 -29q-94 0 -145.5 48.5t-51.5 127.5q0 72 43.5 111.5t128.5 39.5h123v16q0 29 -26 43.5t-74 14.5q-37 0 -68.5 -8.5t-60.5 -25.5l-39 116q38 21 84.5 30.5t94.5 9.5q116 0 182 -49t66 -133v-228l47 -57l-124 -103zM336 221h-74q-31 0 -46.5 -13
t-15.5 -36q0 -25 17.5 -39t44.5 -14q19 0 33 7t23 17.5t13.5 23.5t4.5 26v28zM541 -212q-21 -13 -44 -18t-46 -5q-37 0 -65.5 10.5t-48 29t-29.5 43t-10 53.5q0 39 17 69t46 48l88 -43q-10 -9 -15.5 -24t-5.5 -30q0 -23 14.5 -38.5t41.5 -15.5q17 0 34 7z" />
    <glyph glyph-name="cacute" unicode="&#x107;" horiz-adv-x="538" 
d="M498 60q-30 -24 -75 -44t-113 -20q-60 0 -109.5 18t-85 53t-55.5 86t-20 116q0 118 65.5 187t191.5 69q48 0 92.5 -10.5t82.5 -32.5l-39 -113q-40 24 -96 24q-65 0 -98 -32t-33 -92q0 -68 39 -104.5t103 -36.5q29 0 57.5 8t48.5 23zM174 536l-60 100l240 150l71 -123z
" />
    <glyph glyph-name="Ccaron" unicode="&#x10c;" horiz-adv-x="633" 
d="M593 74q-18 -14 -40.5 -28t-51 -25t-63.5 -18t-78 -7q-71 0 -130 20.5t-101 61.5t-65.5 102.5t-23.5 142.5q0 73 19.5 131.5t58.5 100t97 63.5t135 22q54 0 107.5 -12t99.5 -39l-45 -126q-24 15 -60 23.5t-69 8.5q-78 0 -120.5 -47t-42.5 -128q0 -88 48 -133.5t126 -45.5
q43 0 81 12.5t66 32.5zM338 818l130 117l95 -96l-161 -126h-130l-161 126l96 97z" />
    <glyph glyph-name="ccaron" unicode="&#x10d;" horiz-adv-x="538" 
d="M498 60q-30 -24 -75 -44t-113 -20q-60 0 -109.5 18t-85 53t-55.5 86t-20 116q0 118 65.5 187t191.5 69q48 0 92.5 -10.5t82.5 -32.5l-39 -113q-40 24 -96 24q-65 0 -98 -32t-33 -92q0 -68 39 -104.5t103 -36.5q29 0 57.5 8t48.5 23zM280 684l130 117l95 -96l-161 -126
h-130l-161 126l96 97z" />
    <glyph glyph-name="Dcaron" unicode="&#x10e;" horiz-adv-x="666" 
d="M50 601q47 20 108 29.5t119 9.5q172 0 260.5 -82.5t88.5 -240.5q0 -84 -24.5 -144t-69 -98.5t-106.5 -56.5t-136 -18h-240v601zM281 130q76 0 119.5 45.5t43.5 141.5q0 92 -42 138.5t-122 46.5q-14 0 -29 -1.5t-29 -5.5v-365h59zM324 798l130 117l95 -96l-161 -126h-130
l-161 126l96 97z" />
    <glyph glyph-name="dcaron" unicode="&#x10f;" horiz-adv-x="783" 
d="M414 27q-50 -32 -125 -32q-55 0 -100.5 17t-78.5 49t-51.5 79t-18.5 107q0 58 17 104t48 78t74.5 49t95.5 17q16 0 34 -1.5t34.5 -4t30 -6t22.5 -6.5v173h159v-530l52 -75l-132 -96zM395 347q-17 8 -40 12t-43 4q-47 0 -76.5 -27.5t-29.5 -86.5q0 -33 9.5 -55.5t24.5 -37
t34 -21t38 -6.5q33 0 58 20.5t25 68.5v129zM624 750h159l-42 -256h-117v256z" />
    <glyph glyph-name="Dcroat" unicode="&#x110;" horiz-adv-x="756" 
d="M120 383v218q48 17 109.5 28t126.5 11q82 0 150 -20t117 -60.5t76 -102t27 -144.5q0 -79 -25 -138t-72.5 -98t-115 -58t-153.5 -19h-240v243h-90v140h90zM422 383v-140h-130v-113h69q42 0 75.5 10t57.5 31.5t37 55.5t13 81q0 96 -51 145t-141 49q-16 0 -31 -1.5t-29 -5.5
v-112h130z" />
    <glyph glyph-name="dcroat" unicode="&#x111;" horiz-adv-x="618" 
d="M280 -5q-55 0 -99 18.5t-75.5 52t-48.5 80.5t-17 104q0 54 15.5 99t45.5 77t74.5 50t101.5 18q11 0 26 -1.5t30 -4t28.5 -6t22.5 -6.5v80l-128 -10v125l128 -13v62h159v-61l105 10v-121l-105 8v-436l51 -76l-131 -95l-62 78q-50 -32 -121 -32zM306 362q-45 0 -73.5 -29.5
t-28.5 -91.5q0 -58 25 -85t63 -27q17 0 33 5t29 15.5t21 27.5t8 41v128q-17 8 -38 12t-39 4z" />
    <glyph glyph-name="eogonek" unicode="&#x119;" horiz-adv-x="558" 
d="M499 49q-26 -21 -74.5 -38t-111.5 -17q-60 0 -110 18t-86.5 53t-56.5 85.5t-20 115.5q0 60 17.5 107t50 79.5t78.5 49t103 16.5q60 0 103.5 -17.5t71 -48.5t41 -71.5t13.5 -87.5q0 -23 -2.5 -46t-7.5 -46h-311q3 -25 14 -42t28.5 -27t40 -14t46.5 -4q41 0 75 9t55 26z
M378 302q0 40 -22.5 67.5t-67.5 27.5q-43 0 -67 -26t-24 -69h181zM458 -184q-21 -13 -44 -18t-46 -5q-37 0 -65.5 10.5t-48 29t-29.5 43t-10 53.5q0 39 17 69t46 48l88 -43q-10 -9 -15.5 -24t-5.5 -30q0 -23 14.5 -38.5t41.5 -15.5q17 0 34 7z" />
    <glyph glyph-name="Ecaron" unicode="&#x11a;" horiz-adv-x="554" 
d="M50 636h458v-130h-288v-118h249v-130h-249v-128h294v-130h-464v636zM278 798l130 117l95 -96l-161 -126h-130l-161 126l96 97z" />
    <glyph glyph-name="ecaron" unicode="&#x11b;" horiz-adv-x="558" 
d="M499 49q-26 -21 -74.5 -38t-111.5 -17q-60 0 -110 18t-86.5 53t-56.5 85.5t-20 115.5q0 60 17.5 107t50 79.5t78.5 49t103 16.5q60 0 103.5 -17.5t71 -48.5t41 -71.5t13.5 -87.5q0 -23 -2.5 -46t-7.5 -46h-311q3 -25 14 -42t28.5 -27t40 -14t46.5 -4q41 0 75 9t55 26z
M378 302q0 40 -22.5 67.5t-67.5 27.5q-43 0 -67 -26t-24 -69h181zM280 674l130 117l95 -96l-161 -126h-130l-161 126l96 97z" />
    <glyph glyph-name="dotlessi" unicode="&#x131;" horiz-adv-x="260" 
d="M50 482h160v-482h-160v482z" />
    <glyph glyph-name="Lslash" unicode="&#x141;" horiz-adv-x="566" 
d="M10 279l123 71v286h170v-188l107 62l52 -90l-159 -92v-188h243v-140h-413v230l-71 -41z" />
    <glyph glyph-name="lslash" unicode="&#x142;" horiz-adv-x="472" 
d="M10 248l136 79v323h160v-231l104 60l52 -90l-156 -90v-299h-160v207l-84 -49z" />
    <glyph glyph-name="nacute" unicode="&#x144;" horiz-adv-x="583" 
d="M210 0h-160v431q38 38 103 61.5t143 23.5q112 0 167 -50.5t55 -136.5v-242l45 -51l-124 -105l-81 81v272q0 41 -22 63t-64 22q-18 0 -34 -4t-28 -11v-354zM196 536l-60 100l240 150l71 -123z" />
    <glyph glyph-name="Ncaron" unicode="&#x147;" horiz-adv-x="670" 
d="M50 636h189l211 -392v392h170v-636h-194l-206 377v-377h-170v636zM336 798l130 117l95 -96l-161 -126h-130l-161 126l96 97z" />
    <glyph glyph-name="ncaron" unicode="&#x148;" horiz-adv-x="583" 
d="M210 0h-160v431q38 38 103 61.5t143 23.5q112 0 167 -50.5t55 -136.5v-242l45 -51l-124 -105l-81 81v272q0 41 -22 63t-64 22q-18 0 -34 -4t-28 -11v-354zM283 674l130 117l95 -96l-161 -126h-130l-161 126l96 97z" />
    <glyph glyph-name="OE" unicode="&#x152;" horiz-adv-x="966" 
d="M367 -24q-76 0 -137 22.5t-103 65.5t-64.5 107t-22.5 146q0 83 22.5 146.5t64.5 107.5t102 66.5t136 22.5q42 0 79 -6.5t69 -17.5h407v-129h-278v-119h239v-128h-239v-130h284v-130h-411q-32 -11 -69 -17.5t-79 -6.5zM216 316q0 -47 11.5 -83.5t32.5 -61.5t49.5 -38
t62.5 -13q44 0 72 20t28 55v262q0 13 -8.5 24t-23 18.5t-32.5 12t-37 4.5q-33 0 -61.5 -13.5t-49.5 -39t-32.5 -63t-11.5 -84.5z" />
    <glyph glyph-name="oe" unicode="&#x153;" horiz-adv-x="932" 
d="M40 262q0 62 18.5 110.5t52.5 81.5t81.5 50.5t104.5 17.5q65 0 112.5 -21t79.5 -59q32 35 78.5 55.5t106.5 20.5q56 0 97 -17.5t68 -48.5t40 -71.5t13 -87.5q0 -23 -2.5 -46t-7.5 -46h-311q3 -25 14 -42t28.5 -27t40 -14t46.5 -4q41 0 75 9t55 26l43 -100
q-26 -21 -75 -38t-112 -17q-25 0 -52 3.5t-53 13t-49 26t-41 41.5q-30 -42 -77 -64.5t-113 -22.5q-59 0 -107 19t-82.5 54.5t-53 85.5t-18.5 112zM662 397q-43 0 -67 -26t-24 -69h181q0 40 -22.5 67.5t-67.5 27.5zM203 261q0 -63 28.5 -99.5t78.5 -36.5t76.5 36.5t26.5 98.5
q0 65 -28.5 97.5t-76.5 32.5t-76.5 -32.5t-28.5 -96.5z" />
    <glyph glyph-name="Rcaron" unicode="&#x158;" horiz-adv-x="626" 
d="M50 576q18 12 45.5 23.5t61.5 20.5t72.5 14.5t77.5 5.5q128 0 199 -58.5t71 -163.5q0 -79 -39.5 -132t-106.5 -78l165 -133l-115 -124l-261 260v-211h-170v576zM220 410q0 -48 27.5 -73t67.5 -25q44 0 68 27.5t24 71.5t-25.5 70.5t-78.5 26.5q-24 0 -46 -5.5t-37 -14.5
v-78zM314 818l130 117l95 -96l-161 -126h-130l-161 126l96 97z" />
    <glyph glyph-name="rcaron" unicode="&#x159;" horiz-adv-x="419" 
d="M50 424q35 40 86 67t119 27q82 0 144 -42l-42 -115q-15 10 -35.5 15t-37.5 5q-21 0 -38.5 -5.5t-25.5 -12.5v-363h-170v424zM240 674l130 117l95 -96l-161 -126h-130l-161 126l96 97z" />
    <glyph glyph-name="sacute" unicode="&#x15b;" horiz-adv-x="506" 
d="M81 163q12 -9 30.5 -18.5t40.5 -17t46 -12.5t48 -5q36 0 53 11t17 30q0 17 -13 24.5t-39 12.5l-48 8q-85 14 -131 53.5t-46 106.5q0 32 11.5 61t36.5 51t64.5 34.5t94.5 12.5q72 0 128.5 -18.5t84.5 -38.5l-41 -107q-12 8 -30.5 15t-39.5 12t-43.5 8t-42.5 3
q-33 0 -48 -8t-15 -23t12 -24t27 -12l61 -10q50 -8 84 -22t54.5 -33.5t29.5 -44t9 -54.5q0 -35 -11.5 -67.5t-37 -57t-65 -39t-96.5 -14.5q-38 0 -73.5 6.5t-66 17t-55 24.5t-41.5 28zM158 536l-60 100l240 150l71 -123z" />
    <glyph glyph-name="Scedilla" unicode="&#x15e;" horiz-adv-x="588" 
d="M95 194q15 -12 37 -22.5t47 -18.5t52 -12.5t52 -4.5q48 0 66 15t18 35t-14.5 32t-46.5 24l-84 31q-39 14 -71 31t-54.5 39t-35 50.5t-12.5 64.5q0 85 66 133.5t190 48.5q80 0 138.5 -19.5t95.5 -51.5l-51 -117q-16 9 -38 17t-46 13.5t-49 9t-47 3.5q-42 0 -60 -11
t-18 -29q0 -15 14 -28t47 -24l73 -27q50 -18 85 -37t57 -41t32 -48t10 -59q0 -43 -16.5 -80t-48.5 -63.5t-79 -41.5t-108 -15q-78 0 -146 22.5t-110 57.5zM175 -96q17 -7 35 -7q26 0 40.5 15.5t14.5 38.5q0 15 -5.5 30t-15.5 24l88 43q29 -18 46 -48t17 -69q0 -29 -10 -53.5
t-29.5 -43t-48 -29t-65.5 -10.5q-23 0 -46 5t-44 18z" />
    <glyph glyph-name="scedilla" unicode="&#x15f;" horiz-adv-x="506" 
d="M81 163q12 -9 30.5 -18.5t40.5 -17t46 -12.5t48 -5q36 0 53 11t17 30q0 17 -13 24.5t-39 12.5l-48 8q-85 14 -131 53.5t-46 106.5q0 32 11.5 61t36.5 51t64.5 34.5t94.5 12.5q72 0 128.5 -18.5t84.5 -38.5l-41 -107q-12 8 -30.5 15t-39.5 12t-43.5 8t-42.5 3
q-33 0 -48 -8t-15 -23t12 -24t27 -12l61 -10q50 -8 84 -22t54.5 -33.5t29.5 -44t9 -54.5q0 -35 -11.5 -67.5t-37 -57t-65 -39t-96.5 -14.5q-38 0 -73.5 6.5t-66 17t-55 24.5t-41.5 28zM130 -96q17 -7 35 -7q26 0 40.5 15.5t14.5 38.5q0 15 -5.5 30t-15.5 24l88 43
q29 -18 46 -48t17 -69q0 -29 -10 -53.5t-29.5 -43t-48 -29t-65.5 -10.5q-23 0 -46 5t-44 18z" />
    <glyph glyph-name="Scaron" unicode="&#x160;" horiz-adv-x="588" 
d="M95 194q15 -12 37 -22.5t47 -18.5t52 -12.5t52 -4.5q48 0 66 15t18 35t-14.5 32t-46.5 24l-84 31q-39 14 -71 31t-54.5 39t-35 50.5t-12.5 64.5q0 85 66 133.5t190 48.5q80 0 138.5 -19.5t95.5 -51.5l-51 -117q-16 9 -38 17t-46 13.5t-49 9t-47 3.5q-42 0 -60 -11
t-18 -29q0 -15 14 -28t47 -24l73 -27q50 -18 85 -37t57 -41t32 -48t10 -59q0 -43 -16.5 -80t-48.5 -63.5t-79 -41.5t-108 -15q-78 0 -146 22.5t-110 57.5zM296 786l130 117l95 -96l-161 -126h-130l-161 126l96 97z" />
    <glyph glyph-name="scaron" unicode="&#x161;" horiz-adv-x="506" 
d="M81 163q12 -9 30.5 -18.5t40.5 -17t46 -12.5t48 -5q36 0 53 11t17 30q0 17 -13 24.5t-39 12.5l-48 8q-85 14 -131 53.5t-46 106.5q0 32 11.5 61t36.5 51t64.5 34.5t94.5 12.5q72 0 128.5 -18.5t84.5 -38.5l-41 -107q-12 8 -30.5 15t-39.5 12t-43.5 8t-42.5 3
q-33 0 -48 -8t-15 -23t12 -24t27 -12l61 -10q50 -8 84 -22t54.5 -33.5t29.5 -44t9 -54.5q0 -35 -11.5 -67.5t-37 -57t-65 -39t-96.5 -14.5q-38 0 -73.5 6.5t-66 17t-55 24.5t-41.5 28zM254 660l130 117l95 -96l-161 -126h-130l-161 126l96 97z" />
    <glyph glyph-name="uni0162" unicode="&#x162;" horiz-adv-x="560" 
d="M30 636h500v-133h-165v-496q9 -14 14 -30.5t5 -38.5q0 -27 -8.5 -53t-26.5 -46t-45 -32t-65 -12q-22 0 -44.5 5t-43.5 18l13 86q17 -7 34 -7q27 0 41.5 15.5t14.5 38.5q0 28 -16 49h-43v503h-165v133z" />
    <glyph glyph-name="uni0163" unicode="&#x163;" horiz-adv-x="454" 
d="M30 495h87v141h160v-141h136v-120h-135v-186q0 -38 18 -52t45 -14q15 0 35 3.5t31 10.5l27 -118q-14 -8 -36.5 -14t-42.5 -8q19 -29 19 -66q0 -26 -9.5 -50.5t-28 -43.5t-46.5 -30.5t-66 -11.5q-22 0 -39.5 5t-38.5 18l3 86q17 -7 36 -7q26 0 42.5 12.5t16.5 38.5
q0 18 -10 33.5t-35 29.5q-46 24 -66 68.5t-20 104.5v192h-83v119z" />
    <glyph glyph-name="Tcaron" unicode="&#x164;" horiz-adv-x="560" 
d="M195 503h-165v133h500v-133h-165v-503h-170v503zM271 798l130 117l95 -96l-161 -126h-130l-161 126l96 97z" />
    <glyph glyph-name="tcaron" unicode="&#x165;" horiz-adv-x="663" 
d="M113 376h-83v119h87v141h160v-141h136v-120h-135v-186q0 -38 18 -52t45 -14q15 0 35 3.5t31 10.5l27 -118q-25 -14 -57.5 -20t-64.5 -6q-44 0 -80.5 10.5t-63 33.5t-41 59t-14.5 88v192zM464 660h159l-42 -256h-117v256z" />
    <glyph glyph-name="Uring" unicode="&#x16e;" horiz-adv-x="630" 
d="M50 636h170v-399q0 -51 25 -76.5t72 -25.5q93 0 93 102v399h170v-402q0 -117 -65.5 -178.5t-199.5 -61.5t-199.5 61.5t-65.5 178.5v402zM316 694q-63 0 -99 32t-36 79q0 23 9.5 43.5t26.5 35.5t42.5 24t56.5 9q63 0 98.5 -32.5t35.5 -79.5t-35.5 -79t-98.5 -32zM316 771
q14 0 23 9t9 25t-9 25t-23 9t-24 -9t-10 -25t10 -25t24 -9z" />
    <glyph glyph-name="uring" unicode="&#x16f;" horiz-adv-x="620" 
d="M50 512h160v-287q0 -45 23.5 -68.5t64.5 -23.5t64 23.5t23 68.5v287h160v-387l55 -64l-135 -107l-62 78q-23 -15 -53.5 -23.5t-75.5 -8.5q-113 0 -168.5 55t-55.5 161v296zM291 540q-63 0 -99 32t-36 79q0 23 9.5 43.5t26.5 35.5t42.5 24t56.5 9q63 0 98.5 -32.5
t35.5 -79.5t-35.5 -79t-98.5 -32zM291 617q14 0 23 9t9 25t-9 25t-23 9t-24 -9t-10 -25t10 -25t24 -9z" />
    <glyph glyph-name="Ydieresis" unicode="&#x178;" horiz-adv-x="721" 
d="M279 239l-249 397h199l134 -236h6l125 236h197l-221 -391v-245h-191v239zM248 697q-41 0 -65.5 25t-24.5 62t24.5 62t65.5 25t65.5 -25t24.5 -62t-24.5 -62t-65.5 -25zM469 697q-41 0 -65.5 25t-24.5 62t24.5 62t65.5 25t65.5 -25t24.5 -62t-24.5 -62t-65.5 -25z" />
    <glyph glyph-name="zacute" unicode="&#x17a;" horiz-adv-x="524" 
d="M40 107l243 280h-239v125h429v-107l-238 -280h249v-125h-444v107zM167 536l-60 100l240 150l71 -123z" />
    <glyph glyph-name="zdotaccent" unicode="&#x17c;" horiz-adv-x="524" 
d="M40 107l243 280h-239v125h429v-107l-238 -280h249v-125h-444v107zM262 549q-41 0 -65.5 25t-24.5 62t24.5 62t65.5 25t65.5 -25t24.5 -62t-24.5 -62t-65.5 -25z" />
    <glyph glyph-name="Zcaron" unicode="&#x17d;" horiz-adv-x="629" 
d="M50 124l306 379h-294v133h515v-118l-313 -383h315v-135h-529v124zM319 780l130 117l95 -96l-161 -126h-130l-161 126l96 97z" />
    <glyph glyph-name="zcaron" unicode="&#x17e;" horiz-adv-x="552" 
d="M53 107l243 280h-239v125h429v-107l-238 -280h249v-125h-444v107zM277 657l130 117l95 -96l-161 -126h-130l-161 126l96 97z" />
    <glyph glyph-name="florin" unicode="&#x192;" horiz-adv-x="598" 
d="M341 24q-19 -203 -205 -203q-40 0 -84 9.5t-82 31.5l37 117q21 -13 44 -19.5t50 -6.5q45 0 61 19t20 57l22 237h-102v126h113l6 58q11 103 68 153t151 50q40 0 89 -9.5t87 -31.5l-37 -117q-21 13 -49 19.5t-55 6.5q-88 0 -97 -76l-6 -52h168v-127h-176z" />
    <glyph glyph-name="uni0218" unicode="&#x218;" horiz-adv-x="588" 
d="M95 194q15 -12 37 -22.5t47 -18.5t52 -12.5t52 -4.5q48 0 66 15t18 35t-14.5 32t-46.5 24l-84 31q-39 14 -71 31t-54.5 39t-35 50.5t-12.5 64.5q0 85 66 133.5t190 48.5q80 0 138.5 -19.5t95.5 -51.5l-51 -117q-16 9 -38 17t-46 13.5t-49 9t-47 3.5q-42 0 -60 -11
t-18 -29q0 -15 14 -28t47 -24l73 -27q50 -18 85 -37t57 -41t32 -48t10 -59q0 -43 -16.5 -80t-48.5 -63.5t-79 -41.5t-108 -15q-78 0 -146 22.5t-110 57.5zM201 -266l5 5q17 14 30.5 26t22.5 26q-22 8 -36 27t-14 51q0 41 24 62t63 21q48 0 69 -29t21 -77q0 -54 -27 -101
t-89 -83z" />
    <glyph glyph-name="uni0219" unicode="&#x219;" horiz-adv-x="506" 
d="M81 163q12 -9 30.5 -18.5t40.5 -17t46 -12.5t48 -5q36 0 53 11t17 30q0 17 -13 24.5t-39 12.5l-48 8q-85 14 -131 53.5t-46 106.5q0 32 11.5 61t36.5 51t64.5 34.5t94.5 12.5q72 0 128.5 -18.5t84.5 -38.5l-41 -107q-12 8 -30.5 15t-39.5 12t-43.5 8t-42.5 3
q-33 0 -48 -8t-15 -23t12 -24t27 -12l61 -10q50 -8 84 -22t54.5 -33.5t29.5 -44t9 -54.5q0 -35 -11.5 -67.5t-37 -57t-65 -39t-96.5 -14.5q-38 0 -73.5 6.5t-66 17t-55 24.5t-41.5 28zM171 -278l5 5q17 14 30.5 26t22.5 26q-22 8 -36 27t-14 51q0 41 24 62t63 21
q48 0 69 -29t21 -77q0 -54 -27 -101t-89 -83z" />
    <glyph glyph-name="uni021A" unicode="&#x21a;" horiz-adv-x="560" 
d="M195 503h-165v133h500v-133h-165v-503h-170v503zM182 -258l5 5q17 14 30.5 26t22.5 26q-22 8 -36 27t-14 51q0 41 24 62t63 21q48 0 69 -29t21 -77q0 -54 -27 -101t-89 -83z" />
    <glyph glyph-name="uni021B" unicode="&#x21b;" horiz-adv-x="454" 
d="M113 376h-83v119h87v141h160v-141h136v-120h-135v-186q0 -38 18 -52t45 -14q15 0 35 3.5t31 10.5l27 -118q-25 -14 -57.5 -20t-64.5 -6q-44 0 -80.5 10.5t-63 33.5t-41 59t-14.5 88v192zM155 -264l5 5q17 14 30.5 26t22.5 26q-22 8 -36 27t-14 51q0 41 24 62t63 21
q48 0 69 -29t21 -77q0 -54 -27 -101t-89 -83z" />
    <glyph glyph-name="uni0251" unicode="&#x251;" horiz-adv-x="615" 
d="M402 29q-20 -14 -53 -23t-71 -9q-51 0 -96 19t-78.5 54t-53.5 85t-20 113q0 118 71 185.5t198 67.5q40 0 78.5 -7t72 -18.5t60.5 -27t44 -32.5v-327l41 -56l-151 -95zM390 369q-17 8 -39 14t-45 6q-24 0 -44.5 -7t-36 -22t-24.5 -39t-9 -57q0 -34 9 -58.5t24 -40.5
t34.5 -23.5t39.5 -7.5q38 0 64.5 26t26.5 76v133z" />
    <glyph glyph-name="uni0259" unicode="&#x259;" horiz-adv-x="558" 
d="M361 310q-3 26 -14 42.5t-28.5 26.5t-40 14t-46.5 4q-41 0 -75 -9t-55 -26l-43 100q26 21 74.5 38t111.5 17q60 0 110 -18t86.5 -53t56.5 -85.5t20 -115.5q0 -60 -17.5 -107t-50 -79.5t-78.5 -49t-103 -16.5q-60 0 -103.5 17.5t-71 48.5t-41 72t-13.5 87q0 23 2.5 46
t7.5 46h311zM180 209q0 -40 22.5 -67.5t67.5 -27.5q43 0 67 26t24 69h-181z" />
    <glyph glyph-name="uni02BB" unicode="&#x2bb;" horiz-adv-x="239" 
d="M30 404l42 256h117v-256h-159z" />
    <glyph glyph-name="uni02BC" unicode="&#x2bc;" horiz-adv-x="239" 
d="M50 660h159l-42 -256h-117v256z" />
    <glyph glyph-name="uni02BE" unicode="&#x2be;" horiz-adv-x="263" 
d="M30 403q32 13 52 40.5t20 65.5t-19.5 65.5t-51.5 40.5l69 95q60 -20 96.5 -72t36.5 -127q0 -78 -38 -131t-96 -72z" />
    <glyph glyph-name="uni02BF" unicode="&#x2bf;" horiz-adv-x="262" 
d="M164 308q-58 19 -96 72t-38 131q0 75 36.5 127t96.5 72l69 -95q-32 -13 -51.5 -40.5t-19.5 -65.5t19.5 -65.5t51.5 -40.5z" />
    <glyph glyph-name="circumflex" unicode="&#x2c6;" horiz-adv-x="472" 
d="M106 509l-96 97l161 126h130l161 -126l-95 -96l-130 117z" />
    <glyph glyph-name="caron" unicode="&#x2c7;" horiz-adv-x="472" 
d="M10 665l96 97l131 -118l130 117l95 -96l-161 -126h-130z" />
    <glyph glyph-name="uni02C8" unicode="&#x2c8;" horiz-adv-x="340" 
d="M100 892h140v-320h-140v320z" />
    <glyph glyph-name="uni02C9" unicode="&#x2c9;" horiz-adv-x="410" 
d="M30 698h350v-130h-350v130z" />
    <glyph glyph-name="uni02CA" unicode="&#x2ca;" horiz-adv-x="331" 
d="M70 536l-60 100l240 150l71 -123z" />
    <glyph glyph-name="uni02CB" unicode="&#x2cb;" horiz-adv-x="331" 
d="M86 786l240 -150l-60 -100l-251 127z" />
    <glyph glyph-name="uni02CC" unicode="&#x2cc;" horiz-adv-x="340" 
d="M100 -80h140v-320h-140v320z" />
    <glyph glyph-name="breve" unicode="&#x2d8;" horiz-adv-x="394" 
d="M91 826q15 -30 43 -45.5t63 -15.5t63 15.5t43 45.5l81 -68q-24 -51 -74.5 -79.5t-116.5 -28.5t-114.5 28.5t-68.5 79.5z" />
    <glyph glyph-name="dotaccent" unicode="&#x2d9;" horiz-adv-x="200" 
d="M100 539q-41 0 -65.5 25t-24.5 62t24.5 62t65.5 25t65.5 -25t24.5 -62t-24.5 -62t-65.5 -25z" />
    <glyph glyph-name="ring" unicode="&#x2da;" horiz-adv-x="292" 
d="M10 641q0 60 39 90t97 30q59 0 97.5 -29.5t38.5 -91.5t-38 -90t-95 -28q-28 0 -53.5 7t-44.5 21.5t-30 37t-11 53.5zM149 598q17 0 29 10.5t12 32.5q0 23 -12.5 33t-30.5 10q-19 0 -31 -11t-12 -31q0 -22 13.5 -33t31.5 -11z" />
    <glyph glyph-name="ogonek" unicode="&#x2db;" horiz-adv-x="283" 
d="M263 -182q-21 -13 -44 -18t-46 -5q-37 0 -65.5 10.5t-48 29t-29.5 43t-10 53.5q0 39 17 69t46 48l88 -43q-10 -9 -15.5 -24t-5.5 -30q0 -23 14.5 -38.5t41.5 -15.5q17 0 34 7z" />
    <glyph glyph-name="tilde" unicode="&#x2dc;" horiz-adv-x="517" 
d="M497 682q-14 -45 -51.5 -75t-91.5 -30q-23 0 -45 5t-44 11q-18 5 -38 9t-38 4q-30 0 -52.5 -12.5t-33.5 -31.5l-83 56q14 45 51 75t91 30q23 0 45.5 -5t44.5 -11q18 -5 38.5 -9t38.5 -4q29 0 51.5 12.5t33.5 31.5z" />
    <glyph glyph-name="hungarumlaut" unicode="&#x2dd;" horiz-adv-x="546" 
d="M162 811l124 -97l-187 -192l-89 72zM412 811l124 -97l-187 -192l-89 72z" />
    <glyph glyph-name="gravecomb" unicode="&#x300;" horiz-adv-x="343" 
d="M91 799l242 -163l-60 -100l-263 128z" />
    <glyph glyph-name="acutecomb" unicode="&#x301;" horiz-adv-x="343" 
d="M75 536l-60 100l240 150l71 -123z" />
    <glyph glyph-name="uni0302" unicode="&#x302;" horiz-adv-x="492" 
d="M116 509l-96 97l161 126h130l161 -126l-95 -96l-130 117z" />
    <glyph glyph-name="tildecomb" unicode="&#x303;" 
d="M0 664q-14 -45 -51.5 -75t-91.5 -30q-23 0 -45 5t-44 11q-18 5 -38 9t-38 4q-30 0 -52.5 -12.5t-33.5 -31.5l-83 56q14 45 51 75t91 30q23 0 45.5 -5t44.5 -11q18 -5 38.5 -9t38.5 -4q29 0 51.5 12.5t33.5 31.5z" />
    <glyph glyph-name="uni0304" unicode="&#x304;" horiz-adv-x="390" 
d="M20 698h350v-140h-350v140z" />
    <glyph glyph-name="uni0306" unicode="&#x306;" horiz-adv-x="422" 
d="M105 831q13 -30 42 -45.5t64 -15.5t64 15.5t42 45.5l95 -57q-21 -58 -74 -91t-127 -33t-127 33t-74 91z" />
    <glyph glyph-name="uni0307" unicode="&#x307;" horiz-adv-x="220" 
d="M110 539q-41 0 -65.5 25t-24.5 62t24.5 62t65.5 25t65.5 -25t24.5 -62t-24.5 -62t-65.5 -25z" />
    <glyph glyph-name="uni0308" unicode="&#x308;" horiz-adv-x="441" 
d="M110 540q-41 0 -65.5 25t-24.5 62t24.5 62t65.5 25t65.5 -25t24.5 -62t-24.5 -62t-65.5 -25zM331 540q-41 0 -65.5 25t-24.5 62t24.5 62t65.5 25t65.5 -25t24.5 -62t-24.5 -62t-65.5 -25z" />
    <glyph glyph-name="hookabovecomb" unicode="&#x309;" horiz-adv-x="265" 
d="M62 541q0 23 9.5 38.5t33.5 34.5l23 18q18 14 18 25q0 8 -7.5 13t-24.5 5q-33 0 -64 -22l-30 62q17 15 46 27t65 12q51 0 82.5 -25t31.5 -60q0 -25 -14.5 -42.5t-34.5 -32.5l-23 -18q-27 -21 -27 -38v-15h-84v18z" />
    <glyph glyph-name="uni030A" unicode="&#x30a;" horiz-adv-x="309" 
d="M155 530q-63 0 -99 32t-36 79q0 23 9.5 43.5t26.5 35.5t42.5 24t56.5 9q63 0 98.5 -32.5t35.5 -79.5t-35.5 -79t-98.5 -32zM155 607q14 0 23 9t9 25t-9 25t-23 9t-24 -9t-10 -25t10 -25t24 -9z" />
    <glyph glyph-name="uni030B" unicode="&#x30b;" horiz-adv-x="546" 
d="M162 811l124 -97l-187 -192l-89 72zM412 811l124 -97l-187 -192l-89 72z" />
    <glyph glyph-name="uni030C" unicode="&#x30c;" horiz-adv-x="472" 
d="M237 644l130 117l95 -96l-161 -126h-130l-161 126l96 97z" />
    <glyph glyph-name="uni031B" unicode="&#x31b;" horiz-adv-x="257" 
d="M10 333l6 5q19 16 38 35.5t30 46.5q-28 9 -46 31.5t-18 61.5q0 48 28 72.5t74 24.5q57 0 81 -34t24 -89q0 -32 -7.5 -65t-24 -64.5t-42.5 -59.5t-62 -49z" />
    <glyph glyph-name="dotbelowcomb" unicode="&#x323;" horiz-adv-x="218" 
d="M109 542q-39 0 -64 25.5t-25 60.5t25 60.5t64 25.5t64 -25.5t25 -60.5t-25 -60.5t-64 -25.5z" />
    <glyph glyph-name="uni0324" unicode="&#x324;" horiz-adv-x="430" 
d="M106 -244q-39 0 -62.5 24t-23.5 59t23.5 59.5t62.5 24.5t63 -24.5t24 -59.5t-24 -59t-63 -24zM323 -244q-39 0 -62.5 24t-23.5 59t23.5 59.5t62.5 24.5t63 -24.5t24 -59.5t-24 -59t-63 -24z" />
    <glyph glyph-name="uni0326" unicode="&#x326;" horiz-adv-x="245" 
d="M30 -258l5 5q17 14 30.5 26t22.5 26q-22 8 -36 27t-14 51q0 41 24 62t63 21q48 0 69 -29t21 -77q0 -54 -27 -101t-89 -83z" />
    <glyph glyph-name="uni0327" unicode="&#x327;" horiz-adv-x="283" 
d="M43 -96q17 -7 35 -7q26 0 40.5 15.5t14.5 38.5q0 15 -5.5 30t-15.5 24l88 43q29 -18 46 -48t17 -69q0 -29 -10 -53.5t-29.5 -43t-48 -29t-65.5 -10.5q-23 0 -46 5t-44 18z" />
    <glyph glyph-name="uni0328" unicode="&#x328;" horiz-adv-x="283" 
d="M263 -182q-21 -13 -44 -18t-46 -5q-37 0 -65.5 10.5t-48 29t-29.5 43t-10 53.5q0 39 17 69t46 48l88 -43q-10 -9 -15.5 -24t-5.5 -30q0 -23 14.5 -38.5t41.5 -15.5q17 0 34 7z" />
    <glyph glyph-name="uni032E" unicode="&#x32e;" horiz-adv-x="394" 
d="M91 -30q15 -30 43 -45.5t63 -15.5t63 15.5t43 45.5l81 -68q-24 -51 -74.5 -79.5t-116.5 -28.5t-114.5 28.5t-68.5 79.5z" />
    <glyph glyph-name="uni0331" unicode="&#x331;" horiz-adv-x="430" 
d="M30 -44h370v-140h-370v140z" />
    <glyph glyph-name="uni03A9" unicode="&#x3a9;" horiz-adv-x="718" 
d="M30 130h113q-42 40 -66.5 98.5t-24.5 130.5q0 69 23.5 125t65.5 95t101 60t130 21q73 0 133 -21.5t103.5 -61.5t67.5 -97t24 -127q0 -69 -22.5 -126.5t-63.5 -96.5h108v-130h-278l-30 97q58 35 82 94t24 126q0 49 -11 84.5t-30 59t-45 35t-57 11.5t-57.5 -11.5t-46 -34.5
t-30.5 -57.5t-11 -81.5q0 -71 27 -130t87 -95l-30 -97h-286v130z" />
    <glyph glyph-name="delta" unicode="&#x3b4;" horiz-adv-x="659" 
d="M30 118l231 518h137l231 -518l-89 -118h-421zM330 433l-126 -295h255z" />
    <glyph glyph-name="uni03BC" unicode="&#x3bc;" horiz-adv-x="595" 
d="M50 512h160v-283q0 -45 23 -68.5t64 -23.5t64.5 23.5t23.5 68.5v283h160v-296q0 -103 -50 -159.5t-158 -56.5q-42 0 -73 8.5t-54 23.5v-211h-160v691z" />
    <glyph glyph-name="pi" unicode="&#x3c0;" horiz-adv-x="620" 
d="M100 347h-70v143h560v-143h-70v-197q0 -38 16 -60t42 -37l-77 -102q-66 17 -98.5 64.5t-32.5 134.5v197h-120v-347h-150v347z" />
    <glyph glyph-name="omega" unicode="&#x3c9;" horiz-adv-x="752" 
d="M30 130h113q-42 40 -66.5 98.5t-24.5 130.5q0 69 23.5 125t65.5 95t101 60t130 21q73 0 133 -21.5t103.5 -61.5t67.5 -97t24 -127q0 -69 -22.5 -126.5t-63.5 -96.5h108v-130h-278l-30 97q58 35 82 94t24 126q0 49 -11 84.5t-30 59t-45 35t-57 11.5t-57.5 -11.5t-46 -34.5
t-30.5 -57.5t-11 -81.5q0 -71 27 -130t87 -95l-30 -97h-286v130z" />
    <glyph glyph-name="uni0964" unicode="&#x964;" horiz-adv-x="292" 
d="M66 0v651h160v-651h-160z" />
    <glyph glyph-name="uni0965" unicode="&#x965;" horiz-adv-x="568" 
d="M66 0v650h160v-650h-160zM342 0v650h160v-650h-160z" />
    <glyph glyph-name="uni0A01" unicode="&#xa01;" 
d="M-146 845q-35 0 -57.5 22.5t-22.5 54.5t22.5 54.5t57.5 22.5t57.5 -22.5t22.5 -54.5t-22.5 -54.5t-57.5 -22.5zM-257 947q0 -34 8.5 -58.5t23.5 -39.5t35.5 -22t43.5 -7t43.5 7t35.5 22t23.5 39.5t8.5 58.5l120 -23q0 -103 -59 -158.5t-172 -55.5t-172 55.5t-59 158.5z
" />
    <glyph glyph-name="uni0A02" unicode="&#xa02;" 
d="M-143 740q-35 0 -57.5 22.5t-22.5 54.5t22.5 54.5t57.5 22.5t57.5 -22.5t22.5 -54.5t-22.5 -54.5t-57.5 -22.5z" />
    <glyph glyph-name="uni0A03" unicode="&#xa03;" horiz-adv-x="218" 
d="M109 37q-39 0 -64 25.5t-25 60.5t25 60.5t64 25.5t64 -25.5t25 -60.5t-25 -60.5t-64 -25.5zM109 284q-39 0 -64 25.5t-25 60.5t25 60.5t64 25.5t64 -25.5t25 -60.5t-25 -60.5t-64 -25.5z" />
    <glyph glyph-name="uni0A05" unicode="&#xa05;" horiz-adv-x="898" 
d="M-30 650h150q41 0 71 -11.5t50.5 -31t32.5 -45t16 -54.5l160 85q27 -17 47.5 -43t35 -56t22.5 -62.5t10 -62.5l107 41v240h256v-125h-96v-525h-160v246l-118 -36q-8 -34 -25.5 -62t-41 -47.5t-49.5 -30.5t-52 -11q-36 0 -64.5 22.5t-28.5 66.5q0 45 34 84.5t98 76.5
q0 12 -1.5 27t-5.5 30t-11 28.5t-17 21.5l-96 -52q-9 -30 -26.5 -57t-40.5 -47.5t-48.5 -33t-50.5 -12.5q-32 0 -57.5 21t-25.5 62q0 35 25.5 70t85.5 73q0 49 -21.5 67t-55.5 18h-109v125z" />
    <glyph glyph-name="uni0A06" unicode="&#xa06;" horiz-adv-x="1173" 
d="M-30 525v125h150q38 0 66.5 -10t49 -27t33 -40.5t18.5 -50.5q1 -4 3 -14l160 85q27 -17 47.5 -43t35 -56t22.5 -62.5t10 -62.5l107 41v240h531v-125h-96v-325h-160v325h-115v-525h-160v246l-118 -36q-8 -34 -25.5 -62t-41 -47.5t-49.5 -30.5t-52 -11q-36 0 -64.5 22.5
t-28.5 66.5q0 45 34 84.5t98 76.5q0 12 -1.5 27t-5.5 30t-11 28.5t-17 21.5l-96 -52q-9 -30 -26.5 -57t-40.5 -47.5t-48.5 -33t-50.5 -12.5q-32 0 -57.5 21t-25.5 62q0 35 25.5 70t85.5 73q0 49 -21.5 67t-55.5 18h-109z" />
    <glyph glyph-name="uni0A07" unicode="&#xa07;" horiz-adv-x="928" 
d="M-30 525v125h98v76q0 52 17.5 94t49 72t74 46t93.5 16q47 0 85.5 -13.5t68 -37t50 -54.5t32.5 -66l20 -58l-142 -49l-13 40q-32 98 -100 98q-35 0 -55 -23.5t-20 -58.5v-82h722v-125h-99v-248h-242q-54 0 -84 -20t-39 -62q14 -29 62.5 -47t110.5 -18q58 0 104 15.5
t80 38.5l55 -118q-34 -30 -94 -50.5t-146 -20.5q-68 0 -125 14t-100.5 39.5t-72.5 60.5t-43 77q8 54 30 93t60 68l-20 20q-21 21 -34 46t-13 53q0 18 5 34t11 25h-130v-525h-160v525h-96zM499 473q0 -18 8 -34t20 -27l12 -10h152v123h-133q-29 0 -44 -14t-15 -38z" />
    <glyph glyph-name="uni0A08" unicode="&#xa08;" horiz-adv-x="918" 
d="M-30 525v125h720v82q0 35 -20 56t-55 21q-33 0 -58.5 -22t-41.5 -71l-13 -40l-142 49l20 58q12 35 32.5 65t50 52.5t68 35.5t85.5 13q51 0 93.5 -15.5t74 -44.5t49 -70t17.5 -93v-76h98v-125h-96v-525h-160v525h-128v-248h-242q-54 0 -84 -20t-39 -62q14 -29 62.5 -47
t110.5 -18q58 0 104 15.5t80 38.5l55 -118q-34 -30 -94 -50.5t-146 -20.5q-68 0 -125 14t-100.5 39.5t-72.5 60.5t-43 77q8 54 30 93t60 68l-20 20q-21 21 -34 46t-13 53q0 18 5 34t11 25h-99zM271 525q-29 0 -44 -14t-15 -38q0 -18 8 -34t20 -27l12 -10h152v123h-133z" />
    <glyph glyph-name="uni0A09" unicode="&#xa09;" horiz-adv-x="700" 
d="M40 525h-70v125h83q0 55 17.5 102t54 81t92 53.5t131.5 19.5q57 0 106 -10.5t89.5 -28.5t72.5 -41t56 -49l-76 -101q-42 42 -103 68t-136 26q-28 0 -54 -8t-46 -23t-32 -37.5t-12 -51.5h517v-125h-116q27 -10 37 -32t10 -45q0 -41 -26.5 -73.5t-76.5 -44.5
q39 -10 62 -46.5t23 -87.5q0 -40 -16 -76.5t-49 -64t-84.5 -44t-122.5 -16.5q-79 0 -141 30t-104 83t-64 126.5t-22 161.5v129zM414 406q81 0 81 61q0 58 -70 58h-222v-119h211zM215 281q6 -72 48 -111.5t107 -39.5q49 0 76 22t27 63q0 29 -16.5 47.5t-55.5 18.5h-186z
M200 -10q35 -18 84 -29t94 -11q48 0 95 11.5t81 28.5l46 -94q-16 -15 -41 -28t-55 -22.5t-63 -15t-64 -5.5q-34 0 -68 6t-64 16t-53.5 23t-37.5 26z" />
    <glyph glyph-name="uni0A0A" unicode="&#xa0a;" horiz-adv-x="700" 
d="M40 525h-70v125h83q0 55 17.5 102t54 81t92 53.5t131.5 19.5q57 0 106 -10.5t89.5 -28.5t72.5 -41t56 -49l-76 -101q-42 42 -103 68t-136 26q-28 0 -54 -8t-46 -23t-32 -37.5t-12 -51.5h517v-125h-116q27 -10 37 -32t10 -45q0 -41 -26.5 -73.5t-76.5 -44.5
q39 -10 62 -46.5t23 -87.5q0 -40 -16 -76.5t-49 -64t-84.5 -44t-122.5 -16.5q-79 0 -141 30t-104 83t-64 126.5t-22 161.5v129zM414 406q81 0 81 61q0 58 -70 58h-222v-119h211zM215 281q6 -72 48 -111.5t107 -39.5q49 0 76 22t27 63q0 29 -16.5 47.5t-55.5 18.5h-186z
M200 -10q35 -18 84 -29t94 -11q48 0 95 11.5t81 28.5l46 -94q-16 -15 -41 -28t-55 -22.5t-63 -15t-64 -5.5q-34 0 -68 6t-64 16t-53.5 23t-37.5 26zM200 -185q35 -18 84 -29t94 -11q48 0 95 11.5t81 28.5l46 -94q-16 -15 -41 -28t-55 -22.5t-63 -15t-64 -5.5q-34 0 -68 6
t-64 16t-53.5 23t-37.5 26z" />
    <glyph glyph-name="uni0A0F" unicode="&#xa0f;" horiz-adv-x="641" 
d="M-30 650h433l-15 37q-19 48 -53.5 75.5t-94.5 27.5q-17 0 -42.5 -6t-40.5 -15l-41 129q26 16 63.5 26.5t71.5 10.5q57 0 100 -15t76 -44t57.5 -70.5t43.5 -95.5l22 -60h121v-125h-107v-248h-242q-54 0 -84 -20t-39 -62q14 -29 62.5 -47t110.5 -18q58 0 104 15.5t80 38.5
l55 -118q-34 -30 -94 -50.5t-146 -20.5q-68 0 -125 14t-100.5 39.5t-72.5 60.5t-43 77q8 54 30 93t60 68l-20 20q-21 21 -34 46t-13 53q0 18 5 34t11 25h-99v125zM212 473q0 -18 8 -34t20 -27l12 -10h152v123h-133q-29 0 -44 -14t-15 -38z" />
    <glyph glyph-name="uni0A10" unicode="&#xa10;" horiz-adv-x="898" 
d="M-30 525v125h150q71 0 115 -36.5t55 -105.5l160 85q27 -17 47.5 -43t35 -56t22.5 -62.5t10 -62.5l107 41v240l-15 37q-19 48 -52 75.5t-86 27.5q-25 0 -51.5 -6t-41.5 -15l-41 129q26 16 65.5 26.5t84.5 10.5q51 0 91 -15t71.5 -44t56 -70.5t43.5 -95.5l22 -60h109v-125
h-96v-525h-160v246l-118 -36q-8 -34 -25.5 -62t-41 -47.5t-49.5 -30.5t-52 -11q-36 0 -64.5 22.5t-28.5 66.5q0 45 34 84.5t98 76.5q0 12 -1.5 27t-5.5 30t-11 28.5t-17 21.5l-96 -52q-9 -30 -26.5 -57t-40.5 -47.5t-48.5 -33t-50.5 -12.5q-32 0 -57.5 21t-25.5 62
q0 35 25.5 70t85.5 73q0 49 -21.5 67t-55.5 18h-109z" />
    <glyph glyph-name="uni0A13" unicode="&#xa13;" horiz-adv-x="700" 
d="M40 525h-70v125h83q0 57 17 104.5t52 81t88.5 52t127.5 18.5q54 0 96 -13t78 -27q29 -12 57 -21t58 -9q20 0 35 1t33 7l26 -117q-19 -12 -46 -17.5t-52 -5.5q-38 0 -68.5 9t-50.5 17q-31 12 -54 20t-40 12.5t-31 6t-28 1.5q-68 0 -103 -33t-35 -87h517v-125h-116
q27 -10 37 -32t10 -45q0 -41 -26.5 -73.5t-76.5 -44.5q39 -10 62 -46.5t23 -87.5q0 -40 -16 -76.5t-49 -64t-84.5 -44t-122.5 -16.5q-79 0 -141 30t-104 83t-64 126.5t-22 161.5v129zM414 406q81 0 81 61q0 58 -70 58h-222v-119h211zM215 281q6 -72 48 -111.5t107 -39.5
q49 0 76 22t27 63q0 29 -16.5 47.5t-55.5 18.5h-186z" />
    <glyph glyph-name="uni0A14" unicode="&#xa14;" horiz-adv-x="898" 
d="M619 692q-14 18 -22 40t-8 51q0 19 4 34q-6 -1 -12 -1.5t-14 -0.5q-54 0 -84 38t-30 98q0 9 1 23.5t4 25.5h146q0 -2 -0.5 -5t-0.5 -5v-4q0 -22 5 -36t13.5 -21t20 -9.5t24.5 -2.5t25.5 1t23.5 3q17 2 32 3.5t29 1.5q42 0 73 -11.5t51.5 -31.5t31 -46.5t10.5 -55.5
q0 -27 -8 -50.5t-20 -40.5l-95 22q5 10 5 29q0 25 -15 40.5t-44 15.5t-44 -15.5t-15 -40.5q0 -19 5 -29zM-30 650h150q41 0 71 -11.5t50.5 -31t32.5 -45t16 -54.5l160 85q27 -17 47.5 -43t35 -56t22.5 -62.5t10 -62.5l107 41v240h256v-125h-96v-525h-160v246l-118 -36
q-8 -34 -25.5 -62t-41 -47.5t-49.5 -30.5t-52 -11q-36 0 -64.5 22.5t-28.5 66.5q0 45 34 84.5t98 76.5q0 12 -1.5 27t-5.5 30t-11 28.5t-17 21.5l-96 -52q-9 -30 -26.5 -57t-40.5 -47.5t-48.5 -33t-50.5 -12.5q-32 0 -57.5 21t-25.5 62q0 35 25.5 70t85.5 73q0 49 -21.5 67
t-55.5 18h-109v125z" />
    <glyph glyph-name="uni0A15" unicode="&#xa15;" horiz-adv-x="700" 
d="M-30 650h750v-125h-111q22 -13 33.5 -40.5t11.5 -62.5q0 -48 -20 -90.5t-52 -80.5q35 -48 50.5 -107.5t15.5 -116.5v-16t-1 -16h-176q2 16 3 29t1 27q0 23 -2.5 46t-10.5 37q-32 -24 -83.5 -43.5t-113.5 -19.5q-50 0 -93 14.5t-74.5 41t-49.5 64.5t-18 84q0 42 15 76
t43 59t68 38.5t90 13.5q39 0 72 -7.5t60.5 -20t49 -28t35.5 -31.5q9 15 14 34t5 37q0 38 -23 58.5t-68 20.5h-421v125zM200 268q0 -31 22.5 -46.5t53.5 -15.5q29 0 58 13.5t52 42.5q-22 30 -52.5 48.5t-63.5 18.5q-32 0 -51 -17t-19 -44z" />
    <glyph glyph-name="uni0A16" unicode="&#xa16;" horiz-adv-x="710" 
d="M484 110q-18 -17 -54.5 -31.5t-87.5 -14.5q-70 0 -126 20t-96.5 56.5t-63.5 87t-26 111.5q24 3 45 13.5t36.5 26t24.5 36t9 44.5q0 31 -17.5 48.5t-58.5 17.5h-99v125h82q115 0 179 -42t64 -128q0 -9 -0.5 -19.5t-1.5 -18.5h191v208h256v-125h-96v-525h-160v110zM204 282
q6 -22 22 -38t37 -26t44 -14.5t44 -4.5q63 0 98 34t35 86h-241q-8 -10 -19 -21.5t-20 -15.5z" />
    <glyph glyph-name="uni0A17" unicode="&#xa17;" horiz-adv-x="869" 
d="M-30 525v125h929v-125h-96v-525h-160v525h-127v-337q0 -43 -15 -78.5t-44 -61t-71.5 -39.5t-96.5 -14q-58 0 -104.5 16.5t-78.5 47t-49 74t-17 97.5q0 94 49.5 142t137.5 48h129v105h-386zM281 290q-30 0 -50 -18.5t-20 -56.5q0 -42 23.5 -63.5t58.5 -21.5q30 0 47 15.5
t17 42.5v102h-76z" />
    <glyph glyph-name="uni0A18" unicode="&#xa18;" horiz-adv-x="908" 
d="M-30 525v125h81q126 0 183.5 -44t57.5 -131q0 -62 -25 -112.5t-64 -80.5q4 -15 15.5 -27t27.5 -20t35.5 -12.5t38.5 -4.5q28 0 54.5 8.5t38.5 25.5q-17 34 -27 84t-10 119q0 96 23 149.5t77 53.5q52 0 77.5 -53.5t25.5 -147.5q0 -66 -11.5 -124t-30.5 -93q8 -8 22 -13
t34 -5q42 0 65.5 23t23.5 65v340h256v-125h-96v-525h-160v120q-13 -16 -37 -25t-53 -9q-38 0 -66.5 15t-51.5 39q-23 -26 -65 -41.5t-95 -15.5q-54 0 -105 17.5t-91 50.5t-64.5 80.5t-24.5 107.5q21 4 39.5 13.5t32.5 24t22.5 34.5t8.5 45q0 33 -17.5 51t-58.5 18h-86z" />
    <glyph glyph-name="uni0A19" unicode="&#xa19;" horiz-adv-x="648" 
d="M-30 650h698v-125h-455v-55h149q63 0 109.5 -16t77 -44.5t45 -66.5t14.5 -82q0 -78 -41.5 -134.5t-113.5 -88.5q8 -27 9.5 -48t1.5 -33q0 -11 -0.5 -26.5t-2.5 -22.5h-145q3 21 3 45q0 22 -3 37q-13 -4 -36 -6.5t-45 -2.5q-45 0 -81.5 12.5t-61.5 34t-38.5 51.5t-13.5 66
q0 32 11.5 59.5t33 47.5t53.5 31.5t72 11.5q73 0 121.5 -34t74.5 -86q13 8 22.5 30.5t9.5 48.5q0 19 -7 35.5t-23 29t-41.5 19.5t-62.5 7h-251v180h-83v125zM228 178q-17 0 -27.5 -8.5t-10.5 -24.5q0 -19 15 -30t39 -11q15 0 29 4t22 10q-10 26 -26.5 43t-40.5 17z" />
    <glyph glyph-name="uni0A1A" unicode="&#xa1a;" horiz-adv-x="669" 
d="M109 254q-34 7 -56.5 36t-22.5 75q0 53 33 83t93 30q51 0 83 -21.5t32 -61.5v-5h157v135h-458v125h729v-125h-110v-225q21 -17 30.5 -48t9.5 -62q0 -41 -16 -77t-47.5 -62.5t-78 -42t-108.5 -15.5q-56 0 -105.5 13.5t-86 42t-57.5 71.5t-21 102v32zM270 228q0 -48 30 -74
t78 -26t69.5 23.5t21.5 55.5q0 18 -6.5 33.5t-19.5 24.5h-173v-37z" />
    <glyph glyph-name="uni0A1B" unicode="&#xa1b;" horiz-adv-x="678" 
d="M309 -24q-74 0 -125.5 11t-83.5 32.5t-46 52t-14 69.5q0 85 58 119q-18 10 -36 34t-18 64q0 23 7.5 43t23.5 35t41 24t61 9h249v56h-456v125h738v-125h-122v-166h-341q-20 0 -28.5 -9t-8.5 -21q0 -14 10 -23.5t27 -9.5h166q113 0 170 -34.5t57 -118.5q0 -35 -11.5 -65.5
t-42.5 -53t-83.5 -35.5t-135.5 -13h-56zM391 187q8 -10 12 -24t4 -35q0 -8 -1 -18t-4 -22h20q32 0 46 13t14 38t-14 36.5t-46 11.5h-31zM289 88q3 8 5 18t2 22q0 34 -14.5 46t-35.5 12q-46 0 -46 -44q0 -54 72 -54h17z" />
    <glyph glyph-name="uni0A1C" unicode="&#xa1c;" horiz-adv-x="687" 
d="M44 96q35 21 59 48.5t24 62.5v22q-16 4 -32 12.5t-28 22t-19.5 33t-7.5 44.5q0 53 32.5 84t92.5 31q51 0 83.5 -23t32.5 -63v-5h180v160h-491v125h747v-125h-96v-525h-160v236h-174v-29q0 -80 -44 -130.5t-122 -82.5z" />
    <glyph glyph-name="uni0A1D" unicode="&#xa1d;" horiz-adv-x="668" 
d="M17 408q9 5 22 11t30 11q-15 12 -25.5 27t-10.5 34q0 12 3.5 20.5t8.5 13.5h-75v125h728v-125h-104q11 -11 15 -25.5t4 -27.5q0 -32 -16.5 -56t-33.5 -41q26 -23 40.5 -55.5t14.5 -71.5q0 -36 -12 -68.5t-33 -59.5t-49 -48t-61 -35q6 -21 8.5 -44t2.5 -42
q0 -11 -0.5 -23.5t-2.5 -20.5h-145q2 11 2.5 23.5t0.5 23.5q0 21 -3 36q-14 -4 -34.5 -6.5t-43.5 -2.5q-48 0 -84.5 12.5t-62 34t-38.5 51.5t-13 65q0 67 45.5 108.5t122.5 41.5q39 0 71.5 -11t57 -28.5t42 -39.5t27.5 -44q13 11 22.5 30t9.5 48q0 54 -43 82t-135 28
q-70 0 -123.5 -14.5t-93.5 -34.5zM234 525q-40 0 -40 -29q0 -24 23 -36q17 2 35.5 3.5t36.5 1.5t39 -1.5t42 -4.5t40 -7t32 -9q10 11 14 22t4 21q0 39 -51 39h-175zM200 142q0 -17 15 -28t39 -11q15 0 29 4t22 10q-10 26 -26.5 43t-39.5 17q-17 0 -28 -10t-11 -25z" />
    <glyph glyph-name="uni0A1E" unicode="&#xa1e;" horiz-adv-x="657" 
d="M570 292v-105h-241q4 -22 17.5 -39t34 -29t46.5 -18.5t54 -6.5q27 0 58.5 6t56.5 20l31 -107q-31 -15 -71.5 -23.5t-86.5 -8.5q-61 0 -111.5 15t-88 42.5t-61 65.5t-30.5 84q-28 0 -54.5 9.5t-47.5 27.5t-33.5 43.5t-12.5 57.5q0 38 18 64t46 40q-14 13 -23.5 28.5
t-9.5 34.5q0 12 4 19.5t9 12.5h-104v125h717v-125h-113v-172h-341q-14 0 -26 -6t-12 -22q0 -17 12 -25t26 -8h337zM414 458v67h-150q-18 0 -30 -6.5t-12 -23.5t13 -27t27 -10h152z" />
    <glyph glyph-name="uni0A1F" unicode="&#xa1f;" horiz-adv-x="649" 
d="M-30 650h709v-125h-115v-228h-218q-57 0 -95 -21t-52 -66q20 -37 70 -58.5t114 -21.5q56 0 102.5 15.5t80.5 38.5l53 -110q-34 -30 -94.5 -54.5t-148.5 -24.5q-67 0 -124.5 16t-102 44t-75 65.5t-44.5 80.5q25 114 100.5 167.5t201.5 53.5h72v103h-434v125z" />
    <glyph glyph-name="uni0A20" unicode="&#xa20;" horiz-adv-x="664" 
d="M-30 650h724v-125h-282v-72q112 -20 162 -77.5t50 -145.5q0 -110 -71.5 -172.5t-210.5 -62.5q-67 0 -122.5 15.5t-95.5 46t-62 75t-22 102.5q0 39 11.5 75t36.5 65t65.5 49.5t98.5 29.5v72h-282v125zM335 130q57 0 91 26t34 69q0 40 -31.5 67.5t-94.5 27.5t-93.5 -26.5
t-30.5 -67.5q0 -46 35.5 -71t89.5 -25z" />
    <glyph glyph-name="uni0A21" unicode="&#xa21;" horiz-adv-x="649" 
d="M-20 650h699v-125h-134q14 -8 22.5 -24.5t8.5 -36.5q0 -30 -16.5 -54.5t-36.5 -35.5q45 -23 65.5 -62t20.5 -91q0 -54 -20.5 -98t-62 -75.5t-104 -49t-146.5 -17.5q-55 0 -100 11.5t-77.5 33t-50.5 52.5t-18 69q0 57 41 95t120 38q43 0 77 -12t59 -33t41 -49t22 -60
q31 20 40 45t9 48q0 42 -17 70t-48 38q-23 -5 -48 -7.5t-52 -2.5q-90 0 -132 16.5t-42 60.5q0 46 44.5 60.5t129.5 14.5q29 0 57.5 -4t51.5 -10q10 5 17.5 14t7.5 23q0 33 -49 33h-379v125zM176 142q0 -20 21.5 -31t63.5 -11h6.5t12.5 1q-11 73 -64 73q-19 0 -29.5 -9
t-10.5 -23z" />
    <glyph glyph-name="uni0A22" unicode="&#xa22;" horiz-adv-x="684" 
d="M463 417v108h-493v125h745v-125h-92v-223h-367q0 -31 5.5 -63t15.5 -48q16 24 36.5 39.5t44 24.5t49 12.5t51.5 3.5q93 0 139 -36t46 -99q0 -34 -14 -62.5t-41 -49t-68 -32t-95 -11.5q-66 0 -123.5 18.5t-100 56t-67 94.5t-24.5 133q-37 8 -58.5 36t-21.5 69
q0 51 32.5 78.5t88.5 27.5q54 0 78 -22.5t24 -47.5v-7h210zM420 94q32 0 49.5 11.5t17.5 28.5q0 16 -13 23.5t-32 7.5q-26 0 -49 -14t-32 -40q11 -8 25 -12.5t34 -4.5z" />
    <glyph glyph-name="uni0A23" unicode="&#xa23;" horiz-adv-x="649" 
d="M679 650v-125h-346q5 -18 19 -29.5t33.5 -18t41.5 -9t44 -2.5q33 0 57 3t27 4l18 -110q-25 -6 -49.5 -9.5t-50.5 -3.5l-62 -153q-29 17 -63.5 26t-65.5 9q-29 0 -49 -9.5t-34 -26.5q20 -36 69.5 -53.5t109.5 -17.5t107 15.5t81 38.5l53 -110q-34 -30 -94.5 -54.5
t-149.5 -24.5q-67 0 -124 15.5t-101.5 43t-75 64.5t-44.5 80q12 40 36 70t54.5 49.5t65 29.5t68.5 10q14 0 36 -1.5t39 -6.5l10 23q-72 20 -117 62t-53 96h-199v125h709z" />
    <glyph glyph-name="uni0A24" unicode="&#xa24;" horiz-adv-x="673" 
d="M85 212q49 -42 109 -61t117 -19q66 0 96.5 23.5t30.5 64.5q0 44 -34 64q-28 -7 -61.5 -12t-77.5 -5q-72 0 -111.5 18.5t-39.5 63.5q0 46 41 62t119 16q37 0 66 -4t54 -12q12 11 19.5 23.5t7.5 32.5q0 27 -16 42.5t-52 15.5h-373v125h723v-125h-154q20 -11 30 -30t10 -44
q0 -28 -13.5 -57.5t-40.5 -48.5q34 -22 56 -59t22 -90q0 -43 -17 -79.5t-52 -63.5t-89 -42.5t-128 -15.5q-106 0 -188 29.5t-129 73.5z" />
    <glyph glyph-name="uni0A25" unicode="&#xa25;" horiz-adv-x="710" 
d="M484 110q-17 -18 -56 -32t-97 -14q-65 0 -119 20t-93.5 56.5t-62.5 87t-26 111.5q24 3 45 13t36.5 26t24.5 36.5t9 44.5q0 31 -17.5 48.5t-58.5 17.5h-99v125h770v-125h-96v-525h-160v110zM484 525h-215q13 -7 19.5 -24.5t6.5 -31.5q0 -5 -1 -13.5t-3 -16.5h193v86z
M204 282q6 -22 21 -38t35 -26t43.5 -14.5t47.5 -4.5q69 0 101 32.5t32 84.5h-241q-8 -11 -19 -20.5t-20 -13.5z" />
    <glyph glyph-name="uni0A26" unicode="&#xa26;" horiz-adv-x="697" 
d="M460 363v162h-490v125h757v-125h-107v-287h-343q3 -60 45.5 -85t115.5 -25q59 0 103.5 12.5t74.5 31.5l46 -111q-47 -36 -109 -51.5t-126 -15.5q-56 0 -108.5 12t-94 39.5t-69.5 72.5t-34 112q-37 11 -64 40t-27 80q0 57 36 88t94 31q59 0 88 -28.5t29 -70.5v-7h183z" />
    <glyph glyph-name="uni0A27" unicode="&#xa27;" horiz-adv-x="710" 
d="M484 110q-19 -17 -55.5 -31.5t-96.5 -14.5q-66 0 -120.5 20t-93.5 56.5t-62 87t-26 111.5q48 8 81.5 40t33.5 79q0 29 -16 47t-52 20h-107v125h771v-125h-97v-525h-160v110zM484 525h-227q21 -17 31 -40t10 -51q0 -51 -28 -90t-66 -62q6 -22 21.5 -38t36.5 -26t45 -14.5
t48 -4.5q66 0 97.5 29.5t31.5 80.5v216z" />
    <glyph glyph-name="uni0A28" unicode="&#xa28;" horiz-adv-x="638" 
d="M218 -1q-41 12 -75.5 32.5t-59.5 49.5t-39 67t-14 84q0 36 10 73t34 68t63.5 54t99.5 32v66h-267v125h698v-125h-271v-69q57 -10 97 -31.5t65.5 -51.5t37 -67t11.5 -76q0 -48 -15.5 -85.5t-41.5 -66t-61 -48t-74 -31.5l-60 129q13 3 29 9.5t30 18t23.5 29t9.5 41.5
q0 44 -33 72t-97 28q-67 0 -97.5 -29.5t-30.5 -69.5q0 -21 7.5 -37t19.5 -28t28 -20t32 -13z" />
    <glyph glyph-name="uni0A2A" unicode="&#xa2a;" horiz-adv-x="710" 
d="M484 110q-19 -17 -55 -31.5t-96 -14.5q-66 0 -120.5 20t-94 56.5t-62.5 87t-26 111.5q24 3 45 13t36.5 26t24.5 36.5t9 44.5q0 31 -17.5 48.5t-58.5 17.5h-99v125h83q131 0 188 -47.5t57 -133.5q0 -65 -26 -114.5t-68 -72.5q6 -22 21.5 -38t36.5 -26t45 -14.5t47 -4.5
q62 0 96 29t34 80v342h256v-125h-96v-525h-160v110z" />
    <glyph glyph-name="uni0A2B" unicode="&#xa2b;" horiz-adv-x="672" 
d="M-30 650h732v-125h-107v-180h-251q-38 0 -63.5 -7.5t-41.5 -21t-22.5 -31t-6.5 -38.5q0 -32 13 -54.5t32 -35.5q28 66 78 103t127 37q42 0 74.5 -11.5t54 -31.5t32.5 -47.5t11 -60.5q0 -37 -14.5 -69.5t-44 -56.5t-74.5 -37.5t-106 -13.5q-71 0 -135 19t-112.5 55.5
t-77 89.5t-28.5 120q0 47 15 86.5t45.5 68.5t76.5 45.5t109 16.5h149v55h-465v125zM417 92q11 0 22.5 2.5t21 7.5t15.5 13t6 19q0 15 -11.5 24t-30.5 9q-25 0 -45.5 -17t-29.5 -49q11 -5 26 -7t26 -2z" />
    <glyph glyph-name="uni0A2C" unicode="&#xa2c;" horiz-adv-x="675" 
d="M-29 525v125h734v-125h-96v-525h-160v79q-29 -16 -63.5 -25t-76.5 -9q-49 0 -93.5 12.5t-80.5 35.5t-63 55.5t-42 71.5q11 47 29 80.5t51 62.5l-22 22q-21 21 -34.5 42t-13.5 49q0 17 4.5 28.5t10.5 20.5h-84zM203 487q0 -18 8.5 -34t18.5 -26l9 -9h210v107h-188
q-58 0 -58 -38zM199 229q17 -28 50 -42.5t78 -14.5q52 0 87 22t35 71v28h-147q-46 0 -69.5 -14.5t-33.5 -49.5z" />
    <glyph glyph-name="uni0A2D" unicode="&#xa2d;" horiz-adv-x="656" 
d="M77 190q43 -35 99.5 -54.5t122.5 -19.5q150 0 150 107v14q-10 -11 -28.5 -21.5t-41.5 -19t-49.5 -13.5t-53.5 -5q-39 0 -73 11.5t-59.5 32.5t-40.5 51t-15 67q0 30 10.5 57t32 46.5t53.5 31t74 11.5q53 0 100.5 -16.5t76.5 -40.5q14 20 14 42q0 23 -16 38.5t-52 15.5
h-401v125h706v-125h-107q18 -11 28 -33t10 -46q0 -30 -15.5 -63t-40.5 -58q23 -23 39 -55t16 -77q0 -48 -20.5 -87.5t-59.5 -67.5t-96 -43.5t-129 -15.5q-44 0 -87 6t-82.5 17.5t-73 28.5t-58.5 39zM248 332q0 -18 13.5 -26.5t32.5 -8.5q21 0 43.5 9t38.5 26
q-17 16 -39.5 25t-43.5 9q-23 0 -34 -9.5t-11 -24.5z" />
    <glyph glyph-name="uni0A2E" unicode="&#xa2e;" horiz-adv-x="671" 
d="M139 437q0 18 -1 34t-7.5 28t-20.5 19t-39 7h-88v125h126q50 0 86 -13t59 -36t33.5 -55t10.5 -71v-126h147v301h256v-125h-96v-525h-160v214h-160q-12 -74 -49 -112.5t-88 -38.5q-22 0 -41.5 7.5t-34.5 21t-23.5 33.5t-8.5 45q0 42 25.5 80t73.5 66v121z" />
    <glyph glyph-name="uni0A2F" unicode="&#xa2f;" horiz-adv-x="871" 
d="M-30 650h931v-125h-96v-525h-160v280h-97v-179q-27 -26 -77.5 -46.5t-127.5 -20.5q-71 0 -128.5 20t-98.5 57.5t-63.5 90t-22.5 117.5q51 8 83 42.5t32 80.5q0 42 -27 62.5t-70 20.5h-78v125zM390 419h255v106h-388q23 -14 38 -41.5t15 -62.5q0 -24 -7.5 -48t-21 -44.5
t-32 -36t-39.5 -23.5q7 -47 38.5 -74.5t87.5 -27.5q18 0 32.5 3t21.5 8v241z" />
    <glyph glyph-name="uni0A30" unicode="&#xa30;" horiz-adv-x="616" 
d="M380 425v100h-410v125h676v-125h-106v-337q0 -43 -15 -78.5t-45 -61t-74.5 -39.5t-103.5 -14q-62 0 -112.5 16t-86 46.5t-54.5 74t-19 98.5q0 91 49.5 143t137.5 52h163zM380 295h-96q-39 0 -61 -21.5t-22 -56.5q0 -43 28.5 -65t70.5 -22q35 0 57.5 16.5t22.5 51.5v97z
" />
    <glyph glyph-name="uni0A32" unicode="&#xa32;" horiz-adv-x="797" 
d="M236 -27q-43 11 -79 33t-62 52t-40.5 67t-14.5 78q0 36 11 66.5t30 53.5t44.5 39.5t53.5 24.5q-13 16 -23.5 39.5t-10.5 47.5q0 8 3 24t14 27h-192v125h857v-125h-187q11 -11 15 -25.5t4 -25.5q0 -22 -10.5 -46.5t-24.5 -40.5q29 -9 53 -26t42 -40.5t28 -53t10 -62.5
q0 -42 -16 -80t-43 -68.5t-62.5 -52.5t-74.5 -33l-69 105q9 5 25 15.5t31.5 26.5t27 37.5t11.5 48.5q0 33 -18.5 55t-46.5 31l-123 -71l-123 73q-25 -11 -45.5 -33t-20.5 -60q0 -23 8 -42t21 -34t30.5 -26.5t35.5 -20.5zM403 349l18 11q16 10 32 22.5t29 28t21 32.5t8 36
q0 21 -12.5 33.5t-42.5 12.5h-107q-30 0 -44 -13t-14 -35q0 -18 8.5 -35t22 -32t30 -28t32.5 -22z" />
    <glyph glyph-name="uni0A33" unicode="&#xa33;" horiz-adv-x="797" 
d="M236 -27q-43 11 -79 33t-62 52t-40.5 67t-14.5 78q0 36 11 66.5t30 53.5t44.5 39.5t53.5 24.5q-13 16 -23.5 39.5t-10.5 47.5q0 8 3 24t14 27h-192v125h857v-125h-187q11 -11 15 -25.5t4 -25.5q0 -22 -10.5 -46.5t-24.5 -40.5q29 -9 53 -26t42 -40.5t28 -53t10 -62.5
q0 -42 -16 -80t-43 -68.5t-62.5 -52.5t-74.5 -33l-69 105q9 5 25 15.5t31.5 26.5t27 37.5t11.5 48.5q0 33 -18.5 55t-46.5 31l-123 -71l-123 73q-25 -11 -45.5 -33t-20.5 -60q0 -23 8 -42t21 -34t30.5 -26.5t35.5 -20.5zM403 349l18 11q16 10 32 22.5t29 28t21 32.5t8 36
q0 21 -12.5 33.5t-42.5 12.5h-107q-30 0 -44 -13t-14 -35q0 -18 8.5 -35t22 -32t30 -28t32.5 -22zM42 -120q-37 0 -59.5 22.5t-22.5 56.5t22.5 57t59.5 23t59.5 -23t22.5 -57t-22.5 -56.5t-59.5 -22.5z" />
    <glyph glyph-name="uni0A35" unicode="&#xa35;" horiz-adv-x="657" 
d="M570 296v-109h-241q4 -22 17.5 -37.5t33.5 -25.5t45 -15t52 -5q30 0 62 6t57 20l31 -107q-31 -15 -72 -23.5t-89 -8.5q-120 0 -197 52.5t-91 144.5q-28 1 -55 12t-47.5 30.5t-33 47.5t-12.5 62q0 62 39 95t107 33h238v57h-444v125h717v-125h-113v-168h-343q-14 0 -26 -6
t-12 -22q0 -17 12 -25t26 -8h339z" />
    <glyph glyph-name="uni0A36" unicode="&#xa36;" horiz-adv-x="683" 
d="M616 525v-525h-160v204h-180q-12 -74 -49 -112.5t-88 -38.5q-22 0 -41.5 7.5t-34.5 21t-23.5 33.5t-8.5 45q0 42 25.5 80t73.5 66v219h-155v125h738v-125h-97zM456 525h-166v-186h166v186zM347 0q-33 0 -53 20t-20 50q0 29 20 49.5t53 20.5q32 0 51.5 -20.5t19.5 -49.5
q0 -30 -19.5 -50t-51.5 -20z" />
    <glyph glyph-name="uni0A38" unicode="&#xa38;" horiz-adv-x="672" 
d="M605 525v-525h-160v204h-170q-12 -74 -49 -112.5t-88 -38.5q-22 0 -41.5 7.5t-34.5 21t-23.5 33.5t-8.5 45q0 42 25.5 80t73.5 66v219h-154v125h727v-125h-97zM445 525h-156v-186h156v186z" />
    <glyph glyph-name="uni0A39" unicode="&#xa39;" horiz-adv-x="625" 
d="M399 525h-429v125h685v-125h-96v-292q0 -107 -60 -170t-185 -63q-62 0 -112.5 16t-86.5 46.5t-55.5 74.5t-19.5 99q0 90 49.5 142t138.5 52q32 0 63.5 -7t55.5 -18l-23 -117q-11 6 -20.5 9t-22.5 3q-34 0 -52.5 -19.5t-18.5 -54.5q0 -45 27.5 -68t70.5 -23q46 0 68.5 27
t22.5 84v279z" />
    <glyph glyph-name="uni0A3C" unicode="&#xa3c;" 
d="M-270 -227q-37 0 -59.5 22.5t-22.5 56.5t22.5 57t59.5 23t59.5 -23t22.5 -57t-22.5 -56.5t-59.5 -22.5z" />
    <glyph glyph-name="uni0A3E" unicode="&#xa3e;" horiz-adv-x="292" 
d="M66 525h-96v125h352v-125h-96v-325h-160v325z" />
    <glyph glyph-name="uni0A3F" unicode="&#xa3f;" horiz-adv-x="292" 
d="M66 525h-96v125h98v76q0 52 17.5 94t49 72t74 46t93.5 16q47 0 85.5 -13.5t68 -37t50 -54.5t32.5 -66l20 -58l-142 -49l-13 40q-32 98 -100 98q-35 0 -55 -23.5t-20 -58.5v-82h94v-125h-96v-525h-160v525z" />
    <glyph glyph-name="uni0A40" unicode="&#xa40;" horiz-adv-x="292" 
d="M66 525h-96v125h94v82q0 35 -20 56t-55 21q-33 0 -58.5 -22t-41.5 -71l-13 -40l-142 49l20 58q12 35 32.5 65t50 52.5t68 35.5t85.5 13q51 0 93.5 -15.5t74 -44.5t49 -70t17.5 -93v-76h98v-125h-96v-525h-160v525z" />
    <glyph glyph-name="uni0A41" unicode="&#xa41;" 
d="M-512 -10q35 -18 84 -29t94 -11q48 0 95 11.5t81 28.5l46 -94q-16 -15 -41 -28t-55 -22.5t-63 -15t-64 -5.5q-34 0 -68 6t-64 16t-54 23t-37 26z" />
    <glyph glyph-name="uni0A42" unicode="&#xa42;" 
d="M-512 -10q35 -18 84 -29t94 -11q48 0 95 11.5t81 28.5l46 -94q-16 -15 -41 -28t-55 -22.5t-63 -15t-64 -5.5q-34 0 -68 6t-64 16t-54 23t-37 26zM-512 -175q35 -18 84 -29t94 -11q48 0 95 11.5t81 28.5l46 -94q-16 -15 -41 -28t-55 -22.5t-63 -15t-64 -5.5q-34 0 -68 6
t-64 16t-54 23t-37 26z" />
    <glyph glyph-name="uni0A47" unicode="&#xa47;" 
d="M-501 898q26 16 65 26.5t82 10.5q97 0 156.5 -59t98.5 -166l24 -66h-147l-17 43q-19 48 -52 75.5t-86 27.5q-25 0 -46.5 -6t-36.5 -15z" />
    <glyph glyph-name="uni0A48" unicode="&#xa48;" 
d="M-220 644q-37 43 -80 66t-97 23q-21 0 -43 -3.5t-39 -9.5l-27 118q20 9 50 15.5t63 6.5q70 0 127.5 -33t88.5 -97h4q-5 39 -21.5 71t-41 54.5t-56.5 34.5t-68 12q-10 0 -17 -0.5t-17 -2.5l-22 119q19 8 41.5 14t54.5 6q57 0 105 -21t83 -59t55 -91.5t20 -118.5
q0 -28 -3.5 -54.5t-8.5 -49.5h-151z" />
    <glyph glyph-name="uni0A4B" unicode="&#xa4b;" 
d="M-387 910q-1 -3 -1 -10v-4q0 -55 72 -55q13 0 27.5 1.5t31.5 3.5t26.5 2.5t18.5 0.5q60 0 99 -33.5t39 -99.5q0 -26 -5.5 -51.5t-11.5 -37.5h-122l-13 23q0 31 -18 48t-57 17q-8 0 -20 -0.5t-17 -1.5t-15 -1.5t-21 -0.5q-34 0 -64 8.5t-52 27t-35 47t-13 67.5q0 9 1 23.5
t4 25.5h146z" />
    <glyph glyph-name="uni0A4C" unicode="&#xa4c;" 
d="M-293 712q-14 18 -22 40t-8 51q0 19 4 34q-6 -1 -12 -1.5t-14 -0.5q-54 0 -84 38t-30 98q0 9 1 23.5t4 25.5h146q-1 -3 -1 -10v-4q0 -22 5 -36t13.5 -21t20 -9.5t24.5 -2.5t25.5 1t23.5 3q17 2 32 3.5t29 1.5q42 0 73 -11.5t51.5 -31.5t31 -46.5t10.5 -55.5
q0 -27 -8 -50.5t-20 -40.5l-95 22q5 10 5 29q0 25 -15 40.5t-44 15.5t-44 -15.5t-15 -40.5q0 -19 5 -29z" />
    <glyph glyph-name="uni0A4D" unicode="&#xa4d;" 
d="M-64 -329q-20 25 -44.5 52t-51.5 52t-54 47t-51 38l78 100q30 -16 61.5 -41.5t60.5 -56t53.5 -63t39.5 -60.5z" />
    <glyph glyph-name="uni0A51" unicode="&#xa51;" 
d="M-167 -62q18 -23 41.5 -48t50.5 -50t55.5 -47.5t55.5 -40.5l-60 -97q-30 13 -64 34.5t-66.5 48.5t-60.5 56.5t-46 58.5z" />
    <glyph glyph-name="uni0A59" unicode="&#xa59;" horiz-adv-x="710" 
d="M484 110q-18 -17 -54.5 -31.5t-87.5 -14.5q-70 0 -126 20t-96.5 56.5t-63.5 87t-26 111.5q24 3 45 13.5t36.5 26t24.5 36t9 44.5q0 31 -17.5 48.5t-58.5 17.5h-99v125h82q115 0 179 -42t64 -128q0 -9 -0.5 -19.5t-1.5 -18.5h191v208h256v-125h-96v-525h-160v110zM204 282
q6 -22 22 -38t37 -26t44 -14.5t44 -4.5q63 0 98 34t35 86h-241q-8 -10 -19 -21.5t-20 -15.5zM82 -64q-37 0 -59.5 22.5t-22.5 56.5t22.5 57t59.5 23t59.5 -23t22.5 -57t-22.5 -56.5t-59.5 -22.5z" />
    <glyph glyph-name="uni0A5A" unicode="&#xa5a;" horiz-adv-x="869" 
d="M356 420v105h-386v125h929v-125h-96v-525h-160v525h-127v-337q0 -43 -15 -78.5t-44 -61t-71.5 -39.5t-96.5 -14q-58 0 -104.5 16.5t-78.5 47t-49 74t-17 97.5q0 94 49.5 142t137.5 48h129zM357 290h-76q-30 0 -50 -18.5t-20 -56.5q0 -42 23.5 -63.5t58.5 -21.5
q30 0 47 15.5t17 42.5v102zM62 -140q-37 0 -59.5 22.5t-22.5 56.5t22.5 57t59.5 23t59.5 -23t22.5 -57t-22.5 -56.5t-59.5 -22.5z" />
    <glyph glyph-name="uni0A5B" unicode="&#xa5b;" horiz-adv-x="707" 
d="M44 96q35 21 59 48.5t24 62.5v22q-16 4 -32 12.5t-28 22t-19.5 33t-7.5 44.5q0 53 32.5 84t92.5 31q51 0 83.5 -23t32.5 -63v-5h200v160h-511v125h767v-125h-96v-525h-160v236h-194v-29q0 -80 -44 -130.5t-122 -82.5zM376 20q-33 0 -53 20t-20 50q0 29 20 49.5t53 20.5
q32 0 51.5 -20.5t19.5 -49.5q0 -30 -19.5 -50t-51.5 -20z" />
    <glyph glyph-name="uni0A5C" unicode="&#xa5c;" horiz-adv-x="662" 
d="M692 650v-125h-138q20 -11 30 -30t10 -43q0 -29 -14 -54.5t-40 -45.5q37 -20 55 -56.5t18 -84.5q0 -60 -28.5 -106.5t-90.5 -72.5l62 -108l-129 -52l-61 134q-7 -1 -13.5 -1h-13.5q-48 0 -78 6l55 -122l-123 -52l-68 192q-57 17 -86 49t-29 74q0 41 25.5 66t68.5 25
q36 0 61 -18.5t42 -49.5l13 -23q17 -8 41.5 -11.5t49.5 -3.5q69 0 100.5 25t31.5 63q0 21 -9 39.5t-25 26.5q-28 -7 -61.5 -12t-76.5 -5q-73 0 -112.5 18.5t-39.5 63.5t39.5 61.5t110.5 16.5q41 0 73 -4t57 -12q12 10 19.5 23.5t7.5 30.5q0 23 -16 38t-52 15h-388v125h722z
" />
    <glyph glyph-name="uni0A5E" unicode="&#xa5e;" horiz-adv-x="672" 
d="M-30 650h732v-125h-107v-180h-251q-38 0 -63.5 -7.5t-41.5 -21t-22.5 -31t-6.5 -38.5q0 -32 13 -54.5t32 -35.5q28 66 78 103t127 37q42 0 74.5 -11.5t54 -31.5t32.5 -47.5t11 -60.5q0 -37 -14.5 -69.5t-44 -56.5t-74.5 -37.5t-106 -13.5q-71 0 -135 19t-112.5 55.5
t-77 89.5t-28.5 120q0 47 15 86.5t45.5 68.5t76.5 45.5t109 16.5h149v55h-465v125zM417 92q11 0 22.5 2.5t21 7.5t15.5 13t6 19q0 15 -11.5 24t-30.5 9q-25 0 -45.5 -17t-29.5 -49q11 -5 26 -7t26 -2zM82 -141q-37 0 -59.5 22.5t-22.5 56.5t22.5 57t59.5 23t59.5 -23
t22.5 -57t-22.5 -56.5t-59.5 -22.5z" />
    <glyph glyph-name="uni0A66" unicode="&#xa66;" horiz-adv-x="701" 
d="M35 319q0 71 21 127t61.5 96t100 61t135.5 21q157 0 238.5 -81t81.5 -228q0 -146 -79.5 -223t-231.5 -77q-75 0 -135.5 19.5t-103 58t-65.5 95.5t-23 131zM362 150q64 0 102.5 41.5t38.5 126.5q0 89 -41 131.5t-106 42.5q-69 0 -110 -44.5t-41 -125.5q0 -42 12 -74.5
t33 -54t50 -32.5t62 -11z" />
    <glyph glyph-name="uni0A67" unicode="&#xa67;" horiz-adv-x="558" 
d="M383 -9q-35 23 -56.5 65t-21.5 102q0 24 3.5 53t9.5 59q-9 -8 -29 -14t-52 -6q-41 0 -77.5 12.5t-64 38.5t-43.5 66.5t-16 96.5q0 100 53.5 155.5t162.5 55.5q60 0 102.5 -16.5t70 -44.5t40.5 -64.5t13 -76.5q0 -50 -2 -84t-4 -59.5t-4 -48t-2 -50.5q0 -68 13 -107.5
t39 -62.5zM262 379q62 0 62 82q0 40 -16 62t-48 22t-48.5 -21.5t-16.5 -60.5q0 -42 17.5 -63t49.5 -21z" />
    <glyph glyph-name="uni0A68" unicode="&#xa68;" horiz-adv-x="558" 
d="M36 251q0 42 24.5 68.5t70.5 26.5q36 0 59 -17.5t47 -47.5l11 -13q45 14 77.5 49t32.5 90q0 60 -41 91.5t-110 31.5q-32 0 -59.5 -6t-50.5 -17l-45 123q31 18 83.5 31.5t113.5 13.5q68 0 120 -18.5t87 -52.5t53.5 -80.5t18.5 -103.5q0 -93 -47.5 -158.5t-138.5 -103.5
l139 -139l-144 -112l-143 215q-37 0 -66 10t-49.5 27.5t-31.5 41t-11 50.5z" />
    <glyph glyph-name="uni0A69" unicode="&#xa69;" horiz-adv-x="609" 
d="M203 -7q-34 4 -63 14.5t-50.5 27.5t-34 40.5t-12.5 53.5q0 42 24.5 65.5t66.5 23.5q35 0 60 -16.5t50 -45.5l24 -28q8 -2 14.5 -2h12.5q54 0 87 25.5t33 65.5q0 48 -49 67q-26 -6 -51 -10t-60 -4q-65 0 -101.5 16.5t-36.5 58.5q0 24 12 39t30 23t40 11t42 3q21 0 42 -2
t38.5 -5t30 -6t15.5 -5q13 8 24.5 24.5t11.5 40.5q0 32 -28.5 52.5t-93.5 20.5q-49 0 -88.5 -11t-68.5 -27l-48 118q31 18 85.5 36t136.5 18q69 0 120 -15t85 -41t51 -60.5t17 -74.5q0 -51 -23 -85.5t-53 -52.5q52 -25 71 -61.5t19 -78.5q0 -35 -12 -66.5t-37.5 -58
t-65.5 -45.5t-97 -30l109 -113l-144 -112z" />
    <glyph glyph-name="uni0A6A" unicode="&#xa6a;" horiz-adv-x="651" 
d="M117 356q-38 29 -60 71t-22 90q0 64 39 110.5t106 71.5l82 -109q-24 -13 -40.5 -31t-16.5 -45q0 -31 23.5 -58t67.5 -52l34 -19l31 18q45 26 67.5 51.5t22.5 57.5q0 31 -19 49.5t-39 28.5l86 116q30 -13 55.5 -30.5t45 -40t30.5 -50.5t11 -63q0 -54 -24.5 -97t-62.5 -73
l-36 -28q40 -23 65 -65.5t25 -96.5q0 -43 -18 -77.5t-52 -58.5t-81.5 -37t-107.5 -13t-109 13t-83.5 38t-53.5 61.5t-19 82.5q0 60 27.5 99t64.5 57zM329 111q45 0 67 16.5t22 42.5q0 29 -26 54t-66 40q-37 -14 -63.5 -38t-26.5 -54q0 -29 25 -45t68 -16z" />
    <glyph glyph-name="uni0A6B" unicode="&#xa6b;" horiz-adv-x="671" 
d="M443 160q-19 -17 -55 -31.5t-96 -14.5q-57 0 -103.5 14.5t-82.5 39.5t-61 58t-38 70q26 34 44 81t18 97q0 36 -10.5 70t-28.5 58l152 63q29 -29 43 -72.5t14 -91.5q0 -56 -16.5 -111t-42.5 -90q17 -23 53.5 -37t80.5 -14q61 0 95 29t34 80v292h160v-650h-160v160z" />
    <glyph glyph-name="uni0A6C" unicode="&#xa6c;" horiz-adv-x="616" 
d="M46 185q0 46 20.5 78t56.5 55q-35 25 -54 60.5t-19 80.5q0 41 16.5 76.5t49 62t81.5 42t114 15.5q-8 27 -8 54q0 32 11 60.5t32 49.5t51.5 33.5t69.5 12.5q46 0 82 -16t57 -40l-39 -96q-12 10 -28.5 15.5t-32.5 5.5q-28 0 -44.5 -17.5t-16.5 -45.5q0 -17 7 -33
q54 -15 87 -44.5t33 -71.5q0 -35 -22.5 -58.5t-60.5 -23.5q-27 0 -58 13.5t-52 40.5l-22 29h-9q-68 0 -99 -23.5t-31 -59.5q0 -23 11 -41.5t29 -28.5q5 2 18 5t31 5.5t39 4t41 1.5q25 0 48.5 -3.5t42 -12t29.5 -23.5t11 -39q0 -42 -35.5 -58.5t-98.5 -16.5q-41 0 -70.5 5
t-54.5 13q-22 -8 -32 -23.5t-10 -33.5q0 -35 36 -52t105 -17q54 0 98 10.5t86 31.5l44 -115q-39 -28 -98.5 -45t-143.5 -17q-75 0 -131 14.5t-93 41t-55.5 62t-18.5 77.5z" />
    <glyph glyph-name="uni0A6D" unicode="&#xa6d;" horiz-adv-x="599" 
d="M51 149q17 -2 35.5 -3t32.5 -1q62 0 113.5 14t88.5 42.5t57.5 72t20.5 102.5q0 66 -27 104.5t-85 38.5q-46 0 -69.5 -24.5t-23.5 -67.5q0 -11 1.5 -20t3.5 -20h-160q-4 14 -6.5 27t-2.5 33q0 45 16.5 83t48.5 66t80 43.5t112 15.5q72 0 125.5 -20t88 -56.5t51.5 -87.5
t17 -112q0 -80 -28 -148t-81 -117t-130.5 -76.5t-176.5 -27.5q-28 0 -56.5 2t-45.5 5v132z" />
    <glyph glyph-name="uni0A6E" unicode="&#xa6e;" horiz-adv-x="645" 
d="M595 492v-125h-348q0 -116 43 -172t129 -56q54 0 94 17.5t63 36.5l59 -106q-42 -42 -101.5 -62t-128.5 -20q-81 0 -140.5 27t-98 74.5t-57 112t-18.5 140.5q-18 5 -34 15t-29 25t-20.5 35.5t-7.5 45.5q0 57 37 88t96 31q31 0 53 -8.5t35.5 -22t19.5 -30.5t6 -34v-12h348z
" />
    <glyph glyph-name="uni0A6F" unicode="&#xa6f;" horiz-adv-x="665" 
d="M91 359q-18 5 -34 15t-29 25t-20.5 35.5t-7.5 45.5q0 57 37 88t96 31q31 0 53 -8.5t35.5 -22t19.5 -30.5t6 -34v-12h165q-17 14 -28.5 42t-11.5 56q0 24 9 45.5t27.5 38t47 26t66.5 9.5q35 0 68 -7.5t55 -18.5l-22 -93q-8 3 -22.5 5.5t-25.5 2.5q-27 0 -41.5 -15.5
t-14.5 -36.5q0 -19 14 -36.5t48 -17.5h44v-125h-378q0 -116 43 -172t129 -56q54 0 94 17.5t63 36.5l59 -106q-42 -42 -101.5 -62t-128.5 -20q-81 0 -140.5 27t-98 74.5t-57 112t-18.5 140.5z" />
    <glyph glyph-name="uni0A70" unicode="&#xa70;" 
d="M-293 712q-14 18 -22 40t-8 50q0 30 11 56t32.5 45.5t55 31t78.5 11.5t78.5 -11.5t55 -31.5t32 -46.5t10.5 -55.5q0 -27 -8 -50.5t-20 -40.5l-95 22q5 10 5 29q0 25 -15 40.5t-44 15.5t-44 -15.5t-15 -40.5q0 -19 5 -29z" />
    <glyph glyph-name="uni0A71" unicode="&#xa71;" 
d="M-257 947q0 -34 8.5 -58.5t23.5 -39.5t35.5 -22t43.5 -7t43.5 7t35.5 22t23.5 39.5t8.5 58.5l120 -23q0 -103 -59 -158.5t-172 -55.5t-172 55.5t-59 158.5z" />
    <glyph glyph-name="uni0A72" unicode="&#xa72;" horiz-adv-x="649" 
d="M100 367q-21 21 -34 46t-13 53q0 18 5 34t11 25h-99v125h709v-125h-115v-248h-242q-54 0 -84 -20t-39 -62q14 -29 62.5 -47t110.5 -18q58 0 104 15.5t80 38.5l55 -118q-34 -30 -94 -50.5t-146 -20.5q-68 0 -125 14t-100.5 39.5t-72.5 60.5t-43 77q8 54 30 93t60 68z
M252 402h152v123h-133q-29 0 -44 -14t-15 -38q0 -18 8 -34t20 -27z" />
    <glyph glyph-name="uni0A73" unicode="&#xa73;" horiz-adv-x="700" 
d="M42 525h-72v125h85q0 55 17.5 102t54 81t92 53.5t131.5 19.5q57 0 106 -10.5t89.5 -28.5t72.5 -41t56 -49l-76 -101q-42 42 -103 68t-136 26q-28 0 -54 -8t-46 -23t-32 -37.5t-12 -51.5h515v-125h-114q27 -10 37 -32t10 -45q0 -41 -26.5 -73.5t-76.5 -44.5
q39 -10 62 -46.5t23 -87.5q0 -40 -16 -76.5t-49 -64t-84.5 -44t-122.5 -16.5q-79 0 -141 30t-104 83t-64 126.5t-22 161.5v129zM416 406q81 0 81 61q0 58 -70 58h-222v-119h211zM217 281q6 -72 48 -111.5t107 -39.5q49 0 76 22t27 63q0 29 -16.5 47.5t-55.5 18.5h-186z" />
    <glyph glyph-name="uni0A74" unicode="&#xa74;" horiz-adv-x="1251" 
d="M1251 650v-125h-115q27 -10 37 -32t10 -45q0 -41 -26.5 -73.5t-76.5 -44.5q39 -10 62 -46.5t23 -87.5q0 -40 -16 -76.5t-49 -64t-84 -44t-122 -16.5q-80 0 -142.5 24t-105.5 80t-65.5 147t-22.5 225v49q0 106 19 179.5t57.5 119.5t95 66.5t131.5 20.5q85 0 148.5 -21
t105.5 -48q29 35 71.5 55.5t96.5 20.5q26 0 48 -4.5t38 -10.5t25.5 -11.5t12.5 -7.5l-36 -122q-3 2 -27 10.5t-61 8.5q-44 0 -85.5 -18t-79.5 -60q-42 32 -101.5 52t-128.5 20q-45 0 -76 -9t-50.5 -25.5t-28 -38t-8.5 -47.5h526zM386 -9q-35 23 -56.5 65t-21.5 102
q0 24 3.5 53t9.5 59q-9 -8 -29 -14t-53 -6q-40 0 -76.5 12t-64 37.5t-43.5 66t-16 96.5q0 100 54 156.5t166 56.5q59 0 101 -16t69 -43t39.5 -63.5t12.5 -77.5q0 -51 -2 -85t-4 -60t-4 -48.5t-2 -50.5q0 -68 13 -107.5t39 -62.5zM264 379q63 0 63 82q0 40 -15.5 62t-47.5 22
t-49 -22t-17 -61q0 -42 17.5 -62.5t48.5 -20.5zM936 406q81 0 81 61q0 58 -70 58h-232v-119h221zM728 281q3 -36 17 -64t36 -47.5t50.5 -29.5t60.5 -10q49 0 76 22t27 63q0 29 -16.5 47.5t-55.5 18.5h-195z" />
    <glyph glyph-name="uni0A75" unicode="&#xa75;" 
d="M-226 69h160v-127q0 -30 12.5 -43t35.5 -13q25 0 42 14l58 -100q-23 -31 -64 -49t-89 -18q-69 0 -112 40.5t-43 125.5v170z" />
    <glyph glyph-name="uni1E0C" unicode="&#x1e0c;" horiz-adv-x="666" 
d="M50 601q47 20 108 29.5t119 9.5q172 0 260.5 -82.5t88.5 -240.5q0 -84 -24.5 -144t-69 -98.5t-106.5 -56.5t-136 -18h-240v601zM281 130q76 0 119.5 45.5t43.5 141.5q0 92 -42 138.5t-122 46.5q-14 0 -29 -1.5t-29 -5.5v-365h59zM310 -237q-41 0 -66 26t-25 63t25 62.5
t66 25.5t66 -25.5t25 -62.5t-25 -63t-66 -26z" />
    <glyph glyph-name="uni1E0D" unicode="&#x1e0d;" horiz-adv-x="627" 
d="M414 27q-50 -32 -125 -32q-55 0 -100.5 17t-78.5 49t-51.5 79t-18.5 107q0 58 17 104t48 78t74.5 49t95.5 17q16 0 34 -1.5t34.5 -4t30 -6t22.5 -6.5v173h159v-530l52 -75l-132 -96zM395 347q-17 8 -40 12t-43 4q-47 0 -76.5 -27.5t-29.5 -86.5q0 -33 9.5 -55.5t24.5 -37
t34 -21t38 -6.5q33 0 58 20.5t25 68.5v129zM327 -237q-41 0 -66 26t-25 63t25 62.5t66 25.5t66 -25.5t25 -62.5t-25 -63t-66 -26z" />
    <glyph glyph-name="uni1E0E" unicode="&#x1e0e;" horiz-adv-x="666" 
d="M50 601q47 20 108 29.5t119 9.5q172 0 260.5 -82.5t88.5 -240.5q0 -84 -24.5 -144t-69 -98.5t-106.5 -56.5t-136 -18h-240v601zM281 130q76 0 119.5 45.5t43.5 141.5q0 92 -42 138.5t-122 46.5q-14 0 -29 -1.5t-29 -5.5v-365h59zM125 -80h350v-130h-350v130z" />
    <glyph glyph-name="uni1E0F" unicode="&#x1e0f;" horiz-adv-x="627" 
d="M414 27q-50 -32 -125 -32q-55 0 -100.5 17t-78.5 49t-51.5 79t-18.5 107q0 58 17 104t48 78t74.5 49t95.5 17q16 0 34 -1.5t34.5 -4t30 -6t22.5 -6.5v173h159v-530l52 -75l-132 -96zM395 347q-17 8 -40 12t-43 4q-47 0 -76.5 -27.5t-29.5 -86.5q0 -33 9.5 -55.5t24.5 -37
t34 -21t38 -6.5q33 0 58 20.5t25 68.5v129zM143 -80h350v-130h-350v130z" />
    <glyph glyph-name="uni1E20" unicode="&#x1e20;" horiz-adv-x="665" 
d="M347 374h278v-282q-37 -45 -106 -72t-155 -27q-71 0 -130.5 20.5t-102.5 61.5t-67 102t-24 143q0 73 20 132t60 100.5t99.5 64t138.5 22.5q83 0 143.5 -22t100.5 -53l-51 -116q-32 20 -75.5 33.5t-88.5 13.5q-81 0 -124 -48t-43 -129q0 -47 14 -81t37.5 -55.5t54.5 -32
t64 -10.5q23 0 40 3.5t25 7.5v96h-108v128zM167 846h350v-130h-350v130z" />
    <glyph glyph-name="uni1E21" unicode="&#x1e21;" horiz-adv-x="590" 
d="M92 3q40 -28 83.5 -44t91.5 -16q57 0 84 21.5t27 54.5v42q-20 -9 -45.5 -13.5t-52.5 -4.5q-45 0 -88.5 13t-77 41.5t-54 73.5t-20.5 109q0 59 18 103.5t50.5 74.5t78.5 45t103 15q33 0 69.5 -5t71 -14.5t63.5 -23.5t46 -31v-423q0 -53 -21 -92.5t-58 -66t-85.5 -40
t-104.5 -13.5q-80 0 -137.5 23.5t-93.5 53.5zM305 175q32 0 53.5 20.5t21.5 68.5v109q-12 5 -33 9t-40 4q-48 0 -74.5 -28t-26.5 -77q0 -29 8.5 -49t23 -33t32 -18.5t35.5 -5.5zM136 722h350v-130h-350v130z" />
    <glyph glyph-name="uni1E24" unicode="&#x1e24;" horiz-adv-x="637" 
d="M50 636h170v-253h197v253h170v-636h-170v248h-197v-248h-170v636zM319 -237q-41 0 -66 26t-25 63t25 62.5t66 25.5t66 -25.5t25 -62.5t-25 -63t-66 -26z" />
    <glyph glyph-name="uni1E25" unicode="&#x1e25;" horiz-adv-x="578" 
d="M50 650h159v-167q9 4 22.5 7t29 5.5t32 4t30.5 1.5q43 0 79 -13.5t61.5 -39.5t39.5 -63.5t14 -85.5v-197l41 -46l-121 -105l-79 81v252q0 41 -22 63t-64 22q-18 0 -34 -4t-28 -11v-354h-160v650zM283 -237q-41 0 -66 26t-25 63t25 62.5t66 25.5t66 -25.5t25 -62.5
t-25 -63t-66 -26z" />
    <glyph glyph-name="uni1E2A" unicode="&#x1e2a;" horiz-adv-x="637" 
d="M50 0v636h170v-253h197v253h170v-636h-170v248h-197v-248h-170zM213 -60q13 -30 42 -45.5t64 -15.5t64 15.5t42 45.5l95 -57q-21 -58 -74 -91t-127 -33t-127 33t-74 91z" />
    <glyph glyph-name="uni1E2B" unicode="&#x1e2b;" horiz-adv-x="578" 
d="M50 650h159v-167q9 4 22.5 7t29 5.5t32 4t30.5 1.5q43 0 79 -13.5t61.5 -39.5t39.5 -63.5t14 -85.5v-197l41 -46l-121 -105l-79 81v252q0 41 -22 63t-64 22q-18 0 -34 -4t-28 -11v-354h-160v650zM167 -60q13 -30 42 -45.5t64 -15.5t64 15.5t42 45.5l95 -57
q-21 -58 -74 -91t-127 -33t-127 33t-74 91z" />
    <glyph glyph-name="uni1E36" unicode="&#x1e36;" horiz-adv-x="483" 
d="M50 636h170v-496h243v-140h-413v636zM243 -237q-41 0 -66 26t-25 63t25 62.5t66 25.5t66 -25.5t25 -62.5t-25 -63t-66 -26z" />
    <glyph glyph-name="uni1E37" unicode="&#x1e37;" horiz-adv-x="270" 
d="M50 636h170v-636h-170v636zM135 -237q-41 0 -66 26t-25 63t25 62.5t66 25.5t66 -25.5t25 -62.5t-25 -63t-66 -26z" />
    <glyph glyph-name="uni1E38" unicode="&#x1e38;" horiz-adv-x="501" 
d="M-35 846h350v-130h-350v130zM58 636h170v-496h243v-140h-413v636zM255 -237q-41 0 -66 26t-25 63t25 62.5t66 25.5t66 -25.5t25 -62.5t-25 -63t-66 -26z" />
    <glyph glyph-name="uni1E39" unicode="&#x1e39;" horiz-adv-x="270" 
d="M-40 846h350v-130h-350v130zM51 636h170v-636h-170v636zM135 -237q-41 0 -66 26t-25 63t25 62.5t66 25.5t66 -25.5t25 -62.5t-25 -63t-66 -26z" />
    <glyph glyph-name="uni1E3A" unicode="&#x1e3a;" horiz-adv-x="493" 
d="M50 636h170v-496h243v-140h-413v636zM82 -80h350v-130h-350v130z" />
    <glyph glyph-name="uni1E3B" unicode="&#x1e3b;" horiz-adv-x="270" 
d="M50 636h170v-636h-170v636zM-40 -80h350v-130h-350v130z" />
    <glyph glyph-name="uni1E42" unicode="&#x1e42;" horiz-adv-x="864" 
d="M100 636h200l131 -355l3 -12l2 12l138 355h200l50 -636h-180l-20 385l-3 17h-2l-5 -17l-120 -325h-120l-121 325l-4 17h-3l-3 -17l-23 -385h-180zM432 -237q-41 0 -66 26t-25 63t25 62.5t66 25.5t66 -25.5t25 -62.5t-25 -63t-66 -26z" />
    <glyph glyph-name="uni1E43" unicode="&#x1e43;" horiz-adv-x="891" 
d="M50 431q19 19 45 34.5t56 27t62 17.5t63 6q56 0 99 -18.5t68 -47.5q26 27 70 46.5t102 19.5q46 0 85 -14t67 -42t43.5 -68t15.5 -93v-212l45 -51l-124 -105l-81 81v268q0 39 -22 62t-64 23q-18 0 -34 -4t-28 -11v-350h-160v284q0 41 -22 63t-64 22q-18 0 -34 -4t-28 -11
v-354h-160v431zM438 -237q-41 0 -66 26t-25 63t25 62.5t66 25.5t66 -25.5t25 -62.5t-25 -63t-66 -26z" />
    <glyph glyph-name="uni1E44" unicode="&#x1e44;" horiz-adv-x="670" 
d="M335 696q-41 0 -66 26t-25 63t25 62.5t66 25.5t66 -25.5t25 -62.5t-25 -63t-66 -26zM50 636h189l211 -392v392h170v-636h-194l-206 377v-377h-170v636z" />
    <glyph glyph-name="uni1E45" unicode="&#x1e45;" horiz-adv-x="583" 
d="M282 572q-41 0 -66 26t-25 63t25 62.5t66 25.5t66 -25.5t25 -62.5t-25 -63t-66 -26zM210 0h-160v431q38 38 103 61.5t143 23.5q112 0 167 -50.5t55 -136.5v-242l45 -51l-124 -105l-81 81v272q0 41 -22 63t-64 22q-18 0 -34 -4t-28 -11v-354z" />
    <glyph glyph-name="uni1E46" unicode="&#x1e46;" horiz-adv-x="670" 
d="M50 636h189l211 -392v392h170v-636h-194l-206 377v-377h-170v636zM325 -237q-41 0 -66 26t-25 63t25 62.5t66 25.5t66 -25.5t25 -62.5t-25 -63t-66 -26z" />
    <glyph glyph-name="uni1E47" unicode="&#x1e47;" horiz-adv-x="583" 
d="M210 0h-160v431q38 38 103 61.5t143 23.5q112 0 167 -50.5t55 -136.5v-242l45 -51l-124 -105l-81 81v272q0 41 -22 63t-64 22q-18 0 -34 -4t-28 -11v-354zM277 -237q-41 0 -66 26t-25 63t25 62.5t66 25.5t66 -25.5t25 -62.5t-25 -63t-66 -26z" />
    <glyph glyph-name="uni1E48" unicode="&#x1e48;" horiz-adv-x="670" 
d="M50 636h189l211 -392v392h170v-636h-194l-206 377v-377h-170v636zM160 -80h350v-130h-350v130z" />
    <glyph glyph-name="uni1E49" unicode="&#x1e49;" horiz-adv-x="583" 
d="M210 0h-160v431q38 38 103 61.5t143 23.5q112 0 167 -50.5t55 -136.5v-242l45 -51l-124 -105l-81 81v272q0 41 -22 63t-64 22q-18 0 -34 -4t-28 -11v-354zM109 -230v130h350v-130h-350z" />
    <glyph glyph-name="uni1E5A" unicode="&#x1e5a;" horiz-adv-x="626" 
d="M50 576q18 12 45.5 23.5t61.5 20.5t72.5 14.5t77.5 5.5q128 0 199 -58.5t71 -163.5q0 -79 -39.5 -132t-106.5 -78l165 -133l-115 -124l-261 260v-211h-170v576zM220 410q0 -48 27.5 -73t67.5 -25q44 0 68 27.5t24 71.5t-25.5 70.5t-78.5 26.5q-24 0 -46 -5.5t-37 -14.5
v-78zM321 -237q-41 0 -66 26t-25 63t25 62.5t66 25.5t66 -25.5t25 -62.5t-25 -63t-66 -26z" />
    <glyph glyph-name="uni1E5B" unicode="&#x1e5b;" horiz-adv-x="420" 
d="M51 424q35 40 86 67t119 27q82 0 144 -42l-42 -115q-15 10 -35.5 15t-37.5 5q-21 0 -38.5 -5.5t-25.5 -12.5v-363h-170v424zM137 -237q-41 0 -66 26t-25 63t25 62.5t66 25.5t66 -25.5t25 -62.5t-25 -63t-66 -26z" />
    <glyph glyph-name="uni1E5C" unicode="&#x1e5c;" horiz-adv-x="626" 
d="M135 846h350v-130h-350v130zM50 576q18 12 45.5 23.5t61.5 20.5t72.5 14.5t77.5 5.5q128 0 199 -58.5t71 -163.5q0 -79 -39.5 -132t-106.5 -78l165 -133l-115 -124l-261 260v-211h-170v576zM220 410q0 -48 27.5 -73t67.5 -25q44 0 68 27.5t24 71.5t-25.5 70.5t-78.5 26.5
q-24 0 -46 -5.5t-37 -14.5v-78zM321 -237q-41 0 -66 26t-25 63t25 62.5t66 25.5t66 -25.5t25 -62.5t-25 -63t-66 -26z" />
    <glyph glyph-name="uni1E5D" unicode="&#x1e5d;" horiz-adv-x="420" 
d="M40 722h350v-130h-350v130zM50 424q35 40 86 67t119 27q82 0 144 -42l-42 -115q-15 10 -35.5 15t-37.5 5q-21 0 -38.5 -5.5t-25.5 -12.5v-363h-170v424zM136 -237q-41 0 -66 26t-25 63t25 62.5t66 25.5t66 -25.5t25 -62.5t-25 -63t-66 -26z" />
    <glyph glyph-name="uni1E5E" unicode="&#x1e5e;" horiz-adv-x="626" 
d="M50 576q18 12 45.5 23.5t61.5 20.5t72.5 14.5t77.5 5.5q128 0 199 -58.5t71 -163.5q0 -79 -39.5 -132t-106.5 -78l165 -133l-115 -124l-261 260v-211h-170v576zM220 410q0 -48 27.5 -73t67.5 -25q44 0 68 27.5t24 71.5t-25.5 70.5t-78.5 26.5q-24 0 -46 -5.5t-37 -14.5
v-78zM130 -100h350v-130h-350v130z" />
    <glyph glyph-name="uni1E5F" unicode="&#x1e5f;" horiz-adv-x="419" 
d="M50 424q35 40 86 67t119 27q82 0 144 -42l-42 -115q-15 10 -35.5 15t-37.5 5q-21 0 -38.5 -5.5t-25.5 -12.5v-363h-170v424zM-40 -80h350v-130h-350v130z" />
    <glyph glyph-name="uni1E60" unicode="&#x1e60;" horiz-adv-x="588" 
d="M296 696q-41 0 -66 26t-25 63t25 62.5t66 25.5t66 -25.5t25 -62.5t-25 -63t-66 -26zM95 194q15 -12 37 -22.5t47 -18.5t52 -12.5t52 -4.5q48 0 66 15t18 35t-14.5 32t-46.5 24l-84 31q-39 14 -71 31t-54.5 39t-35 50.5t-12.5 64.5q0 85 66 133.5t190 48.5
q80 0 138.5 -19.5t95.5 -51.5l-51 -117q-16 9 -38 17t-46 13.5t-49 9t-47 3.5q-42 0 -60 -11t-18 -29q0 -15 14 -28t47 -24l73 -27q50 -18 85 -37t57 -41t32 -48t10 -59q0 -43 -16.5 -80t-48.5 -63.5t-79 -41.5t-108 -15q-78 0 -146 22.5t-110 57.5z" />
    <glyph glyph-name="uni1E61" unicode="&#x1e61;" horiz-adv-x="506" 
d="M273 573q-41 0 -66 26t-25 63t25 62.5t66 25.5t66 -25.5t25 -62.5t-25 -63t-66 -26zM81 163q12 -9 30.5 -18.5t40.5 -17t46 -12.5t48 -5q36 0 53 11t17 30q0 17 -13 24.5t-39 12.5l-48 8q-85 14 -131 53.5t-46 106.5q0 32 11.5 61t36.5 51t64.5 34.5t94.5 12.5
q72 0 128.5 -18.5t84.5 -38.5l-41 -107q-12 8 -30.5 15t-39.5 12t-43.5 8t-42.5 3q-33 0 -48 -8t-15 -23t12 -24t27 -12l61 -10q50 -8 84 -22t54.5 -33.5t29.5 -44t9 -54.5q0 -35 -11.5 -67.5t-37 -57t-65 -39t-96.5 -14.5q-38 0 -73.5 6.5t-66 17t-55 24.5t-41.5 28z" />
    <glyph glyph-name="uni1E62" unicode="&#x1e62;" horiz-adv-x="588" 
d="M95 194q15 -12 37 -22.5t47 -18.5t52 -12.5t52 -4.5q48 0 66 15t18 35t-14.5 32t-46.5 24l-84 31q-39 14 -71 31t-54.5 39t-35 50.5t-12.5 64.5q0 85 66 133.5t190 48.5q80 0 138.5 -19.5t95.5 -51.5l-51 -117q-16 9 -38 17t-46 13.5t-49 9t-47 3.5q-42 0 -60 -11
t-18 -29q0 -15 14 -28t47 -24l73 -27q50 -18 85 -37t57 -41t32 -48t10 -59q0 -43 -16.5 -80t-48.5 -63.5t-79 -41.5t-108 -15q-78 0 -146 22.5t-110 57.5zM291 -237q-41 0 -66 26t-25 63t25 62.5t66 25.5t66 -25.5t25 -62.5t-25 -63t-66 -26z" />
    <glyph glyph-name="uni1E63" unicode="&#x1e63;" horiz-adv-x="506" 
d="M81 163q12 -9 30.5 -18.5t40.5 -17t46 -12.5t48 -5q36 0 53 11t17 30q0 17 -13 24.5t-39 12.5l-48 8q-85 14 -131 53.5t-46 106.5q0 32 11.5 61t36.5 51t64.5 34.5t94.5 12.5q72 0 128.5 -18.5t84.5 -38.5l-41 -107q-12 8 -30.5 15t-39.5 12t-43.5 8t-42.5 3
q-33 0 -48 -8t-15 -23t12 -24t27 -12l61 -10q50 -8 84 -22t54.5 -33.5t29.5 -44t9 -54.5q0 -35 -11.5 -67.5t-37 -57t-65 -39t-96.5 -14.5q-38 0 -73.5 6.5t-66 17t-55 24.5t-41.5 28zM263 -237q-41 0 -66 26t-25 63t25 62.5t66 25.5t66 -25.5t25 -62.5t-25 -63t-66 -26z
" />
    <glyph glyph-name="uni1E6C" unicode="&#x1e6c;" horiz-adv-x="560" 
d="M195 503h-165v133h500v-133h-165v-503h-170v503zM281 -237q-41 0 -66 26t-25 63t25 62.5t66 25.5t66 -25.5t25 -62.5t-25 -63t-66 -26z" />
    <glyph glyph-name="uni1E6D" unicode="&#x1e6d;" horiz-adv-x="454" 
d="M113 376h-83v119h87v141h160v-141h136v-120h-135v-186q0 -38 18 -52t45 -14q15 0 35 3.5t31 10.5l27 -118q-25 -14 -57.5 -20t-64.5 -6q-44 0 -80.5 10.5t-63 33.5t-41 59t-14.5 88v192zM212 -237q-41 0 -66 26t-25 63t25 62.5t66 25.5t66 -25.5t25 -62.5t-25 -63
t-66 -26z" />
    <glyph glyph-name="uni1E6E" unicode="&#x1e6e;" horiz-adv-x="560" 
d="M195 503h-165v133h500v-133h-165v-503h-170v503zM105 -80h350v-130h-350v130z" />
    <glyph glyph-name="uni1E6F" unicode="&#x1e6f;" horiz-adv-x="454" 
d="M113 376h-83v119h87v141h160v-141h136v-120h-135v-186q0 -38 18 -52t45 -14q15 0 35 3.5t31 10.5l27 -118q-25 -14 -57.5 -20t-64.5 -6q-44 0 -80.5 10.5t-63 33.5t-41 59t-14.5 88v192zM62 -80h350v-130h-350v130z" />
    <glyph glyph-name="Wgrave" unicode="&#x1e80;" horiz-adv-x="974" 
d="M30 636h185l78 -415l2 -21h6l2 21l116 405h140l115 -405l4 -21h4l2 21l75 415h185l-150 -636h-205l-98 355l-3 22l-2 -22l-101 -355h-205zM325 896l240 -150l-60 -100l-251 127z" />
    <glyph glyph-name="wgrave" unicode="&#x1e81;" horiz-adv-x="852" 
d="M251 171l95 331h160l95 -331l61 341h160l-108 -512h-199l-87 308l-2 10l-2 -10l-87 -308h-199l-108 512h160zM253 772l240 -150l-60 -100l-251 127z" />
    <glyph glyph-name="Wacute" unicode="&#x1e82;" horiz-adv-x="974" 
d="M30 636h185l78 -415l2 -21h6l2 21l116 405h140l115 -405l4 -21h4l2 21l75 415h185l-150 -636h-205l-98 355l-3 22l-2 -22l-101 -355h-205zM496 646l-60 100l240 150l71 -123z" />
    <glyph glyph-name="wacute" unicode="&#x1e83;" horiz-adv-x="852" 
d="M251 171l95 331h160l95 -331l61 341h160l-108 -512h-199l-87 308l-2 10l-2 -10l-87 -308h-199l-108 512h160zM426 522l-60 100l240 150l71 -123z" />
    <glyph glyph-name="Wdieresis" unicode="&#x1e84;" horiz-adv-x="974" 
d="M30 636h185l78 -415l2 -21h6l2 21l116 405h140l115 -405l4 -21h4l2 21l75 415h185l-150 -636h-205l-98 355l-3 22l-2 -22l-101 -355h-205zM391 656q-41 0 -65.5 25t-24.5 62t24.5 62t65.5 25t65.5 -25t24.5 -62t-24.5 -62t-65.5 -25zM612 656q-41 0 -65.5 25t-24.5 62
t24.5 62t65.5 25t65.5 -25t24.5 -62t-24.5 -62t-65.5 -25z" />
    <glyph glyph-name="wdieresis" unicode="&#x1e85;" horiz-adv-x="852" 
d="M251 171l95 331h160l95 -331l61 341h160l-108 -512h-199l-87 308l-2 10l-2 -10l-87 -308h-199l-108 512h160zM329 532q-41 0 -65.5 25t-24.5 62t24.5 62t65.5 25t65.5 -25t24.5 -62t-24.5 -62t-65.5 -25zM550 532q-41 0 -65.5 25t-24.5 62t24.5 62t65.5 25t65.5 -25
t24.5 -62t-24.5 -62t-65.5 -25z" />
    <glyph glyph-name="uni1E8E" unicode="&#x1e8e;" horiz-adv-x="721" 
d="M361 696q-41 0 -66 26t-25 63t25 62.5t66 25.5t66 -25.5t25 -62.5t-25 -63t-66 -26zM279 239l-249 397h199l134 -236h6l125 236h197l-221 -391v-245h-191v239z" />
    <glyph glyph-name="uni1E8F" unicode="&#x1e8f;" horiz-adv-x="634" 
d="M327 572q-41 0 -66 26t-25 63t25 62.5t66 25.5t66 -25.5t25 -62.5t-25 -63t-66 -26zM173 -178l98 250q-23 20 -52 55.5t-53 85.5l-146 299h170l138 -296l116 296h170l-276 -690h-165z" />
    <glyph glyph-name="uni1E92" unicode="&#x1e92;" horiz-adv-x="629" 
d="M315 696q-41 0 -66 26t-25 63t25 62.5t66 25.5t66 -25.5t25 -62.5t-25 -63t-66 -26zM50 124l306 379h-294v133h515v-118l-313 -383h315v-135h-529v124z" />
    <glyph glyph-name="uni1E93" unicode="&#x1e93;" horiz-adv-x="544" 
d="M272 572q-41 0 -66 26t-25 63t25 62.5t66 25.5t66 -25.5t25 -62.5t-25 -63t-66 -26zM50 107l243 280h-239v125h429v-107l-238 -280h249v-125h-444v107z" />
    <glyph glyph-name="uni1E97" unicode="&#x1e97;" horiz-adv-x="454" 
d="M85 696q-41 0 -65.5 25t-24.5 62t24.5 62t65.5 25t65.5 -25t24.5 -62t-24.5 -62t-65.5 -25zM312 696q-41 0 -65.5 25t-24.5 62t24.5 62t65.5 25t65.5 -25t24.5 -62t-24.5 -62t-65.5 -25zM113 376h-83v119h87v141h160v-141h136v-120h-135v-186q0 -38 18 -52t45 -14
q15 0 35 3.5t31 10.5l27 -118q-25 -14 -57.5 -20t-64.5 -6q-44 0 -80.5 10.5t-63 33.5t-41 59t-14.5 88v192z" />
    <glyph glyph-name="Germandbls" unicode="&#x1e9e;" horiz-adv-x="624" 
d="M50 430q0 59 18.5 103t52 73t80.5 43t103 14q65 0 115 -17.5t84 -47.5t51.5 -70.5t17.5 -85.5q0 -18 -3 -38l-96 -49q-12 -6 -20 -13t-8 -18t7.5 -18.5t15.5 -12.5l28 -20q47 -33 72.5 -66.5t25.5 -81.5q0 -39 -16 -66.5t-42 -45t-59 -26t-67 -8.5q-42 0 -83 11t-64 27
l39 107q31 -22 74 -22q27 0 38.5 7.5t11.5 21.5q0 16 -13.5 27.5t-26.5 19.5l-12 8q-40 26 -68 57t-28 77q0 73 74 114l56 31q-6 24 -29.5 45t-70.5 21t-72.5 -27.5t-25.5 -88.5v-415h-160v430z" />
    <glyph glyph-name="uni1EA0" unicode="&#x1ea0;" horiz-adv-x="706" 
d="M260 637h203l203 -637h-183l-38 126h-180l-38 -126h-187zM417 266l-53 183h-4l-57 -183h114zM360 -237q-41 0 -66 26t-25 63t25 62.5t66 25.5t66 -25.5t25 -62.5t-25 -63t-66 -26z" />
    <glyph glyph-name="uni1EA1" unicode="&#x1ea1;" horiz-adv-x="561" 
d="M354 24q-47 -29 -117 -29q-94 0 -145.5 48.5t-51.5 127.5q0 72 43.5 111.5t128.5 39.5h123v16q0 29 -26 43.5t-74 14.5q-37 0 -68.5 -8.5t-60.5 -25.5l-39 116q38 21 84.5 30.5t94.5 9.5q116 0 182 -49t66 -133v-228l47 -57l-124 -103zM336 221h-74q-31 0 -46.5 -13
t-15.5 -36q0 -25 17.5 -39t44.5 -14q19 0 33 7t23 17.5t13.5 23.5t4.5 26v28zM267 -237q-41 0 -66 26t-25 63t25 62.5t66 25.5t66 -25.5t25 -62.5t-25 -63t-66 -26z" />
    <glyph glyph-name="uni1EA2" unicode="&#x1ea2;" horiz-adv-x="706" 
d="M260 637h203l203 -637h-183l-38 126h-180l-38 -126h-187zM417 266l-53 183h-4l-57 -183h114zM319 694q0 23 9.5 38.5t33.5 34.5l23 18q18 14 18 25q0 8 -7.5 13t-24.5 5q-33 0 -64 -22l-30 62q17 15 46 27t65 12q51 0 82.5 -25t31.5 -60q0 -25 -14.5 -42.5t-34.5 -32.5
l-23 -18q-27 -21 -27 -38v-15h-84v18z" />
    <glyph glyph-name="uni1EA3" unicode="&#x1ea3;" horiz-adv-x="561" 
d="M354 24q-47 -29 -117 -29q-94 0 -145.5 48.5t-51.5 127.5q0 72 43.5 111.5t128.5 39.5h123v16q0 29 -26 43.5t-74 14.5q-37 0 -68.5 -8.5t-60.5 -25.5l-39 116q38 21 84.5 30.5t94.5 9.5q116 0 182 -49t66 -133v-228l47 -57l-124 -103zM336 221h-74q-31 0 -46.5 -13
t-15.5 -36q0 -25 17.5 -39t44.5 -14q19 0 33 7t23 17.5t13.5 23.5t4.5 26v28zM224 570q0 23 9.5 38.5t33.5 34.5l23 18q18 14 18 25q0 8 -7.5 13t-24.5 5q-33 0 -64 -22l-30 62q17 15 46 27t65 12q51 0 82.5 -25t31.5 -60q0 -25 -14.5 -42.5t-34.5 -32.5l-23 -18
q-27 -21 -27 -38v-15h-84v18z" />
    <glyph glyph-name="uni1EA4" unicode="&#x1ea4;" horiz-adv-x="706" 
d="M607 1042l115 -90l-144 -151l-91 71zM133 750l161 126h130l161 -126l-95 -96l-130 117l-131 -118zM260 637h203l203 -637h-183l-38 126h-180l-38 -126h-187zM417 266l-53 183h-4l-57 -183h114z" />
    <glyph glyph-name="uni1EA5" unicode="&#x1ea5;" horiz-adv-x="561" 
d="M521 918l115 -90l-144 -151l-91 71zM47 626l161 126h130l161 -126l-95 -96l-130 117l-131 -118zM354 24q-47 -29 -117 -29q-94 0 -145.5 48.5t-51.5 127.5q0 72 43.5 111.5t128.5 39.5h123v16q0 29 -26 43.5t-74 14.5q-37 0 -68.5 -8.5t-60.5 -25.5l-39 116
q38 21 84.5 30.5t94.5 9.5q116 0 182 -49t66 -133v-228l47 -57l-124 -103zM336 221h-74q-31 0 -46.5 -13t-15.5 -36q0 -25 17.5 -39t44.5 -14q19 0 33 7t23 17.5t13.5 23.5t4.5 26v28z" />
    <glyph glyph-name="uni1EA6" unicode="&#x1ea6;" horiz-adv-x="706" 
d="M551 1020l138 -157l-81 -84l-165 129zM133 750l161 126h130l161 -126l-95 -96l-130 117l-131 -118zM260 637h203l203 -637h-183l-38 126h-180l-38 -126h-187zM417 266l-53 183h-4l-57 -183h114z" />
    <glyph glyph-name="uni1EA7" unicode="&#x1ea7;" horiz-adv-x="561" 
d="M465 896l138 -157l-81 -84l-165 129zM47 626l161 126h130l161 -126l-95 -96l-130 117l-131 -118zM354 24q-47 -29 -117 -29q-94 0 -145.5 48.5t-51.5 127.5q0 72 43.5 111.5t128.5 39.5h123v16q0 29 -26 43.5t-74 14.5q-37 0 -68.5 -8.5t-60.5 -25.5l-39 116
q38 21 84.5 30.5t94.5 9.5q116 0 182 -49t66 -133v-228l47 -57l-124 -103zM336 221h-74q-31 0 -46.5 -13t-15.5 -36q0 -25 17.5 -39t44.5 -14q19 0 33 7t23 17.5t13.5 23.5t4.5 26v28z" />
    <glyph glyph-name="uni1EA8" unicode="&#x1ea8;" horiz-adv-x="706" 
d="M516 854q0 23 9.5 38.5t33.5 34.5l23 18q18 14 18 25q0 8 -7.5 13t-24.5 5q-33 0 -64 -22l-30 62q17 15 46 27t65 12q51 0 82.5 -25t31.5 -60q0 -25 -14.5 -42.5t-34.5 -32.5l-23 -18q-27 -21 -27 -38v-15h-84v18zM133 750l161 126h130l161 -126l-95 -96l-130 117
l-131 -118zM260 637h203l203 -637h-183l-38 126h-180l-38 -126h-187zM417 266l-53 183h-4l-57 -183h114z" />
    <glyph glyph-name="uni1EA9" unicode="&#x1ea9;" horiz-adv-x="561" 
d="M430 730q0 23 9.5 38.5t33.5 34.5l23 18q18 14 18 25q0 8 -7.5 13t-24.5 5q-33 0 -64 -22l-30 62q17 15 46 27t65 12q51 0 82.5 -25t31.5 -60q0 -25 -14.5 -42.5t-34.5 -32.5l-23 -18q-27 -21 -27 -38v-15h-84v18zM47 626l161 126h130l161 -126l-95 -96l-130 117
l-131 -118zM354 24q-47 -29 -117 -29q-94 0 -145.5 48.5t-51.5 127.5q0 72 43.5 111.5t128.5 39.5h123v16q0 29 -26 43.5t-74 14.5q-37 0 -68.5 -8.5t-60.5 -25.5l-39 116q38 21 84.5 30.5t94.5 9.5q116 0 182 -49t66 -133v-228l47 -57l-124 -103zM336 221h-74
q-31 0 -46.5 -13t-15.5 -36q0 -25 17.5 -39t44.5 -14q19 0 33 7t23 17.5t13.5 23.5t4.5 26v28z" />
    <glyph glyph-name="uni1EAA" unicode="&#x1eaa;" horiz-adv-x="706" 
d="M572 1021q-14 -45 -49.5 -75t-92.5 -30q-12 0 -29 2.5t-49 13.5q-15 5 -31 9t-33 4q-29 0 -49 -12.5t-31 -31.5l-83 56q14 45 48 75t88 30q22 0 40 -4.5t37 -10.5q21 -6 37.5 -10t33.5 -4q29 0 49 12.5t31 31.5zM133 750l161 126h130l161 -126l-95 -96l-130 117
l-131 -118zM260 637h203l203 -637h-183l-38 126h-180l-38 -126h-187zM417 266l-53 183h-4l-57 -183h114z" />
    <glyph glyph-name="uni1EAB" unicode="&#x1eab;" horiz-adv-x="561" 
d="M499 897q-14 -45 -49.5 -75t-92.5 -30q-12 0 -29 2.5t-49 13.5q-15 5 -31 9t-33 4q-29 0 -49 -12.5t-31 -31.5l-83 56q14 45 48 75t88 30q22 0 40 -4.5t37 -10.5q21 -6 37.5 -10t33.5 -4q29 0 49 12.5t31 31.5zM47 626l161 126h130l161 -126l-95 -96l-130 117l-131 -118z
M354 24q-47 -29 -117 -29q-94 0 -145.5 48.5t-51.5 127.5q0 72 43.5 111.5t128.5 39.5h123v16q0 29 -26 43.5t-74 14.5q-37 0 -68.5 -8.5t-60.5 -25.5l-39 116q38 21 84.5 30.5t94.5 9.5q116 0 182 -49t66 -133v-228l47 -57l-124 -103zM336 221h-74q-31 0 -46.5 -13
t-15.5 -36q0 -25 17.5 -39t44.5 -14q19 0 33 7t23 17.5t13.5 23.5t4.5 26v28z" />
    <glyph glyph-name="uni1EAC" unicode="&#x1eac;" horiz-adv-x="706" 
d="M133 750l161 126h130l161 -126l-95 -96l-130 117l-131 -118zM260 637h203l203 -637h-183l-38 126h-180l-38 -126h-187zM417 266l-53 183h-4l-57 -183h114zM360 -237q-41 0 -66 26t-25 63t25 62.5t66 25.5t66 -25.5t25 -62.5t-25 -63t-66 -26z" />
    <glyph glyph-name="uni1EAD" unicode="&#x1ead;" horiz-adv-x="561" 
d="M47 636l161 126h130l161 -126l-95 -96l-130 117l-131 -118zM354 24q-47 -29 -117 -29q-94 0 -145.5 48.5t-51.5 127.5q0 72 43.5 111.5t128.5 39.5h123v16q0 29 -26 43.5t-74 14.5q-37 0 -68.5 -8.5t-60.5 -25.5l-39 116q38 21 84.5 30.5t94.5 9.5q116 0 182 -49t66 -133
v-228l47 -57l-124 -103zM336 221h-74q-31 0 -46.5 -13t-15.5 -36q0 -25 17.5 -39t44.5 -14q19 0 33 7t23 17.5t13.5 23.5t4.5 26v28zM267 -237q-41 0 -66 26t-25 63t25 62.5t66 25.5t66 -25.5t25 -62.5t-25 -63t-66 -26z" />
    <glyph glyph-name="uni1EAE" unicode="&#x1eae;" horiz-adv-x="706" 
d="M392 1073l115 -90l-144 -151l-91 71zM256 847q13 -30 42 -45.5t64 -15.5t64 15.5t42 45.5l95 -57q-21 -58 -74 -91t-127 -33t-127 33t-74 91zM260 637h203l203 -637h-183l-38 126h-180l-38 -126h-187zM417 266l-53 183h-4l-57 -183h114z" />
    <glyph glyph-name="uni1EAF" unicode="&#x1eaf;" horiz-adv-x="561" 
d="M311 954l115 -90l-144 -151l-91 71zM175 728q13 -30 42 -45.5t64 -15.5t64 15.5t42 45.5l95 -57q-21 -58 -74 -91t-127 -33t-127 33t-74 91zM354 24q-47 -29 -117 -29q-94 0 -145.5 48.5t-51.5 127.5q0 72 43.5 111.5t128.5 39.5h123v16q0 29 -26 43.5t-74 14.5
q-37 0 -68.5 -8.5t-60.5 -25.5l-39 116q38 21 84.5 30.5t94.5 9.5q116 0 182 -49t66 -133v-228l47 -57l-124 -103zM336 221h-74q-31 0 -46.5 -13t-15.5 -36q0 -25 17.5 -39t44.5 -14q19 0 33 7t23 17.5t13.5 23.5t4.5 26v28z" />
    <glyph glyph-name="uni1EB0" unicode="&#x1eb0;" horiz-adv-x="706" 
d="M217 983l115 90l120 -170l-91 -71zM256 847q13 -30 42 -45.5t64 -15.5t64 15.5t42 45.5l95 -57q-21 -58 -74 -91t-127 -33t-127 33t-74 91zM260 637h203l203 -637h-183l-38 126h-180l-38 -126h-187zM417 266l-53 183h-4l-57 -183h114z" />
    <glyph glyph-name="uni1EB1" unicode="&#x1eb1;" horiz-adv-x="561" 
d="M136 864l115 90l120 -170l-91 -71zM175 728q13 -30 42 -45.5t64 -15.5t64 15.5t42 45.5l95 -57q-21 -58 -74 -91t-127 -33t-127 33t-74 91zM354 24q-47 -29 -117 -29q-94 0 -145.5 48.5t-51.5 127.5q0 72 43.5 111.5t128.5 39.5h123v16q0 29 -26 43.5t-74 14.5
q-37 0 -68.5 -8.5t-60.5 -25.5l-39 116q38 21 84.5 30.5t94.5 9.5q116 0 182 -49t66 -133v-228l47 -57l-124 -103zM336 221h-74q-31 0 -46.5 -13t-15.5 -36q0 -25 17.5 -39t44.5 -14q19 0 33 7t23 17.5t13.5 23.5t4.5 26v28z" />
    <glyph glyph-name="uni1EB2" unicode="&#x1eb2;" horiz-adv-x="706" 
d="M319 870q0 23 9.5 38.5t33.5 34.5l23 18q18 14 18 25q0 8 -7.5 13t-24.5 5q-33 0 -64 -22l-30 62q17 15 46 27t65 12q51 0 82.5 -25t31.5 -60q0 -25 -14.5 -42.5t-34.5 -32.5l-23 -18q-27 -21 -27 -38v-15h-84v18zM256 847q13 -30 42 -45.5t64 -15.5t64 15.5t42 45.5
l95 -57q-21 -58 -74 -91t-127 -33t-127 33t-74 91zM260 637h203l203 -637h-183l-38 126h-180l-38 -126h-187zM417 266l-53 183h-4l-57 -183h114z" />
    <glyph glyph-name="uni1EB3" unicode="&#x1eb3;" horiz-adv-x="561" 
d="M238 751q0 23 9.5 38.5t33.5 34.5l23 18q18 14 18 25q0 8 -7.5 13t-24.5 5q-33 0 -64 -22l-30 62q17 15 46 27t65 12q51 0 82.5 -25t31.5 -60q0 -25 -14.5 -42.5t-34.5 -32.5l-23 -18q-27 -21 -27 -38v-15h-84v18zM175 728q13 -30 42 -45.5t64 -15.5t64 15.5t42 45.5
l95 -57q-21 -58 -74 -91t-127 -33t-127 33t-74 91zM354 24q-47 -29 -117 -29q-94 0 -145.5 48.5t-51.5 127.5q0 72 43.5 111.5t128.5 39.5h123v16q0 29 -26 43.5t-74 14.5q-37 0 -68.5 -8.5t-60.5 -25.5l-39 116q38 21 84.5 30.5t94.5 9.5q116 0 182 -49t66 -133v-228
l47 -57l-124 -103zM336 221h-74q-31 0 -46.5 -13t-15.5 -36q0 -25 17.5 -39t44.5 -14q19 0 33 7t23 17.5t13.5 23.5t4.5 26v28z" />
    <glyph glyph-name="uni1EB4" unicode="&#x1eb4;" horiz-adv-x="706" 
d="M572 987q-14 -45 -49.5 -75t-92.5 -30q-12 0 -29 2.5t-49 13.5q-15 5 -31 9t-33 4q-29 0 -49 -12.5t-31 -31.5l-83 56q14 45 48 75t88 30q22 0 40 -4.5t37 -10.5q21 -6 37.5 -10t33.5 -4q29 0 49 12.5t31 31.5zM256 847q13 -30 42 -45.5t64 -15.5t64 15.5t42 45.5l95 -57
q-21 -58 -74 -91t-127 -33t-127 33t-74 91zM260 637h203l203 -637h-183l-38 126h-180l-38 -126h-187zM417 266l-53 183h-4l-57 -183h114z" />
    <glyph glyph-name="uni1EB5" unicode="&#x1eb5;" horiz-adv-x="561" 
d="M504 867q-14 -45 -49.5 -75t-92.5 -30q-12 0 -29 2.5t-49 13.5q-15 5 -31 9t-33 4q-29 0 -49 -12.5t-31 -31.5l-83 56q14 45 48 75t88 30q22 0 40 -4.5t37 -10.5q21 -6 37.5 -10t33.5 -4q29 0 49 12.5t31 31.5zM175 728q13 -30 42 -45.5t64 -15.5t64 15.5t42 45.5l95 -57
q-21 -58 -74 -91t-127 -33t-127 33t-74 91zM354 24q-47 -29 -117 -29q-94 0 -145.5 48.5t-51.5 127.5q0 72 43.5 111.5t128.5 39.5h123v16q0 29 -26 43.5t-74 14.5q-37 0 -68.5 -8.5t-60.5 -25.5l-39 116q38 21 84.5 30.5t94.5 9.5q116 0 182 -49t66 -133v-228l47 -57
l-124 -103zM336 221h-74q-31 0 -46.5 -13t-15.5 -36q0 -25 17.5 -39t44.5 -14q19 0 33 7t23 17.5t13.5 23.5t4.5 26v28z" />
    <glyph glyph-name="uni1EB6" unicode="&#x1eb6;" horiz-adv-x="706" 
d="M256 847q13 -30 42 -45.5t64 -15.5t64 15.5t42 45.5l95 -57q-21 -58 -74 -91t-127 -33t-127 33t-74 91zM260 637h203l203 -637h-183l-38 126h-180l-38 -126h-187zM417 266l-53 183h-4l-57 -183h114zM360 -237q-41 0 -66 26t-25 63t25 62.5t66 25.5t66 -25.5t25 -62.5
t-25 -63t-66 -26z" />
    <glyph glyph-name="uni1EB7" unicode="&#x1eb7;" horiz-adv-x="561" 
d="M175 728q13 -30 42 -45.5t64 -15.5t64 15.5t42 45.5l95 -57q-21 -58 -74 -91t-127 -33t-127 33t-74 91zM354 24q-47 -29 -117 -29q-94 0 -145.5 48.5t-51.5 127.5q0 72 43.5 111.5t128.5 39.5h123v16q0 29 -26 43.5t-74 14.5q-37 0 -68.5 -8.5t-60.5 -25.5l-39 116
q38 21 84.5 30.5t94.5 9.5q116 0 182 -49t66 -133v-228l47 -57l-124 -103zM336 221h-74q-31 0 -46.5 -13t-15.5 -36q0 -25 17.5 -39t44.5 -14q19 0 33 7t23 17.5t13.5 23.5t4.5 26v28zM267 -237q-41 0 -66 26t-25 63t25 62.5t66 25.5t66 -25.5t25 -62.5t-25 -63t-66 -26z
" />
    <glyph glyph-name="uni1EB8" unicode="&#x1eb8;" horiz-adv-x="554" 
d="M50 636h458v-130h-288v-118h249v-130h-249v-128h294v-130h-464v636zM281 -237q-41 0 -66 26t-25 63t25 62.5t66 25.5t66 -25.5t25 -62.5t-25 -63t-66 -26z" />
    <glyph glyph-name="uni1EB9" unicode="&#x1eb9;" horiz-adv-x="558" 
d="M499 49q-26 -21 -74.5 -38t-111.5 -17q-60 0 -110 18t-86.5 53t-56.5 85.5t-20 115.5q0 60 17.5 107t50 79.5t78.5 49t103 16.5q60 0 103.5 -17.5t71 -48.5t41 -71.5t13.5 -87.5q0 -23 -2.5 -46t-7.5 -46h-311q3 -25 14 -42t28.5 -27t40 -14t46.5 -4q41 0 75 9t55 26z
M378 302q0 40 -22.5 67.5t-67.5 27.5q-43 0 -67 -26t-24 -69h181zM279 -237q-41 0 -66 26t-25 63t25 62.5t66 25.5t66 -25.5t25 -62.5t-25 -63t-66 -26z" />
    <glyph glyph-name="uni1EBA" unicode="&#x1eba;" horiz-adv-x="554" 
d="M50 636h458v-130h-288v-118h249v-130h-249v-128h294v-130h-464v636zM234 694q0 23 9.5 38.5t33.5 34.5l23 18q18 14 18 25q0 8 -7.5 13t-24.5 5q-33 0 -64 -22l-30 62q17 15 46 27t65 12q51 0 82.5 -25t31.5 -60q0 -25 -14.5 -42.5t-34.5 -32.5l-23 -18q-27 -21 -27 -38
v-15h-84v18z" />
    <glyph glyph-name="uni1EBB" unicode="&#x1ebb;" horiz-adv-x="558" 
d="M499 49q-26 -21 -74.5 -38t-111.5 -17q-60 0 -110 18t-86.5 53t-56.5 85.5t-20 115.5q0 60 17.5 107t50 79.5t78.5 49t103 16.5q60 0 103.5 -17.5t71 -48.5t41 -71.5t13.5 -87.5q0 -23 -2.5 -46t-7.5 -46h-311q3 -25 14 -42t28.5 -27t40 -14t46.5 -4q41 0 75 9t55 26z
M378 302q0 40 -22.5 67.5t-67.5 27.5q-43 0 -67 -26t-24 -69h181zM248 576q0 23 9.5 38.5t33.5 34.5l23 18q18 14 18 25q0 8 -7.5 13t-24.5 5q-33 0 -64 -22l-30 62q17 15 46 27t65 12q51 0 82.5 -25t31.5 -60q0 -25 -14.5 -42.5t-34.5 -32.5l-23 -18q-27 -21 -27 -38v-15
h-84v18z" />
    <glyph glyph-name="uni1EBC" unicode="&#x1ebc;" horiz-adv-x="555" 
d="M50 636h458v-130h-288v-118h249v-130h-249v-128h294v-130h-464v636zM521 801q-14 -45 -51.5 -75t-91.5 -30q-23 0 -45 5t-44 11q-18 5 -38 9t-38 4q-30 0 -52.5 -12.5t-33.5 -31.5l-83 56q14 45 51 75t91 30q23 0 45.5 -5t44.5 -11q18 -5 38.5 -9t38.5 -4q29 0 51.5 12.5
t33.5 31.5z" />
    <glyph glyph-name="uni1EBD" unicode="&#x1ebd;" horiz-adv-x="558" 
d="M499 49q-26 -21 -74.5 -38t-111.5 -17q-60 0 -110 18t-86.5 53t-56.5 85.5t-20 115.5q0 60 17.5 107t50 79.5t78.5 49t103 16.5q60 0 103.5 -17.5t71 -48.5t41 -71.5t13.5 -87.5q0 -23 -2.5 -46t-7.5 -46h-311q3 -25 14 -42t28.5 -27t40 -14t46.5 -4q41 0 75 9t55 26z
M378 302q0 40 -22.5 67.5t-67.5 27.5q-43 0 -67 -26t-24 -69h181zM518 677q-14 -45 -51.5 -75t-91.5 -30q-23 0 -45 5t-44 11q-18 5 -38 9t-38 4q-30 0 -52.5 -12.5t-33.5 -31.5l-83 56q14 45 51 75t91 30q23 0 45.5 -5t44.5 -11q18 -5 38.5 -9t38.5 -4q29 0 51.5 12.5
t33.5 31.5z" />
    <glyph glyph-name="uni1EBE" unicode="&#x1ebe;" horiz-adv-x="554" 
d="M528 1042l115 -90l-144 -151l-91 71zM55 750l161 126h130l161 -126l-95 -96l-130 117l-131 -118zM50 636h458v-130h-288v-118h249v-130h-249v-128h294v-130h-464v636z" />
    <glyph glyph-name="uni1EBF" unicode="&#x1ebf;" horiz-adv-x="564" 
d="M536 923l115 -90l-144 -151l-91 71zM62 631l161 126h130l161 -126l-95 -96l-130 117l-131 -118zM499 49q-26 -21 -74.5 -38t-111.5 -17q-60 0 -110 18t-86.5 53t-56.5 85.5t-20 115.5q0 60 17.5 107t50 79.5t78.5 49t103 16.5q60 0 103.5 -17.5t71 -48.5t41 -71.5
t13.5 -87.5q0 -23 -2.5 -46t-7.5 -46h-311q3 -25 14 -42t28.5 -27t40 -14t46.5 -4q41 0 75 9t55 26zM378 302q0 40 -22.5 67.5t-67.5 27.5q-43 0 -67 -26t-24 -69h181z" />
    <glyph glyph-name="uni1EC0" unicode="&#x1ec0;" horiz-adv-x="554" 
d="M473 1020l138 -157l-81 -84l-165 129zM55 750l161 126h130l161 -126l-95 -96l-130 117l-131 -118zM50 636h458v-130h-288v-118h249v-130h-249v-128h294v-130h-464v636z" />
    <glyph glyph-name="uni1EC1" unicode="&#x1ec1;" horiz-adv-x="564" 
d="M480 901l138 -157l-81 -84l-165 129zM62 631l161 126h130l161 -126l-95 -96l-130 117l-131 -118zM499 49q-26 -21 -74.5 -38t-111.5 -17q-60 0 -110 18t-86.5 53t-56.5 85.5t-20 115.5q0 60 17.5 107t50 79.5t78.5 49t103 16.5q60 0 103.5 -17.5t71 -48.5t41 -71.5
t13.5 -87.5q0 -23 -2.5 -46t-7.5 -46h-311q3 -25 14 -42t28.5 -27t40 -14t46.5 -4q41 0 75 9t55 26zM378 302q0 40 -22.5 67.5t-67.5 27.5q-43 0 -67 -26t-24 -69h181z" />
    <glyph glyph-name="uni1EC2" unicode="&#x1ec2;" horiz-adv-x="556" 
d="M438 854q0 23 9.5 38.5t33.5 34.5l23 18q18 14 18 25q0 8 -7.5 13t-24.5 5q-33 0 -64 -22l-30 62q17 15 46 27t65 12q51 0 82.5 -25t31.5 -60q0 -25 -14.5 -42.5t-34.5 -32.5l-23 -18q-27 -21 -27 -38v-15h-84v18zM55 750l161 126h130l161 -126l-95 -96l-130 117
l-131 -118zM50 636h458v-130h-288v-118h249v-130h-249v-128h294v-130h-464v636z" />
    <glyph glyph-name="uni1EC3" unicode="&#x1ec3;" horiz-adv-x="564" 
d="M445 735q0 23 9.5 38.5t33.5 34.5l23 18q18 14 18 25q0 8 -7.5 13t-24.5 5q-33 0 -64 -22l-30 62q17 15 46 27t65 12q51 0 82.5 -25t31.5 -60q0 -25 -14.5 -42.5t-34.5 -32.5l-23 -18q-27 -21 -27 -38v-15h-84v18zM62 631l161 126h130l161 -126l-95 -96l-130 117
l-131 -118zM499 49q-26 -21 -74.5 -38t-111.5 -17q-60 0 -110 18t-86.5 53t-56.5 85.5t-20 115.5q0 60 17.5 107t50 79.5t78.5 49t103 16.5q60 0 103.5 -17.5t71 -48.5t41 -71.5t13.5 -87.5q0 -23 -2.5 -46t-7.5 -46h-311q3 -25 14 -42t28.5 -27t40 -14t46.5 -4q41 0 75 9
t55 26zM378 302q0 40 -22.5 67.5t-67.5 27.5q-43 0 -67 -26t-24 -69h181z" />
    <glyph glyph-name="uni1EC4" unicode="&#x1ec4;" horiz-adv-x="554" 
d="M502 1020q-14 -45 -49.5 -75t-92.5 -30q-12 0 -29 2.5t-49 13.5q-15 5 -31 9t-33 4q-29 0 -49 -12.5t-31 -31.5l-83 56q14 45 48 75t88 30q22 0 40 -4.5t37 -10.5q21 -6 37.5 -10t33.5 -4q29 0 49 12.5t31 31.5zM55 750l161 126h130l161 -126l-95 -96l-130 117l-131 -118
zM50 636h458v-130h-288v-118h249v-130h-249v-128h294v-130h-464v636z" />
    <glyph glyph-name="uni1EC5" unicode="&#x1ec5;" horiz-adv-x="558" 
d="M512 903q-14 -45 -49.5 -75t-92.5 -30q-12 0 -29 2.5t-49 13.5q-15 5 -31 9t-33 4q-29 0 -49 -12.5t-31 -31.5l-83 56q14 45 48 75t88 30q22 0 40 -4.5t37 -10.5q21 -6 37.5 -10t33.5 -4q29 0 49 12.5t31 31.5zM62 631l161 126h130l161 -126l-95 -96l-130 117l-131 -118z
M499 49q-26 -21 -74.5 -38t-111.5 -17q-60 0 -110 18t-86.5 53t-56.5 85.5t-20 115.5q0 60 17.5 107t50 79.5t78.5 49t103 16.5q60 0 103.5 -17.5t71 -48.5t41 -71.5t13.5 -87.5q0 -23 -2.5 -46t-7.5 -46h-311q3 -25 14 -42t28.5 -27t40 -14t46.5 -4q41 0 75 9t55 26z
M378 302q0 40 -22.5 67.5t-67.5 27.5q-43 0 -67 -26t-24 -69h181z" />
    <glyph glyph-name="uni1EC6" unicode="&#x1ec6;" horiz-adv-x="554" 
d="M55 760l161 126h130l161 -126l-95 -96l-130 117l-131 -118zM50 636h458v-130h-288v-118h249v-130h-249v-128h294v-130h-464v636zM281 -237q-41 0 -66 26t-25 63t25 62.5t66 25.5t66 -25.5t25 -62.5t-25 -63t-66 -26z" />
    <glyph glyph-name="uni1EC7" unicode="&#x1ec7;" horiz-adv-x="558" 
d="M62 631l161 126h130l161 -126l-95 -96l-130 117l-131 -118zM499 49q-26 -21 -74.5 -38t-111.5 -17q-60 0 -110 18t-86.5 53t-56.5 85.5t-20 115.5q0 60 17.5 107t50 79.5t78.5 49t103 16.5q60 0 103.5 -17.5t71 -48.5t41 -71.5t13.5 -87.5q0 -23 -2.5 -46t-7.5 -46h-311
q3 -25 14 -42t28.5 -27t40 -14t46.5 -4q41 0 75 9t55 26zM378 302q0 40 -22.5 67.5t-67.5 27.5q-43 0 -67 -26t-24 -69h181zM279 -237q-41 0 -66 26t-25 63t25 62.5t66 25.5t66 -25.5t25 -62.5t-25 -63t-66 -26z" />
    <glyph glyph-name="uni1EC8" unicode="&#x1ec8;" horiz-adv-x="270" 
d="M50 636h170v-636h-170v636zM92 694q0 23 9.5 38.5t33.5 34.5l23 18q18 14 18 25q0 8 -7.5 13t-24.5 5q-33 0 -64 -22l-30 62q17 15 46 27t65 12q51 0 82.5 -25t31.5 -60q0 -25 -14.5 -42.5t-34.5 -32.5l-23 -18q-27 -21 -27 -38v-15h-84v18z" />
    <glyph glyph-name="uni1EC9" unicode="&#x1ec9;" horiz-adv-x="260" 
d="M93 524q0 23 9.5 38.5t33.5 34.5l23 18q18 14 18 25q0 8 -7.5 13t-24.5 5q-33 0 -64 -22l-30 62q17 15 46 27t65 12q51 0 82.5 -25t31.5 -60q0 -25 -14.5 -42.5t-34.5 -32.5l-23 -18q-27 -21 -27 -38v-15h-84v18zM50 482h160v-482h-160v482z" />
    <glyph glyph-name="uni1ECA" unicode="&#x1eca;" horiz-adv-x="282" 
d="M56 636h170v-636h-170v636zM141 -237q-41 0 -66 26t-25 63t25 62.5t66 25.5t66 -25.5t25 -62.5t-25 -63t-66 -26z" />
    <glyph glyph-name="uni1ECB" unicode="&#x1ecb;" horiz-adv-x="282" 
d="M141 535q-41 0 -66 26t-25 63t25 62.5t66 25.5t66 -25.5t25 -62.5t-25 -63t-66 -26zM61 475h160v-482h-160v482zM141 -227q-39 0 -64 25.5t-25 60.5t25 60.5t64 25.5t64 -25.5t25 -60.5t-25 -60.5t-64 -25.5z" />
    <glyph glyph-name="uni1ECC" unicode="&#x1ecc;" horiz-adv-x="718" 
d="M40 317q0 75 22.5 135t64 101.5t101.5 64t135 22.5t133.5 -22.5t99 -64t61.5 -101.5t21 -135t-21 -134.5t-61.5 -101t-99 -63.5t-133.5 -22t-135 22t-101.5 63.5t-64 101t-22.5 134.5zM363 140q68 0 103.5 44t35.5 132t-35.5 134t-103.5 46q-69 0 -108 -46t-39 -134
t39 -132t108 -44zM353 -227q-39 0 -64 25.5t-25 60.5t25 60.5t64 25.5t64 -25.5t25 -60.5t-25 -60.5t-64 -25.5z" />
    <glyph glyph-name="uni1ECD" unicode="&#x1ecd;" horiz-adv-x="617" 
d="M310 -9q-62 0 -112 19t-85 54.5t-54 85.5t-19 112t19 110.5t53.5 81.5t84.5 50.5t111 17.5q62 0 111.5 -17.5t84.5 -50.5t54 -82t19 -112q0 -61 -18.5 -111t-53 -85t-84 -54t-111.5 -19zM310 125q50 0 76.5 36.5t26.5 98.5q0 65 -28.5 97.5t-76.5 32.5t-76.5 -32.5
t-28.5 -96.5q0 -63 28.5 -99.5t78.5 -36.5zM309 -227q-39 0 -64 25.5t-25 60.5t25 60.5t64 25.5t64 -25.5t25 -60.5t-25 -60.5t-64 -25.5z" />
    <glyph glyph-name="uni1ECE" unicode="&#x1ece;" horiz-adv-x="718" 
d="M40 317q0 75 22.5 135t64 101.5t101.5 64t135 22.5t133.5 -22.5t99 -64t61.5 -101.5t21 -135t-21 -134.5t-61.5 -101t-99 -63.5t-133.5 -22t-135 22t-101.5 63.5t-64 101t-22.5 134.5zM363 140q68 0 103.5 44t35.5 132t-35.5 134t-103.5 46q-69 0 -108 -46t-39 -134
t39 -132t108 -44zM314 694q0 23 9.5 38.5t33.5 34.5l23 18q18 14 18 25q0 8 -7.5 13t-24.5 5q-33 0 -64 -22l-30 62q17 15 46 27t65 12q51 0 82.5 -25t31.5 -60q0 -25 -14.5 -42.5t-34.5 -32.5l-23 -18q-27 -21 -27 -38v-15h-84v18z" />
    <glyph glyph-name="uni1ECF" unicode="&#x1ecf;" horiz-adv-x="617" 
d="M310 -9q-62 0 -112 19t-85 54.5t-54 85.5t-19 112t19 110.5t53.5 81.5t84.5 50.5t111 17.5q62 0 111.5 -17.5t84.5 -50.5t54 -82t19 -112q0 -61 -18.5 -111t-53 -85t-84 -54t-111.5 -19zM310 125q50 0 76.5 36.5t26.5 98.5q0 65 -28.5 97.5t-76.5 32.5t-76.5 -32.5
t-28.5 -96.5q0 -63 28.5 -99.5t78.5 -36.5zM267 570q0 23 9.5 38.5t33.5 34.5l23 18q18 14 18 25q0 8 -7.5 13t-24.5 5q-33 0 -64 -22l-30 62q17 15 46 27t65 12q51 0 82.5 -25t31.5 -60q0 -25 -14.5 -42.5t-34.5 -32.5l-23 -18q-27 -21 -27 -38v-15h-84v18z" />
    <glyph glyph-name="uni1ED0" unicode="&#x1ed0;" horiz-adv-x="718" 
d="M603 1047l115 -90l-144 -151l-91 71zM128 755l161 126h130l161 -126l-95 -96l-130 117l-131 -118zM40 317q0 75 22.5 135t64 101.5t101.5 64t135 22.5t133.5 -22.5t99 -64t61.5 -101.5t21 -135t-21 -134.5t-61.5 -101t-99 -63.5t-133.5 -22t-135 22t-101.5 63.5t-64 101
t-22.5 134.5zM363 140q68 0 103.5 44t35.5 132t-35.5 134t-103.5 46q-69 0 -108 -46t-39 -134t39 -132t108 -44z" />
    <glyph glyph-name="uni1ED1" unicode="&#x1ed1;" horiz-adv-x="586" 
d="M527 923l115 -90l-144 -151l-91 71zM53 631l161 126h130l161 -126l-95 -96l-130 117l-131 -118zM280 -9q-62 0 -112 19t-85 54.5t-54 85.5t-19 112t19 110.5t53.5 81.5t84.5 50.5t111 17.5q62 0 111.5 -17.5t84.5 -50.5t54 -82t19 -112q0 -61 -18.5 -111t-53 -85t-84 -54
t-111.5 -19zM280 125q50 0 76.5 36.5t26.5 98.5q0 65 -28.5 97.5t-76.5 32.5t-76.5 -32.5t-28.5 -96.5q0 -63 28.5 -99.5t78.5 -36.5z" />
    <glyph glyph-name="uni1ED2" unicode="&#x1ed2;" horiz-adv-x="724" 
d="M546 1015l138 -157l-81 -84l-165 129zM128 745l161 126h130l161 -126l-95 -96l-130 117l-131 -118zM40 317q0 75 22.5 135t64 101.5t101.5 64t135 22.5t133.5 -22.5t99 -64t61.5 -101.5t21 -135t-21 -134.5t-61.5 -101t-99 -63.5t-133.5 -22t-135 22t-101.5 63.5t-64 101
t-22.5 134.5zM363 140q68 0 103.5 44t35.5 132t-35.5 134t-103.5 46q-69 0 -108 -46t-39 -134t39 -132t108 -44z" />
    <glyph glyph-name="uni1ED3" unicode="&#x1ed3;" horiz-adv-x="617" 
d="M501 901l138 -157l-81 -84l-165 129zM83 631l161 126h130l161 -126l-95 -96l-130 117l-131 -118zM310 -9q-62 0 -112 19t-85 54.5t-54 85.5t-19 112t19 110.5t53.5 81.5t84.5 50.5t111 17.5q62 0 111.5 -17.5t84.5 -50.5t54 -82t19 -112q0 -61 -18.5 -111t-53 -85
t-84 -54t-111.5 -19zM310 125q50 0 76.5 36.5t26.5 98.5q0 65 -28.5 97.5t-76.5 32.5t-76.5 -32.5t-28.5 -96.5q0 -63 28.5 -99.5t78.5 -36.5z" />
    <glyph glyph-name="uni1ED4" unicode="&#x1ed4;" horiz-adv-x="718" 
d="M511 859q0 23 9.5 38.5t33.5 34.5l23 18q18 14 18 25q0 8 -7.5 13t-24.5 5q-33 0 -64 -22l-30 62q17 15 46 27t65 12q51 0 82.5 -25t31.5 -60q0 -25 -14.5 -42.5t-34.5 -32.5l-23 -18q-27 -21 -27 -38v-15h-84v18zM128 755l161 126h130l161 -126l-95 -96l-130 117
l-131 -118zM40 317q0 75 22.5 135t64 101.5t101.5 64t135 22.5t133.5 -22.5t99 -64t61.5 -101.5t21 -135t-21 -134.5t-61.5 -101t-99 -63.5t-133.5 -22t-135 22t-101.5 63.5t-64 101t-22.5 134.5zM363 140q68 0 103.5 44t35.5 132t-35.5 134t-103.5 46q-69 0 -108 -46
t-39 -134t39 -132t108 -44z" />
    <glyph glyph-name="uni1ED5" unicode="&#x1ed5;" horiz-adv-x="617" 
d="M466 735q0 23 9.5 38.5t33.5 34.5l23 18q18 14 18 25q0 8 -7.5 13t-24.5 5q-33 0 -64 -22l-30 62q17 15 46 27t65 12q51 0 82.5 -25t31.5 -60q0 -25 -14.5 -42.5t-34.5 -32.5l-23 -18q-27 -21 -27 -38v-15h-84v18zM83 631l161 126h130l161 -126l-95 -96l-130 117
l-131 -118zM310 -9q-62 0 -112 19t-85 54.5t-54 85.5t-19 112t19 110.5t53.5 81.5t84.5 50.5t111 17.5q62 0 111.5 -17.5t84.5 -50.5t54 -82t19 -112q0 -61 -18.5 -111t-53 -85t-84 -54t-111.5 -19zM310 125q50 0 76.5 36.5t26.5 98.5q0 65 -28.5 97.5t-76.5 32.5
t-76.5 -32.5t-28.5 -96.5q0 -63 28.5 -99.5t78.5 -36.5z" />
    <glyph glyph-name="uni1ED6" unicode="&#x1ed6;" horiz-adv-x="718" 
d="M578 1026q-14 -45 -49.5 -75t-92.5 -30q-12 0 -29 2.5t-49 13.5q-15 5 -31 9t-33 4q-29 0 -49 -12.5t-31 -31.5l-83 56q14 45 48 75t88 30q22 0 40 -4.5t37 -10.5q21 -6 37.5 -10t33.5 -4q29 0 49 12.5t31 31.5zM128 755l161 126h130l161 -126l-95 -96l-130 117
l-131 -118zM40 317q0 75 22.5 135t64 101.5t101.5 64t135 22.5t133.5 -22.5t99 -64t61.5 -101.5t21 -135t-21 -134.5t-61.5 -101t-99 -63.5t-133.5 -22t-135 22t-101.5 63.5t-64 101t-22.5 134.5zM363 140q68 0 103.5 44t35.5 132t-35.5 134t-103.5 46q-69 0 -108 -46
t-39 -134t39 -132t108 -44z" />
    <glyph glyph-name="uni1ED7" unicode="&#x1ed7;" horiz-adv-x="617" 
d="M533 902q-14 -45 -49.5 -75t-92.5 -30q-12 0 -29 2.5t-49 13.5q-15 5 -31 9t-33 4q-29 0 -49 -12.5t-31 -31.5l-83 56q14 45 48 75t88 30q22 0 40 -4.5t37 -10.5q21 -6 37.5 -10t33.5 -4q29 0 49 12.5t31 31.5zM83 631l161 126h130l161 -126l-95 -96l-130 117l-131 -118z
M310 -9q-62 0 -112 19t-85 54.5t-54 85.5t-19 112t19 110.5t53.5 81.5t84.5 50.5t111 17.5q62 0 111.5 -17.5t84.5 -50.5t54 -82t19 -112q0 -61 -18.5 -111t-53 -85t-84 -54t-111.5 -19zM310 125q50 0 76.5 36.5t26.5 98.5q0 65 -28.5 97.5t-76.5 32.5t-76.5 -32.5
t-28.5 -96.5q0 -63 28.5 -99.5t78.5 -36.5z" />
    <glyph glyph-name="uni1ED8" unicode="&#x1ed8;" horiz-adv-x="718" 
d="M128 765l161 126h130l161 -126l-95 -96l-130 117l-131 -118zM40 317q0 75 22.5 135t64 101.5t101.5 64t135 22.5t133.5 -22.5t99 -64t61.5 -101.5t21 -135t-21 -134.5t-61.5 -101t-99 -63.5t-133.5 -22t-135 22t-101.5 63.5t-64 101t-22.5 134.5zM363 140q68 0 103.5 44
t35.5 132t-35.5 134t-103.5 46q-69 0 -108 -46t-39 -134t39 -132t108 -44zM354 -227q-39 0 -64 25.5t-25 60.5t25 60.5t64 25.5t64 -25.5t25 -60.5t-25 -60.5t-64 -25.5z" />
    <glyph glyph-name="uni1ED9" unicode="&#x1ed9;" horiz-adv-x="617" 
d="M83 640l161 126h130l161 -126l-95 -96l-130 117l-131 -118zM310 -9q-62 0 -112 19t-85 54.5t-54 85.5t-19 112t19 110.5t53.5 81.5t84.5 50.5t111 17.5q62 0 111.5 -17.5t84.5 -50.5t54 -82t19 -112q0 -61 -18.5 -111t-53 -85t-84 -54t-111.5 -19zM310 125
q50 0 76.5 36.5t26.5 98.5q0 65 -28.5 97.5t-76.5 32.5t-76.5 -32.5t-28.5 -96.5q0 -63 28.5 -99.5t78.5 -36.5zM309 -227q-39 0 -64 25.5t-25 60.5t25 60.5t64 25.5t64 -25.5t25 -60.5t-25 -60.5t-64 -25.5z" />
    <glyph glyph-name="uni1EDA" unicode="&#x1eda;" horiz-adv-x="770" 
d="M284 670l-60 100l240 150l71 -123zM40 317q0 75 22.5 135t64 101.5t101.5 64t135 22.5q81 0 141.5 -25t101.5 -73q14 15 23 35t14.5 42t8 44.5t3.5 42.5l151 -16q0 -86 -35 -153.5t-108 -102.5q15 -54 15 -117q0 -75 -21 -134.5t-61.5 -101t-99 -63.5t-133.5 -22t-135 22
t-101.5 63.5t-64 101t-22.5 134.5zM363 140q68 0 103.5 44t35.5 132t-35.5 134t-103.5 46q-69 0 -108 -46t-39 -134t39 -132t108 -44z" />
    <glyph glyph-name="uni1EDB" unicode="&#x1edb;" horiz-adv-x="709" 
d="M227 546l-60 100l240 150l71 -123zM310 -9q-62 0 -112 19t-85 54.5t-54 85.5t-19 112t19 110.5t53.5 81.5t84.5 50.5t111 17.5q75 0 132 -25.5t92 -75.5q26 32 35.5 77t10.5 84l151 -16q0 -89 -38 -158.5t-117 -103.5q3 -21 3 -44q0 -61 -18.5 -111t-53 -85t-84 -54
t-111.5 -19zM310 125q50 0 76.5 36.5t26.5 98.5q0 65 -28.5 97.5t-76.5 32.5t-76.5 -32.5t-28.5 -96.5q0 -63 28.5 -99.5t78.5 -36.5z" />
    <glyph glyph-name="uni1EDC" unicode="&#x1edc;" horiz-adv-x="771" 
d="M261 920l240 -150l-60 -100l-251 127zM40 317q0 75 22.5 135t64 101.5t101.5 64t135 22.5q81 0 142 -25.5t102 -73.5q14 15 23 35.5t14.5 42.5t8 44.5t3.5 42.5l151 -16q0 -86 -35 -154t-109 -103q15 -52 15 -116q0 -75 -21 -134.5t-61.5 -101t-99 -63.5t-133.5 -22
t-135 22t-101.5 63.5t-64 101t-22.5 134.5zM363 140q68 0 103.5 44t35.5 132t-35.5 134t-103.5 46q-69 0 -108 -46t-39 -134t39 -132t108 -44z" />
    <glyph glyph-name="uni1EDD" unicode="&#x1edd;" horiz-adv-x="709" 
d="M193 796l240 -150l-60 -100l-251 127zM310 -9q-62 0 -112 19t-85 54.5t-54 85.5t-19 112t19 110.5t53.5 81.5t84.5 50.5t111 17.5q75 0 132 -25.5t92 -75.5q26 32 35.5 77t10.5 84l151 -16q0 -89 -38 -158.5t-117 -103.5q3 -21 3 -44q0 -61 -18.5 -111t-53 -85t-84 -54
t-111.5 -19zM310 125q50 0 76.5 36.5t26.5 98.5q0 65 -28.5 97.5t-76.5 32.5t-76.5 -32.5t-28.5 -96.5q0 -63 28.5 -99.5t78.5 -36.5z" />
    <glyph glyph-name="uni1EDE" unicode="&#x1ede;" horiz-adv-x="771" 
d="M315 694q0 23 9.5 38.5t33.5 34.5l23 18q18 14 18 25q0 8 -7.5 13t-24.5 5q-33 0 -64 -22l-30 62q17 15 46 27t65 12q51 0 82.5 -25t31.5 -60q0 -25 -14.5 -42.5t-34.5 -32.5l-23 -18q-27 -21 -27 -38v-15h-84v18zM40 317q0 75 22.5 135t64 101.5t101.5 64t135 22.5
q81 0 142 -25.5t102 -73.5q14 15 23 35.5t14.5 42.5t8 44.5t3.5 42.5l151 -16q0 -86 -35 -154t-109 -103q15 -52 15 -116q0 -75 -21 -134.5t-61.5 -101t-99 -63.5t-133.5 -22t-135 22t-101.5 63.5t-64 101t-22.5 134.5zM363 140q68 0 103.5 44t35.5 132t-35.5 134t-103.5 46
q-69 0 -108 -46t-39 -134t39 -132t108 -44z" />
    <glyph glyph-name="uni1EDF" unicode="&#x1edf;" horiz-adv-x="709" 
d="M267 570q0 23 9.5 38.5t33.5 34.5l23 18q18 14 18 25q0 8 -7.5 13t-24.5 5q-33 0 -64 -22l-30 62q17 15 46 27t65 12q51 0 82.5 -25t31.5 -60q0 -25 -14.5 -42.5t-34.5 -32.5l-23 -18q-27 -21 -27 -38v-15h-84v18zM310 -9q-62 0 -112 19t-85 54.5t-54 85.5t-19 112
t19 110.5t53.5 81.5t84.5 50.5t111 17.5q75 0 132 -25.5t92 -75.5q26 32 35.5 77t10.5 84l151 -16q0 -89 -38 -158.5t-117 -103.5q3 -21 3 -44q0 -61 -18.5 -111t-53 -85t-84 -54t-111.5 -19zM310 125q50 0 76.5 36.5t26.5 98.5q0 65 -28.5 97.5t-76.5 32.5t-76.5 -32.5
t-28.5 -96.5q0 -63 28.5 -99.5t78.5 -36.5z" />
    <glyph glyph-name="uni1EE0" unicode="&#x1ee0;" horiz-adv-x="771" 
d="M593 801q-14 -45 -51.5 -75t-91.5 -30q-23 0 -45 5t-44 11q-18 5 -38 9t-38 4q-30 0 -52.5 -12.5t-33.5 -31.5l-83 56q14 45 51 75t91 30q23 0 45.5 -5t44.5 -11q18 -5 38.5 -9t38.5 -4q29 0 51.5 12.5t33.5 31.5zM40 317q0 75 22.5 135t64 101.5t101.5 64t135 22.5
q81 0 142 -25.5t102 -73.5q14 15 23 35.5t14.5 42.5t8 44.5t3.5 42.5l151 -16q0 -86 -35 -154t-109 -103q15 -52 15 -116q0 -75 -21 -134.5t-61.5 -101t-99 -63.5t-133.5 -22t-135 22t-101.5 63.5t-64 101t-22.5 134.5zM363 140q68 0 103.5 44t35.5 132t-35.5 134t-103.5 46
q-69 0 -108 -46t-39 -134t39 -132t108 -44z" />
    <glyph glyph-name="uni1EE1" unicode="&#x1ee1;" horiz-adv-x="709" 
d="M538 677q-14 -45 -51.5 -75t-91.5 -30q-23 0 -45 5t-44 11q-18 5 -38 9t-38 4q-30 0 -52.5 -12.5t-33.5 -31.5l-83 56q14 45 51 75t91 30q23 0 45.5 -5t44.5 -11q18 -5 38.5 -9t38.5 -4q29 0 51.5 12.5t33.5 31.5zM310 -9q-62 0 -112 19t-85 54.5t-54 85.5t-19 112
t19 110.5t53.5 81.5t84.5 50.5t111 17.5q75 0 132 -25.5t92 -75.5q26 32 35.5 77t10.5 84l151 -16q0 -89 -38 -158.5t-117 -103.5q3 -21 3 -44q0 -61 -18.5 -111t-53 -85t-84 -54t-111.5 -19zM310 125q50 0 76.5 36.5t26.5 98.5q0 65 -28.5 97.5t-76.5 32.5t-76.5 -32.5
t-28.5 -96.5q0 -63 28.5 -99.5t78.5 -36.5z" />
    <glyph glyph-name="uni1EE2" unicode="&#x1ee2;" horiz-adv-x="771" 
d="M40 317q0 75 22.5 135t64 101.5t101.5 64t135 22.5q81 0 142 -25.5t102 -73.5q14 15 23 35.5t14.5 42.5t8 44.5t3.5 42.5l151 -16q0 -86 -35 -154t-109 -103q15 -52 15 -116q0 -75 -21 -134.5t-61.5 -101t-99 -63.5t-133.5 -22t-135 22t-101.5 63.5t-64 101t-22.5 134.5z
M363 140q68 0 103.5 44t35.5 132t-35.5 134t-103.5 46q-69 0 -108 -46t-39 -134t39 -132t108 -44zM354 -227q-39 0 -64 25.5t-25 60.5t25 60.5t64 25.5t64 -25.5t25 -60.5t-25 -60.5t-64 -25.5z" />
    <glyph glyph-name="uni1EE3" unicode="&#x1ee3;" horiz-adv-x="709" 
d="M310 -9q-62 0 -112 19t-85 54.5t-54 85.5t-19 112t19 110.5t53.5 81.5t84.5 50.5t111 17.5q75 0 132 -25.5t92 -75.5q26 32 35.5 77t10.5 84l151 -16q0 -89 -38 -158.5t-117 -103.5q3 -21 3 -44q0 -61 -18.5 -111t-53 -85t-84 -54t-111.5 -19zM310 125q50 0 76.5 36.5
t26.5 98.5q0 65 -28.5 97.5t-76.5 32.5t-76.5 -32.5t-28.5 -96.5q0 -63 28.5 -99.5t78.5 -36.5zM307 -227q-39 0 -64 25.5t-25 60.5t25 60.5t64 25.5t64 -25.5t25 -60.5t-25 -60.5t-64 -25.5z" />
    <glyph glyph-name="uni1EE4" unicode="&#x1ee4;" horiz-adv-x="630" 
d="M50 636h170v-399q0 -51 25 -76.5t72 -25.5q93 0 93 102v399h170v-402q0 -117 -65.5 -178.5t-199.5 -61.5t-199.5 61.5t-65.5 178.5v402zM316 -227q-39 0 -64 25.5t-25 60.5t25 60.5t64 25.5t64 -25.5t25 -60.5t-25 -60.5t-64 -25.5z" />
    <glyph glyph-name="uni1EE5" unicode="&#x1ee5;" horiz-adv-x="620" 
d="M50 512h160v-287q0 -45 23.5 -68.5t64.5 -23.5t64 23.5t23 68.5v287h160v-387l55 -64l-135 -107l-62 78q-23 -15 -53.5 -23.5t-75.5 -8.5q-113 0 -168.5 55t-55.5 161v296zM297 -232q-39 0 -64 25.5t-25 60.5t25 60.5t64 25.5t64 -25.5t25 -60.5t-25 -60.5t-64 -25.5z
" />
    <glyph glyph-name="uni1EE6" unicode="&#x1ee6;" horiz-adv-x="630" 
d="M50 636h170v-399q0 -51 25 -76.5t72 -25.5q93 0 93 102v399h170v-402q0 -117 -65.5 -178.5t-199.5 -61.5t-199.5 61.5t-65.5 178.5v402zM272 694q0 23 9.5 38.5t33.5 34.5l23 18q18 14 18 25q0 8 -7.5 13t-24.5 5q-33 0 -64 -22l-30 62q17 15 46 27t65 12q51 0 82.5 -25
t31.5 -60q0 -25 -14.5 -42.5t-34.5 -32.5l-23 -18q-27 -21 -27 -38v-15h-84v18z" />
    <glyph glyph-name="uni1EE7" unicode="&#x1ee7;" horiz-adv-x="620" 
d="M50 512h160v-287q0 -45 23.5 -68.5t64.5 -23.5t64 23.5t23 68.5v287h160v-387l55 -64l-135 -107l-62 78q-23 -15 -53.5 -23.5t-75.5 -8.5q-113 0 -168.5 55t-55.5 161v296zM253 570q0 23 9.5 38.5t33.5 34.5l23 18q18 14 18 25q0 8 -7.5 13t-24.5 5q-33 0 -64 -22l-30 62
q17 15 46 27t65 12q51 0 82.5 -25t31.5 -60q0 -25 -14.5 -42.5t-34.5 -32.5l-23 -18q-27 -21 -27 -38v-15h-84v18z" />
    <glyph glyph-name="uni1EE8" unicode="&#x1ee8;" horiz-adv-x="767" 
d="M233 670l-60 100l240 150l71 -123zM50 636h170v-399q0 -51 25 -76.5t72 -25.5q93 0 93 102v399h170v-110q20 14 32 35t19.5 46t10.5 50.5t4 48.5l151 -16q0 -52 -13 -98.5t-40 -83t-67.5 -62t-96.5 -36.5v-176q0 -117 -65.5 -178.5t-199.5 -61.5t-199.5 61.5t-65.5 178.5
v402z" />
    <glyph glyph-name="uni1EE9" unicode="&#x1ee9;" horiz-adv-x="731" 
d="M297 546l-60 100l240 150l71 -123zM50 512h160v-287q0 -45 23.5 -68.5t64.5 -23.5t64 23.5t23 68.5v287h160v-109q19 14 31 35t19.5 45.5t10.5 50t4 48.5l151 -16q0 -52 -13 -98.5t-40 -83t-67.5 -62t-95.5 -36.5v-161l55 -64l-135 -107l-62 78q-23 -15 -53.5 -23.5
t-75.5 -8.5q-113 0 -168.5 55t-55.5 161v296z" />
    <glyph glyph-name="uni1EEA" unicode="&#x1eea;" horiz-adv-x="767" 
d="M145 920l240 -150l-60 -100l-251 127zM50 636h170v-399q0 -51 25 -76.5t72 -25.5q93 0 93 102v399h170v-110q20 14 32 35t19.5 46t10.5 50.5t4 48.5l151 -16q0 -52 -13 -98.5t-40 -83t-67.5 -62t-96.5 -36.5v-176q0 -117 -65.5 -178.5t-199.5 -61.5t-199.5 61.5
t-65.5 178.5v402z" />
    <glyph glyph-name="uni1EEB" unicode="&#x1eeb;" horiz-adv-x="731" 
d="M126 796l240 -150l-60 -100l-251 127zM50 512h160v-287q0 -45 23.5 -68.5t64.5 -23.5t64 23.5t23 68.5v287h160v-109q19 14 31 35t19.5 45.5t10.5 50t4 48.5l151 -16q0 -52 -13 -98.5t-40 -83t-67.5 -62t-95.5 -36.5v-161l55 -64l-135 -107l-62 78q-23 -15 -53.5 -23.5
t-75.5 -8.5q-113 0 -168.5 55t-55.5 161v296z" />
    <glyph glyph-name="uni1EEC" unicode="&#x1eec;" horiz-adv-x="767" 
d="M272 694q0 23 9.5 38.5t33.5 34.5l23 18q18 14 18 25q0 8 -7.5 13t-24.5 5q-33 0 -64 -22l-30 62q17 15 46 27t65 12q51 0 82.5 -25t31.5 -60q0 -25 -14.5 -42.5t-34.5 -32.5l-23 -18q-27 -21 -27 -38v-15h-84v18zM50 636h170v-399q0 -51 25 -76.5t72 -25.5q93 0 93 102
v399h170v-110q20 14 32 35t19.5 46t10.5 50.5t4 48.5l151 -16q0 -52 -13 -98.5t-40 -83t-67.5 -62t-96.5 -36.5v-176q0 -117 -65.5 -178.5t-199.5 -61.5t-199.5 61.5t-65.5 178.5v402z" />
    <glyph glyph-name="uni1EED" unicode="&#x1eed;" horiz-adv-x="731" 
d="M253 570q0 23 9.5 38.5t33.5 34.5l23 18q18 14 18 25q0 8 -7.5 13t-24.5 5q-33 0 -64 -22l-30 62q17 15 46 27t65 12q51 0 82.5 -25t31.5 -60q0 -25 -14.5 -42.5t-34.5 -32.5l-23 -18q-27 -21 -27 -38v-15h-84v18zM50 512h160v-287q0 -45 23.5 -68.5t64.5 -23.5t64 23.5
t23 68.5v287h160v-109q19 14 31 35t19.5 45.5t10.5 50t4 48.5l151 -16q0 -52 -13 -98.5t-40 -83t-67.5 -62t-95.5 -36.5v-161l55 -64l-135 -107l-62 78q-23 -15 -53.5 -23.5t-75.5 -8.5q-113 0 -168.5 55t-55.5 161v296z" />
    <glyph glyph-name="uni1EEE" unicode="&#x1eee;" horiz-adv-x="767" 
d="M554 801q-14 -45 -51.5 -75t-91.5 -30q-23 0 -45 5t-44 11q-18 5 -38 9t-38 4q-30 0 -52.5 -12.5t-33.5 -31.5l-83 56q14 45 51 75t91 30q23 0 45.5 -5t44.5 -11q18 -5 38.5 -9t38.5 -4q29 0 51.5 12.5t33.5 31.5zM50 636h170v-399q0 -51 25 -76.5t72 -25.5q93 0 93 102
v399h170v-110q20 14 32 35t19.5 46t10.5 50.5t4 48.5l151 -16q0 -52 -13 -98.5t-40 -83t-67.5 -62t-96.5 -36.5v-176q0 -117 -65.5 -178.5t-199.5 -61.5t-199.5 61.5t-65.5 178.5v402z" />
    <glyph glyph-name="uni1EEF" unicode="&#x1eef;" horiz-adv-x="731" 
d="M535 677q-14 -45 -51.5 -75t-91.5 -30q-23 0 -45 5t-44 11q-18 5 -38 9t-38 4q-30 0 -52.5 -12.5t-33.5 -31.5l-83 56q14 45 51 75t91 30q23 0 45.5 -5t44.5 -11q18 -5 38.5 -9t38.5 -4q29 0 51.5 12.5t33.5 31.5zM50 512h160v-287q0 -45 23.5 -68.5t64.5 -23.5t64 23.5
t23 68.5v287h160v-109q19 14 31 35t19.5 45.5t10.5 50t4 48.5l151 -16q0 -52 -13 -98.5t-40 -83t-67.5 -62t-95.5 -36.5v-161l55 -64l-135 -107l-62 78q-23 -15 -53.5 -23.5t-75.5 -8.5q-113 0 -168.5 55t-55.5 161v296z" />
    <glyph glyph-name="uni1EF0" unicode="&#x1ef0;" horiz-adv-x="767" 
d="M50 636h170v-399q0 -51 25 -76.5t72 -25.5q93 0 93 102v399h170v-110q20 14 32 35t19.5 46t10.5 50.5t4 48.5l151 -16q0 -52 -13 -98.5t-40 -83t-67.5 -62t-96.5 -36.5v-176q0 -117 -65.5 -178.5t-199.5 -61.5t-199.5 61.5t-65.5 178.5v402zM323 -227q-39 0 -64 25.5
t-25 60.5t25 60.5t64 25.5t64 -25.5t25 -60.5t-25 -60.5t-64 -25.5z" />
    <glyph glyph-name="uni1EF1" unicode="&#x1ef1;" horiz-adv-x="731" 
d="M50 512h160v-287q0 -45 23.5 -68.5t64.5 -23.5t64 23.5t23 68.5v287h160v-109q19 14 31 35t19.5 45.5t10.5 50t4 48.5l151 -16q0 -52 -13 -98.5t-40 -83t-67.5 -62t-95.5 -36.5v-161l55 -64l-135 -107l-62 78q-23 -15 -53.5 -23.5t-75.5 -8.5q-113 0 -168.5 55t-55.5 161
v296zM297 -232q-39 0 -64 25.5t-25 60.5t25 60.5t64 25.5t64 -25.5t25 -60.5t-25 -60.5t-64 -25.5z" />
    <glyph glyph-name="Ygrave" unicode="&#x1ef2;" horiz-adv-x="721" 
d="M279 239l-249 397h199l134 -236h6l125 236h197l-221 -391v-245h-191v239zM181 920l240 -150l-60 -100l-251 127z" />
    <glyph glyph-name="ygrave" unicode="&#x1ef3;" horiz-adv-x="634" 
d="M173 -178l98 250q-23 20 -52 55.5t-53 85.5l-146 299h170l138 -296l116 296h170l-276 -690h-165zM151 796l240 -150l-60 -100l-251 127z" />
    <glyph glyph-name="uni1EF4" unicode="&#x1ef4;" horiz-adv-x="721" 
d="M279 239l-249 397h199l134 -236h6l125 236h197l-221 -391v-245h-191v239zM375 -232q-39 0 -64 25.5t-25 60.5t25 60.5t64 25.5t64 -25.5t25 -60.5t-25 -60.5t-64 -25.5z" />
    <glyph glyph-name="uni1EF5" unicode="&#x1ef5;" horiz-adv-x="636" 
d="M173 -178l98 250q-23 20 -52 55.5t-53 85.5l-146 299h170l138 -296l116 296h170l-276 -690h-165zM527 -232q-39 0 -64 25.5t-25 60.5t25 60.5t64 25.5t64 -25.5t25 -60.5t-25 -60.5t-64 -25.5z" />
    <glyph glyph-name="uni1EF6" unicode="&#x1ef6;" horiz-adv-x="721" 
d="M279 239l-249 397h199l134 -236h6l125 236h197l-221 -391v-245h-191v239zM319 694q0 23 9.5 38.5t33.5 34.5l23 18q18 14 18 25q0 8 -7.5 13t-24.5 5q-33 0 -64 -22l-30 62q17 15 46 27t65 12q51 0 82.5 -25t31.5 -60q0 -25 -14.5 -42.5t-34.5 -32.5l-23 -18
q-27 -21 -27 -38v-15h-84v18z" />
    <glyph glyph-name="uni1EF7" unicode="&#x1ef7;" horiz-adv-x="634" 
d="M283 570q0 23 9.5 38.5t33.5 34.5l23 18q18 14 18 25q0 8 -7.5 13t-24.5 5q-33 0 -64 -22l-30 62q17 15 46 27t65 12q51 0 82.5 -25t31.5 -60q0 -25 -14.5 -42.5t-34.5 -32.5l-23 -18q-27 -21 -27 -38v-15h-84v18zM173 -178l98 250q-23 20 -52 55.5t-53 85.5l-146 299
h170l138 -296l116 296h170l-276 -690h-165z" />
    <glyph glyph-name="uni1EF8" unicode="&#x1ef8;" horiz-adv-x="721" 
d="M279 239l-249 397h199l134 -236h6l125 236h197l-221 -391v-245h-191v239zM599 801q-14 -45 -51.5 -75t-91.5 -30q-23 0 -45 5t-44 11q-18 5 -38 9t-38 4q-30 0 -52.5 -12.5t-33.5 -31.5l-83 56q14 45 51 75t91 30q23 0 45.5 -5t44.5 -11q18 -5 38.5 -9t38.5 -4
q29 0 51.5 12.5t33.5 31.5z" />
    <glyph glyph-name="uni1EF9" unicode="&#x1ef9;" horiz-adv-x="634" 
d="M577 677q-14 -45 -51.5 -75t-91.5 -30q-23 0 -45 5t-44 11q-18 5 -38 9t-38 4q-30 0 -52.5 -12.5t-33.5 -31.5l-83 56q14 45 51 75t91 30q23 0 45.5 -5t44.5 -11q18 -5 38.5 -9t38.5 -4q29 0 51.5 12.5t33.5 31.5zM173 -178l98 250q-23 20 -52 55.5t-53 85.5l-146 299
h170l138 -296l116 296h170l-276 -690h-165z" />
    <glyph glyph-name="uni2007" unicode="&#x2007;" horiz-adv-x="500" 
 />
    <glyph glyph-name="uni200C" unicode="&#x200c;" horiz-adv-x="226" 
d="M69 506l-64 61l44 44l63 -63l63 65l46 -46l-63 -61l64 -61l-45 -45l-64 64l-61 -65l-47 47zM68 -7v380h90v-380h-90z" />
    <glyph glyph-name="uni200D" unicode="&#x200d;" horiz-adv-x="170" 
d="M40 -7v615h90v-615h-90z" />
    <glyph glyph-name="figuredash" unicode="&#x2012;" horiz-adv-x="630" 
d="M30 363h570v-140h-570v140z" />
    <glyph glyph-name="endash" unicode="&#x2013;" horiz-adv-x="630" 
d="M30 323h570v-140h-570v140z" />
    <glyph glyph-name="emdash" unicode="&#x2014;" horiz-adv-x="844" 
d="M30 323h784v-140h-784v140z" />
    <glyph glyph-name="uni2015" unicode="&#x2015;" horiz-adv-x="710" 
d="M30 323h650v-140h-650v140z" />
    <glyph glyph-name="quoteleft" unicode="&#x2018;" horiz-adv-x="224" 
d="M27 404l42 256h117v-256h-159z" />
    <glyph glyph-name="quoteright" unicode="&#x2019;" horiz-adv-x="209" 
d="M30 660h159l-42 -256h-117v256z" />
    <glyph glyph-name="quotesinglbase" unicode="&#x201a;" horiz-adv-x="219" 
d="M30 131h159l-22 -256h-117z" />
    <glyph glyph-name="quotedblleft" unicode="&#x201c;" horiz-adv-x="442" 
d="M40 404l42 256h117v-256h-159zM233 404l42 256h117v-256h-159z" />
    <glyph glyph-name="quotedblright" unicode="&#x201d;" horiz-adv-x="472" 
d="M50 660h159l-42 -256h-117v256zM243 660h159l-42 -256h-117v256z" />
    <glyph glyph-name="quotedblbase" unicode="&#x201e;" horiz-adv-x="441" 
d="M30 169h159l-22 -256h-117zM232 169h159l-22 -256h-117z" />
    <glyph glyph-name="dagger" unicode="&#x2020;" horiz-adv-x="492" 
d="M176 507v129h140v-129l146 15v-145l-146 13v-465h-140v464l-146 -12v145z" />
    <glyph glyph-name="daggerdbl" unicode="&#x2021;" horiz-adv-x="492" 
d="M30 376v145l146 -15v130h140v-130l146 15v-145l-146 13v-213l146 15v-145l-146 13v-134h-140v133l-146 -12v145l146 -15v212z" />
    <glyph glyph-name="bullet" unicode="&#x2022;" horiz-adv-x="307" 
d="M154 158q-28 0 -51 9.5t-39 26.5t-25 39.5t-9 48.5t9 48.5t25 39.5t39 27t51 10t50.5 -10t38.5 -27t25 -39.5t9 -48.5q0 -52 -33.5 -88t-89.5 -36z" />
    <glyph glyph-name="ellipsis" unicode="&#x2026;" horiz-adv-x="703" 
d="M115 -11q-43 0 -69 26.5t-26 65.5q0 40 26 67t69 27t69.5 -27t26.5 -67q0 -39 -26.5 -65.5t-69.5 -26.5zM351 -11q-43 0 -69 26.5t-26 65.5q0 40 26 67t69 27t69.5 -27t26.5 -67q0 -39 -26.5 -65.5t-69.5 -26.5zM587 -11q-43 0 -69 26.5t-26 65.5q0 40 26 67t69 27
t69.5 -27t26.5 -67q0 -39 -26.5 -65.5t-69.5 -26.5z" />
    <glyph glyph-name="perthousand" unicode="&#x2030;" horiz-adv-x="1255" 
d="M243 -6l244 691l147 -55l-244 -691zM30 481q0 74 42.5 117.5t122.5 43.5q82 0 124.5 -43.5t42.5 -119.5t-41.5 -117t-120.5 -41t-124.5 41t-45.5 119zM200 411q28 0 44.5 18t16.5 52q0 35 -17.5 53t-46.5 18t-47 -19t-18 -50q0 -35 19.5 -53.5t48.5 -18.5zM512 148
q0 77 44 121.5t123 44.5q81 0 125 -44.5t44 -123.5t-43 -121t-121 -42t-125 42t-47 123zM889 148q0 77 44 121.5t123 44.5q81 0 125 -44.5t44 -123.5t-43 -121t-121 -42t-125 42t-47 123zM683 81q26 0 43 16.5t17 49.5q0 35 -17.5 52t-44.5 17q-29 0 -46.5 -18t-17.5 -49
q0 -35 19.5 -51.5t46.5 -16.5zM1060 81q26 0 43 16.5t17 49.5q0 35 -17.5 52t-44.5 17q-29 0 -46.5 -18t-17.5 -49q0 -35 19.5 -51.5t46.5 -16.5z" />
    <glyph glyph-name="guilsinglleft" unicode="&#x2039;" horiz-adv-x="405" 
d="M256 502l119 -100l-152 -181l152 -181l-119 -100l-236 281z" />
    <glyph glyph-name="guilsinglright" unicode="&#x203a;" horiz-adv-x="405" 
d="M182 221l-152 181l119 100l236 -281l-236 -281l-119 100z" />
    <glyph glyph-name="fraction" unicode="&#x2044;" horiz-adv-x="583" 
d="M481 699l102 -74l-481 -689l-102 74z" />
    <glyph glyph-name="uni2070" unicode="&#x2070;" horiz-adv-x="328" 
d="M163 313q-70 0 -106.5 43.5t-36.5 121.5t36.5 121.5t106.5 43.5t107.5 -43.5t37.5 -121.5t-37.5 -121.5t-107.5 -43.5zM163 389q28 0 40.5 24.5t12.5 64.5q0 39 -12.5 63t-40.5 24t-40 -24t-12 -63q0 -40 12 -64.5t40 -24.5z" />
    <glyph glyph-name="uni2074" unicode="&#x2074;" horiz-adv-x="317" 
d="M30 437l115 199h110v-195h42v-70h-42v-52h-90v52h-111zM165 441v100h-2l-51 -100h53z" />
    <glyph glyph-name="uni2075" unicode="&#x2075;" horiz-adv-x="315" 
d="M62 411q11 -11 28.5 -19.5t41.5 -8.5q51 0 51 40q0 36 -47 36q-15 0 -25.5 -3t-15.5 -7l-52 30v157h208v-68h-128v-49q9 2 20 4t26 2q55 0 80.5 -26.5t25.5 -71.5q0 -53 -33.5 -84.5t-103.5 -31.5q-47 0 -75 12.5t-43 27.5z" />
    <glyph glyph-name="uni2076" unicode="&#x2076;" horiz-adv-x="325" 
d="M169 312q-63 0 -96 36.5t-33 120.5q0 86 34 130t99 44q32 0 60 -9t43 -18l-23 -60q-14 6 -28.5 10t-31.5 4q-29 0 -45 -14.5t-16 -51.5q8 6 23.5 12t38.5 6q45 0 68 -26.5t23 -74.5q0 -46 -25.5 -77.5t-90.5 -31.5zM131 425q0 -41 32 -41q30 0 30 34t-30 34
q-19 0 -32 -14v-13z" />
    <glyph glyph-name="uni2077" unicode="&#x2077;" horiz-adv-x="266" 
d="M157 566h-137v70h226v-72l-109 -245h-95z" />
    <glyph glyph-name="uni2078" unicode="&#x2078;" horiz-adv-x="336" 
d="M40 408q0 29 14 47t37 29q-15 9 -27 27t-12 43q0 38 31 63.5t85 25.5t84 -25t30 -63q0 -26 -12.5 -44t-27.5 -27q27 -12 40.5 -29.5t13.5 -44.5q0 -44 -33.5 -70.5t-96.5 -26.5t-94.5 26.5t-31.5 68.5zM164 510q15 4 23 13.5t8 21.5t-7 19.5t-21 7.5t-20.5 -7.5
t-6.5 -19.5q0 -13 7 -22t17 -13zM167 385q17 0 27.5 9t10.5 23t-10 23t-24 14q-41 -9 -41 -38q0 -13 10 -22t27 -9z" />
    <glyph glyph-name="uni2079" unicode="&#x2079;" horiz-adv-x="331" 
d="M84 402q14 -10 27 -14t28 -4q35 0 51 17.5t16 49.5q-20 -18 -60 -18q-49 0 -77.5 26.5t-28.5 74.5q0 46 29 77.5t91 31.5q64 0 97.5 -38t33.5 -117q0 -84 -37 -130t-106 -46q-33 0 -57 9.5t-41 21.5zM198 531q0 22 -10 31t-24 9q-16 0 -24 -9.5t-8 -25.5q0 -34 35 -34
q19 0 31 13v16z" />
    <glyph glyph-name="uni207D" unicode="&#x207d;" horiz-adv-x="188" 
d="M118 200q-27 18 -45.5 48t-30 64.5t-17 70.5t-5.5 66q0 29 5.5 64.5t17 70t30 64.5t45.5 48l60 -51q-32 -41 -46 -86t-14 -110t14 -111t46 -87z" />
    <glyph glyph-name="uni207E" unicode="&#x207e;" horiz-adv-x="188" 
d="M10 251q32 41 46 87t14 111t-14 110t-46 86l60 51q27 -18 45.5 -48t30 -64.5t17 -70t5.5 -64.5q0 -30 -5.5 -66t-17 -70.5t-30 -64.5t-45.5 -48z" />
    <glyph glyph-name="uni207F" unicode="&#x207f;" horiz-adv-x="393" 
d="M151 286h-101v271q24 24 65 39t90 15q70 0 105 -32t35 -86v-152l28 -33l-78 -66l-51 51v172q0 53 -53 53q-12 0 -22 -2.5t-18 -6.5v-223z" />
    <glyph glyph-name="uni2080" unicode="&#x2080;" horiz-adv-x="348" 
d="M173 -7q-70 0 -106.5 43.5t-36.5 121.5t36.5 121.5t106.5 43.5t107.5 -43.5t37.5 -121.5t-37.5 -121.5t-107.5 -43.5zM173 69q28 0 40.5 24.5t12.5 64.5q0 39 -12.5 63t-40.5 24t-40 -24t-12 -63q0 -40 12 -64.5t40 -24.5z" />
    <glyph glyph-name="uni2081" unicode="&#x2081;" horiz-adv-x="225" 
d="M105 0v222l-55 -28l-40 75l103 48h82v-317h-90z" />
    <glyph glyph-name="uni2082" unicode="&#x2082;" horiz-adv-x="285" 
d="M26 56l68 57q38 32 50 52.5t12 36.5q0 20 -14.5 35.5t-43.5 15.5q-15 0 -28 -4.5t-27 -12.5l-23 61q21 14 49 20t55 6q65 0 96 -31t31 -74q0 -27 -13 -53.5t-42 -53.5l-42 -39v-2h101v-70h-229v56z" />
    <glyph glyph-name="uni2083" unicode="&#x2083;" horiz-adv-x="310" 
d="M54 88q13 -10 35.5 -16t47.5 -6q26 0 37 7.5t11 22.5q0 14 -10 23t-34 9h-64v66h64q21 0 28.5 9t7.5 19q0 16 -13 22.5t-36 6.5q-22 0 -39 -4.5t-30 -10.5l-25 62q20 11 50.5 18t60.5 7q56 0 91 -23.5t35 -65.5q0 -23 -10.5 -42.5t-28.5 -27.5q26 -12 37 -31.5t11 -42.5
q0 -45 -35.5 -71t-100.5 -26q-35 0 -68 8.5t-56 27.5z" />
    <glyph glyph-name="uni2084" unicode="&#x2084;" horiz-adv-x="307" 
d="M20 118l115 199h110v-195h42v-70h-42v-52h-90v52h-111zM155 122v100h-2l-51 -100h53z" />
    <glyph glyph-name="uni2085" unicode="&#x2085;" horiz-adv-x="305" 
d="M62 93q11 -11 28.5 -19.5t41.5 -8.5q51 0 51 40q0 36 -47 36q-15 0 -25.5 -3t-15.5 -7l-52 30v157h208v-68h-128v-49q9 2 20 4t26 2q55 0 80.5 -26.5t25.5 -71.5q0 -53 -33.5 -84.5t-103.5 -31.5q-47 0 -75 12.5t-43 27.5z" />
    <glyph glyph-name="uni2086" unicode="&#x2086;" horiz-adv-x="325" 
d="M169 -7q-63 0 -96 36.5t-33 120.5q0 86 34 130t99 44q32 0 60 -9t43 -18l-23 -60q-14 6 -28.5 10t-31.5 4q-29 0 -45 -14.5t-16 -51.5q8 6 23.5 12t38.5 6q45 0 68 -26.5t23 -74.5q0 -46 -25.5 -77.5t-90.5 -31.5zM131 106q0 -41 32 -41q30 0 30 34t-30 34q-19 0 -32 -14
v-13z" />
    <glyph glyph-name="uni2087" unicode="&#x2087;" horiz-adv-x="266" 
d="M157 247h-137v70h226v-72l-109 -245h-95z" />
    <glyph glyph-name="uni2088" unicode="&#x2088;" horiz-adv-x="336" 
d="M40 88q0 29 14 47t37 29q-15 9 -27 27t-12 43q0 38 31 63.5t85 25.5t84 -25t30 -63q0 -26 -12.5 -44t-27.5 -27q27 -12 40.5 -29.5t13.5 -44.5q0 -44 -33.5 -70.5t-96.5 -26.5t-94.5 26.5t-31.5 68.5zM164 190q15 4 23 13.5t8 21.5t-7 19.5t-21 7.5t-20.5 -7.5
t-6.5 -19.5q0 -13 7 -22t17 -13zM167 65q17 0 27.5 9t10.5 23t-10 23t-24 14q-41 -9 -41 -38q0 -13 10 -22t27 -9z" />
    <glyph glyph-name="uni2089" unicode="&#x2089;" horiz-adv-x="331" 
d="M84 83q14 -10 27 -14t28 -4q35 0 51 17.5t16 49.5q-20 -18 -60 -18q-49 0 -77.5 26.5t-28.5 74.5q0 46 29 77.5t91 31.5q64 0 97.5 -38t33.5 -117q0 -84 -37 -130t-106 -46q-33 0 -57 9.5t-41 21.5zM198 212q0 22 -10 31t-24 9q-16 0 -24 -9.5t-8 -25.5q0 -34 35 -34
q19 0 31 13v16z" />
    <glyph glyph-name="uni208D" unicode="&#x208d;" horiz-adv-x="188" 
d="M118 -90q-27 18 -45.5 48t-30 64.5t-17 70.5t-5.5 66q0 29 5.5 64.5t17 70t30 64.5t45.5 48l60 -51q-32 -41 -46 -86t-14 -110t14 -111t46 -87z" />
    <glyph glyph-name="uni208E" unicode="&#x208e;" horiz-adv-x="188" 
d="M10 -39q32 41 46 87t14 111t-14 110t-46 86l60 51q27 -18 45.5 -48t30 -64.5t17 -70t5.5 -64.5q0 -30 -5.5 -66t-17 -70.5t-30 -64.5t-45.5 -48z" />
    <glyph glyph-name="colonmonetary" unicode="&#x20a1;" horiz-adv-x="667" 
d="M230 21q-89 33 -139.5 107.5t-50.5 191.5q0 68 18.5 123.5t53.5 96t86.5 65.5t118.5 32l13 93l91 -16l-11 -75l24 -2t24 -3l12 86l91 -16l-13 -91q47 -14 79 -33l-45 -125q-9 5 -22.5 10.5t-30.5 10.5l-46 -329q28 6 49 15.5t39 23.5l52 -112q-29 -22 -66 -42.5
t-95 -29.5l-11 -80l-91 16l8 58q-12 1 -24 1.5t-23 2.5l-10 -68l-91 16zM341 148q23 -4 48 -6l49 352q-24 3 -48 3zM294 474q-74 -42 -74 -157q0 -77 35 -120z" />
    <glyph glyph-name="lira" unicode="&#x20a4;" horiz-adv-x="568" 
d="M299 283h182v-90h-178q-6 -40 -25 -73h246v-120h-440l-35 96q32 8 50.5 35t24.5 62h-94v90h92l-6 35h-86v90h76q0 113 59.5 171.5t171.5 58.5q60 0 111.5 -16.5t89.5 -45.5l-36 -99q-23 12 -48 19.5t-56 7.5q-53 0 -82 -24t-32 -72h197v-90h-188z" />
    <glyph glyph-name="uni20A6" unicode="&#x20a6;" horiz-adv-x="773" 
d="M20 333v90h81v213h188l115 -213h97v213h170v-213h82v-90h-82v-45h82v-90h-82v-198h-194l-109 198h-98v-198h-169v198h-81v90h81v45h-81zM319 288l-49 89v-89h49zM501 333h-48l48 -89v89z" />
    <glyph glyph-name="peseta" unicode="&#x20a7;" horiz-adv-x="1449" 
d="M40 565q36 29 98.5 52t144.5 23q125 0 189.5 -61.5t64.5 -176.5q0 -60 -17.5 -105t-48.5 -75t-73.5 -44.5t-93.5 -14.5q-18 0 -31.5 2t-24 5t-20 7.5t-19.5 10.5v-188h-169v565zM650 376h-68v119h72v113h160v-113h116v-120h-115v-196q0 -37 19.5 -51.5t49.5 -14.5
q11 0 21.5 2t21.5 8l26 -104q-25 -14 -48 -20t-55 -6q-43 0 -80 10.5t-63.5 34t-41.5 59.5t-15 87v192zM1034 175q12 -9 30.5 -18.5t40.5 -17t46 -12.5t48 -5q35 0 47.5 10.5t12.5 27.5q0 14 -8.5 22t-33.5 13l-48 8q-85 14 -131 53.5t-46 106.5q0 32 11.5 61t36.5 51
t64 34.5t93 12.5q72 0 124.5 -18.5t80.5 -38.5l-41 -107q-24 16 -64.5 27t-81.5 11q-33 0 -48 -8t-15 -23t12 -24t27 -12l61 -10q50 -8 82.5 -22t51.5 -33t26 -43t7 -53q0 -36 -10.5 -68t-34 -56t-61.5 -38t-94 -14q-77 0 -135 23.5t-91 52.5zM210 390q0 -48 21.5 -69
t58.5 -21q41 0 59 26t18 80q0 24 -4 42.5t-14.5 32t-28.5 20.5t-46 7q-23 0 -35 -4.5t-29 -13.5v-100z" />
    <glyph glyph-name="uni20A9" unicode="&#x20a9;" horiz-adv-x="997" 
d="M10 176v100h129l-11 45h-118v100h92l-55 215h173l53 -215h122l52 151h120l51 -151h115l45 215h173l-47 -215h83v-100h-105l-10 -45h115v-100h-137l-39 -176h-203l-50 176h-100l-49 -176h-199l-45 176h-155zM530 276l-22 77l-22 -77h44zM652 321l35 -102h4l21 102h-60z
M323 222h4l34 99h-63z" />
    <glyph glyph-name="dong" unicode="&#x20ab;" horiz-adv-x="623" 
d="M543 556v-436l51 -76l-131 -95l-62 78q-50 -32 -121 -32q-55 0 -99 18.5t-75.5 52t-48.5 80.5t-17 104q0 54 15.5 99t44 77t70.5 50t94 18q16 0 33.5 -1.5t34 -4t30 -6t22.5 -6.5v80l-128 -10v125l128 -13v62h159v-61l105 10v-121zM383 346q-17 8 -38 12t-39 4
q-45 0 -73.5 -29.5t-28.5 -90.5q0 -59 25.5 -86t63.5 -27q16 0 32 5t29 15.5t21 27.5t8 41v128zM88 -82h459v-130h-459v130z" />
    <glyph glyph-name="Euro" unicode="&#x20ac;" horiz-adv-x="665" 
d="M20 428h95q19 103 96.5 157.5t200.5 54.5q54 0 107.5 -12t99.5 -38l-50 -125q-24 15 -57.5 23.5t-67.5 8.5q-47 0 -89 -17t-58 -52h280v-90h-294v-35h294v-90h-283q16 -36 59.5 -54t92.5 -18q43 0 76.5 12.5t60.5 32.5l52 -112q-18 -14 -39 -28t-47.5 -25t-59.5 -18
t-76 -7q-59 0 -110 14t-90.5 41.5t-65.5 68t-35 93.5h-92v90h83v35h-83v90z" />
    <glyph glyph-name="uni20B1" unicode="&#x20b1;" horiz-adv-x="731" 
d="M106 467v98q18 14 45 27.5t60.5 24t72 17t78.5 6.5q107 0 176 -46t84 -127h89v-90h-85v-35h85v-90h-88q-7 -43 -28.5 -75t-53 -53t-71 -31t-83.5 -10q-38 0 -65 7t-47 18v-108h-169v252h-86v90h86v35h-86v90h86zM275 467h168q-8 19 -31.5 30t-58.5 11q-21 0 -41 -4.5
t-37 -13.5v-23zM457 342v35h-182v-35h182zM277 252q26 -42 86 -42q33 0 53.5 11t28.5 31h-168z" />
    <glyph glyph-name="uni20B2" unicode="&#x20b2;" horiz-adv-x="695" 
d="M40 322q0 133 63.5 212.5t187.5 98.5v87h132v-84q69 -6 122.5 -26t86.5 -46l-51 -116q-27 17 -70 29.5t-88 16.5v-353q17 2 32 4.5t20 4.5v174h170v-232q-31 -37 -91 -62.5t-131 -33.5v-81h-132v84q-56 9 -102.5 34t-79.5 65.5t-51 96.5t-18 127zM291 472
q-71 -40 -71 -151q0 -60 19 -98.5t52 -58.5v308z" />
    <glyph glyph-name="uni20B5" unicode="&#x20b5;" horiz-adv-x="623" 
d="M40 320q0 144 68.5 224t197.5 93v83h132v-86q35 -6 67.5 -16.5t61.5 -27.5l-45 -125q-33 20 -84 28v-348q29 5 51 16t42 25l52 -112q-27 -21 -60.5 -40.5t-84.5 -30.5v-88h-132v84q-59 6 -108 28.5t-84 62.5t-54.5 97t-19.5 133zM306 483q-45 -20 -65.5 -62t-20.5 -104
q0 -127 86 -162v328z" />
    <glyph glyph-name="uni20B9" unicode="&#x20b9;" horiz-adv-x="583" 
d="M20 530v120h541v-120h-146q11 -11 20.5 -25t15.5 -33h112v-120h-108q-12 -51 -46 -87t-85 -59q17 -6 33 -19t30 -28.5t26.5 -32t21.5 -29.5l57 -83l-136 -88l-57 91q-28 46 -53 75t-47.5 46t-44 23.5t-43.5 6.5h-47v130h86q40 0 71.5 13.5t50.5 40.5h-252v120h268
q-11 32 -45 45t-100 13h-123z" />
    <glyph glyph-name="uni20BA" unicode="&#x20ba;" horiz-adv-x="591" 
d="M20 438l116 42v138h163v-79l95 35l37 -83l-132 -48v-39l95 35l37 -83l-132 -48v-182q59 0 97.5 39.5t38.5 117.5l136 -24q0 -57 -17.5 -105.5t-50.5 -84.5t-79 -56t-103 -20q-39 0 -73 9.5t-58.5 28t-39 44.5t-14.5 59v115l-85 -31l-31 85l116 42v39l-85 -31z" />
    <glyph glyph-name="uni20BD" unicode="&#x20bd;" horiz-adv-x="627" 
d="M510 126v-80h-281v-86h-169v86h-60v80h60v439q18 14 45 27.5t61 24t72.5 17t79.5 6.5q62 0 112 -15.5t85 -46t53.5 -75t18.5 -101.5q0 -60 -20 -105t-53.5 -75t-78.5 -44.5t-96 -14.5q-37 0 -63.5 7t-46.5 18v-62h281zM230 390q0 -47 29 -68.5t66 -21.5q41 0 66.5 25.5
t25.5 78.5q0 49 -25.5 76.5t-82.5 27.5q-46 0 -79 -18v-100z" />
    <glyph glyph-name="uni2113" unicode="&#x2113;" horiz-adv-x="485" 
d="M40 450q0 104 55 157t152 53q54 0 91.5 -15.5t61.5 -42.5t34.5 -63t10.5 -76q0 -62 -22 -112.5t-57 -88.5t-77.5 -63t-84.5 -37q9 -22 30.5 -30.5t43.5 -8.5q8 0 18.5 1t21.5 2.5t20.5 4.5t15.5 6l27 -118q-25 -14 -62.5 -20t-69.5 -6q-44 0 -82 10.5t-66.5 33.5
t-44.5 59t-16 88v266zM199 290q45 29 65.5 71.5t20.5 87.5q0 22 -4 36t-11 22t-15.5 11t-16.5 3q-39 0 -39 -56v-175z" />
    <glyph glyph-name="trademark" unicode="&#x2122;" horiz-adv-x="790" 
d="M129 536h-99v80h300v-80h-99v-262h-102v262zM361 616h110l74 -202l77 202h110l28 -342h-99l-12 213h-2l-72 -188h-60l-72 188h-2l-14 -213h-99z" />
    <glyph glyph-name="estimated" unicode="&#x212e;" horiz-adv-x="684" 
d="M119 298v-189q40 -43 95 -68t119 -25q34 0 68 7.5t64 21t54.5 33t39.5 42.5h36q-37 -62 -107 -96t-155 -34q-73 0 -131 25t-98.5 67.5t-62 100.5t-21.5 124t21.5 123.5t62 100t98.5 67.5t130 25t131.5 -25t102 -67.5t65.5 -100.5t23 -124v-8h-535zM118 323h428v186
q-42 42 -96 65.5t-117 23.5q-64 0 -118.5 -25t-96.5 -67v-183z" />
    <glyph glyph-name="onethird" unicode="&#x2153;" horiz-adv-x="661" 
d="M508 668l62 -45l-458 -655l-62 45zM105 319v222l-55 -28l-40 75l103 48h82v-317h-90zM405 88q13 -10 35.5 -16t47.5 -6q26 0 37 7.5t11 22.5q0 14 -10 23t-34 9h-64v66h64q21 0 28.5 9t7.5 19q0 16 -13 22.5t-36 6.5q-22 0 -39 -4.5t-30 -10.5l-25 62q20 11 50.5 18
t60.5 7q56 0 91 -23.5t35 -65.5q0 -23 -10.5 -42.5t-28.5 -27.5q26 -12 37 -31.5t11 -42.5q0 -45 -35.5 -71t-100.5 -26q-35 0 -68 8.5t-56 27.5z" />
    <glyph glyph-name="twothirds" unicode="&#x2154;" horiz-adv-x="706" 
d="M547 668l62 -45l-458 -655l-62 45zM26 376l68 57q38 32 50 52.5t12 36.5q0 20 -14.5 35.5t-43.5 15.5q-15 0 -28 -4.5t-27 -12.5l-23 61q21 14 49 20t55 6q65 0 96 -31t31 -74q0 -27 -13 -53.5t-42 -53.5l-42 -39v-2h101v-70h-229v56zM450 88q13 -10 35.5 -16t47.5 -6
q26 0 37 7.5t11 22.5q0 14 -10 23t-34 9h-64v66h64q21 0 28.5 9t7.5 19q0 16 -13 22.5t-36 6.5q-22 0 -39 -4.5t-30 -10.5l-25 62q20 11 50.5 18t60.5 7q56 0 91 -23.5t35 -65.5q0 -23 -10.5 -42.5t-28.5 -27.5q26 -12 37 -31.5t11 -42.5q0 -45 -35.5 -71t-100.5 -26
q-35 0 -68 8.5t-56 27.5z" />
    <glyph glyph-name="oneeighth" unicode="&#x215b;" horiz-adv-x="663" 
d="M518 668l62 -45l-458 -655l-62 45zM105 319v222l-55 -28l-40 75l103 48h82v-317h-90zM377 88q0 29 14 47t37 29q-15 9 -27 27t-12 43q0 38 31 63.5t85 25.5t84 -25t30 -63q0 -26 -12.5 -44t-27.5 -27q27 -12 40.5 -29.5t13.5 -44.5q0 -44 -33.5 -70.5t-96.5 -26.5
t-94.5 26.5t-31.5 68.5zM501 190q15 4 23 13.5t8 21.5t-7 19.5t-21 7.5t-20.5 -7.5t-6.5 -19.5q0 -13 7 -22t17 -13zM504 65q17 0 27.5 9t10.5 23t-10 23t-24 14q-41 -9 -41 -38q0 -13 10 -22t27 -9z" />
    <glyph glyph-name="threeeighths" unicode="&#x215c;" horiz-adv-x="706" 
d="M547 668l62 -45l-458 -655l-62 45zM44 408q13 -10 35.5 -16t47.5 -6q26 0 37 7.5t11 22.5q0 14 -10 23t-34 9h-64v66h64q21 0 28.5 9t7.5 19q0 16 -13 22.5t-36 6.5q-22 0 -39 -4.5t-30 -10.5l-25 62q20 11 50.5 18t60.5 7q56 0 91 -23.5t35 -65.5q0 -23 -10.5 -42.5
t-28.5 -27.5q26 -12 37 -31.5t11 -42.5q0 -45 -35.5 -71t-100.5 -26q-35 0 -68 8.5t-56 27.5zM420 88q0 29 14 47t37 29q-15 9 -27 27t-12 43q0 38 31 63.5t85 25.5t84 -25t30 -63q0 -26 -12.5 -44t-27.5 -27q27 -12 40.5 -29.5t13.5 -44.5q0 -44 -33.5 -70.5t-96.5 -26.5
t-94.5 26.5t-31.5 68.5zM544 190q15 4 23 13.5t8 21.5t-7 19.5t-21 7.5t-20.5 -7.5t-6.5 -19.5q0 -13 7 -22t17 -13zM547 65q17 0 27.5 9t10.5 23t-10 23t-24 14q-41 -9 -41 -38q0 -13 10 -22t27 -9z" />
    <glyph glyph-name="fiveeighths" unicode="&#x215d;" horiz-adv-x="705" 
d="M546 668l62 -45l-458 -655l-62 45zM52 411q11 -11 28.5 -19.5t41.5 -8.5q51 0 51 40q0 36 -47 36q-15 0 -25.5 -3t-15.5 -7l-52 30v157h208v-68h-128v-49q9 2 20 4t26 2q55 0 80.5 -26.5t25.5 -71.5q0 -53 -33.5 -84.5t-103.5 -31.5q-47 0 -75 12.5t-43 27.5zM419 88
q0 29 14 47t37 29q-15 9 -27 27t-12 43q0 38 31 63.5t85 25.5t84 -25t30 -63q0 -26 -12.5 -44t-27.5 -27q27 -12 40.5 -29.5t13.5 -44.5q0 -44 -33.5 -70.5t-96.5 -26.5t-94.5 26.5t-31.5 68.5zM543 190q15 4 23 13.5t8 21.5t-7 19.5t-21 7.5t-20.5 -7.5t-6.5 -19.5
q0 -13 7 -22t17 -13zM546 65q17 0 27.5 9t10.5 23t-10 23t-24 14q-41 -9 -41 -38q0 -13 10 -22t27 -9z" />
    <glyph glyph-name="seveneighths" unicode="&#x215e;" horiz-adv-x="639" 
d="M469 668l62 -45l-458 -655l-62 45zM147 566h-137v70h226v-72l-109 -245h-95zM353 88q0 29 14 47t37 29q-15 9 -27 27t-12 43q0 38 31 63.5t85 25.5t84 -25t30 -63q0 -26 -12.5 -44t-27.5 -27q27 -12 40.5 -29.5t13.5 -44.5q0 -44 -33.5 -70.5t-96.5 -26.5t-94.5 26.5
t-31.5 68.5zM477 190q15 4 23 13.5t8 21.5t-7 19.5t-21 7.5t-20.5 -7.5t-6.5 -19.5q0 -13 7 -22t17 -13zM480 65q17 0 27.5 9t10.5 23t-10 23t-24 14q-41 -9 -41 -38q0 -13 10 -22t27 -9z" />
    <glyph glyph-name="partialdiff" unicode="&#x2202;" horiz-adv-x="570" 
d="M30 192q0 48 15.5 87.5t43.5 67.5t67 43t85 15q42 0 71 -11t49 -26q0 69 -35 106t-117 37q-11 0 -28 -1.5t-37 -7.5l-31 116q33 14 67 21t75 7q136 0 205.5 -80.5t69.5 -238.5q0 -72 -15.5 -134.5t-49 -108.5t-85.5 -72.5t-125 -26.5q-55 0 -97 15t-70.5 42.5t-43 65.5
t-14.5 84zM270 120q43 0 64.5 34t21.5 91q-27 30 -66 30q-34 0 -60.5 -22.5t-26.5 -63.5q0 -31 17.5 -50t49.5 -19z" />
    <glyph glyph-name="product" unicode="&#x220f;" horiz-adv-x="640" 
d="M600 615v-143h-69v-472h-150v472h-120v-472h-150v472h-71v143h560z" />
    <glyph glyph-name="summation" unicode="&#x2211;" horiz-adv-x="618" 
d="M40 106l262 212l-262 212v106h538v-135h-289l226 -183l-232 -188h295v-130h-538v106z" />
    <glyph glyph-name="minus" unicode="&#x2212;" horiz-adv-x="539" 
d="M30 359h479v-140h-479v140z" />
    <glyph glyph-name="uni2215" unicode="&#x2215;" horiz-adv-x="471" 
d="M330 721l121 -49l-310 -783l-121 49z" />
    <glyph glyph-name="radical" unicode="&#x221a;" horiz-adv-x="681" 
d="M0 222l224 77l124 -246l191 666l122 -35l-233 -812h-128l-139 285l-122 -42z" />
    <glyph glyph-name="infinity" unicode="&#x221e;" horiz-adv-x="762" 
d="M226 74q-38 0 -73.5 11t-62.5 35t-43.5 62t-16.5 92t16 92t43 62t62 35t72 11q55 0 96.5 -20t61.5 -47q20 27 61.5 47t96.5 20q37 0 72 -11t62 -35t43 -62t16 -92t-16.5 -92t-43.5 -62t-62.5 -35t-73.5 -11q-53 0 -94 19t-61 51q-20 -32 -61 -51t-94 -19zM175 274
q0 -30 16.5 -45.5t43.5 -15.5t48 16t29 51q-10 22 -29.5 38.5t-48.5 16.5q-26 0 -42.5 -15.5t-16.5 -45.5zM450 280q8 -35 29 -51t48 -16t43.5 15.5t16.5 45.5t-16.5 45.5t-42.5 15.5q-29 0 -48.5 -16.5t-29.5 -38.5z" />
    <glyph glyph-name="integral" unicode="&#x222b;" horiz-adv-x="543" 
d="M70 -59q15 -13 34 -21.5t46 -8.5q32 0 49.5 15.5t15.5 51.5l-29 582q-2 46 12 80t40 56t61 32.5t74 10.5q51 0 92.5 -16t67.5 -40l-59 -102q-9 9 -26 16.5t-39 7.5q-24 0 -43 -13t-18 -47l30 -575q3 -51 -13 -88t-44.5 -60t-67 -34t-81.5 -11t-82 12.5t-80 47.5z" />
    <glyph glyph-name="approxequal" unicode="&#x2248;" horiz-adv-x="618" 
d="M598 464q-17 -57 -62 -92.5t-109 -35.5q-26 0 -49.5 7t-57.5 22q-31 14 -59.5 23t-57.5 9q-38 0 -60 -16t-37 -42l-86 58q17 57 62 92.5t109 35.5q26 0 49.5 -7t57.5 -22q31 -14 59.5 -23t57.5 -9q38 0 60 16t37 42zM598 222q-17 -57 -62 -92.5t-109 -35.5q-26 0 -49.5 7
t-57.5 22q-31 14 -59.5 23t-57.5 9q-38 0 -60 -16t-37 -42l-86 58q17 57 62 92.5t109 35.5q26 0 49.5 -7t57.5 -22q31 -14 59.5 -23t57.5 -9q38 0 60 16t37 42z" />
    <glyph glyph-name="notequal" unicode="&#x2260;" horiz-adv-x="539" 
d="M30 478h230l48 156l122 -35l-37 -121h116v-130h-156l-30 -96h186v-130h-225l-53 -171l-122 35l42 136h-121v130h161l29 96h-190v130z" />
    <glyph glyph-name="lessequal" unicode="&#x2264;" horiz-adv-x="550" 
d="M73 456l341 205l64 -131l-265 -132l265 -132l-64 -131l-341 205v116zM30 78h490v-140h-490v140z" />
    <glyph glyph-name="greaterequal" unicode="&#x2265;" horiz-adv-x="550" 
d="M338 398l-265 132l64 131l341 -205v-116l-341 -205l-64 131zM520 68v-130h-490v130h490z" />
    <glyph glyph-name="lozenge" unicode="&#x25ca;" horiz-adv-x="616" 
d="M30 258v100l209 288h138l209 -288v-100l-209 -263h-138zM308 129l130 179l-130 179l-130 -179z" />
    <glyph glyph-name="uni25CC" unicode="&#x25cc;" horiz-adv-x="612" 
d="M306 467q-27 0 -43.5 16.5t-16.5 41.5t16.5 42t43.5 17q26 0 43 -17t17 -42t-17 -41.5t-43 -16.5zM155 396q-27 0 -43.5 16.5t-16.5 41.5t16.5 42t43.5 17q26 0 43 -17t17 -42t-17 -41.5t-43 -16.5zM457 396q-27 0 -43.5 16.5t-16.5 41.5t16.5 42t43.5 17q26 0 43 -17
t17 -42t-17 -41.5t-43 -16.5zM94 242q-27 0 -43.5 16.5t-16.5 41.5t16.5 42t43.5 17q26 0 43 -17t17 -42t-17 -41.5t-43 -16.5zM517 242q-27 0 -43.5 16.5t-16.5 41.5t16.5 42t43.5 17q26 0 43 -17t17 -42t-17 -41.5t-43 -16.5zM155 88q-27 0 -43.5 16.5t-16.5 41.5t16.5 42
t43.5 17q26 0 43 -17t17 -42t-17 -41.5t-43 -16.5zM457 88q-27 0 -43.5 16.5t-16.5 41.5t16.5 42t43.5 17q26 0 43 -17t17 -42t-17 -41.5t-43 -16.5zM306 16q-27 0 -43.5 16.5t-16.5 41.5t16.5 42t43.5 17q26 0 43 -17t17 -42t-17 -41.5t-43 -16.5z" />
    <glyph glyph-name="uni262C" unicode="&#x262c;" horiz-adv-x="842" 
d="M421 -76q-19 0 -31 11t-12 29q0 27 21 37v48l-57 -28q5 -8 5 -18q0 -13 -10.5 -22t-26.5 -9q-18 0 -29.5 11t-11.5 28q0 26 28 39l61 29q-24 13 -42.5 23t-40.5 24l-52 -52q-40 22 -74 54.5t-58 71.5t-37.5 82.5t-13.5 88.5q0 42 12 79t32.5 64.5t48.5 43.5t60 16
q-26 -29 -36.5 -70t-10.5 -77q0 -39 13 -78t42 -76.5t76.5 -74t117.5 -71.5v54q-16 9 -30 17.5t-26 17.5l19 37q-28 8 -56 22t-50 36.5t-35.5 54t-13.5 72.5q0 40 13 70t34.5 52t49.5 36t58 21l-15 46l75 70l81 -70l-15 -46q30 -7 58 -21t49.5 -36t34.5 -52t13 -70
q0 -41 -13.5 -72.5t-35.5 -54t-49.5 -36.5t-56.5 -22l20 -37q-13 -9 -27 -17.5t-30 -17.5v-54q70 35 117.5 71.5t77 74t42 76.5t12.5 78q0 36 -10.5 77t-36.5 70q32 0 60 -16t48.5 -43.5t32.5 -64.5t12 -79q0 -45 -13.5 -88.5t-37.5 -82.5t-57.5 -71.5t-74.5 -54.5l-52 52
q-22 -14 -40.5 -24t-42.5 -23l61 -29q28 -13 28 -39q0 -17 -11.5 -28t-29.5 -11q-16 0 -26.5 9t-10.5 22q0 10 5 18l-57 28v-48q21 -10 21 -37q0 -18 -12 -29t-31 -11zM476 334q26 2 47.5 28t21.5 79q0 49 -19.5 70t-49.5 26v-203zM366 334v203q-30 -5 -49.5 -26t-19.5 -70
q0 -53 21.5 -79t47.5 -28z" />
    <glyph glyph-name="BaVirama.gm" horiz-adv-x="675" 
d="M-30 525v125h734v-125h-96v-525h-160v79q-29 -16 -63.5 -25t-76.5 -9q-49 0 -93.5 12.5t-80.5 35.5t-63 55.5t-42 71.5q11 47 29 80.5t51 62.5l-22 22q-21 21 -34.5 42t-13.5 49q0 17 4.5 28.5t10.5 20.5h-84zM202 487q0 -18 8.5 -34t18.5 -26l9 -9h210v107h-188
q-58 0 -58 -38zM198 229q17 -28 50 -42.5t78 -14.5q52 0 87 22t35 71v28h-147q-46 0 -69.5 -14.5t-33.5 -49.5zM652 -329q-19 25 -44 52t-52 52t-54 47t-51 38l78 100q30 -16 61.5 -41.5t60.5 -56t53.5 -63t39.5 -60.5z" />
    <glyph glyph-name="BhaVirama.gm" horiz-adv-x="656" 
d="M77 190q43 -35 99.5 -54.5t122.5 -19.5q150 0 150 107v14q-10 -11 -28.5 -21.5t-41.5 -19t-49.5 -13.5t-53.5 -5q-39 0 -73 11.5t-59.5 32.5t-40.5 51t-15 67q0 30 10.5 57t32 46.5t53.5 31t74 11.5q53 0 100.5 -16.5t76.5 -40.5q14 20 14 42q0 23 -16 38.5t-52 15.5
h-401v125h706v-125h-107q18 -11 28 -33t10 -46q0 -30 -15.5 -63t-40.5 -58q23 -23 39 -55t16 -77q0 -48 -20.5 -87.5t-59.5 -67.5t-96 -43.5t-129 -15.5q-44 0 -87 6t-82.5 17.5t-73 28.5t-58.5 39zM248 332q0 -18 13.5 -26.5t32.5 -8.5q21 0 43.5 9t38.5 26
q-17 16 -39.5 25t-43.5 9q-23 0 -34 -9.5t-11 -24.5zM537 -340q-20 25 -44.5 52t-51.5 52t-54 47t-51 38l78 100q30 -16 61.5 -41.5t60.5 -56t53.5 -63t39.5 -60.5z" />
    <glyph glyph-name="CaVirama.gm" horiz-adv-x="669" 
d="M109 254q-34 7 -56.5 36t-22.5 75q0 53 33 83t93 30q51 0 83 -21.5t32 -61.5v-5h157v135h-458v125h729v-125h-110v-225q21 -17 30.5 -48t9.5 -62q0 -41 -16 -77t-47.5 -62.5t-78 -42t-108.5 -15.5q-56 0 -105.5 13.5t-86 42t-57.5 71.5t-21 102v32zM270 228q0 -48 30 -74
t78 -26t69.5 23.5t21.5 55.5q0 18 -6.5 33.5t-19.5 24.5h-173v-37zM537 -334q-20 25 -44.5 52t-51.5 52t-54 47t-51 38l78 100q30 -16 61.5 -41.5t60.5 -56t53.5 -63t39.5 -60.5z" />
    <glyph glyph-name="ChaVirama.gm" horiz-adv-x="678" 
d="M309 -24q-74 0 -125.5 11t-83.5 32.5t-46 52t-14 69.5q0 85 58 119q-18 10 -36 34t-18 64q0 23 7.5 43t23.5 35t41 24t61 9h249v56h-456v125h738v-125h-122v-166h-341q-20 0 -28.5 -9t-8.5 -21q0 -14 10 -23.5t27 -9.5h166q113 0 170 -34.5t57 -118.5q0 -35 -11.5 -65.5
t-42.5 -53t-83.5 -35.5t-135.5 -13h-56zM391 187q8 -10 12 -24t4 -35q0 -8 -1 -18t-4 -22h20q32 0 46 13t14 38t-14 36.5t-46 11.5h-31zM289 88q3 8 5 18t2 22q0 34 -14.5 46t-35.5 12q-46 0 -46 -44q0 -54 72 -54h17zM535 -352q-20 25 -44.5 52t-51.5 52t-54 47t-51 38
l78 100q30 -16 61.5 -41.5t60.5 -56t53.5 -63t39.5 -60.5z" />
    <glyph glyph-name="DaVirama.gm" horiz-adv-x="697" 
d="M460 363v162h-490v125h757v-125h-107v-287h-343q3 -60 45.5 -85t115.5 -25q59 0 103.5 12.5t74.5 31.5l46 -111q-47 -36 -109 -51.5t-126 -15.5q-56 0 -108.5 12t-94 39.5t-69.5 72.5t-34 112q-37 11 -64 40t-27 80q0 57 36 88t94 31q59 0 88 -28.5t29 -70.5v-7h183z
M586 -334q-20 25 -44.5 52t-51.5 52t-54 47t-51 38l78 100q30 -16 61.5 -41.5t60.5 -56t53.5 -63t39.5 -60.5z" />
    <glyph glyph-name="DdaVirama.gm" horiz-adv-x="649" 
d="M-20 650h699v-125h-134q14 -8 22.5 -24.5t8.5 -36.5q0 -30 -16.5 -54.5t-36.5 -35.5q45 -23 65.5 -62t20.5 -91q0 -54 -20.5 -98t-62 -75.5t-104 -49t-146.5 -17.5q-55 0 -100 11.5t-77.5 33t-50.5 52.5t-18 69q0 57 41 95t120 38q43 0 77 -12t59 -33t41 -49t22 -60
q31 20 40 45t9 48q0 42 -17 70t-48 38q-23 -5 -48 -7.5t-52 -2.5q-90 0 -132 16.5t-42 60.5q0 46 44.5 60.5t129.5 14.5q29 0 57.5 -4t51.5 -10q10 5 17.5 14t7.5 23q0 33 -49 33h-379v125zM176 142q0 -20 21.5 -31t63.5 -11h6.5t12.5 1q-11 73 -64 73q-19 0 -29.5 -9
t-10.5 -23zM525 -335q-20 25 -44.5 52t-51.5 52t-54 47t-51 38l78 100q30 -16 61.5 -41.5t60.5 -56t53.5 -63t39.5 -60.5z" />
    <glyph glyph-name="DdhaVirama.gm" horiz-adv-x="684" 
d="M463 417v108h-493v125h745v-125h-92v-223h-367q0 -31 5.5 -63t15.5 -48q16 24 36.5 39.5t44 24.5t49 12.5t51.5 3.5q93 0 139 -36t46 -99q0 -34 -14 -62.5t-41 -49t-68 -32t-95 -11.5q-66 0 -123.5 18.5t-100 56t-67 94.5t-24.5 133q-37 8 -58.5 36t-21.5 69
q0 51 32.5 78.5t88.5 27.5q54 0 78 -22.5t24 -47.5v-7h210zM420 94q32 0 49.5 11.5t17.5 28.5q0 16 -13 23.5t-32 7.5q-26 0 -49 -14t-32 -40q11 -8 25 -12.5t34 -4.5zM589 -347q-20 25 -44.5 52t-51.5 52t-54 47t-51 38l78 100q30 -16 61.5 -41.5t60.5 -56t53.5 -63
t39.5 -60.5z" />
    <glyph glyph-name="DhaVirama.gm" horiz-adv-x="710" 
d="M484 110q-19 -17 -55.5 -31.5t-96.5 -14.5q-66 0 -120.5 20t-93.5 56.5t-62 87t-26 111.5q48 8 81.5 40t33.5 79q0 29 -16 47t-52 20h-107v125h771v-125h-97v-525h-160v110zM484 525h-227q21 -17 31 -40t10 -51q0 -51 -28 -90t-66 -62q6 -22 21.5 -38t36.5 -26t45 -14.5
t48 -4.5q66 0 97.5 29.5t31.5 80.5v216zM689 -329q-20 25 -44.5 52t-51.5 52t-54 47t-51 38l78 100q30 -16 61.5 -41.5t60.5 -56t53.5 -63t39.5 -60.5z" />
    <glyph glyph-name="DiaComma" horiz-adv-x="283" 
d="M0 -317l6 5q19 16 38 35.5t30 46.5q-28 9 -46 31.5t-18 61.5q0 48 28 72.5t74 24.5q57 0 81 -34t24 -89q0 -32 -7.5 -65t-24 -64.5t-42.5 -59.5t-62 -49z" />
    </font>
</defs>
</svg>
