<?xml version="1.0" encoding="utf-8"?>
<!-- Generator: Adobe Illustrator 23.0.2, SVG Export Plug-In . SVG Version: 6.00 Build 0)  -->
<svg version="1.1" id="Calque_1" xmlns="http://www.w3.org/2000/svg" xmlns:xlink="http://www.w3.org/1999/xlink" x="0px" y="0px"
	 viewBox="0 0 541 541" style="enable-background:new 0 0 541 541;" xml:space="preserve">
<style type="text/css">
	.st0{fill:#404040;}
	.st1{fill:#E96B6C;}
	.st2{fill:#FFFFFF;}
</style>
<title>beesta-icon</title>
<path class="st0" d="M493,247.8c-19.5-18.1-86.2-42-134-57.4c20-38.1,5.4-85.3-32.8-105.3s-85.3-5.4-105.3,32.8
	c-11.8,22.6-11.9,49.5-0.2,72.1c-47.8,15.4-115.6,39.6-135.2,57.9c-32.8,30.6-34.6,81.9-4,114.7c27,28.9,70.9,34.2,104,12.4
	c9.2,24.3,24.8,46.1,40.8,63.9c11.5,12.7,23.9,24.4,37.2,35.1c10.9,8.8,18.6,14,19.8,14.8l5.8,3.8l5.8-3.8
	c1.1-0.7,8.9-5.9,19.8-14.8c13.3-10.7,25.7-22.5,37.2-35.1c16.1-17.9,31.7-39.7,40.9-64.1c37.3,24.8,87.7,14.7,112.5-22.6
	C527.2,319,522,274.8,493,247.8z M289.2,169.1l-2,0.6L289.2,169.1L289.2,169.1z M337.7,238.1h0.7c0.2,0.5,0.4,1,0.6,1.6
	C338.6,239.1,338.1,238.6,337.7,238.1L337.7,238.1z M240,238.1h0.3c-0.2,0.2-0.4,0.4-0.5,0.6C239.8,238.5,239.9,238.3,240,238.1
	L240,238.1z"/>
<path class="st1" d="M462.6,222c-19.5-18.1-86.2-42-134-57.4c20.1-38.1,5.4-85.3-32.7-105.3s-85.3-5.4-105.3,32.7
	c-11.9,22.6-12,49.6-0.2,72.2C142.4,179.6,74.7,203.7,55,222c-32.8,30.6-34.6,81.9-4,114.7c27,28.9,70.9,34.2,104,12.4
	c9.2,24.3,24.8,46.1,40.8,63.9c11.5,12.7,23.9,24.4,37.2,35.1c10.9,8.8,18.6,14,19.8,14.8l5.8,3.8l5.8-3.8
	c1.1-0.7,8.9-5.9,19.8-14.8c13.3-10.7,25.7-22.5,37.2-35.1c16.1-17.9,31.7-39.7,40.9-64.1c37.3,24.9,87.7,14.9,112.6-22.4
	C496.9,293.4,491.7,249.1,462.6,222z M259.6,71.2c31.5,0.1,57,25.6,57,57.1c0,10.5-2.9,20.8-8.4,29.7c-14.8-4.6-25.7-7.8-29.5-8.9
	l-18.8-5.5l-1.2-0.3h-0.1l-2,0.6l-3,0.9l-15,4.4c-3.7,1.1-14.1,4.1-28.3,8.5c-16.2-27-7.4-62.1,19.6-78.3
	C238.9,74,249.1,71.2,259.6,71.2L259.6,71.2z M232.2,212.3l0.2-0.6c1.3-3.1,2.5-6.1,3.6-9c2.9-7.2,5.5-13.8,7.7-19.5
	c0.7-1.9,1.4-3.6,2-5.3l0,0c0.1-0.3,0.2-0.6,0.3-0.9l0,0l9.7-7.6c0.1,0,0.2-0.1,0.3-0.2l2.6-2l7.5,6.1c0.6,0.5,1.2,1,1.8,1.5
	l3.5,2.9c0.1,0.3,0.3,0.6,0.4,0.9l1.9,5.1c2.2,5.7,4.8,12.3,7.7,19.5c1.1,2.8,2.3,5.6,3.5,8.6c0.1,0.2,0.1,0.4,0.3,0.6L232.2,212.3
	L232.2,212.3z M300.1,247.4c5.1,11.7,10.5,23.6,15.9,34.8H201.5c5.4-11.2,10.8-23.1,15.9-34.8H300.1z M158.2,317.3
	c-2,2.9-4.3,5.7-6.9,8.2c-0.8,0.8-1.6,1.5-2.5,2.2C123,348.7,85,344.8,64,319c-19.9-24.4-17.6-60,5.2-81.7
	C85.7,222,153,198.1,203,182l10-3.2c4-1.3,7.8-2.4,11.4-3.6c-2.2,5.7-4.7,12-7.3,18.5c-2.4,6-4.9,12.2-7.5,18.5h0.3
	c-0.2,0.2-0.4,0.4-0.5,0.6c-4.7,11.3-9.7,23-14.8,34.5c-2.2,4.9-4.4,9.8-6.6,14.5c-3.2,7-6.5,13.8-9.7,20.2
	c-3.7,7.4-7.3,14.3-10.8,20.4C164.6,307.7,161.5,312.6,158.2,317.3z M292,413H225c-8.4-8.1-16.2-16.7-23.5-25.8h114
	C308.3,396.4,300.4,405,292,413z M338,352.2H179.1c-2.9-5.9-5.3-12.1-7.2-18.4c4-5.3,7.7-10.7,11-16.4h151.8
	c3.2,5.5,6.8,10.9,10.7,16C343.4,339.8,340.9,346.1,338,352.2z M451.4,322.5c-21.9,23.5-58.4,25.7-83,5c-0.7-0.6-1.4-1.2-2.1-1.9
	c-2.6-2.5-4.9-5.3-6.9-8.2c-3.5-5-6.7-10.2-9.6-15.5c-3.4-5.9-6.8-12.5-10.4-19.6c-5.4-10.8-10.9-22.6-16.3-34.8
	c-5-11.1-9.8-22.5-14.4-33.5l0,0c-0.5-0.5-0.9-1-1.4-1.6h0.7c-2.5-6.1-5-12.1-7.3-17.8c-2.7-6.8-5.3-13.3-7.6-19.2
	c3.4,1.1,7,2.2,10.8,3.4s7.8,2.4,11.8,3.7c49.8,16,116.2,39.6,132.5,54.9C472.6,260,474,298.1,451.4,322.5z"/>
<path class="st2" d="M451.4,322.5c-21.9,23.5-58.4,25.7-83,5c-0.7-0.6-1.4-1.2-2.1-1.9c-2.6-2.5-4.9-5.3-6.9-8.2
	c-3.5-5-6.7-10.2-9.6-15.5c-3.4-5.9-6.8-12.5-10.4-19.6c-5.4-10.8-10.9-22.6-16.3-34.8c-5-11.1-9.8-22.5-14.4-33.5l0,0
	c-0.2-0.5-0.4-1-0.6-1.6c-2.5-6.1-5-12.1-7.3-17.8c-2.7-6.8-5.3-13.3-7.6-19.2c3.4,1.1,7,2.2,10.8,3.4s7.8,2.4,11.8,3.7
	c49.8,16,116.2,39.6,132.5,54.9C472.6,260,474,298.1,451.4,322.5z"/>
<path class="st2" d="M224.4,175.3c-2.2,5.7-4.7,12-7.3,18.5c-2.4,6-4.9,12.2-7.5,18.5c-0.1,0.2-0.2,0.4-0.3,0.6
	c-4.7,11.3-9.7,23-14.8,34.5c-2.2,4.9-4.4,9.8-6.6,14.6c-3.2,7-6.5,13.8-9.7,20.2c-3.7,7.4-7.3,14.3-10.8,20.4
	c-2.8,5-5.9,9.9-9.2,14.6c-2,2.9-4.3,5.7-6.9,8.2c-0.8,0.8-1.6,1.5-2.5,2.2c-25.8,21-63.8,17-84.7-8.8
	c-19.8-24.4-17.5-59.9,5.2-81.6C85.7,222,153,198.1,203,182l10-3.2C216.9,177.6,220.8,176.4,224.4,175.3z"/>
<path class="st2" d="M316.6,128.3c0,10.5-2.9,20.8-8.4,29.7c-14.8-4.6-25.7-7.8-29.5-8.9l-18.8-5.5l-1.2-0.3h-0.1l0,0l-2,0.6l-3,0.9
	l-15,4.4c-3.7,1.1-14.1,4.1-28.3,8.5c-16.2-27-7.5-62.1,19.5-78.3c27-16.2,62.1-7.5,78.3,19.5c5.3,8.9,8.2,19.1,8.2,29.5
	L316.6,128.3z"/>
<path class="st2" d="M285.3,212.3h-53.1l0.2-0.6c1.3-3.1,2.5-6.1,3.6-9c2.9-7.2,5.5-13.8,7.7-19.5c0.7-1.9,1.4-3.6,2-5.3l0,0
	c0.1-0.3,0.2-0.6,0.3-0.9l0,0l9.7-7.6c0.1,0,0.2-0.1,0.3-0.2l2.6-2l7.5,6.1c0.6,0.5,1.2,1,1.8,1.5l3.5,2.9c0.1,0.3,0.3,0.6,0.4,0.9
	l1.9,5.1c2.2,5.7,4.8,12.3,7.7,19.5c1.1,2.8,2.3,5.6,3.5,8.6C285.1,211.9,285.2,212.1,285.3,212.3z"/>
<path class="st2" d="M316,282.2H201.5c5.4-11.2,10.8-23.1,15.9-34.8h82.7C305.3,259.2,310.6,271,316,282.2z"/>
<path class="st2" d="M345.3,333.3c-1.9,6.5-4.4,12.7-7.3,18.8H179.1c-2.9-5.9-5.3-12.1-7.2-18.4c4-5.3,7.7-10.7,11-16.4h151.8
	C337.9,322.9,341.5,328.2,345.3,333.3z"/>
<path class="st2" d="M315.5,387.3c-7.3,9.1-15.1,17.7-23.5,25.8H225c-8.4-8.1-16.2-16.7-23.5-25.8H315.5z"/>
</svg>
