<?xml version="1.0" encoding="utf-8"?>
<!-- Generator: Adobe Illustrator 23.0.2, SVG Export Plug-In . SVG Version: 6.00 Build 0)  -->
<svg version="1.1" id="Calque_1" xmlns="http://www.w3.org/2000/svg" xmlns:xlink="http://www.w3.org/1999/xlink" x="0px" y="0px"
	 viewBox="0 0 492.2 443.4" style="enable-background:new 0 0 492.2 443.4;" xml:space="preserve">
<style type="text/css">
	.st0{fill:#404040;}
	.st1{fill:#E96B6C;}
	.st2{fill:#FFFFFF;}
</style>
<g>
	<path class="st0" d="M464.7,197.9c-19.5-18.1-86.2-42-134-57.5c5.7-10.8,8.9-23.1,8.9-36.2c0-43-35-78-78-78c-43,0-78,35-78,78
		c0,12.9,3.1,25.1,8.7,35.8c-47.9,15.5-115.6,39.6-135.2,57.9c-32.8,30.5-34.6,81.9-4.2,114.7c16,17.2,37.7,25.9,59.5,25.9
		c15.6,0,31.2-4.5,44.7-13.4c9.2,24.3,24.8,46.1,40.8,63.9c13.2,14.6,26.7,26.6,37.2,35.1c10.9,8.8,18.6,14,19.8,14.8l5.8,3.8
		l5.8-3.8c1.1-0.7,8.9-5.9,19.8-14.8c10.6-8.5,24-20.5,37.2-35.1c16.1-17.9,31.7-39.7,40.9-64.1c13.6,9.1,29.4,13.6,45.1,13.6
		c21.8,0,43.5-8.7,59.5-25.9C499.3,279.9,497.5,228.4,464.7,197.9z M260.9,119.3l-2,0.6L260.9,119.3L260.9,119.3z M309.4,188.3h0.7
		c0.2,0.5,0.4,1,0.6,1.6C310.3,189.3,309.9,188.8,309.4,188.3z M211.7,188.3h0.3c-0.2,0.2-0.4,0.4-0.5,0.6
		C211.5,188.7,211.6,188.5,211.7,188.3z"/>
	<g>
		<path class="st1" d="M434.3,172.2c-19.5-18.1-86.2-42-134-57.5c5.7-10.8,8.9-23.1,8.9-36.2c0-43-35-78-78-78c-43,0-78,35-78,78
			c0,12.9,3.1,25.1,8.7,35.8c-47.9,15.5-115.6,39.6-135.2,57.9c-32.8,30.5-34.6,82-4.2,114.7c16,17.2,37.7,25.9,59.5,25.9
			c15.6,0,31.2-4.5,44.7-13.4c9.2,24.3,24.8,46.1,40.8,63.9c13.2,14.6,26.7,26.6,37.2,35.1c10.9,8.8,18.6,14,19.8,14.8l5.8,3.8
			l5.8-3.8c1.1-0.7,8.9-5.9,19.8-14.8c10.6-8.5,24-20.5,37.2-35.1c16.1-17.9,31.7-39.7,40.9-64.1c13.6,9.1,29.4,13.6,45.1,13.6
			c21.8,0,43.5-8.7,59.5-25.9C468.9,254.1,467,202.6,434.3,172.2z M231.2,21.4c31.5,0,57.1,25.6,57.1,57.1c0,10.9-3,21.1-8.4,29.7
			c-14.8-4.6-25.7-7.8-29.5-8.9l-18.8-5.5l-1.2-0.3l-0.1,0l-2,0.6l-3,0.9l-15,4.4c-3.7,1.1-14.1,4.1-28.3,8.5
			c-5.2-8.6-8.1-18.6-8.1-29.4C174.1,47,199.7,21.4,231.2,21.4z M203.9,162.5c0.1-0.2,0.1-0.4,0.2-0.6c1.3-3.1,2.5-6.1,3.6-9
			c2.9-7.2,5.5-13.8,7.7-19.5c0.7-1.9,1.4-3.6,2-5.3l0,0c0.1-0.3,0.2-0.6,0.3-0.9c0,0,0,0,0,0l9.7-7.6c0.1,0,0.2-0.1,0.3-0.2l2.6-2
			l7.5,6.1c0.6,0.5,1.2,1,1.8,1.5l3.5,2.9c0.1,0.3,0.3,0.6,0.4,0.9c0.6,1.6,1.3,3.3,1.9,5.1c2.2,5.7,4.8,12.3,7.7,19.5
			c1.1,2.8,2.3,5.6,3.5,8.6c0.1,0.2,0.1,0.4,0.3,0.6L203.9,162.5L203.9,162.5z M271.9,197.6c5.1,11.7,10.5,23.6,15.9,34.8H173.2
			c5.4-11.2,10.8-23.1,15.9-34.8H271.9z M129.9,267.5c-2.4,3.5-4.8,6.2-6.9,8.2c-0.8,0.8-1.6,1.5-2.5,2.2
			c-24.4,20.3-60.8,18.2-82.7-5.3c-22.6-24.3-21.2-62.5,3.1-85.1c16.5-15.3,83.7-39.2,133.7-55.3c3.4-1.1,6.8-2.1,10-3.2
			c4-1.3,7.8-2.5,11.4-3.6c-2.2,5.7-4.7,12-7.3,18.5c-2.4,6-4.9,12.2-7.6,18.5h0.3c-0.2,0.2-0.4,0.4-0.5,0.6
			c-4.7,11.3-9.7,23-14.8,34.5c-2.2,4.9-4.4,9.8-6.6,14.5c-3.2,7-6.5,13.8-9.7,20.2c-3.7,7.4-7.3,14.3-10.8,20.4
			C135.9,258.5,132.8,263.5,129.9,267.5z M263.7,363.2h-66.9c-7.8-7.5-15.9-16.2-23.5-25.8h114C279.7,347,271.5,355.6,263.7,363.2z
			 M309.7,302.3H150.8c-2.8-6-5.3-12.1-7.2-18.4c3.5-4.5,7.2-10.1,11-16.4h151.8c3.7,6.2,7.3,11.6,10.7,16
			C315.2,290,312.6,296.2,309.7,302.3z M423.1,272.6c-11.8,12.8-28,19.2-44.1,19.2c-13.8,0-27.7-4.7-38.9-14.2
			c-0.7-0.6-1.4-1.2-2.1-1.9c-2.1-2-4.4-4.7-6.9-8.2c-3-4.2-6.3-9.5-9.6-15.5c-3.4-5.9-6.8-12.5-10.4-19.6
			c-5.4-10.8-10.9-22.6-16.3-34.8c-5-11.1-9.8-22.5-14.4-33.5c0,0,0,0,0,0c-0.5-0.5-0.9-1-1.4-1.6h0.7c-2.5-6.1-5-12.1-7.3-17.8
			c-2.7-6.8-5.3-13.3-7.6-19.2c3.4,1.1,7,2.2,10.8,3.4c3.8,1.2,7.8,2.4,11.8,3.7c49.9,16.1,116.2,39.7,132.6,54.9
			C444.4,210.1,445.7,248.3,423.1,272.6z"/>
		<g>
			<path class="st2" d="M423.1,272.6c-11.8,12.8-28,19.2-44.1,19.2c-13.8,0-27.7-4.7-38.9-14.2c-0.7-0.6-1.4-1.2-2.1-1.9
				c-2.1-2-4.4-4.7-6.9-8.2c-3-4.2-6.3-9.5-9.6-15.5c-3.4-5.9-6.8-12.5-10.4-19.6c-5.4-10.8-10.9-22.6-16.3-34.8
				c-5-11.1-9.8-22.5-14.4-33.5c0,0,0,0,0,0c-0.2-0.5-0.4-1-0.6-1.6c-2.5-6.1-5-12.1-7.3-17.8c-2.7-6.8-5.3-13.3-7.6-19.2
				c3.4,1.1,7,2.2,10.8,3.4c3.8,1.2,7.8,2.4,11.8,3.7c49.9,16.1,116.2,39.7,132.6,54.9C444.4,210.1,445.7,248.3,423.1,272.6z"/>
			<path class="st2" d="M196.1,125.4c-2.2,5.7-4.7,12-7.3,18.5c-2.4,6-4.9,12.2-7.6,18.5c-0.1,0.2-0.2,0.4-0.3,0.6
				c-4.7,11.3-9.7,23-14.8,34.5c-2.2,4.9-4.4,9.8-6.6,14.5c-3.2,7-6.5,13.8-9.7,20.2c-3.7,7.4-7.3,14.3-10.8,20.4
				c-3.2,5.7-6.3,10.7-9.2,14.7c-2.4,3.5-4.8,6.2-6.9,8.2c-0.8,0.8-1.6,1.5-2.5,2.2c-24.4,20.3-60.8,18.2-82.7-5.3
				c-22.6-24.3-21.2-62.5,3.1-85.1c16.5-15.3,83.7-39.2,133.7-55.3c3.4-1.1,6.8-2.1,10-3.2C188.7,127.7,192.5,126.6,196.1,125.4z"/>
			<path class="st2" d="M288.3,78.5c0,10.9-3,21.1-8.4,29.7c-14.8-4.6-25.7-7.8-29.5-8.9l-18.8-5.5l-1.2-0.3l-0.1,0v0l-2,0.6l-3,0.9
				l-15,4.4c-3.7,1.1-14.1,4.1-28.3,8.5c-5.2-8.6-8.1-18.6-8.1-29.4c0-31.5,25.6-57.1,57.1-57.1C262.7,21.4,288.3,47,288.3,78.5z"/>
			<path class="st2" d="M257.1,162.5h-53.2c0.1-0.2,0.1-0.4,0.2-0.6c1.3-3.1,2.5-6.1,3.6-9c2.9-7.2,5.5-13.8,7.7-19.5
				c0.7-1.9,1.4-3.6,2-5.3l0,0c0.1-0.3,0.2-0.6,0.3-0.9c0,0,0,0,0,0l9.7-7.6c0.1,0,0.2-0.1,0.3-0.2l2.6-2l7.5,6.1
				c0.6,0.5,1.2,1,1.8,1.5l3.5,2.9c0.1,0.3,0.3,0.6,0.4,0.9c0.6,1.6,1.3,3.3,1.9,5.1c2.2,5.7,4.8,12.3,7.7,19.5
				c1.1,2.8,2.3,5.6,3.5,8.6C256.9,162.1,257,162.3,257.1,162.5z"/>
			<path class="st2" d="M287.8,232.4H173.2c5.4-11.2,10.8-23.1,15.9-34.8h82.7C277,209.3,282.3,221.2,287.8,232.4z"/>
			<path class="st2" d="M317,283.5c-1.9,6.4-4.4,12.7-7.3,18.8H150.8c-2.8-6-5.3-12.1-7.2-18.4c3.5-4.5,7.2-10.1,11-16.4h151.8
				C310,273.7,313.6,279.1,317,283.5z"/>
			<path class="st2" d="M287.2,337.4c-7.6,9.5-15.7,18.2-23.5,25.8h-66.9c-7.8-7.5-15.9-16.2-23.5-25.8H287.2z"/>
		</g>
	</g>
</g>
</svg>
