<?xml version="1.0" encoding="utf-8"?>
<!-- Generator: Adobe Illustrator 26.3.1, SVG Export Plug-In . SVG Version: 6.00 Build 0)  -->
<svg version="1.1" id="Calque_1" xmlns="http://www.w3.org/2000/svg" xmlns:xlink="http://www.w3.org/1999/xlink" x="0px" y="0px"
	 viewBox="0 0 595.28 841.89" style="enable-background:new 0 0 595.28 841.89;" xml:space="preserve">
<style type="text/css">
	.st0{fill:#404040;}
	.st1{fill:#E96B6C;}
	.st2{fill:#FFFFFF;}
	.st3{fill:none;}
	.st4{font-family:'Braah-Regular';}
	.st5{font-size:128.1409px;}
</style>
<g>
	<path class="st0" d="M532.78,315.46c-19.48-18.1-86.18-41.98-133.99-57.45c5.71-10.83,8.93-23.14,8.93-36.21c0-43-35-78-77.98-78
		c-43.02,0-78,35-78,78c0,12.9,3.14,25.07,8.72,35.79c-47.85,15.47-115.61,39.62-135.22,57.87c-32.78,30.48-34.64,81.95-4.16,114.71
		c15.97,17.16,37.69,25.86,59.46,25.86c15.58,0,31.17-4.45,44.72-13.42c9.22,24.33,24.77,46.08,40.77,63.89
		c13.19,14.63,26.66,26.59,37.23,35.12c10.85,8.82,18.65,14.03,19.76,14.76l5.75,3.78l5.75-3.78c1.15-0.73,8.91-5.94,19.8-14.76
		c10.56-8.55,24.04-20.51,37.21-35.12c16.08-17.85,31.67-39.68,40.89-64.12c13.61,9.12,29.37,13.65,45.07,13.65
		c21.76,0,43.48-8.7,59.46-25.86C567.42,397.41,565.54,345.94,532.78,315.46z M328.96,236.83l-1.99,0.56l1.99-0.59V236.83z
		 M377.51,305.8h0.73c0.21,0.52,0.44,1.05,0.63,1.57C378.41,306.85,377.95,306.33,377.51,305.8z M279.77,305.8h0.29
		c-0.19,0.19-0.38,0.4-0.54,0.61C279.58,306.2,279.67,306.01,279.77,305.8z"/>
	<g>
		<path class="st1" d="M502.35,289.7c-19.48-18.1-86.18-41.98-133.99-57.45c5.71-10.83,8.93-23.14,8.93-36.21c0-43-35-78-77.98-78
			c-43.02,0-78,35-78,78c0,12.9,3.14,25.07,8.72,35.79C182.17,247.3,114.41,271.45,94.8,289.7c-32.78,30.48-34.64,81.95-4.16,114.71
			c15.97,17.16,37.69,25.86,59.46,25.86c15.58,0,31.17-4.45,44.72-13.42c9.22,24.33,24.77,46.08,40.77,63.89
			c13.19,14.63,26.66,26.59,37.23,35.12c10.85,8.82,18.65,14.03,19.76,14.76l5.75,3.78l5.75-3.78c1.15-0.73,8.91-5.94,19.8-14.76
			c10.56-8.55,24.04-20.51,37.21-35.12c16.08-17.85,31.67-39.68,40.89-64.12c13.61,9.12,29.37,13.65,45.07,13.65
			c21.76,0,43.48-8.7,59.46-25.86C536.99,371.65,535.11,320.18,502.35,289.7z M299.31,138.94c31.46,0,57.07,25.61,57.07,57.09
			c0,10.89-3.03,21.07-8.38,29.73c-14.78-4.62-25.69-7.8-29.46-8.91l-18.75-5.48l-1.17-0.33l-0.08,0.02l-1.99,0.56l-2.95,0.86
			l-14.99,4.37c-3.68,1.07-14.09,4.12-28.27,8.53c-5.16-8.57-8.13-18.63-8.13-29.35C242.21,164.55,267.82,138.94,299.31,138.94z
			 M272,280.04c0.08-0.21,0.15-0.42,0.23-0.63c1.28-3.09,2.49-6.08,3.62-8.97c2.91-7.21,5.5-13.82,7.74-19.53
			c0.67-1.86,1.38-3.62,2.01-5.27l0.02-0.02c0.1-0.31,0.21-0.61,0.33-0.9c0.02-0.02,0.02-0.02,0.02-0.02l9.72-7.63
			c0.08-0.04,0.17-0.1,0.25-0.17l2.59-2.03l7.51,6.08c0.59,0.48,1.17,0.96,1.82,1.46l3.53,2.89c0.15,0.29,0.25,0.59,0.38,0.9
			c0.61,1.59,1.25,3.28,1.94,5.08c2.22,5.73,4.83,12.33,7.71,19.55c1.13,2.76,2.28,5.62,3.47,8.57c0.06,0.21,0.15,0.42,0.25,0.63
			H272z M339.95,315.16c5.1,11.73,10.47,23.56,15.89,34.79H241.29c5.44-11.23,10.81-23.06,15.93-34.79H339.95z M197.97,385.07
			c-2.45,3.47-4.77,6.23-6.86,8.2c-0.82,0.75-1.65,1.51-2.53,2.2c-24.36,20.3-60.77,18.23-82.66-5.29
			c-22.6-24.31-21.22-62.53,3.12-85.15c16.47-15.32,83.71-39.24,133.74-55.3c3.43-1.09,6.75-2.15,9.99-3.18
			c3.97-1.25,7.8-2.45,11.44-3.55c-2.22,5.73-4.68,11.96-7.32,18.5c-2.4,5.96-4.91,12.17-7.55,18.54h0.29
			c-0.19,0.19-0.38,0.4-0.54,0.61c-4.68,11.29-9.7,23.04-14.8,34.52c-2.17,4.91-4.41,9.78-6.59,14.55
			c-3.24,7.02-6.5,13.82-9.68,20.24c-3.72,7.42-7.34,14.32-10.83,20.4C203.97,376.04,200.88,381.04,197.97,385.07z M331.79,480.74
			h-66.94c-7.8-7.55-15.89-16.2-23.5-25.76h113.96C347.75,464.54,339.59,473.19,331.79,480.74z M377.79,419.86H218.88
			c-2.84-5.96-5.29-12.08-7.19-18.38c3.49-4.47,7.17-10.06,11-16.41h151.78c3.66,6.17,7.25,11.58,10.66,15.99
			C383.24,407.5,380.73,413.78,377.79,419.86z M491.18,390.17c-11.83,12.75-27.97,19.19-44.13,19.19c-13.84,0-27.66-4.7-38.91-14.22
			c-0.71-0.61-1.42-1.23-2.13-1.88c-2.11-1.97-4.39-4.72-6.88-8.2c-3.01-4.22-6.25-9.47-9.64-15.47
			c-3.35-5.9-6.82-12.52-10.37-19.65c-5.35-10.75-10.89-22.62-16.29-34.79c-4.96-11.14-9.81-22.52-14.38-33.51
			c0-0.02-0.02-0.04-0.02-0.04c-0.46-0.52-0.92-1.05-1.36-1.57h0.73c-2.53-6.13-4.95-12.1-7.28-17.83
			c-2.74-6.82-5.29-13.28-7.59-19.21c3.41,1.07,7.02,2.17,10.77,3.37c3.78,1.19,7.76,2.43,11.79,3.72
			c49.88,16.06,116.22,39.7,132.59,54.94C512.44,327.64,513.82,365.86,491.18,390.17z"/>
		<g>
			<path class="st2" d="M491.18,390.17c-11.83,12.75-27.97,19.19-44.13,19.19c-13.84,0-27.66-4.7-38.91-14.22
				c-0.71-0.61-1.42-1.23-2.13-1.88c-2.11-1.97-4.39-4.72-6.88-8.2c-3.01-4.22-6.25-9.47-9.64-15.47
				c-3.35-5.9-6.82-12.52-10.37-19.65c-5.35-10.75-10.89-22.62-16.29-34.79c-4.96-11.14-9.81-22.52-14.38-33.51
				c0-0.02-0.02-0.04-0.02-0.04c-0.19-0.52-0.42-1.05-0.63-1.57c-2.53-6.13-4.95-12.1-7.28-17.83c-2.74-6.82-5.29-13.28-7.59-19.21
				c3.41,1.07,7.02,2.17,10.77,3.37c3.78,1.19,7.76,2.43,11.79,3.72c49.88,16.06,116.22,39.7,132.59,54.94
				C512.44,327.64,513.82,365.86,491.18,390.17z"/>
			<path class="st2" d="M264.2,242.99c-2.22,5.73-4.68,11.96-7.32,18.5c-2.4,5.96-4.91,12.17-7.55,18.54
				c-0.1,0.21-0.19,0.4-0.25,0.61c-4.68,11.29-9.7,23.04-14.8,34.52c-2.17,4.91-4.41,9.78-6.59,14.55
				c-3.24,7.02-6.5,13.82-9.68,20.24c-3.72,7.42-7.34,14.32-10.83,20.4c-3.22,5.69-6.31,10.68-9.22,14.72
				c-2.45,3.47-4.77,6.23-6.86,8.2c-0.82,0.75-1.65,1.51-2.53,2.2c-24.36,20.3-60.77,18.23-82.66-5.29
				c-22.6-24.31-21.22-62.53,3.12-85.15c16.47-15.32,83.71-39.24,133.74-55.3c3.43-1.09,6.75-2.15,9.99-3.18
				C256.74,245.29,260.57,244.1,264.2,242.99z"/>
			<path class="st2" d="M356.38,196.04c0,10.89-3.03,21.07-8.38,29.73c-14.78-4.62-25.69-7.8-29.46-8.91l-18.75-5.48l-1.17-0.33
				l-0.08,0.02v-0.02l-1.99,0.59l-2.95,0.86l-14.99,4.37c-3.68,1.07-14.09,4.12-28.27,8.53c-5.16-8.57-8.13-18.63-8.13-29.35
				c0-31.48,25.61-57.09,57.09-57.09C330.77,138.94,356.38,164.55,356.38,196.04z"/>
			<path class="st2" d="M325.15,280.04H272c0.08-0.21,0.15-0.42,0.23-0.63c1.28-3.09,2.49-6.08,3.62-8.97
				c2.91-7.21,5.5-13.82,7.74-19.53c0.67-1.86,1.38-3.62,2.01-5.27l0.02-0.02c0.1-0.31,0.21-0.61,0.33-0.9
				c0.02-0.02,0.02-0.02,0.02-0.02l9.72-7.63c0.08-0.04,0.17-0.1,0.25-0.17l2.59-2.03l7.51,6.08c0.59,0.48,1.17,0.96,1.82,1.46
				l3.53,2.89c0.15,0.29,0.25,0.59,0.38,0.9c0.61,1.59,1.25,3.28,1.94,5.08c2.22,5.73,4.83,12.33,7.71,19.55
				c1.13,2.76,2.28,5.62,3.47,8.57C324.96,279.62,325.04,279.83,325.15,280.04z"/>
			<path class="st2" d="M355.84,349.95H241.29c5.44-11.23,10.81-23.06,15.93-34.79h82.73C345.05,326.89,350.42,338.72,355.84,349.95
				z"/>
			<path class="st2" d="M385.13,401.07c-1.88,6.44-4.39,12.71-7.34,18.79H218.88c-2.84-5.96-5.29-12.08-7.19-18.38
				c3.49-4.47,7.17-10.06,11-16.41h151.78C378.12,391.24,381.72,396.65,385.13,401.07z"/>
			<path class="st2" d="M355.31,454.98c-7.57,9.55-15.72,18.21-23.52,25.76h-66.94c-7.8-7.55-15.89-16.2-23.5-25.76H355.31z"/>
		</g>
	</g>
</g>
<rect x="104.28" y="560.88" class="st3" width="419.02" height="89.95"/>
<text transform="matrix(1 0 0 1 104.2783 644.1719)" class="st1 st4 st5">Beesta</text>
</svg>
