<?xml version="1.0" encoding="utf-8"?>
<!-- Generator: Adobe Illustrator 23.0.2, SVG Export Plug-In . SVG Version: 6.00 Build 0)  -->
<svg version="1.1" id="Calque_1" xmlns="http://www.w3.org/2000/svg" xmlns:xlink="http://www.w3.org/1999/xlink" x="0px" y="0px"
	 viewBox="0 0 1000 1000" style="enable-background:new 0 0 1000 1000;" xml:space="preserve">
<style type="text/css">
	.st0{fill:#E5EDF8;}
	.st1{fill:#CDE0F4;}
	.st2{fill:#1C3E7C;}
	.st3{fill:#035FA3;}
	.st4{fill:#ED786A;}
	.st5{fill:#212B53;}
	.st6{fill:#1A213F;}
	.st7{fill:#213461;}
	.st8{fill:#E24964;}
	.st9{fill:#E56C73;}
	.st10{fill:#FFFFFF;}
</style>
<g>
	<path id="Tracé_94" class="st0" d="M441.51,243.25c30.74,14.56,61.52,29.08,92.21,43.76c17,8.13,34.7,15.27,50.39,25.46
		c7.23,4.69,19.8,7.21,19.15,20.37c-3.39,1.84-6.79,3.69-10.18,5.53l-7.63,5.05c-4.25,2.06-8.49,4.11-12.73,6.16
		c-0.45-0.36-0.9-0.71-1.66-1.29l1.31,1.66l-7.57,11.5l-0.11,0.22c-0.38-0.45-1.05-0.51-1.5-0.13c-0.1,0.08-0.19,0.19-0.25,0.3
		l-62.16,35.6c-7.66,4.75-15.09,9.9-23.02,14.16c-33.88,18.2-67.35,37.52-107.19,41.46c5.05,14.34,20.19,2.77,27.22,12.59
		c-2.55,1.79-4.88,3.87-6.94,6.22c-0.63,1.83-0.43,3.85,0.53,5.53c1.01,1.13,2.52,1.69,4.02,1.48c11.65-2.52,23.73-4.03,34.78-8.22
		c28.83-10.95,56.71-24.04,80.81-43.87L568,391.72c1.61-0.82,3.28-1.55,4.82-2.49c15.85-9.69,31.44-19.84,47.59-29
		c14.62-8.28,15.66-7.55,25.38,5.92c2.41,3.34,5.49,6.2,9.62,10.8l0.47-9.98c7.08,6.33,6.51,13.22-1.59,17.35
		c0.1,0.99-0.14,2.27,0.36,3.08c10.3,16.95,9.91,15.76,30.08,9.03c10.82-3.53,22.36-4.22,33.52-2
		c26.54,5.76,50.18,19.24,72.31,34.55c20.12,13.92,39.16,29.45,58.18,44.88c6.91,6.32,13.42,13.05,19.51,20.17
		c1.19,1.25,2.5,2.38,3.91,3.37c11.3,7.84,22.51,15.81,34.01,23.34c4.06,2.66,9.23,3.63,13.23,6.39
		c15.36,10.63,30.69,21.31,45.4,32.82c3.07,2.4,4.48,8.21,4.81,12.59c1.58,21.35,5.95,25.26,29.63,22.61l-11.53,31.51
		c-1.25-1.03-0.03-0.02,2.72,2.25c-4.77,0.44-7.57,0.58-10.32,0.97c-5.71,0.82-14.56-1.02-8.92,9.98c-2.44,1.16-5.05,3.53-7.27,3.2
		c-4.06-1.01-7.99-2.46-11.72-4.34c10.07-6.58,19.74-13.91,30.34-19.48c6.61-3.47,9.82-8.07,5.5-13.28
		c-4.2-5.07-11.34-7.71-14.31-9.59c-4.62,5.71-9.53,11.18-14.71,16.38c-3.51,2.49-7.31,4.52-11.33,6.06
		c-7.05-0.97-15.4,0.14-20.89-3.32c-12.79-8.05-24.97-11.01-38.44-3.16c-7.65,4.45-18.75,4.06-22.88,15.57
		c2.96,0.82,5.84,1.93,8.58,3.31c0.42,0.25-0.99,3.55-1.56,5.42l-12.72,5.75l-9.59-11.09L796.5,661.3l6.01,5.74
		c-6.94,0.92-14.85-0.09-20.46,3.04c-47.52,26.5-94.55,53.86-141.98,80.54c-3.97,1.82-8.56,1.75-12.47-0.2
		c-17.1-11.1-34.02-22.54-50.3-34.81c-39.68-29.83-79-60.18-118.35-90.46c-2.35-1.81-5.77-5.68-5.17-7.3
		c2.54-6.77,4.79-15.98,10.11-18.91c13.54-7.43,18.11-20.26,24.55-32.27l57.07,35c-25.43-20.22-51.86-38.71-82.62-50
		c3.43-0.06,6.86,0.23,10.24,0.85c13.19,3.73,14.04,3.24,13.73-9.97l52.37,25.54l1.42-2.9c-19.76-9.49-39.52-18.98-59.27-28.47
		h22.42c-2.69-3.2-5.41-6.07-7.67-9.27c-0.72-1.6-1.15-3.31-1.28-5.06l2.17-0.42c1.1,1.4,1.91,3.41,3.36,4.09
		c15.96,7.52,32.02,14.85,48.06,22.2c1.94,0.89,3.95,1.59,5.94,2.38l0.88-1.92l-25.25-14.35l6.66-3.93l-8.79-11.01l0.86-0.97
		l-0.98,0.85c-6.28,1.9-15.4-4.65-18.65,6.27l-10.02-3.65l20.53-13.67c-9.68-12.32-17.24-7.61-25.93-2.34
		c-28.41,17.22-57.14,33.88-85.9,50.51c-17.87,10.33-36.48,19.48-53.82,30.61c-8.8,5.64-15.55,14.49-23.22,21.9l-6.2-3.62
		c0.92-1.78,2.78-3.67,2.63-5.35c-1.25-16.51-8.1-32.1-19.41-44.19c-10.01-10.62-20.37-21-31.35-30.59
		c-10.19-8.88,2.2-14.76,2.27-22.25c0.02-1.91,5.56-5.05,8.79-5.39c6.53,0.07,12.09-4.73,12.98-11.2
		c1.53-7.34,3.34-13.85,12.93-14.98c2.54-0.29,4.47-5.87,6.66-9.03c1.56-2.24,2.65-5.83,4.71-6.51c6.9-2.28,7.41-7.29,9-13.39
		c3.02-11.59,2.49-26.82,20.57-27.91c1.64-0.1,3.61-2.6,4.57-4.44c4.23-8.11,7.81-16.57,12.37-24.49c1.73-2.7,4.52-4.54,7.69-5.05
		c6.18-0.42,9.56-2.45,10.14-8.98c0.16-1.84,2.28-4.86,3.73-5.01c11.44-1.16,9.84-11.22,13.78-17.88
		c3.07-5.2,12.17-12.04,15.82-10.68c8.88,3.3,7.52-1.56,8.14-6.25l9.38,2.73l0.55-1.64l-52.49-25.26l19.18-2.98l-4.2-9.54
		c15.66,7.14,31.33,14.27,47,21.41c18.57,9.02,37.13,18.05,55.67,27.08l1.21-2.49c-16.66-8.29-33.27-16.69-50.04-24.75
		c-1.89-0.91-4.69,0.1-7.06,0.22c-4.41-7.54-42.92-24.9-51.22-23.09l-20.91-1.83c4.67,7.1,7.6,11.58,10.54,16.03l-46.01-20.74
		l7.46-5.84c8.17,12.59,10.12,12.97,19.98,4.94l-6.34-8.52l-26.16-8.66l0.4-3.47c10.91-4.2,20.89,1.09,30.9,6.01
		c9.39-5.93-0.49-11.11-0.67-16.66l179.77,84.64c-3.94-3.09-8.15-5.8-12.6-8.09c-33.28-16.34-66.6-32.61-99.96-48.81
		c7.5-6.58,13.19,2.91,18.92,3.55c0.19-4.06,0.15-8.12-0.11-12.17c-0.36-2.94-0.78-7.49-2.61-8.37
		C441.2,260.64,440.89,252.28,441.51,243.25z M822.81,549.96l5.18,3.5l1.18-1.61c-1.66-1.32-3.32-2.64-4.99-3.96l-52.21-40.59
		l-1.89,2.51L822.81,549.96z M744.54,552.12L698.08,517c-23.6-15.59-46.5-32.43-71.09-46.25c-13.33-7.49-29.45-10.91-43.59,2.07
		c-4.13,2.92-8.61,5.29-13.34,7.06c-0.23-14.49-9.81-7.95-17.32-8.35c2.68,11.28,10.42,8.88,17.32,8.36l-15.57,8.69l-4.75-3.99
		l-1.19,2.7l5.9,1.31c-10.77,6.98-21.55,13.96-33.35,21.6c4.88,1.51,9.66,3.32,14.31,5.42c20.92,11.19,41.7,22.64,62.53,34
		c10.03,7.42,20.08,14.8,30.07,22.27c26.18,19.54,52.35,39.1,78.49,58.67c3.9,3.83,8.17,7.25,12.75,10.22
		c3.5,1.84,9.23,3.32,12.21,1.69c23.09-12.68,45.77-26.12,68.51-39.42c2.03-1.49,3.9-3.18,5.6-5.04
		C784.81,582.4,764.67,567.26,744.54,552.12L744.54,552.12z M876.94,557.95c-0.76-1.05-1.62-2.01-2.59-2.87
		c-55.14-40.33-109.97-81.09-165.76-120.49c-10.8-7.63-25.38-9.91-38.22-14.66C749.29,451.32,807.43,513.14,876.94,557.95
		L876.94,557.95z M724.66,504.13c-30.49-24.07-61.69-46.87-100.87-55.35C659.71,462.68,693.63,481.29,724.66,504.13L724.66,504.13z
		 M648.36,432.59l-1.11,2.58l50.74,22.61l1.16-2.7L648.36,432.59z M392.93,427.9l-0.39-5.17c-6.43,0-12.85-0.16-19.25,0.21
		c-0.78,0.05-2.15,3.07-1.89,4.45c0.25,1.32,2.37,3.39,3.49,3.28C380.93,430.03,386.92,428.87,392.93,427.9z M636.86,672.68
		l1.98-2.2l-37.29-28.57l-1.78,2.36L636.86,672.68z M674.98,670.96l1.72-2.4l-34.95-25.98l-1.63,2.28L674.98,670.96z M622.03,599.74
		l1.61-2.22l-35.08-25.97l-1.69,2.35L622.03,599.74z M568.69,586.57l-1.95,2.29l35.41,26.28l1.61-2.22L568.69,586.57z
		 M518.51,493.46c2.04,3.55,3.3,5.77,4.86,8.52l10.32-7.77l-0.9-2.03L518.51,493.46z M540.36,532.11h-0.85v3.36h0.85V532.11z"/>
	<path id="Tracé_95" class="st1" d="M430.5,331.74c-0.61,4.69,0.75,9.55-8.14,6.25c-3.64-1.36-12.75,5.48-15.82,10.68
		c-3.94,6.67-2.34,16.73-13.78,17.88c-1.46,0.15-3.55,3.17-3.73,5.01c-0.57,6.53-3.95,8.56-10.14,8.98
		c-3.17,0.51-5.96,2.35-7.69,5.05c-4.54,7.92-8.14,16.38-12.37,24.49c-0.96,1.84-2.93,4.34-4.57,4.44
		c-18.07,1.09-17.55,16.34-20.57,27.91c-1.59,6.1-2.1,11.11-9,13.39c-2.06,0.68-3.15,4.26-4.71,6.51c-2.2,3.16-4.13,8.74-6.66,9.03
		c-9.59,1.12-11.4,7.64-12.93,14.98c-0.89,6.47-6.45,11.27-12.98,11.2c-3.24,0.36-8.78,3.48-8.79,5.39
		c-0.07,7.49-12.46,13.35-2.27,22.25c10.98,9.59,21.34,19.97,31.35,30.59c11.31,12.09,18.16,27.68,19.41,44.19
		c0.16,1.68-1.7,3.55-2.63,5.35l-32.9-8.4l-52.64-29.29l-9.42-4.37l0.16,0.17l-2.4-2.21l0.06,0.05l-15.5-8.91l0.06,0.1l-19.84-11.3
		l-0.03,0.21l-35.45-19.93l0.07,0.05l-6.81-2.35l-1.14-2.51l-3.2-1.78l0.07,0.07l-8.83-4.54l0.23,0.02l-35.2-20.2l-0.11,0.1
		l-7.06-1.71l-16.96-11.47c-19.03-14.98-44.21-20.68-60.42-39.93c6.65-5.2,11.28-12.57,13.07-20.82
		c1.99-10.3,9.59-16.75,19.24-21.81c22.55-11.83,44.64-24.59,66.61-37.49c21.44-12.59,42.38-26.02,63.74-38.74
		c22.78-13.56,45.75-26.81,68.72-40.03c16.86-9.71,35.05-17.59,50.54-29.12c19.42-14.45,42.27-22.34,62.13-35.76
		c4.37-2.95,13.5-1.93,19.03,0.49c20.71,9.06,40.85,19.45,61.19,29.33c-0.62,9.03-0.31,17.4,9.64,22.18
		c1.82,0.88,2.25,5.43,2.61,8.37c0.26,4.05,0.29,8.12,0.1,12.17c-5.73-0.63-11.42-10.11-18.92-3.55l-45-21.2l-8.69-3.95l-0.13,0.09
		l-23.5-16.65l-3.25,4.56l13.09,9.37l0.26,0.06c0.18,5.56,10.07,10.73,0.67,16.66c-10.03-4.92-20-10.21-30.9-6.01l-0.4,3.47
		l26.13,8.68l6.34,8.52c-9.86,8.03-11.79,7.65-19.98-4.94l-7.46,5.84l-20.64-8.85l-1.07,2.51l103.63,48.39l5.09,2.28l0.79-0.04
		L430.5,331.74z M391.06,336.81l1.01-2.9l-69.09-30.92l-1.24,2.8L391.06,336.81z M257.58,562.34l1.39-2.6l-39.74-21.59l-1.29,2.44
		L257.58,562.34z"/>
	<path id="Tracé_96" class="st2" d="M770.99,740.73l-12.43,8.79c-12.94,5.33-25.87,10.69-39.53,16.34l4.97,4.22l-0.78,0.58
		l-5.26,0.82l-28.41,17.96l-31.26,17.59l0.25,0.07c-3.83,2.09-7.66,4.19-11.48,6.29l-2.13,2.3l0.14-0.11
		c-3.02-0.82-5.96-1.89-8.8-3.2c-9.7-5.4-19.24-11.09-28.84-16.68c-1.34-1.65-2.86-3.14-4.55-4.43
		c-12.67-7.59-25.51-14.9-38.07-22.66c-1.32-0.82-1.16-4.03-1.68-6.13l8.96-0.09l-0.04-0.06l11.1,6.68l-0.07-0.06l6.71,4.44
		l-0.06-0.04l4.44,2.31l-0.05-0.06l10.89,6.75c6.02,3.07,11.78,6.63,17.21,10.66c10.66,9.23,19.35,5.33,29.66-1.16
		c22.27-14.06,45.31-26.89,68.04-40.22c12.66,3.47,18.91-4.35,24.24-13.77l-0.07,0.13c6.67,2.15,13.97-0.03,18.38-5.48
		c4.37-4.21,8.96-8.19,13.75-11.92l67.35-40.13l12.68-2.02c1.6,2.3-0.27,5.45-4.55,7.9c-23.4,13.39-46.98,26.5-70.04,40.46
		C776.94,729.66,768.24,731.34,770.99,740.73z"/>
	<path id="Tracé_97" class="st3" d="M770.98,740.72c-2.74-9.38,5.96-11.06,10.7-13.93c23.06-13.96,46.64-27.07,70.04-40.46
		c4.26-2.45,6.15-5.6,4.56-7.9c3.19-3.71,6.37-7.42,9.54-11.13l-0.06,0.09l11.1-6.7l-0.04,0.07l4.52-2.34l-0.13,0.12l6.71-4.43
		c4.22-2.75,8.33-5.68,12.68-8.22c15.63-9.1,31.34-18.07,47.01-27.09c4.01-1.54,7.82-3.57,11.33-6.06
		c5.19-5.2,10.1-10.67,14.71-16.38c2.97,1.89,10.12,4.52,14.31,9.59c4.32,5.22,1.12,9.81-5.49,13.28
		c-10.6,5.57-20.27,12.9-30.34,19.48l-4.41,2.51l-13.71,8.08l-0.06-0.05l-11.55,6.7c-0.52-0.1-1.04,0.2-1.2,0.71l-33.53,19.27v0.02
		l-33.64,19.83c-19.39,9.94-38.87,19.74-58.13,29.95C787.36,730.31,779.28,735.71,770.98,740.72z"/>
	<path id="Tracé_98" class="st4" d="M655.86,366.97l-0.47,9.98c-4.13-4.6-7.21-7.46-9.62-10.8c-9.72-13.47-10.76-14.21-25.38-5.92
		c-16.15,9.16-31.74,19.31-47.59,29c-1.54,0.94-3.2,1.66-4.82,2.49l-7.73-8.46l18.9-1.89c-5.48-7.6-9.94-13.76-14.38-19.91
		c2.53-3.83,5.05-7.66,7.58-11.5l0.36-0.36l12.73-6.17l7.63-5.05c3.39-1.85,6.79-3.69,10.18-5.53c20.98-6.85,37.29,0.67,47.67,22.12
		C652.81,358.85,654.23,362.98,655.86,366.97z M573.03,359.75l-0.58,1.93c3.92,0.96,7.93,1.56,11.96,1.78
		c1.02-0.02,1.98-3.85,3.38-6.8L573.03,359.75z"/>
	<path id="Tracé_99" class="st5" d="M291.6,596.92l32.9,8.4l6.2,3.62l10.23,6.99l11.1-9.46l0.5,0.71
		c-3.08,3.25-6.17,6.5-10.88,11.47c17.15,12.36,32.35,24.44,48.63,34.81c26.59,16.93,53.88,32.74,80.88,49.01l-20.66-4.18
		l-6.55-4.62l-1.42,2.88l7.76,1.98c3.19,2.64,6.38,5.29,9.57,7.94c5.68,4.7,11.37,9.39,17.05,14.08c-3.75-1.9-7.46-3.93-11.28-5.68
		c-7.31-3.34-14.69-6.52-22.02-9.76l0.15,0.09l-2.7-2.02l0.19,0.28l-8.75-4.93l0.17,0.14l-3.05-1.9
		c-6.69-3.91-13.43-7.71-20.06-11.72c-9.97-6.04-19.85-12.21-29.79-18.3c-5.4-3.31-10.85-6.54-16.28-9.79
		c-2.02-1.69-4.05-3.39-6.08-5.08c0.45-3.91,2.7-9.09,1.01-11.46c-5.41-7.59-11.05-16.48-18.85-20.55
		c-14.19-7.39-30.04-11.56-45.06-17.42C293.05,601.86,292.55,598.81,291.6,596.92z"/>
	<path id="Tracé_100" class="st5" d="M101.76,490.19l35.2,20.2l-21.62-4.69l-0.96,2.06l15.53,7.13l0.12,0.11
		c8.49,4.68,17,9.3,25.44,14.04c24.56,13.78,49.27,27.32,73.58,41.53c10.88,6.36,20.96,14.13,31.38,21.25
		c-2.33-0.02-4.65-0.36-6.89-0.98c-10.4-4.46-20.68-9.2-31-13.85l0.11,0.07l-7.7-4.39l-12.35-6.81c-0.77-1.54-1.12-3.79-2.37-4.5
		c-20.83-11.94-41.63-23.97-62.77-35.34c-9.51-5.11-19.76-8.84-29.67-13.2l0,0l-15.15-9.03l-22.22-13.44
		c1.07-0.95,2.49-2.92,3.2-2.7c9.94,3.09,19.8,6.48,29.69,9.79l2.96,3.33l0.71-0.71l-3.33-2.97
		C103.02,494.79,102.39,492.49,101.76,490.19z"/>
	<path id="Tracé_101" class="st5" d="M17.22,437.19c16.21,19.24,41.38,24.94,60.42,39.93l-14.37-2.6l2.59,9.56l-24.66-8.66
		l0.15,0.14c-8.07-5.37-15.98-11.01-24.25-16.04c-13.05-7.92-13.54-9.44-4.7-20.85L17.22,437.19z"/>
	<path id="Tracé_102" class="st5" d="M563.11,762.46c0.52,2.1,0.36,5.33,1.68,6.13c12.56,7.76,25.4,15.07,38.07,22.66
		c1.68,1.29,3.21,2.78,4.55,4.43l-19.87-4.7l-2.41-1.68l-22.42-13.26l0.2,0.2l-19.89-11.66l-13.4-8.29l1.78-1.92
		c10.59,2.73,21.18,5.45,31.78,8.17L563.11,762.46z"/>
	<path id="Tracé_103" class="st6" d="M357.42,651.85l6.08,5.09c-4.36-0.49-9.41,0.29-12.94-1.66c-20.74-11.46-41-23.76-61.7-35.29
		c-5.27-2.93-7.63-6.24-6.51-12.04l0.15-0.19c8.6,5.97,16.85,12.57,25.89,17.76C324.48,634.75,341.05,643.12,357.42,651.85z"/>
	<path id="Tracé_104" class="st6" d="M587.53,790.98l19.87,4.7c9.59,5.58,19.14,11.27,28.84,16.68c2.84,1.31,5.78,2.38,8.8,3.2
		c-4.54,5.08-9.07,5.45-15.03,1.57C616.08,808.07,601.73,799.65,587.53,790.98z"/>
	<path id="Tracé_105" class="st6" d="M107.8,512.84c9.91,4.36,20.16,8.08,29.67,13.2c21.14,11.37,41.94,23.4,62.77,35.34
		c1.24,0.71,1.6,2.96,2.37,4.5L107.8,512.84z"/>
	<path id="Tracé_106" class="st5" d="M529.61,756.28L488,731.54l0.21-0.18c5.01-0.26,11.45-2.63,14.78-0.39
		c9.88,7.28,19.37,15.09,28.41,23.38L529.61,756.28z"/>
	<path id="Tracé_107" class="st6" d="M222.52,577c10.3,4.65,20.6,9.38,31,13.85c2.24,0.63,4.56,0.96,6.89,0.98
		c3.33,2,6.89,3.56,10.61,4.66c6.06,0.45,10.91,5.21,11.47,11.26l-0.15,0.19c-1.55,0.23-3.51,1.19-4.59,0.59
		C259.29,598.15,240.93,587.55,222.52,577z"/>
	<path id="Tracé_108" class="st7" d="M65.86,484.07l-2.59-9.56l14.37,2.6l16.96,11.47l7.06,1.71l0.11-0.1
		c0.63,2.3,1.26,4.6,1.89,6.9l-0.36,0.36c-9.88-3.32-19.73-6.71-29.69-9.8c-0.71-0.22-2.1,1.75-3.18,2.7l-2.49,0.02l-0.71-2.31
		L65.86,484.07z"/>
	<path id="Tracé_109" class="st6" d="M12.41,438.68c-8.84,11.41-8.35,12.92,4.7,20.85c8.28,5.02,16.17,10.67,24.25,16.04
		c-9.85-5.26-19.94-10.11-29.42-15.96c-4.03-2.49-9.45-7.1-9.37-10.66S8.87,442.09,12.41,438.68z"/>
	<path id="Tracé_110" class="st0" d="M854.05,695.83L887.69,676C881.22,690.65,868.81,695.22,854.05,695.83z"/>
	<path id="Tracé_111" class="st7" d="M723.98,770.06l-4.97-4.22l39.53-16.34L723.98,770.06z"/>
	<path id="Tracé_112" class="st0" d="M887.69,675.97l33.53-19.27c-0.21,1.42,0.04,3.78-0.68,4.12
		C909.66,666.03,898.66,670.97,887.69,675.97z"/>
	<path id="Tracé_113" class="st6" d="M443.62,705.1c7.35,3.25,14.73,6.43,22.02,9.76c3.83,1.75,7.53,3.78,11.28,5.68
		c0.73,0.71,1.47,1.42,2.2,2.15l2.27,5.14L443.62,705.1z"/>
	<path id="Tracé_114" class="st5" d="M658.29,807l31.26-17.59L658.29,807z"/>
	<path id="Tracé_115" class="st6" d="M65.86,484.08c0.46,1.33,0.91,2.66,1.37,3.99c-0.65,0.2-1.3,0.4-1.95,0.63l-24.08-13.27
		L65.86,484.08z"/>
	<path id="Tracé_116" class="st6" d="M562.71,776.04l22.43,13.25L562.71,776.04z"/>
	<path id="Tracé_117" class="st5" d="M481.41,727.84l-2.27-5.14l12.72,2.33l-3.63,6.33l-0.21,0.18L481.41,727.84z"/>
	<path id="Tracé_118" class="st6" d="M543.02,764.57l19.89,11.66L543.02,764.57z"/>
	<path id="Tracé_119" class="st0" d="M934.03,649.33l13.71-8.08C947.2,650.77,940.43,649.73,934.03,649.33z"/>
	<path id="Tracé_120" class="st6" d="M92.65,503.8l15.15,9.03L92.65,503.8z"/>
	<path id="Tracé_121" class="st5" d="M647.06,813.36c3.83-2.1,7.65-4.19,11.48-6.29l-11.42,7.67
		C647.08,814.28,647.07,813.82,647.06,813.36z"/>
	<path id="Tracé_122" class="st0" d="M922.42,655.98l11.55-6.7L922.42,655.98z"/>
	<path id="Tracé_123" class="st6" d="M432.51,698.51l8.75,4.93L432.51,698.51z"/>
	<path id="Tracé_124" class="st6" d="M214.95,572.69l7.7,4.39L214.95,572.69z"/>
	<path id="Tracé_125" class="st7" d="M717.92,771.45l5.26-0.82L717.92,771.45z"/>
	<path id="Tracé_126" class="st6" d="M429.63,696.75l3.05,1.9L429.63,696.75z"/>
	<path id="Tracé_127" class="st6" d="M647.06,813.36c0,0.46,0.03,0.92,0.06,1.39l-2.21,0.92L647.06,813.36z"/>
	<path id="Tracé_128" class="st5" d="M65.29,488.69c0.65-0.22,1.3-0.42,1.95-0.63c0.22,0.77,0.46,1.54,0.69,2.31L65.29,488.69z"/>
	<path id="Tracé_129" class="st6" d="M441.07,703.16l2.7,2.02L441.07,703.16z"/>
	<path id="Tracé_130" class="st1" d="M471.18,702.47c-26.99-16.28-54.29-32.09-80.88-49.01c-16.29-10.37-31.49-22.45-48.63-34.81
		c4.71-4.97,7.8-8.22,10.88-11.47l-0.5-0.71l-11.1,9.46l-10.23-6.99c7.68-7.4,14.42-16.25,23.22-21.9
		c17.35-11.13,35.95-20.28,53.82-30.61c28.77-16.62,57.5-33.28,85.9-50.51c8.69-5.27,16.26-9.97,25.93,2.34l-20.53,13.67
		c-0.67,0.23-1.4,0.24-2.08,0.02l-2.17,0.42c0.12,1.75,0.56,3.47,1.28,5.06c2.26,3.2,4.97,6.08,7.67,9.27h-22.42l-8.61,1.25
		c2.49,7.5,7.75,7.06,13.65,4.73l0.44-0.14c0.31,13.21-0.54,13.7-13.73,9.97c-3.38-0.62-6.81-0.91-10.24-0.86l-0.16-0.14
		l-14.48-8.32l-1.59,3.14l4.3,2.02c1.52,1.42,2.8,3.4,4.62,4.2c10.89,4.84,21.91,9.41,32.89,14.08
		c-6.45,12.01-11.01,24.84-24.55,32.27c-5.33,2.92-7.57,12.14-10.11,18.91c-0.6,1.6,2.81,5.48,5.17,7.3
		c39.35,30.28,78.67,60.61,118.35,90.46c16.28,12.25,33.2,23.7,50.3,34.81c3.91,1.95,8.5,2.02,12.47,0.2
		c47.43-26.68,94.48-54.04,141.98-80.54c5.6-3.13,13.51-2.13,20.46-3.04l-6.01-5.74l53.66-29.98l9.59,11.09l-31.31,18.76l1.86,2.95
		l42.16-27.46c0.56-1.89,1.98-5.17,1.56-5.42c-2.75-1.38-5.62-2.48-8.58-3.31c4.13-11.5,15.23-11.12,22.88-15.57
		c13.47-7.85,25.66-4.88,38.44,3.16c5.49,3.46,13.85,2.35,20.89,3.32c-15.68,9.02-31.38,17.98-47.01,27.09
		c-4.35,2.53-8.46,5.47-12.68,8.22l-6.71,4.43l0.13-0.12l-4.52,2.34l0.03-0.07l-11.1,6.7l0.06-0.09l-22.23,13.14l-67.34,40.13
		l-32.15,17.4l0.08-0.13l-24.24,13.77c-22.73,13.33-45.76,26.17-68.04,40.22c-10.3,6.51-19.02,10.39-29.66,1.16
		c-5.43-4.02-11.19-7.59-17.21-10.66l-10.89-6.75l0.05,0.06l-4.44-2.31l0.06,0.04l-6.71-4.44l0.07,0.06l-11.1-6.68l0.04,0.06
		l-15.48-9.13v0.27l-15.93-8.52l-41.56-26.12L471.18,702.47z M630.77,785.81l1.67-2.33l-50.79-33.03l-1.45,2.26L630.77,785.81z
		 M912.33,631.35l3.01-5.1l-10.58-8.86c-1.07,3.13-3.91,8-2.89,9.05c3.16,2.27,6.7,3.94,10.46,4.93L912.33,631.35z M474.4,548.65
		l0.06,1.31l4.76-0.32l-0.04-0.99L474.4,548.65z"/>
	<path id="Tracé_131" class="st8" d="M570.06,479.89c4.73-1.78,9.21-4.15,13.34-7.07c14.14-12.98,30.26-9.56,43.59-2.07
		c24.6,13.82,47.49,30.67,71.09,46.25l-5.66,7.21c-11.6-3-22.92-3.74-34.15,2.15c-1.42,0.74-5.88-2.63-7.81-5
		c-3.47-4.3-5.01-11.37-9.28-13.6c-12.83-6.65-26.64-10.3-40.56-1.99l-0.31,0.13l-3.72,1.64c-10.18,5.98-12.67,16.11-4.62,22.49
		c4.51,3.58,10.92,4.76,16.47,7.03l28.87-0.81c-5.11,9.73-12.05,12.32-26.9,8.78c-5.73-1.37-10.06-1.69-12.49,4.62
		c-20.83-11.37-41.61-22.81-62.53-34c-4.65-2.1-9.43-3.91-14.31-5.42c11.8-7.64,22.58-14.62,33.35-21.6l0.04-0.02l15.57-8.69
		L570.06,479.89z"/>
	<path id="Tracé_132" class="st9" d="M597.93,549.64c2.43-6.3,6.75-5.98,12.49-4.62c14.85,3.55,21.79,0.96,26.91-8.78l0.71,0.17
		c5.06,0.29,10.13,0.58,15.19,0.86l0.52,4.18l-8.46,6.57l1.21,2.7h20.68c3.77,10.08-7.49,7.58-10.23,12.21
		c-8.07,6.04-0.94,9.65,2.86,11.86c8.96,5.21,22.19,0.18,22.25-7.65c-1.39-5.68-12.79-7.64-6.02-16.32l2.41-0.79
		c3.91-0.64,8.49-0.23,11.59-2.17c4.55-2.5,8.21-6.34,10.47-11.01c0.84-2.34-4.44-6.86-6.94-10.4l-1.17-2.23l5.66-7.21l46.46,35.11
		c-8.2,4.39-16.55,8.63-18.73,18.96l-15.98,0.84l-11.55,4.43c3.37,12.2,13.17,12.2,22.73,11.19c6.75-0.71,11.91-4.2,9.82-12.56
		c8.85,1.25,9.45,6.66,3.18,10.61c-12.45,7.83-22.27,22.23-40.18,18.32c-0.41-0.09-1.05,0.84-0.31,0.21l13.02,26.46
		c-26.17-19.56-52.33-39.12-78.49-58.67C618.01,564.45,607.96,557.06,597.93,549.64z"/>
	<path id="Tracé_133" class="st4" d="M706.52,630.58l-13.02-26.46c-0.73,0.63-0.1-0.3,0.31-0.21
		c17.91,3.91,27.73-10.49,40.18-18.32c6.27-3.95,5.68-9.36-3.18-10.62l0.07-0.07l-4.64-4l-0.44,0.18
		c2.17-10.34,10.53-14.56,18.73-18.96c20.14,15.14,40.27,30.28,61.05,45.9c-1.69,1.86-3.57,3.55-5.6,5.04
		c-22.73,13.32-45.42,26.76-68.51,39.42c-2.95,1.62-8.71,0.15-12.21-1.69C714.68,637.83,710.41,634.41,706.52,630.58z"/>
	<path id="Tracé_134" class="st8" d="M510.97,426.79c-24.1,19.84-51.98,32.92-80.81,43.87c-11.05,4.19-23.13,5.71-34.78,8.22
		c-1.5,0.2-3.01-0.35-4.02-1.48c-0.96-1.68-1.16-3.7-0.53-5.53c2.05-2.34,4.38-4.43,6.94-6.22c-7.03-9.82-22.17,1.75-27.22-12.59
		c39.84-3.94,73.3-23.26,107.19-41.46c7.92-4.26,15.36-9.41,23.02-14.16c-0.17,2.52,0.63,6-0.71,7.37
		c-5.32,4.87-10.89,9.45-16.69,13.73L510.97,426.79z"/>
	<path id="Tracé_135" class="st9" d="M510.97,426.78l-27.64-8.24c5.8-4.28,11.38-8.86,16.69-13.73c1.35-1.37,0.54-4.86,0.71-7.37
		l62.16-35.6l1.2,1.57l0.55-1.74l0.11-0.22c4.44,6.16,8.88,12.32,14.37,19.91l-18.9,1.89l7.73,8.46L510.97,426.78z"/>
	<path id="Tracé_136" class="st6" d="M876.94,557.96c-69.5-44.83-127.65-106.63-206.56-138.02c12.84,4.75,27.42,7.03,38.22,14.66
		c55.79,39.4,110.62,80.17,165.76,120.49C875.32,555.95,876.18,556.91,876.94,557.96z"/>
	<path id="Tracé_137" class="st6" d="M389.94,261.23l45,21.2c33.33,16.26,66.65,32.53,99.96,48.81c4.44,2.3,8.66,5.01,12.6,8.09
		l-179.77-84.64l-0.26-0.06c-0.29-0.57-0.54-1.16-0.73-1.78c-0.06-0.22,0.4-0.81,0.46-0.8c4.65,1.75,9.28,3.55,13.91,5.33l0.13-0.1
		L389.94,261.23z"/>
	<path id="Tracé_138" class="st6" d="M430.5,331.74l-0.59-0.53l-0.79,0.04l-5.09-2.28L320.4,280.58l1.07-2.51l20.64,8.85
		l46.01,20.74l-0.2-0.09l52.5,25.26l-0.55,1.64L430.5,331.74z"/>
	<path id="Tracé_139" class="st6" d="M724.65,504.13c-31.02-22.84-64.94-41.45-100.87-55.35
		C662.96,457.26,694.16,480.05,724.65,504.13z"/>
	<path id="Tracé_140" class="st6" d="M488.4,566.67c-10.98-4.66-22-9.23-32.89-14.08c-1.8-0.8-3.08-2.77-4.62-4.2l11.78,3.14
		l0.16,0.14c30.75,11.28,57.18,29.78,82.62,50L488.4,566.67z"/>
	<path id="Tracé_141" class="st1" d="M388.13,307.66c-2.94-4.46-5.87-8.92-10.54-16.03l20.91,1.84c0.4-0.18,0.87,0,1.05,0.4
		c0.03,0.07,0.05,0.14,0.06,0.22l2.95,0.99l0.36-0.02l4.2,9.54l-19.18,2.98L388.13,307.66z"/>
	<path id="Tracé_142" class="st6" d="M472.74,537.96l8.61-1.25c19.76,9.5,39.51,18.99,59.27,28.47l-1.42,2.9l-52.37-25.54
		l-0.44,0.15C481.83,541.13,477.28,539.55,472.74,537.96z"/>
	<path id="Tracé_143" class="st1" d="M509.08,525.59c3.25-10.92,12.37-4.37,18.65-6.27l0.12,0.12l8.79,11.01l-6.66,3.93
		l-17.73-8.25l-2.7-0.59L509.08,525.59z"/>
	<path id="Tracé_144" class="st6" d="M822.8,549.97l-52.75-40.13l1.89-2.51l52.21,40.59L822.8,549.97z"/>
	<path id="Tracé_145" class="st6" d="M512.25,526.13l17.73,8.25l25.25,14.35l-0.88,1.92c-1.99-0.79-4-1.5-5.94-2.38
		c-16.05-7.35-32.1-14.68-48.07-22.2c-1.44-0.68-2.25-2.7-3.36-4.09c0.68,0.21,1.41,0.21,2.08-0.02l10.02,3.65l0.47-0.07
		L512.25,526.13z"/>
	<path id="Tracé_146" class="st6" d="M399.61,294.08c-0.06-0.43-0.46-0.74-0.89-0.68c-0.08,0.01-0.15,0.03-0.22,0.06
		c8.3-1.81,46.8,15.55,51.22,23.09l0.2-0.07l-46.99-21.42l-0.36,0.02C401.57,294.75,400.59,294.41,399.61,294.08z"/>
	<path id="Tracé_147" class="st6" d="M449.72,316.55c2.38-0.12,5.18-1.13,7.06-0.22c16.77,8.06,33.39,16.45,50.04,24.75l-1.21,2.49
		c-18.55-9.03-37.11-18.06-55.67-27.08L449.72,316.55z"/>
	<path id="Tracé_148" class="st6" d="M648.35,432.59l50.79,22.48l-1.17,2.7l-50.74-22.61L648.35,432.59z"/>
	<path id="Tracé_149" class="st1" d="M392.93,427.89c-6.01,0.98-12,2.16-18.05,2.76c-1.12,0.11-3.24-1.96-3.49-3.28
		c-0.26-1.39,1.11-4.4,1.89-4.45c6.39-0.36,12.83-0.21,19.25-0.21L392.93,427.89z"/>
	<path id="Tracé_150" class="st6" d="M636.86,672.67l-37.09-28.41l1.78-2.36l37.29,28.57L636.86,672.67z"/>
	<path id="Tracé_151" class="st6" d="M674.98,670.95l-34.85-26.1l1.63-2.28l34.95,25.98L674.98,670.95z"/>
	<path id="Tracé_152" class="st6" d="M872.44,636.63l-42.16,27.46l-1.86-2.95l31.31-18.76L872.44,636.63z"/>
	<path id="Tracé_153" class="st6" d="M622.03,599.73l-35.16-25.85l1.69-2.35l35.08,25.97L622.03,599.73z"/>
	<path id="Tracé_154" class="st6" d="M568.69,586.56l35.08,26.34l-1.61,2.22l-35.41-26.28L568.69,586.56z"/>
	<path id="Tracé_155" class="st1" d="M570.05,479.9c-6.9,0.52-14.64,2.93-17.32-8.36c7.51,0.4,17.08-6.14,17.32,8.35V479.9z"/>
	<path id="Tracé_156" class="st1" d="M518.52,493.45l14.29-1.27l0.9,2.02l-10.32,7.77C521.81,499.21,520.55,497.02,518.52,493.45z"
		/>
	<path id="Tracé_157" class="st1" d="M554.45,488.62l-5.9-1.31l1.19-2.7c1.58,1.33,3.17,2.66,4.75,3.99L554.45,488.62z"/>
	<path id="Tracé_158" class="st6" d="M824.17,547.9c1.66,1.32,3.32,2.64,4.99,3.96l-1.18,1.61l-5.18-3.5L824.17,547.9z"/>
	<path id="Tracé_159" class="st10" d="M593.07,338.37l-7.63,5.05C587.98,341.74,590.53,340.05,593.07,338.37z"/>
	<path id="Tracé_160" class="st1" d="M540.36,532.1v3.36h-0.85v-3.36H540.36z"/>
	<path id="Tracé_161" class="st1" d="M527.72,519.32l0.98-0.85l-0.86,0.97L527.72,519.32z"/>
	<path id="Tracé_162" class="st10" d="M572.35,349.95l-1.31-1.66c0.77,0.6,1.21,0.95,1.66,1.29L572.35,349.95z"/>
	<path id="Tracé_163" class="st4" d="M564.67,361.67l-0.55,1.74l-1.2-1.57c0.28-0.52,0.93-0.7,1.45-0.42
		C564.48,361.48,564.58,361.57,564.67,361.67z"/>
	<path id="Tracé_164" class="st2" d="M282.5,607.77c-0.56-6.05-5.41-10.81-11.47-11.26c-3.72-1.1-7.28-2.67-10.61-4.66
		c-10.44-7.12-20.5-14.89-31.38-21.25c-24.31-14.21-49.01-27.76-73.58-41.53c-8.45-4.74-16.96-9.37-25.44-14.04l0.91-1.07
		l-1.03,0.95l-15.53-7.13l0.96-2.06l21.62,4.69l-0.23-0.02l8.83,4.54l-0.07-0.07l3.2,1.78l1.14,2.51l6.81,2.35l-0.07-0.05
		c10.22,9.49,20.76,18.4,35.45,19.93l0.03-0.21c3.08,9.97,12.43,8.95,19.84,11.3l-0.06-0.1l15.5,8.91l-0.06-0.05l2.4,2.21
		l-0.16-0.17l9.42,4.37c17.55,9.76,35.09,19.53,52.65,29.29c0.95,1.89,1.45,4.94,2.92,5.51c15.02,5.86,30.88,10.03,45.06,17.42
		c7.81,4.06,13.44,12.96,18.85,20.55c1.69,2.38-0.56,7.56-1.01,11.46c-16.37-8.74-32.94-17.11-49.01-26.34
		C299.35,620.33,291.1,613.73,282.5,607.77z"/>
	<path id="Tracé_165" class="st6" d="M391.06,336.8l-69.33-31.02l1.24-2.79l69.09,30.92L391.06,336.8z"/>
	<path id="Tracé_166" class="st6" d="M257.58,562.33l-39.64-21.73l1.29-2.44l39.74,21.58L257.58,562.33z"/>
	<path id="Tracé_167" class="st0" d="M381.12,257.38c-4.62-1.78-9.26-3.58-13.91-5.33c-0.06-0.02-0.52,0.57-0.46,0.8
		c0.19,0.61,0.43,1.21,0.73,1.78l-13.09-9.37l3.25-4.56L381.12,257.38z"/>
	<path id="Tracé_168" class="st5" d="M192.02,541.35c-14.69-1.53-25.24-10.43-35.45-19.93L192.02,541.35z"/>
	<path id="Tracé_169" class="st5" d="M211.9,552.44c-7.42-2.35-16.76-1.33-19.84-11.3L211.9,552.44z"/>
	<path id="Tracé_170" class="st5" d="M227.35,561.26l-15.5-8.91L227.35,561.26z"/>
	<path id="Tracé_171" class="st0" d="M389.93,261.23l-8.69-3.95C384.14,258.61,387.04,259.92,389.93,261.23z"/>
	<path id="Tracé_172" class="st5" d="M238.95,567.62l-9.42-4.37L238.95,567.62z"/>
	<path id="Tracé_173" class="st5" d="M145.56,514.91l-8.83-4.54L145.56,514.91z"/>
	<path id="Tracé_174" class="st5" d="M156.65,521.47l-6.81-2.35L156.65,521.47z"/>
	<path id="Tracé_175" class="st5" d="M101.65,490.3l-7.06-1.71L101.65,490.3z"/>
	<path id="Tracé_176" class="st0" d="M424.03,328.97l5.09,2.28L424.03,328.97z"/>
	<path id="Tracé_177" class="st5" d="M148.69,516.61l-3.2-1.78L148.69,516.61z"/>
	<path id="Tracé_178" class="st5" d="M229.69,563.42l-2.4-2.21L229.69,563.42z"/>
	<path id="Tracé_179" class="st7" d="M744.09,737.99c10.72-5.8,21.43-11.6,32.15-17.4c-4.79,3.73-9.39,7.7-13.76,11.92
		C758.07,737.96,750.76,740.14,744.09,737.99z"/>
	<path id="Tracé_180" class="st7" d="M719.93,751.63l24.24-13.77C738.84,747.28,732.59,755.1,719.93,751.63z"/>
	<path id="Tracé_181" class="st7" d="M843.58,680.44l22.23-13.14c-3.18,3.71-6.36,7.42-9.54,11.13L843.58,680.44z"/>
	<path id="Tracé_182" class="st5" d="M556.62,753.26l15.48,9.13l-8.99,0.06l0.08,0.07L556.62,753.26z"/>
	<path id="Tracé_183" class="st5" d="M572.07,762.34l11.1,6.68L572.07,762.34z"/>
	<path id="Tracé_184" class="st5" d="M594.14,775.61l10.89,6.75L594.14,775.61z"/>
	<path id="Tracé_185" class="st5" d="M583.09,768.96l6.71,4.44L583.09,768.96z"/>
	<path id="Tracé_186" class="st5" d="M589.74,773.36l4.44,2.31L589.74,773.36z"/>
	<path id="Tracé_187" class="st7" d="M865.76,667.38l11.1-6.7L865.76,667.38z"/>
	<path id="Tracé_188" class="st7" d="M881.22,658.56l6.71-4.43L881.22,658.56z"/>
	<path id="Tracé_189" class="st7" d="M876.83,660.76l4.52-2.34L876.83,660.76z"/>
	<path id="Tracé_190" class="st9" d="M573.04,359.75l14.76-3.11c-1.4,2.94-2.35,6.78-3.38,6.8c-4.03-0.22-8.04-0.81-11.96-1.78
		L573.04,359.75z"/>
	<path id="Tracé_191" class="st7" d="M471.17,702.47l27.96,16.42c-2.43,2.04-4.85,4.08-7.28,6.12l-12.72-2.33
		c-0.73-0.71-1.46-1.42-2.2-2.15c-5.68-4.69-11.37-9.39-17.05-14.08c-3.19-2.64-6.38-5.29-9.57-7.94l0.2-0.23L471.17,702.47z"/>
	<path id="Tracé_192" class="st7" d="M450.31,698.52l-7.76-1.98l1.42-2.88l6.55,4.62L450.31,698.52z"/>
	<path id="Tracé_193" class="st7" d="M103.65,497.09l3.33,2.97l-0.71,0.71l-2.96-3.33L103.65,497.09z"/>
	<path id="Tracé_194" class="st2" d="M491.86,725.02c2.42-2.05,4.85-4.09,7.28-6.12l41.57,26.12c5.31,2.84,10.62,5.68,15.93,8.52
		v-0.27l6.57,9.27c-10.6-2.72-21.19-5.45-31.78-8.17c-9.04-8.3-18.52-16.11-28.4-23.4c-3.32-2.24-9.76,0.13-14.78,0.39
		L491.86,725.02z"/>
	<path id="Tracé_195" class="st6" d="M630.77,785.82l-50.56-33.12l1.45-2.26l50.79,33.03L630.77,785.82z"/>
	<path id="Tracé_196" class="st0" d="M912.33,631.37c-3.76-0.98-7.3-2.64-10.46-4.91c-1.03-1.07,1.81-5.92,2.89-9.05l10.58,8.86
		L912.33,631.37z"/>
	<path id="Tracé_197" class="st0" d="M462.69,551.53l-11.78-3.14c-1.42-0.67-2.85-1.35-4.3-2.02l1.59-3.14L462.69,551.53z"/>
	<path id="Tracé_198" class="st5" d="M556.63,753.53c-5.31-2.84-10.62-5.68-15.93-8.52L556.63,753.53z"/>
	<path id="Tracé_199" class="st0" d="M472.74,537.96c4.55,1.58,9.1,3.16,13.65,4.74C480.48,545.02,475.23,545.46,472.74,537.96z"/>
	<path id="Tracé_200" class="st0" d="M474.4,548.67h4.78l0.04,0.99l-4.76,0.32L474.4,548.67z"/>
	<path id="Tracé_201" class="st3" d="M608.46,537.06c-5.56-2.26-11.96-3.45-16.47-7.03c-8.05-6.39-5.56-16.51,4.62-22.49l3.73-1.65
		l0.3-0.12c11.03,1,22.78-2.22,32.47,6.41c3.62,2.7,7.49,5.06,11.55,7.03c-3.59,4.1-6.42,10.02-10.94,11.9
		C625.84,534.42,616.92,535.22,608.46,537.06z"/>
	<path id="Tracé_202" class="st7" d="M608.46,537.06c8.47-1.84,17.39-2.65,25.26-5.93c4.52-1.89,7.35-7.81,10.94-11.9
		c-4.06-1.98-7.93-4.33-11.55-7.03c-9.69-8.64-21.44-5.42-32.47-6.41c13.94-8.3,27.74-4.66,40.56,1.99
		c4.26,2.21,5.81,9.29,9.28,13.6c1.92,2.38,6.39,5.74,7.81,5c11.23-5.89,22.54-5.15,34.14-2.15c0.39,0.74,0.78,1.49,1.16,2.23
		c-0.25,0.71-0.5,1.4-0.75,2.1c-8.78-1.61-17.28-7.52-26.52-0.43c-3.85,2.16-7.99,3.77-12.29,4.77c-6.75-5.33-11.17,0-15.98,3.55
		l-0.71-0.16L608.46,537.06z"/>
	<path id="Tracé_203" class="st7" d="M600.33,505.89l-3.73,1.65C597.85,507,599.09,506.45,600.33,505.89z"/>
	<path id="Tracé_204" class="st2" d="M654.02,532.88c4.3-1,8.44-2.61,12.29-4.77c9.23-7.09,17.74-1.18,26.53,0.43
		c2.03,8.3,1.45,14.83-9.31,16c-1.86,0.21-3.38,3.59-5.06,5.5c-0.8,0.26-1.61,0.53-2.41,0.78l-5.83-0.39l-3.2-0.43
		c-4.43-2.84-8.85-5.69-13.27-8.55c-0.18-1.4-0.36-2.79-0.52-4.19L654.02,532.88z"/>
	<path id="Tracé_205" class="st2" d="M682.07,567.15c-0.06,7.81-13.29,12.86-22.25,7.65c-3.8-2.2-10.93-5.8-2.87-11.85
		C665.32,564.36,673.69,565.76,682.07,567.15z"/>
	<path id="Tracé_206" class="st6" d="M709.83,571.92l15.98-0.84l0.44-0.18c1.55,1.33,3.09,2.66,4.62,4l-0.07,0.07
		c2.08,8.36-3.08,11.85-9.82,12.56c-9.54,1.01-19.34,1.01-22.73-11.18c2.27,0.81,5.51,0.93,6.67,2.54c6.29,8.74,13.1,6.49,21.42-1.1
		L709.83,571.92z"/>
	<path id="Tracé_207" class="st7" d="M709.83,571.92l16.54,5.87c-8.32,7.59-15.13,9.85-21.42,1.1c-1.16-1.61-4.39-1.73-6.67-2.54
		C702.13,574.87,705.98,573.39,709.83,571.92z"/>
	<path id="Tracé_208" class="st5" d="M678.47,550.04c1.68-1.91,3.2-5.3,5.06-5.5c10.77-1.18,11.34-7.7,9.31-16
		c0.24-0.69,0.48-1.39,0.74-2.1c2.51,3.55,7.79,8.07,6.95,10.4c-2.27,4.67-5.93,8.51-10.47,11.01
		C686.95,549.81,682.38,549.41,678.47,550.04z"/>
	<path id="Tracé_209" class="st5" d="M682.07,567.15c-8.37-1.4-16.75-2.8-25.11-4.2c2.75-4.64,14-2.13,10.23-12.22l-0.03-0.36
		l3.07,0.06l5.83,0.39C669.28,559.51,680.68,561.48,682.07,567.15z"/>
	<path id="Tracé_210" class="st8" d="M653.76,541.46c4.43,2.84,8.85,5.69,13.27,8.54l0.13,0.38l0.03,0.36h-20.68l-1.21-2.7
		L653.76,541.46z"/>
	<path id="Tracé_211" class="st8" d="M654.02,532.88l-0.78,4.39c-5.06-0.28-10.13-0.57-15.19-0.85
		C642.85,532.87,647.26,527.57,654.02,532.88z"/>
	<path id="Tracé_212" class="st9" d="M730.88,574.91c-1.55-1.34-3.09-2.67-4.62-4L730.88,574.91z"/>
	<path id="Tracé_213" class="st0" d="M399.61,294.08c0.98,0.33,1.96,0.67,2.95,1C401.57,294.74,400.59,294.41,399.61,294.08z"/>
	<path id="Tracé_214" class="st0" d="M512.24,526.14l-2.7-0.6C510.44,525.73,511.35,525.93,512.24,526.14z"/>
	<path id="Tracé_215" class="st5" d="M129.9,514.9l1.03-0.95l-0.91,1.07L129.9,514.9z"/>
	<path id="Tracé_216" class="st9" d="M667.16,550.38l-0.13-0.38l3.2,0.44L667.16,550.38z"/>
</g>
</svg>
